G04 #@! TF.FileFunction,Copper,L1,Top,Signal*
%FSLAX46Y46*%
G04 Gerber Fmt 4.6, Leading zero omitted, Abs format (unit mm)*
G04 Created by KiCad (PCBNEW 4.0.6) date Wednesday, 03 January 2018 'PMt' 19:42:02*
%MOMM*%
%LPD*%
G01*
G04 APERTURE LIST*
%ADD10C,0.100000*%
%ADD11R,2.000000X6.000000*%
%ADD12R,1.600000X2.000000*%
%ADD13R,3.500120X3.500120*%
%ADD14C,1.470000*%
%ADD15C,1.998980*%
%ADD16O,3.100000X4.100000*%
%ADD17R,1.700000X2.000000*%
%ADD18R,2.000000X1.700000*%
%ADD19C,1.524000*%
%ADD20R,1.727200X2.032000*%
%ADD21O,1.727200X2.032000*%
%ADD22O,2.500000X0.900000*%
%ADD23O,0.900000X2.500000*%
%ADD24R,6.000000X6.000000*%
%ADD25R,1.900000X0.800000*%
%ADD26R,0.800000X1.900000*%
%ADD27R,1.500000X0.600000*%
%ADD28C,0.600000*%
%ADD29C,0.250000*%
%ADD30C,1.470000*%
%ADD31C,3.000000*%
%ADD32C,0.254000*%
G04 APERTURE END LIST*
D10*
D11*
X146305000Y-160020000D03*
X138385000Y-160020000D03*
X134425000Y-160020000D03*
X130465000Y-160020000D03*
X126505000Y-160020000D03*
X122545000Y-160020000D03*
X118585000Y-160020000D03*
X142345000Y-160020000D03*
X114625000Y-160020000D03*
X106705000Y-160020000D03*
X102745000Y-160020000D03*
X98785000Y-160020000D03*
X110665000Y-160020000D03*
X170065000Y-160020000D03*
X166105000Y-160020000D03*
X158185000Y-160020000D03*
X174025000Y-160020000D03*
X162145000Y-160020000D03*
X150265000Y-160020000D03*
X154225000Y-160020000D03*
X193825000Y-160020000D03*
X189865000Y-160020000D03*
X181945000Y-160020000D03*
X185905000Y-160020000D03*
X177985000Y-160020000D03*
X197785000Y-160020000D03*
X94825000Y-160020000D03*
X201745000Y-160020000D03*
D12*
X158750000Y-153130000D03*
X158750000Y-149130000D03*
X155575000Y-153130000D03*
X155575000Y-149130000D03*
X148844000Y-153130000D03*
X148844000Y-149130000D03*
D13*
X190675260Y-145669000D03*
X196674740Y-145669000D03*
X193675000Y-140970000D03*
D14*
X184785000Y-153670000D03*
X183085000Y-153670000D03*
X186485000Y-153670000D03*
X188185000Y-153670000D03*
X181385000Y-153670000D03*
D15*
X144950180Y-142240000D03*
X146855180Y-137160000D03*
X148760180Y-142240000D03*
X150665180Y-137160000D03*
X152570180Y-142240000D03*
X154475180Y-137160000D03*
X156380180Y-142240000D03*
X158285180Y-137160000D03*
X160190180Y-142240000D03*
X162095180Y-137160000D03*
X164000180Y-142240000D03*
X165905180Y-137160000D03*
X167810180Y-142240000D03*
X169715180Y-137160000D03*
X171620180Y-142240000D03*
X173525180Y-137160000D03*
X175430180Y-142240000D03*
X177335180Y-137160000D03*
X179240180Y-142240000D03*
X181145180Y-137160000D03*
X183050180Y-142240000D03*
D16*
X137500360Y-135161020D03*
X190500000Y-135161020D03*
D17*
X174625000Y-149035000D03*
X174625000Y-153035000D03*
X161925000Y-149035000D03*
X161925000Y-153035000D03*
X152400000Y-149130000D03*
X152400000Y-153130000D03*
X145796000Y-149130000D03*
X145796000Y-153130000D03*
X166370000Y-149130000D03*
X166370000Y-153130000D03*
X170815000Y-149130000D03*
X170815000Y-153130000D03*
D18*
X202025000Y-128270000D03*
X198025000Y-128270000D03*
D19*
X198120000Y-135890000D03*
X195580000Y-135890000D03*
X200660000Y-135890000D03*
D18*
X202025000Y-131445000D03*
X198025000Y-131445000D03*
D17*
X177800000Y-153035000D03*
X177800000Y-149035000D03*
D20*
X131080000Y-128000000D03*
D21*
X128540000Y-128000000D03*
X126000000Y-128000000D03*
X123460000Y-128000000D03*
X120920000Y-128000000D03*
X118380000Y-128000000D03*
D22*
X112800000Y-127800000D03*
X112800000Y-129070000D03*
X112800000Y-130340000D03*
X112800000Y-131610000D03*
X112800000Y-132880000D03*
X112800000Y-134150000D03*
X112800000Y-135420000D03*
X112800000Y-136690000D03*
X112800000Y-137960000D03*
X112800000Y-139230000D03*
X112800000Y-140500000D03*
X112800000Y-141770000D03*
X112800000Y-143040000D03*
X112800000Y-144310000D03*
D23*
X109515000Y-145800000D03*
X108245000Y-145800000D03*
X106975000Y-145800000D03*
X105705000Y-145800000D03*
X104435000Y-145800000D03*
X103165000Y-145800000D03*
X101895000Y-145800000D03*
X100625000Y-145800000D03*
X99355000Y-145800000D03*
X98085000Y-145800000D03*
D22*
X94800000Y-144310000D03*
X94800000Y-143040000D03*
X94800000Y-141770000D03*
X94800000Y-140500000D03*
X94800000Y-139230000D03*
X94800000Y-137960000D03*
X94800000Y-136690000D03*
X94800000Y-135420000D03*
X94800000Y-134150000D03*
X94800000Y-132880000D03*
X94800000Y-131610000D03*
X94800000Y-130340000D03*
X94800000Y-129070000D03*
X94800000Y-127800000D03*
D24*
X103500000Y-135500000D03*
D25*
X139250000Y-145300000D03*
X139250000Y-147200000D03*
X142250000Y-146250000D03*
D26*
X143200000Y-151000000D03*
X141300000Y-151000000D03*
X142250000Y-154000000D03*
X135400000Y-151000000D03*
X133500000Y-151000000D03*
X134450000Y-154000000D03*
X127450000Y-151000000D03*
X125550000Y-151000000D03*
X126500000Y-154000000D03*
X119450000Y-151000000D03*
X117550000Y-151000000D03*
X118500000Y-154000000D03*
X111450000Y-151000000D03*
X109550000Y-151000000D03*
X110500000Y-154000000D03*
X139200000Y-151000000D03*
X137300000Y-151000000D03*
X138250000Y-154000000D03*
X131450000Y-151000000D03*
X129550000Y-151000000D03*
X130500000Y-154000000D03*
X123400000Y-151000000D03*
X121500000Y-151000000D03*
X122450000Y-154000000D03*
X115450000Y-151000000D03*
X113550000Y-151000000D03*
X114500000Y-154000000D03*
X107450000Y-151000000D03*
X105550000Y-151000000D03*
X106500000Y-154000000D03*
D17*
X136500000Y-147250000D03*
X136500000Y-143250000D03*
X133500000Y-147250000D03*
X133500000Y-143250000D03*
X130500000Y-147250000D03*
X130500000Y-143250000D03*
X127250000Y-147250000D03*
X127250000Y-143250000D03*
X124250000Y-147250000D03*
X124250000Y-143250000D03*
X121250000Y-147250000D03*
X121250000Y-143250000D03*
X118250000Y-147250000D03*
X118250000Y-143250000D03*
X94750000Y-150250000D03*
X94750000Y-154250000D03*
X97500000Y-150250000D03*
X97500000Y-154250000D03*
X100250000Y-150250000D03*
X100250000Y-154250000D03*
X103000000Y-150250000D03*
X103000000Y-154250000D03*
D27*
X133200000Y-139945000D03*
X133200000Y-138675000D03*
X133200000Y-137405000D03*
X133200000Y-136135000D03*
X133200000Y-134865000D03*
X133200000Y-133595000D03*
X133200000Y-132325000D03*
X133200000Y-131055000D03*
X127800000Y-131055000D03*
X127800000Y-132325000D03*
X127800000Y-133595000D03*
X127800000Y-134865000D03*
X127800000Y-136135000D03*
X127800000Y-137405000D03*
X127800000Y-138675000D03*
X127800000Y-139945000D03*
X123200000Y-139945000D03*
X123200000Y-138675000D03*
X123200000Y-137405000D03*
X123200000Y-136135000D03*
X123200000Y-134865000D03*
X123200000Y-133595000D03*
X123200000Y-132325000D03*
X123200000Y-131055000D03*
X117800000Y-131055000D03*
X117800000Y-132325000D03*
X117800000Y-133595000D03*
X117800000Y-134865000D03*
X117800000Y-136135000D03*
X117800000Y-137405000D03*
X117800000Y-138675000D03*
X117800000Y-139945000D03*
D28*
X156210000Y-160020000D03*
X141250000Y-148750000D03*
X96750000Y-156250000D03*
X99050000Y-127800000D03*
X97000000Y-146500000D03*
X99750000Y-136500000D03*
X170180000Y-145415000D03*
X150495000Y-156210000D03*
X150495000Y-144780000D03*
X180340000Y-151130000D03*
X186055000Y-149225000D03*
X186055000Y-138430000D03*
X184150000Y-160020000D03*
X172260000Y-156035000D03*
X164465000Y-146685000D03*
X192405000Y-128270000D03*
X138000000Y-128250000D03*
X140250000Y-130500000D03*
X129500000Y-139674990D03*
X101500000Y-128750000D03*
X109000000Y-134750000D03*
X125000000Y-137250000D03*
X97250000Y-129250000D03*
X97250000Y-143000000D03*
X98000000Y-141500000D03*
X129500000Y-137250000D03*
X108458059Y-130091944D03*
X108500000Y-129250000D03*
X108491115Y-131008885D03*
X107500000Y-136000000D03*
X126000000Y-138750000D03*
X134750000Y-138750000D03*
X134750000Y-140000000D03*
X97500000Y-152250000D03*
X115250000Y-141375000D03*
X100250000Y-152250000D03*
X118000000Y-141250000D03*
X103000000Y-152250000D03*
X116000000Y-137500000D03*
X125500000Y-135750000D03*
X121500000Y-135250000D03*
X120625000Y-134000000D03*
X120750000Y-132000000D03*
X119250000Y-131000000D03*
X119250000Y-137500000D03*
X115750000Y-131750000D03*
D29*
X158185000Y-160020000D02*
X158185000Y-153695000D01*
X158185000Y-153695000D02*
X158750000Y-153130000D01*
X158750000Y-149130000D02*
X158750000Y-149330000D01*
X158750000Y-149330000D02*
X161925000Y-152505000D01*
X161925000Y-152505000D02*
X161925000Y-153035000D01*
X156210000Y-153965000D02*
X156210000Y-160020000D01*
X155575000Y-153130000D02*
X155575000Y-153330000D01*
X155575000Y-153330000D02*
X156210000Y-153965000D01*
X155575000Y-149130000D02*
X155575000Y-149805000D01*
X155575000Y-149805000D02*
X152400000Y-152980000D01*
X152400000Y-152980000D02*
X152400000Y-153130000D01*
X149733000Y-155575000D02*
X148844000Y-154686000D01*
X148844000Y-154686000D02*
X148844000Y-153130000D01*
X153030000Y-155575000D02*
X149733000Y-155575000D01*
X154225000Y-160020000D02*
X154225000Y-156770000D01*
X154225000Y-156770000D02*
X153030000Y-155575000D01*
X148844000Y-149130000D02*
X148844000Y-149330000D01*
X148844000Y-149330000D02*
X145796000Y-152378000D01*
X145796000Y-152378000D02*
X145796000Y-153130000D01*
X144500000Y-149150000D02*
X144500000Y-154965000D01*
X144500000Y-154965000D02*
X146305000Y-156770000D01*
X146305000Y-156770000D02*
X146305000Y-160020000D01*
X142250000Y-146250000D02*
X142250000Y-146900000D01*
X142250000Y-146900000D02*
X144500000Y-149150000D01*
X146305000Y-160020000D02*
X146305000Y-158020000D01*
X138250000Y-154000000D02*
X138250000Y-159885000D01*
X138250000Y-159885000D02*
X138385000Y-160020000D01*
X134450000Y-154000000D02*
X134450000Y-159995000D01*
X134450000Y-159995000D02*
X134425000Y-160020000D01*
X130500000Y-154000000D02*
X130500000Y-159985000D01*
X130500000Y-159985000D02*
X130465000Y-160020000D01*
X126500000Y-154000000D02*
X126500000Y-160015000D01*
X126500000Y-160015000D02*
X126505000Y-160020000D01*
X122450000Y-154000000D02*
X122450000Y-159925000D01*
X122450000Y-159925000D02*
X122545000Y-160020000D01*
X118500000Y-154000000D02*
X118500000Y-159935000D01*
X118500000Y-159935000D02*
X118585000Y-160020000D01*
X142250000Y-154000000D02*
X142250000Y-159925000D01*
X142250000Y-159925000D02*
X142345000Y-160020000D01*
X114500000Y-154000000D02*
X114500000Y-159895000D01*
X114500000Y-159895000D02*
X114625000Y-160020000D01*
X106500000Y-154000000D02*
X106500000Y-159815000D01*
X106500000Y-159815000D02*
X106705000Y-160020000D01*
X141300000Y-151000000D02*
X141300000Y-148800000D01*
X141300000Y-148800000D02*
X141250000Y-148750000D01*
X96750000Y-156250000D02*
X103435002Y-156250000D01*
X105550000Y-154135002D02*
X105550000Y-152200000D01*
X103435002Y-156250000D02*
X105550000Y-154135002D01*
X105550000Y-152200000D02*
X105550000Y-151000000D01*
X96750000Y-156250000D02*
X96750000Y-159235000D01*
X96750000Y-159235000D02*
X97535000Y-160020000D01*
X97535000Y-160020000D02*
X98785000Y-160020000D01*
X96750000Y-156250000D02*
X96750000Y-159345000D01*
X96750000Y-159345000D02*
X96075000Y-160020000D01*
X96075000Y-160020000D02*
X94825000Y-160020000D01*
X98085000Y-145800000D02*
X97700000Y-145800000D01*
X97700000Y-145800000D02*
X97000000Y-146500000D01*
X99750000Y-136500000D02*
X100750000Y-135500000D01*
X100750000Y-135500000D02*
X103500000Y-135500000D01*
X112800000Y-127800000D02*
X118180000Y-127800000D01*
X118180000Y-127800000D02*
X118380000Y-128000000D01*
X112800000Y-127800000D02*
X99050000Y-127800000D01*
X103500000Y-135500000D02*
X103500000Y-132250000D01*
X103500000Y-132250000D02*
X99050000Y-127800000D01*
X99050000Y-127800000D02*
X96300000Y-127800000D01*
X96300000Y-127800000D02*
X94800000Y-127800000D01*
X139250000Y-147200000D02*
X139250000Y-148950000D01*
X139250000Y-148950000D02*
X140100000Y-149800000D01*
X140100000Y-149800000D02*
X140650000Y-149800000D01*
X140650000Y-149800000D02*
X141300000Y-150450000D01*
X141300000Y-150450000D02*
X141300000Y-151000000D01*
X113550000Y-151000000D02*
X113550000Y-151550000D01*
X113550000Y-151550000D02*
X112824999Y-152275001D01*
X112824999Y-152275001D02*
X110275001Y-152275001D01*
X110275001Y-152275001D02*
X109550000Y-151550000D01*
X109550000Y-151550000D02*
X109550000Y-151000000D01*
X117550000Y-151000000D02*
X117550000Y-152200000D01*
X117550000Y-152200000D02*
X117474999Y-152275001D01*
X117474999Y-152275001D02*
X114275001Y-152275001D01*
X114275001Y-152275001D02*
X113550000Y-151550000D01*
X109550000Y-151000000D02*
X109550000Y-152200000D01*
X109550000Y-152200000D02*
X109474999Y-152275001D01*
X105550000Y-151550000D02*
X105550000Y-151000000D01*
X109474999Y-152275001D02*
X106275001Y-152275001D01*
X106275001Y-152275001D02*
X105550000Y-151550000D01*
X121500000Y-151000000D02*
X121500000Y-151550000D01*
X121500000Y-151550000D02*
X120774999Y-152275001D01*
X120774999Y-152275001D02*
X118275001Y-152275001D01*
X118275001Y-152275001D02*
X117550000Y-151550000D01*
X117550000Y-151550000D02*
X117550000Y-151000000D01*
X125550000Y-151000000D02*
X125550000Y-151550000D01*
X125550000Y-151550000D02*
X124824999Y-152275001D01*
X124824999Y-152275001D02*
X122225001Y-152275001D01*
X122225001Y-152275001D02*
X121500000Y-151550000D01*
X129550000Y-151000000D02*
X129550000Y-151550000D01*
X129550000Y-151550000D02*
X128824999Y-152275001D01*
X128824999Y-152275001D02*
X126275001Y-152275001D01*
X126275001Y-152275001D02*
X125550000Y-151550000D01*
X133500000Y-151000000D02*
X133500000Y-151550000D01*
X133500000Y-151550000D02*
X132774999Y-152275001D01*
X132774999Y-152275001D02*
X130275001Y-152275001D01*
X130275001Y-152275001D02*
X129550000Y-151550000D01*
X137300000Y-151000000D02*
X137300000Y-151550000D01*
X137300000Y-151550000D02*
X136574999Y-152275001D01*
X136574999Y-152275001D02*
X134225001Y-152275001D01*
X134225001Y-152275001D02*
X133500000Y-151550000D01*
X141300000Y-151000000D02*
X141300000Y-151550000D01*
X141300000Y-151550000D02*
X140574999Y-152275001D01*
X140574999Y-152275001D02*
X138025001Y-152275001D01*
X138025001Y-152275001D02*
X137300000Y-151550000D01*
X123200000Y-131055000D02*
X126164998Y-131055000D01*
X126164998Y-131055000D02*
X126809997Y-131699999D01*
X126809997Y-131699999D02*
X131555001Y-131699999D01*
X131555001Y-131699999D02*
X132200000Y-131055000D01*
X132200000Y-131055000D02*
X133200000Y-131055000D01*
X198120000Y-135890000D02*
X198120000Y-138525060D01*
X198025000Y-131445000D02*
X198025000Y-135795000D01*
X198025000Y-135795000D02*
X198120000Y-135890000D01*
X198120000Y-138525060D02*
X195675060Y-140970000D01*
X198120000Y-131540000D02*
X198025000Y-131445000D01*
D30*
X196674740Y-145669000D02*
X196674740Y-149860000D01*
X196674740Y-149860000D02*
X196674740Y-158909740D01*
X184785000Y-151765000D02*
X194769740Y-151765000D01*
X194769740Y-151765000D02*
X196674740Y-149860000D01*
X184785000Y-153670000D02*
X184785000Y-151765000D01*
D29*
X183050180Y-142240000D02*
X192405000Y-142240000D01*
X192405000Y-142240000D02*
X193675000Y-140970000D01*
D30*
X196674740Y-149684740D02*
X201745000Y-154755000D01*
X201745000Y-154755000D02*
X201745000Y-160020000D01*
D29*
X196674740Y-145669000D02*
X196674740Y-149684740D01*
X196674740Y-158909740D02*
X197785000Y-160020000D01*
D30*
X193675000Y-140970000D02*
X195675060Y-140970000D01*
D29*
X196674740Y-143668940D02*
X196674740Y-145669000D01*
D30*
X195675060Y-140970000D02*
X196674740Y-141969680D01*
X196674740Y-141969680D02*
X196674740Y-143668940D01*
D29*
X197785000Y-158020000D02*
X197785000Y-160020000D01*
X177335180Y-137160000D02*
X178659671Y-138484491D01*
X178659671Y-138484491D02*
X179294671Y-138484491D01*
X179294671Y-138484491D02*
X182050691Y-141240511D01*
X182050691Y-141240511D02*
X183050180Y-142240000D01*
X170180000Y-145415000D02*
X172720000Y-147955000D01*
X172720000Y-147955000D02*
X172720000Y-152400000D01*
X172720000Y-152400000D02*
X171990000Y-153130000D01*
X171990000Y-153130000D02*
X170815000Y-153130000D01*
X110500000Y-154000000D02*
X110500000Y-159855000D01*
X110500000Y-159855000D02*
X110665000Y-160020000D01*
X166105000Y-160020000D02*
X166105000Y-153395000D01*
X166105000Y-153395000D02*
X166370000Y-153130000D01*
X150495000Y-156210000D02*
X150495000Y-159790000D01*
X150495000Y-159790000D02*
X150265000Y-160020000D01*
X152570180Y-142240000D02*
X150495000Y-144315180D01*
X150495000Y-144315180D02*
X150495000Y-144780000D01*
X165270180Y-139700000D02*
X172890180Y-139700000D01*
X172890180Y-139700000D02*
X175430180Y-142240000D01*
X157480000Y-139700000D02*
X157650180Y-139700000D01*
X155110180Y-139700000D02*
X157480000Y-139700000D01*
X157480000Y-139700000D02*
X165270180Y-139700000D01*
X165270180Y-139700000D02*
X167810180Y-142240000D01*
X157650180Y-139700000D02*
X160190180Y-142240000D01*
X152570180Y-142240000D02*
X155110180Y-139700000D01*
D31*
X189865000Y-160020000D02*
X193825000Y-160020000D01*
D29*
X180340000Y-151130000D02*
X179555000Y-151130000D01*
X179555000Y-151130000D02*
X177800000Y-152885000D01*
D30*
X177800000Y-152885000D02*
X177800000Y-153035000D01*
X187420000Y-155575000D02*
X193040000Y-155575000D01*
X193040000Y-155575000D02*
X193825000Y-156360000D01*
X193825000Y-156360000D02*
X193825000Y-160020000D01*
X186690000Y-155575000D02*
X187420000Y-155575000D01*
X187420000Y-155575000D02*
X189865000Y-158020000D01*
X189865000Y-158020000D02*
X189865000Y-160020000D01*
X186485000Y-155370000D02*
X186690000Y-155575000D01*
X186485000Y-153670000D02*
X186485000Y-155370000D01*
X183085000Y-151560000D02*
X183085000Y-149655000D01*
X183085000Y-149655000D02*
X183515000Y-149225000D01*
X183515000Y-149225000D02*
X185420000Y-149225000D01*
X186055000Y-149225000D02*
X189119320Y-149225000D01*
X189119320Y-149225000D02*
X190675260Y-147669060D01*
D29*
X190675260Y-147669060D02*
X190675260Y-145669000D01*
D30*
X185420000Y-149225000D02*
X186055000Y-149225000D01*
X183085000Y-153670000D02*
X183085000Y-151560000D01*
D29*
X181945000Y-155855000D02*
X181965000Y-155855000D01*
D30*
X181965000Y-155855000D02*
X183085000Y-154735000D01*
X183085000Y-154735000D02*
X183085000Y-153670000D01*
D29*
X160655000Y-134790180D02*
X182415180Y-134790180D01*
X182415180Y-134790180D02*
X186055000Y-138430000D01*
X158285180Y-137160000D02*
X160655000Y-134790180D01*
D30*
X181945000Y-155855000D02*
X181945000Y-160020000D01*
D29*
X185905000Y-160020000D02*
X184150000Y-160020000D01*
X173530000Y-156035000D02*
X174625000Y-154940000D01*
X174625000Y-154940000D02*
X174625000Y-153035000D01*
X172260000Y-156035000D02*
X173530000Y-156035000D01*
X164465000Y-146685000D02*
X164465000Y-148325000D01*
X164465000Y-148325000D02*
X165270000Y-149130000D01*
X165270000Y-149130000D02*
X166370000Y-149130000D01*
X144950180Y-142240000D02*
X145949669Y-141240511D01*
X145949669Y-141240511D02*
X147760691Y-141240511D01*
X147760691Y-141240511D02*
X148760180Y-142240000D01*
X166370000Y-149130000D02*
X167470000Y-149130000D01*
X167470000Y-149130000D02*
X170815000Y-149130000D01*
X153205180Y-145415000D02*
X149361000Y-145415000D01*
X149361000Y-145415000D02*
X145796000Y-148980000D01*
X145796000Y-148980000D02*
X145796000Y-149130000D01*
X153205180Y-145415000D02*
X156380180Y-142240000D01*
X155965000Y-145415000D02*
X160825180Y-145415000D01*
X160825180Y-145415000D02*
X164000180Y-142240000D01*
X152400000Y-149130000D02*
X152400000Y-148980000D01*
X152400000Y-148980000D02*
X155965000Y-145415000D01*
X164295000Y-145415000D02*
X168445180Y-145415000D01*
X168445180Y-145415000D02*
X171620180Y-142240000D01*
X161925000Y-149035000D02*
X161925000Y-147785000D01*
X161925000Y-147785000D02*
X164295000Y-145415000D01*
X177800000Y-149035000D02*
X178900000Y-149035000D01*
X178900000Y-149035000D02*
X180975000Y-146960000D01*
X180975000Y-146960000D02*
X180975000Y-146515000D01*
X180975000Y-146515000D02*
X180975000Y-140970000D01*
X180975000Y-140970000D02*
X179705000Y-139700000D01*
X179705000Y-139700000D02*
X176065180Y-139700000D01*
X176065180Y-139700000D02*
X173525180Y-137160000D01*
X179240180Y-142240000D02*
X174625000Y-146855180D01*
X174625000Y-146855180D02*
X174625000Y-149035000D01*
X200660000Y-133930000D02*
X200660000Y-135890000D01*
X200660000Y-133930000D02*
X202025000Y-132565000D01*
X202025000Y-132565000D02*
X202025000Y-131445000D01*
X202025000Y-131445000D02*
X202025000Y-128270000D01*
X201875000Y-131445000D02*
X202025000Y-131445000D01*
X198025000Y-128270000D02*
X192405000Y-128270000D01*
X140250000Y-130500000D02*
X138000000Y-128250000D01*
X127800000Y-139945000D02*
X129229990Y-139945000D01*
X129229990Y-139945000D02*
X129500000Y-139674990D01*
X103674264Y-129000000D02*
X101750000Y-129000000D01*
X101750000Y-129000000D02*
X101500000Y-128750000D01*
X109000000Y-134750000D02*
X109000000Y-134325736D01*
X109000000Y-134325736D02*
X103674264Y-129000000D01*
X125000000Y-137250000D02*
X124219999Y-138030001D01*
X124219999Y-138030001D02*
X120164999Y-138030001D01*
X120164999Y-138030001D02*
X118250000Y-139945000D01*
X118250000Y-139945000D02*
X117800000Y-139945000D01*
X97250000Y-129250000D02*
X94980000Y-129250000D01*
X94980000Y-129250000D02*
X94800000Y-129070000D01*
X112800000Y-131610000D02*
X113600000Y-131610000D01*
X127351390Y-128644738D02*
X127351390Y-127355262D01*
X127351390Y-127355262D02*
X128047662Y-126658990D01*
X113600000Y-131610000D02*
X115868990Y-129341010D01*
X115868990Y-129341010D02*
X126655118Y-129341010D01*
X126655118Y-129341010D02*
X127351390Y-128644738D01*
X128047662Y-126658990D02*
X129891390Y-126658990D01*
X129891390Y-126658990D02*
X131080000Y-127847600D01*
X131080000Y-127847600D02*
X131080000Y-128000000D01*
X128540000Y-128000000D02*
X128540000Y-128152400D01*
X126712411Y-129979989D02*
X116500011Y-129979989D01*
X128540000Y-128152400D02*
X126712411Y-129979989D01*
X116500011Y-129979989D02*
X113600000Y-132880000D01*
X113600000Y-132880000D02*
X112800000Y-132880000D01*
X112800000Y-144310000D02*
X110557439Y-144310000D01*
X110557439Y-144310000D02*
X109247439Y-143000000D01*
X109247439Y-143000000D02*
X97250000Y-143000000D01*
X123460000Y-128000000D02*
X123460000Y-127847600D01*
X123460000Y-127847600D02*
X122271390Y-126658990D01*
X94044981Y-126658990D02*
X93224990Y-127478981D01*
X122271390Y-126658990D02*
X94044981Y-126658990D01*
X93224990Y-127478981D02*
X93224990Y-129564990D01*
X93224990Y-129564990D02*
X94000000Y-130340000D01*
X94000000Y-130340000D02*
X94800000Y-130340000D01*
X98000000Y-141500000D02*
X112530000Y-141500000D01*
X112530000Y-141500000D02*
X112800000Y-141770000D01*
X127800000Y-137405000D02*
X129345000Y-137405000D01*
X129345000Y-137405000D02*
X129500000Y-137250000D01*
X112800000Y-141770000D02*
X112000000Y-141770000D01*
X112800000Y-141770000D02*
X113600000Y-141770000D01*
X119895000Y-132500000D02*
X118800000Y-133595000D01*
X120794997Y-132969999D02*
X120324998Y-132500000D01*
X119895000Y-132500000D02*
X120324998Y-132500000D01*
X127800000Y-133595000D02*
X126800000Y-133595000D01*
X126800000Y-133595000D02*
X126174999Y-132969999D01*
X126174999Y-132969999D02*
X120794997Y-132969999D01*
X118800000Y-133595000D02*
X117800000Y-133595000D01*
X110750000Y-136536029D02*
X110750000Y-132383885D01*
X110750000Y-132383885D02*
X108458059Y-130091944D01*
X112800000Y-137960000D02*
X112173971Y-137960000D01*
X112173971Y-137960000D02*
X110750000Y-136536029D01*
X114474981Y-137000000D02*
X114474981Y-136470019D01*
X114474981Y-136470019D02*
X117350000Y-133595000D01*
X117350000Y-133595000D02*
X117800000Y-133595000D01*
X114474981Y-137785019D02*
X114474981Y-137000000D01*
X112800000Y-137960000D02*
X114300000Y-137960000D01*
X114300000Y-137960000D02*
X114474981Y-137785019D01*
X112800000Y-137960000D02*
X113600000Y-137960000D01*
X112800000Y-137960000D02*
X113426029Y-137960000D01*
X124180001Y-131680001D02*
X122000000Y-131680001D01*
X120000000Y-131250000D02*
X121569999Y-131250000D01*
X121569999Y-131250000D02*
X122000000Y-131680001D01*
X118925000Y-132325000D02*
X120000000Y-131250000D01*
X117800000Y-132325000D02*
X118925000Y-132325000D01*
X112800000Y-136690000D02*
X112000000Y-136690000D01*
X112000000Y-136690000D02*
X111224990Y-135914990D01*
X111224990Y-131974990D02*
X108500000Y-129250000D01*
X111224990Y-135914990D02*
X111224990Y-131974990D01*
X112800000Y-136690000D02*
X113600000Y-136690000D01*
X113600000Y-136690000D02*
X116724999Y-133565001D01*
X116724999Y-133565001D02*
X116724999Y-132950001D01*
X116724999Y-132950001D02*
X117350000Y-132325000D01*
X117350000Y-132325000D02*
X117800000Y-132325000D01*
X127800000Y-132325000D02*
X124825000Y-132325000D01*
X124825000Y-132325000D02*
X124180001Y-131680001D01*
X127800000Y-134865000D02*
X126800000Y-134865000D01*
X121584999Y-134239999D02*
X120959998Y-134865000D01*
X120959998Y-134865000D02*
X120000000Y-134865000D01*
X126800000Y-134865000D02*
X126174999Y-134239999D01*
X126174999Y-134239999D02*
X121584999Y-134239999D01*
X120000000Y-134865000D02*
X117800000Y-134865000D01*
X110250000Y-132520295D02*
X108738590Y-131008885D01*
X108738590Y-131008885D02*
X108491115Y-131008885D01*
X112800000Y-139230000D02*
X112000000Y-139230000D01*
X112000000Y-139230000D02*
X110250000Y-137480000D01*
X110250000Y-137480000D02*
X110250000Y-132520295D01*
X117800000Y-134865000D02*
X116800000Y-134865000D01*
X116800000Y-134865000D02*
X114924990Y-136740010D01*
X114924990Y-136740010D02*
X114924989Y-138605011D01*
X114924989Y-138605011D02*
X114300000Y-139230000D01*
X114300000Y-139230000D02*
X112800000Y-139230000D01*
X112800000Y-139230000D02*
X113600000Y-139230000D01*
X117350000Y-134865000D02*
X117800000Y-134865000D01*
X127800000Y-136135000D02*
X127350000Y-136135000D01*
X127350000Y-136135000D02*
X126215000Y-135000000D01*
X121624999Y-136135000D02*
X117800000Y-136135000D01*
X126215000Y-135000000D02*
X124750000Y-135000000D01*
X124750000Y-135000000D02*
X124240001Y-135509999D01*
X124240001Y-135509999D02*
X122250000Y-135509999D01*
X122250000Y-135509999D02*
X121624999Y-136135000D01*
X112800000Y-140500000D02*
X112000000Y-140500000D01*
X112000000Y-140500000D02*
X111300000Y-139800000D01*
X111300000Y-139800000D02*
X107500000Y-136000000D01*
X112800000Y-140500000D02*
X112173971Y-140500000D01*
X112800000Y-140500000D02*
X114300000Y-140500000D01*
X114300000Y-140500000D02*
X115374999Y-139425001D01*
X115374999Y-139425001D02*
X115374999Y-137199999D01*
X115374999Y-137199999D02*
X116439998Y-136135000D01*
X116439998Y-136135000D02*
X116800000Y-136135000D01*
X116800000Y-136135000D02*
X117800000Y-136135000D01*
X112800000Y-140500000D02*
X113600000Y-140500000D01*
X117350000Y-136135000D02*
X117800000Y-136135000D01*
X136500000Y-147250000D02*
X136500000Y-146850000D01*
X136500000Y-146850000D02*
X138050000Y-145300000D01*
X138050000Y-145300000D02*
X139250000Y-145300000D01*
X143200000Y-151000000D02*
X143200000Y-149214998D01*
X143200000Y-149214998D02*
X140460001Y-146474999D01*
X140460001Y-146474999D02*
X138039999Y-146474999D01*
X137675001Y-148510001D02*
X137610001Y-148575001D01*
X137610001Y-148575001D02*
X134675001Y-148575001D01*
X138039999Y-146474999D02*
X137675001Y-146839997D01*
X137675001Y-146839997D02*
X137675001Y-148510001D01*
X134675001Y-148575001D02*
X133500000Y-147400000D01*
X133500000Y-147400000D02*
X133500000Y-147250000D01*
X131000000Y-148750000D02*
X128600000Y-148750000D01*
X128600000Y-148750000D02*
X127250000Y-147400000D01*
X127250000Y-147400000D02*
X127250000Y-147250000D01*
X131725021Y-149475021D02*
X131000000Y-148750000D01*
X135400000Y-151000000D02*
X135400000Y-150450000D01*
X135400000Y-150450000D02*
X134425021Y-149475021D01*
X134425021Y-149475021D02*
X131725021Y-149475021D01*
X124750000Y-148750000D02*
X122600000Y-148750000D01*
X122600000Y-148750000D02*
X121250000Y-147400000D01*
X121250000Y-147400000D02*
X121250000Y-147250000D01*
X125650020Y-149650020D02*
X124750000Y-148750000D01*
X127450000Y-151000000D02*
X127450000Y-149800000D01*
X127450000Y-149800000D02*
X127300020Y-149650020D01*
X127300020Y-149650020D02*
X125650020Y-149650020D01*
X119450000Y-151000000D02*
X119450000Y-150964998D01*
X119450000Y-150964998D02*
X116509981Y-148024979D01*
X116509981Y-148024979D02*
X96825021Y-148024979D01*
X96825021Y-148024979D02*
X94750000Y-150100000D01*
X94750000Y-150100000D02*
X94750000Y-150250000D01*
X100250000Y-150250000D02*
X100250000Y-150100000D01*
X109924999Y-148924999D02*
X111450000Y-150450000D01*
X100250000Y-150100000D02*
X101425001Y-148924999D01*
X101425001Y-148924999D02*
X109924999Y-148924999D01*
X111450000Y-150450000D02*
X111450000Y-151000000D01*
X139200000Y-151000000D02*
X139200000Y-150450000D01*
X139200000Y-150450000D02*
X137775011Y-149025011D01*
X130500000Y-147400000D02*
X130500000Y-147250000D01*
X137775011Y-149025011D02*
X132125011Y-149025011D01*
X132125011Y-149025011D02*
X130500000Y-147400000D01*
X131450000Y-151000000D02*
X131450000Y-150450000D01*
X131450000Y-150450000D02*
X130200010Y-149200010D01*
X130200010Y-149200010D02*
X126200010Y-149200010D01*
X126200010Y-149200010D02*
X124250000Y-147250000D01*
X123400000Y-151000000D02*
X123400000Y-150450000D01*
X123400000Y-150450000D02*
X121525001Y-148575001D01*
X118250000Y-147400000D02*
X118250000Y-147250000D01*
X121525001Y-148575001D02*
X119425001Y-148575001D01*
X119425001Y-148575001D02*
X118250000Y-147400000D01*
X97500000Y-150250000D02*
X97500000Y-150100000D01*
X97500000Y-150100000D02*
X99125011Y-148474989D01*
X99125011Y-148474989D02*
X113474989Y-148474989D01*
X113474989Y-148474989D02*
X115450000Y-150450000D01*
X115450000Y-150450000D02*
X115450000Y-151000000D01*
X103000000Y-150250000D02*
X104100000Y-150250000D01*
X104100000Y-150250000D02*
X104625001Y-149724999D01*
X104625001Y-149724999D02*
X106724999Y-149724999D01*
X106724999Y-149724999D02*
X107450000Y-150450000D01*
X107450000Y-150450000D02*
X107450000Y-151000000D01*
X127800000Y-138675000D02*
X126075000Y-138675000D01*
X126075000Y-138675000D02*
X126000000Y-138750000D01*
X134750000Y-138750000D02*
X136500000Y-140500000D01*
X136500000Y-140500000D02*
X136500000Y-143250000D01*
X134750000Y-140000000D02*
X133255000Y-140000000D01*
X133255000Y-140000000D02*
X133200000Y-139945000D01*
X133200000Y-138675000D02*
X132750000Y-138675000D01*
X132750000Y-138675000D02*
X132124999Y-139300001D01*
X132124999Y-139300001D02*
X132124999Y-140624999D01*
X132124999Y-140624999D02*
X133500000Y-142000000D01*
X133500000Y-142000000D02*
X133500000Y-143250000D01*
X131674989Y-141925011D02*
X131674989Y-138480011D01*
X131674989Y-138480011D02*
X132750000Y-137405000D01*
X132750000Y-137405000D02*
X133200000Y-137405000D01*
X130500000Y-143250000D02*
X130500000Y-143100000D01*
X130500000Y-143100000D02*
X131674989Y-141925011D01*
X131224979Y-141525021D02*
X131224979Y-137660021D01*
X131224979Y-137660021D02*
X132750000Y-136135000D01*
X132750000Y-136135000D02*
X133200000Y-136135000D01*
X127250000Y-143250000D02*
X127250000Y-143100000D01*
X127250000Y-143100000D02*
X128600000Y-141750000D01*
X128600000Y-141750000D02*
X131000000Y-141750000D01*
X131000000Y-141750000D02*
X131224979Y-141525021D01*
X124250000Y-143250000D02*
X124250000Y-143100000D01*
X124250000Y-143100000D02*
X126050010Y-141299990D01*
X126050010Y-141299990D02*
X130450010Y-141299990D01*
X130450010Y-141299990D02*
X130750000Y-141000000D01*
X130750000Y-141000000D02*
X130750000Y-136865000D01*
X130750000Y-136865000D02*
X132750000Y-134865000D01*
X132750000Y-134865000D02*
X133200000Y-134865000D01*
X125000000Y-141500000D02*
X122850000Y-141500000D01*
X122850000Y-141500000D02*
X121250000Y-143100000D01*
X121250000Y-143100000D02*
X121250000Y-143250000D01*
X125650020Y-140849980D02*
X125000000Y-141500000D01*
X130150020Y-140849980D02*
X125650020Y-140849980D01*
X133200000Y-133595000D02*
X132750000Y-133595000D01*
X132750000Y-133595000D02*
X130299990Y-136045010D01*
X130299990Y-136045010D02*
X130299990Y-140700010D01*
X130299990Y-140700010D02*
X130150020Y-140849980D01*
X133200000Y-132325000D02*
X132750000Y-132325000D01*
X132750000Y-132325000D02*
X129849980Y-135225020D01*
X121064998Y-141000000D02*
X118814998Y-143250000D01*
X129849980Y-135225020D02*
X129849980Y-135720022D01*
X129849980Y-135720022D02*
X128810001Y-136760001D01*
X128810001Y-136760001D02*
X126809997Y-136760001D01*
X126809997Y-136760001D02*
X125000000Y-138569998D01*
X125000000Y-138569998D02*
X125000000Y-140675002D01*
X124675002Y-141000000D02*
X121064998Y-141000000D01*
X125000000Y-140675002D02*
X124675002Y-141000000D01*
X118814998Y-143250000D02*
X118250000Y-143250000D01*
X113921019Y-145085010D02*
X110696039Y-145085010D01*
X103500000Y-144224990D02*
X101500000Y-144224990D01*
X114375010Y-141061400D02*
X114375010Y-144631019D01*
X116000000Y-138750000D02*
X116000000Y-139436410D01*
X114375010Y-144631019D02*
X113921019Y-145085010D01*
X116000000Y-139436410D02*
X114375010Y-141061400D01*
X110696039Y-145085010D02*
X109836019Y-144224990D01*
X109836019Y-144224990D02*
X103500000Y-144224990D01*
X97763981Y-144224990D02*
X101500000Y-144224990D01*
X116000000Y-138750000D02*
X117725000Y-138750000D01*
X117725000Y-138750000D02*
X117800000Y-138675000D01*
X94750000Y-154250000D02*
X94750000Y-153000000D01*
X94750000Y-153000000D02*
X93574999Y-151824999D01*
X93574999Y-151824999D02*
X93574999Y-148413972D01*
X93574999Y-148413972D02*
X97763981Y-144224990D01*
X119000000Y-141875001D02*
X115750001Y-141875001D01*
X123200000Y-139945000D02*
X120930001Y-139945000D01*
X120930001Y-139945000D02*
X119000000Y-141875001D01*
X97500000Y-152250000D02*
X97500000Y-154250000D01*
X115750001Y-141875001D02*
X115250000Y-141375000D01*
X100250000Y-152250000D02*
X100250000Y-154250000D01*
X123200000Y-138675000D02*
X120705002Y-138675000D01*
X120705002Y-138675000D02*
X118130002Y-141250000D01*
X118130002Y-141250000D02*
X118000000Y-141250000D01*
X121574999Y-136779999D02*
X117250000Y-136779999D01*
X117250000Y-136779999D02*
X116720001Y-136779999D01*
X116720001Y-136779999D02*
X116000000Y-137500000D01*
X103000000Y-152250000D02*
X103000000Y-154250000D01*
X123200000Y-137405000D02*
X122200000Y-137405000D01*
X122200000Y-137405000D02*
X121574999Y-136779999D01*
X123200000Y-136135000D02*
X125115000Y-136135000D01*
X125115000Y-136135000D02*
X125500000Y-135750000D01*
X123200000Y-134865000D02*
X121885000Y-134865000D01*
X121885000Y-134865000D02*
X121500000Y-135250000D01*
X123200000Y-133595000D02*
X121030000Y-133595000D01*
X121030000Y-133595000D02*
X120625000Y-134000000D01*
X123180001Y-133614999D02*
X123200000Y-133595000D01*
X123200000Y-132325000D02*
X121075000Y-132325000D01*
X121075000Y-132325000D02*
X120750000Y-132000000D01*
X123180001Y-132305001D02*
X123200000Y-132325000D01*
X119250000Y-131000000D02*
X119820001Y-130429999D01*
X119820001Y-130429999D02*
X126724999Y-130429999D01*
X126724999Y-130429999D02*
X127350000Y-131055000D01*
X127350000Y-131055000D02*
X127800000Y-131055000D01*
X117800000Y-137405000D02*
X119155000Y-137405000D01*
X119155000Y-137405000D02*
X119250000Y-137500000D01*
X117350000Y-137405000D02*
X117800000Y-137405000D01*
X115750000Y-131750000D02*
X116445000Y-131055000D01*
X116445000Y-131055000D02*
X117800000Y-131055000D01*
D32*
G36*
X203708000Y-162433000D02*
X195472440Y-162433000D01*
X195472440Y-161323490D01*
X195797483Y-160837029D01*
X195960000Y-160020000D01*
X195797483Y-159202971D01*
X195472440Y-158716510D01*
X195472440Y-157020000D01*
X195428162Y-156784683D01*
X195289090Y-156568559D01*
X195195000Y-156504270D01*
X195195000Y-156360000D01*
X195090715Y-155835724D01*
X194793737Y-155391264D01*
X194008736Y-154606264D01*
X193564277Y-154309285D01*
X193040000Y-154205000D01*
X189446263Y-154205000D01*
X189554762Y-153943705D01*
X189555237Y-153398686D01*
X189347107Y-152894971D01*
X188962056Y-152509248D01*
X188458705Y-152300238D01*
X187913686Y-152299763D01*
X187409971Y-152507893D01*
X187335207Y-152582527D01*
X187262056Y-152509248D01*
X186758705Y-152300238D01*
X186213686Y-152299763D01*
X185709971Y-152507893D01*
X185324248Y-152892944D01*
X185115238Y-153396295D01*
X185114763Y-153941314D01*
X185115000Y-153941888D01*
X185115000Y-155370000D01*
X185219285Y-155894277D01*
X185516264Y-156338736D01*
X185550088Y-156372560D01*
X184905000Y-156372560D01*
X184669683Y-156416838D01*
X184453559Y-156555910D01*
X184308569Y-156768110D01*
X184257560Y-157020000D01*
X184257560Y-159085093D01*
X183964833Y-159084838D01*
X183621057Y-159226883D01*
X183592440Y-159255450D01*
X183592440Y-157020000D01*
X183548162Y-156784683D01*
X183409090Y-156568559D01*
X183315000Y-156504270D01*
X183315000Y-156442472D01*
X184053736Y-155703736D01*
X184350715Y-155259277D01*
X184382429Y-155099838D01*
X184455000Y-154735000D01*
X184455000Y-153670622D01*
X184455237Y-153398686D01*
X184455000Y-153398112D01*
X184455000Y-150595000D01*
X189119320Y-150595000D01*
X189643597Y-150490715D01*
X190088056Y-150193736D01*
X191643996Y-148637797D01*
X191940974Y-148193337D01*
X191966203Y-148066500D01*
X192425320Y-148066500D01*
X192660637Y-148022222D01*
X192876761Y-147883150D01*
X193021751Y-147670950D01*
X193072760Y-147419060D01*
X193072760Y-143918940D01*
X193028482Y-143683623D01*
X192889410Y-143467499D01*
X192677210Y-143322509D01*
X192425320Y-143271500D01*
X188925200Y-143271500D01*
X188689883Y-143315778D01*
X188473759Y-143454850D01*
X188328769Y-143667050D01*
X188277760Y-143918940D01*
X188277760Y-147419060D01*
X188322038Y-147654377D01*
X188451135Y-147855000D01*
X183515000Y-147855000D01*
X182990724Y-147959285D01*
X182546264Y-148256264D01*
X182116264Y-148686264D01*
X181819285Y-149130723D01*
X181747652Y-149490849D01*
X181715000Y-149655000D01*
X181715000Y-152323614D01*
X181658705Y-152300238D01*
X181113686Y-152299763D01*
X180609971Y-152507893D01*
X180224248Y-152892944D01*
X180015238Y-153396295D01*
X180014763Y-153941314D01*
X180222893Y-154445029D01*
X180607944Y-154830752D01*
X180925304Y-154962531D01*
X180679285Y-155330724D01*
X180575000Y-155855000D01*
X180575000Y-156503504D01*
X180493559Y-156555910D01*
X180348569Y-156768110D01*
X180297560Y-157020000D01*
X180297560Y-162433000D01*
X179632440Y-162433000D01*
X179632440Y-157020000D01*
X179588162Y-156784683D01*
X179449090Y-156568559D01*
X179236890Y-156423569D01*
X178985000Y-156372560D01*
X176985000Y-156372560D01*
X176749683Y-156416838D01*
X176533559Y-156555910D01*
X176388569Y-156768110D01*
X176337560Y-157020000D01*
X176337560Y-162433000D01*
X175672440Y-162433000D01*
X175672440Y-157020000D01*
X175628162Y-156784683D01*
X175489090Y-156568559D01*
X175276890Y-156423569D01*
X175025000Y-156372560D01*
X174267242Y-156372560D01*
X175162401Y-155477401D01*
X175327148Y-155230839D01*
X175385000Y-154940000D01*
X175385000Y-154682440D01*
X175475000Y-154682440D01*
X175710317Y-154638162D01*
X175926441Y-154499090D01*
X176071431Y-154286890D01*
X176122440Y-154035000D01*
X176122440Y-152035000D01*
X176302560Y-152035000D01*
X176302560Y-154035000D01*
X176346838Y-154270317D01*
X176485910Y-154486441D01*
X176698110Y-154631431D01*
X176950000Y-154682440D01*
X178650000Y-154682440D01*
X178885317Y-154638162D01*
X179101441Y-154499090D01*
X179246431Y-154286890D01*
X179297440Y-154035000D01*
X179297440Y-152462362D01*
X179829413Y-151930389D01*
X180153201Y-152064838D01*
X180525167Y-152065162D01*
X180868943Y-151923117D01*
X181132192Y-151660327D01*
X181274838Y-151316799D01*
X181275162Y-150944833D01*
X181133117Y-150601057D01*
X180870327Y-150337808D01*
X180526799Y-150195162D01*
X180154833Y-150194838D01*
X179811057Y-150336883D01*
X179777882Y-150370000D01*
X179555000Y-150370000D01*
X179264161Y-150427852D01*
X179017599Y-150592599D01*
X178222638Y-151387560D01*
X176950000Y-151387560D01*
X176714683Y-151431838D01*
X176498559Y-151570910D01*
X176353569Y-151783110D01*
X176302560Y-152035000D01*
X176122440Y-152035000D01*
X176078162Y-151799683D01*
X175939090Y-151583559D01*
X175726890Y-151438569D01*
X175475000Y-151387560D01*
X173775000Y-151387560D01*
X173539683Y-151431838D01*
X173323559Y-151570910D01*
X173178569Y-151783110D01*
X173127560Y-152035000D01*
X173127560Y-154035000D01*
X173171838Y-154270317D01*
X173310910Y-154486441D01*
X173523110Y-154631431D01*
X173775000Y-154682440D01*
X173807758Y-154682440D01*
X173215198Y-155275000D01*
X172822463Y-155275000D01*
X172790327Y-155242808D01*
X172446799Y-155100162D01*
X172074833Y-155099838D01*
X171731057Y-155241883D01*
X171467808Y-155504673D01*
X171325162Y-155848201D01*
X171324838Y-156220167D01*
X171445070Y-156511150D01*
X171316890Y-156423569D01*
X171065000Y-156372560D01*
X169065000Y-156372560D01*
X168829683Y-156416838D01*
X168613559Y-156555910D01*
X168468569Y-156768110D01*
X168417560Y-157020000D01*
X168417560Y-162433000D01*
X167752440Y-162433000D01*
X167752440Y-157020000D01*
X167708162Y-156784683D01*
X167569090Y-156568559D01*
X167356890Y-156423569D01*
X167105000Y-156372560D01*
X166865000Y-156372560D01*
X166865000Y-154777440D01*
X167220000Y-154777440D01*
X167455317Y-154733162D01*
X167671441Y-154594090D01*
X167816431Y-154381890D01*
X167867440Y-154130000D01*
X167867440Y-152130000D01*
X167823162Y-151894683D01*
X167684090Y-151678559D01*
X167471890Y-151533569D01*
X167220000Y-151482560D01*
X165520000Y-151482560D01*
X165284683Y-151526838D01*
X165068559Y-151665910D01*
X164923569Y-151878110D01*
X164872560Y-152130000D01*
X164872560Y-154130000D01*
X164916838Y-154365317D01*
X165055910Y-154581441D01*
X165268110Y-154726431D01*
X165345000Y-154742002D01*
X165345000Y-156372560D01*
X165105000Y-156372560D01*
X164869683Y-156416838D01*
X164653559Y-156555910D01*
X164508569Y-156768110D01*
X164457560Y-157020000D01*
X164457560Y-162433000D01*
X163792440Y-162433000D01*
X163792440Y-157020000D01*
X163748162Y-156784683D01*
X163609090Y-156568559D01*
X163396890Y-156423569D01*
X163145000Y-156372560D01*
X161145000Y-156372560D01*
X160909683Y-156416838D01*
X160693559Y-156555910D01*
X160548569Y-156768110D01*
X160497560Y-157020000D01*
X160497560Y-162433000D01*
X159832440Y-162433000D01*
X159832440Y-157020000D01*
X159788162Y-156784683D01*
X159649090Y-156568559D01*
X159436890Y-156423569D01*
X159185000Y-156372560D01*
X158945000Y-156372560D01*
X158945000Y-154777440D01*
X159550000Y-154777440D01*
X159785317Y-154733162D01*
X160001441Y-154594090D01*
X160146431Y-154381890D01*
X160197440Y-154130000D01*
X160197440Y-152130000D01*
X160153162Y-151894683D01*
X160014090Y-151678559D01*
X159801890Y-151533569D01*
X159550000Y-151482560D01*
X157950000Y-151482560D01*
X157714683Y-151526838D01*
X157498559Y-151665910D01*
X157353569Y-151878110D01*
X157302560Y-152130000D01*
X157302560Y-154130000D01*
X157346838Y-154365317D01*
X157425000Y-154486784D01*
X157425000Y-156372560D01*
X157185000Y-156372560D01*
X156970000Y-156413015D01*
X156970000Y-154383984D01*
X156971431Y-154381890D01*
X157022440Y-154130000D01*
X157022440Y-152130000D01*
X156978162Y-151894683D01*
X156839090Y-151678559D01*
X156626890Y-151533569D01*
X156375000Y-151482560D01*
X154972242Y-151482560D01*
X155677362Y-150777440D01*
X156375000Y-150777440D01*
X156610317Y-150733162D01*
X156826441Y-150594090D01*
X156971431Y-150381890D01*
X157022440Y-150130000D01*
X157022440Y-148130000D01*
X157302560Y-148130000D01*
X157302560Y-150130000D01*
X157346838Y-150365317D01*
X157485910Y-150581441D01*
X157698110Y-150726431D01*
X157950000Y-150777440D01*
X159122638Y-150777440D01*
X160427560Y-152082362D01*
X160427560Y-154035000D01*
X160471838Y-154270317D01*
X160610910Y-154486441D01*
X160823110Y-154631431D01*
X161075000Y-154682440D01*
X162775000Y-154682440D01*
X163010317Y-154638162D01*
X163226441Y-154499090D01*
X163371431Y-154286890D01*
X163422440Y-154035000D01*
X163422440Y-152035000D01*
X163378162Y-151799683D01*
X163239090Y-151583559D01*
X163026890Y-151438569D01*
X162775000Y-151387560D01*
X161882362Y-151387560D01*
X161177242Y-150682440D01*
X162775000Y-150682440D01*
X163010317Y-150638162D01*
X163226441Y-150499090D01*
X163371431Y-150286890D01*
X163422440Y-150035000D01*
X163422440Y-148035000D01*
X163378162Y-147799683D01*
X163239090Y-147583559D01*
X163216606Y-147568196D01*
X163642345Y-147142457D01*
X163671883Y-147213943D01*
X163705000Y-147247118D01*
X163705000Y-148325000D01*
X163762852Y-148615839D01*
X163927599Y-148862401D01*
X164732599Y-149667401D01*
X164872560Y-149760920D01*
X164872560Y-150130000D01*
X164916838Y-150365317D01*
X165055910Y-150581441D01*
X165268110Y-150726431D01*
X165520000Y-150777440D01*
X167220000Y-150777440D01*
X167455317Y-150733162D01*
X167671441Y-150594090D01*
X167816431Y-150381890D01*
X167867440Y-150130000D01*
X167867440Y-149890000D01*
X169317560Y-149890000D01*
X169317560Y-150130000D01*
X169361838Y-150365317D01*
X169500910Y-150581441D01*
X169713110Y-150726431D01*
X169965000Y-150777440D01*
X171665000Y-150777440D01*
X171900317Y-150733162D01*
X172116441Y-150594090D01*
X172261431Y-150381890D01*
X172312440Y-150130000D01*
X172312440Y-148130000D01*
X172268162Y-147894683D01*
X172129090Y-147678559D01*
X171916890Y-147533569D01*
X171665000Y-147482560D01*
X169965000Y-147482560D01*
X169729683Y-147526838D01*
X169513559Y-147665910D01*
X169368569Y-147878110D01*
X169317560Y-148130000D01*
X169317560Y-148370000D01*
X167867440Y-148370000D01*
X167867440Y-148130000D01*
X167823162Y-147894683D01*
X167684090Y-147678559D01*
X167471890Y-147533569D01*
X167220000Y-147482560D01*
X165520000Y-147482560D01*
X165284683Y-147526838D01*
X165225000Y-147565243D01*
X165225000Y-147247463D01*
X165257192Y-147215327D01*
X165399838Y-146871799D01*
X165400162Y-146499833D01*
X165265944Y-146175000D01*
X168445180Y-146175000D01*
X168736019Y-146117148D01*
X168982581Y-145952401D01*
X171129097Y-143805885D01*
X171293633Y-143874206D01*
X171943874Y-143874774D01*
X172544835Y-143626462D01*
X173005026Y-143167073D01*
X173254386Y-142566547D01*
X173254954Y-141916306D01*
X173006642Y-141315345D01*
X172547253Y-140855154D01*
X171946727Y-140605794D01*
X171296486Y-140605226D01*
X170695525Y-140853538D01*
X170235334Y-141312927D01*
X169985974Y-141913453D01*
X169985406Y-142563694D01*
X170054489Y-142730889D01*
X168130378Y-144655000D01*
X164295000Y-144655000D01*
X164004161Y-144712852D01*
X163757599Y-144877599D01*
X161387599Y-147247599D01*
X161294080Y-147387560D01*
X161075000Y-147387560D01*
X160839683Y-147431838D01*
X160623559Y-147570910D01*
X160478569Y-147783110D01*
X160427560Y-148035000D01*
X160427560Y-149932758D01*
X160197440Y-149702638D01*
X160197440Y-148130000D01*
X160153162Y-147894683D01*
X160014090Y-147678559D01*
X159801890Y-147533569D01*
X159550000Y-147482560D01*
X157950000Y-147482560D01*
X157714683Y-147526838D01*
X157498559Y-147665910D01*
X157353569Y-147878110D01*
X157302560Y-148130000D01*
X157022440Y-148130000D01*
X156978162Y-147894683D01*
X156839090Y-147678559D01*
X156626890Y-147533569D01*
X156375000Y-147482560D01*
X154972242Y-147482560D01*
X156279802Y-146175000D01*
X160825180Y-146175000D01*
X161116019Y-146117148D01*
X161362581Y-145952401D01*
X163509097Y-143805885D01*
X163673633Y-143874206D01*
X164323874Y-143874774D01*
X164924835Y-143626462D01*
X165385026Y-143167073D01*
X165634386Y-142566547D01*
X165634954Y-141916306D01*
X165386642Y-141315345D01*
X164927253Y-140855154D01*
X164326727Y-140605794D01*
X163676486Y-140605226D01*
X163075525Y-140853538D01*
X162615334Y-141312927D01*
X162365974Y-141913453D01*
X162365406Y-142563694D01*
X162434489Y-142730889D01*
X160510378Y-144655000D01*
X155965000Y-144655000D01*
X155674160Y-144712852D01*
X155427599Y-144877599D01*
X152822638Y-147482560D01*
X151550000Y-147482560D01*
X151314683Y-147526838D01*
X151098559Y-147665910D01*
X150953569Y-147878110D01*
X150902560Y-148130000D01*
X150902560Y-150130000D01*
X150946838Y-150365317D01*
X151085910Y-150581441D01*
X151298110Y-150726431D01*
X151550000Y-150777440D01*
X153250000Y-150777440D01*
X153485317Y-150733162D01*
X153701441Y-150594090D01*
X153846431Y-150381890D01*
X153897440Y-150130000D01*
X153897440Y-148557362D01*
X154127560Y-148327242D01*
X154127560Y-150130000D01*
X154135104Y-150170094D01*
X152822638Y-151482560D01*
X151550000Y-151482560D01*
X151314683Y-151526838D01*
X151098559Y-151665910D01*
X150953569Y-151878110D01*
X150902560Y-152130000D01*
X150902560Y-154130000D01*
X150946838Y-154365317D01*
X151085910Y-154581441D01*
X151298110Y-154726431D01*
X151550000Y-154777440D01*
X153250000Y-154777440D01*
X153485317Y-154733162D01*
X153701441Y-154594090D01*
X153846431Y-154381890D01*
X153897440Y-154130000D01*
X153897440Y-152557362D01*
X154127560Y-152327242D01*
X154127560Y-154130000D01*
X154171838Y-154365317D01*
X154310910Y-154581441D01*
X154523110Y-154726431D01*
X154775000Y-154777440D01*
X155450000Y-154777440D01*
X155450000Y-156418124D01*
X155225000Y-156372560D01*
X154855920Y-156372560D01*
X154762401Y-156232599D01*
X153567401Y-155037599D01*
X153320839Y-154872852D01*
X153030000Y-154815000D01*
X150047802Y-154815000D01*
X149932039Y-154699237D01*
X150095441Y-154594090D01*
X150240431Y-154381890D01*
X150291440Y-154130000D01*
X150291440Y-152130000D01*
X150247162Y-151894683D01*
X150108090Y-151678559D01*
X149895890Y-151533569D01*
X149644000Y-151482560D01*
X148044000Y-151482560D01*
X147808683Y-151526838D01*
X147592559Y-151665910D01*
X147447569Y-151878110D01*
X147396560Y-152130000D01*
X147396560Y-154130000D01*
X147440838Y-154365317D01*
X147579910Y-154581441D01*
X147792110Y-154726431D01*
X148044000Y-154777440D01*
X148102189Y-154777440D01*
X148141852Y-154976839D01*
X148306599Y-155223401D01*
X149195599Y-156112401D01*
X149442161Y-156277148D01*
X149559920Y-156300572D01*
X149559858Y-156372560D01*
X149265000Y-156372560D01*
X149029683Y-156416838D01*
X148813559Y-156555910D01*
X148668569Y-156768110D01*
X148617560Y-157020000D01*
X148617560Y-162433000D01*
X147952440Y-162433000D01*
X147952440Y-157020000D01*
X147908162Y-156784683D01*
X147769090Y-156568559D01*
X147556890Y-156423569D01*
X147305000Y-156372560D01*
X146935920Y-156372560D01*
X146842401Y-156232599D01*
X145387242Y-154777440D01*
X146646000Y-154777440D01*
X146881317Y-154733162D01*
X147097441Y-154594090D01*
X147242431Y-154381890D01*
X147293440Y-154130000D01*
X147293440Y-152130000D01*
X147265783Y-151983019D01*
X148471362Y-150777440D01*
X149644000Y-150777440D01*
X149879317Y-150733162D01*
X150095441Y-150594090D01*
X150240431Y-150381890D01*
X150291440Y-150130000D01*
X150291440Y-148130000D01*
X150247162Y-147894683D01*
X150108090Y-147678559D01*
X149895890Y-147533569D01*
X149644000Y-147482560D01*
X148368242Y-147482560D01*
X149675802Y-146175000D01*
X153205180Y-146175000D01*
X153496019Y-146117148D01*
X153742581Y-145952401D01*
X155889097Y-143805885D01*
X156053633Y-143874206D01*
X156703874Y-143874774D01*
X157304835Y-143626462D01*
X157765026Y-143167073D01*
X158014386Y-142566547D01*
X158014954Y-141916306D01*
X157766642Y-141315345D01*
X157307253Y-140855154D01*
X156706727Y-140605794D01*
X156056486Y-140605226D01*
X155455525Y-140853538D01*
X154995334Y-141312927D01*
X154745974Y-141913453D01*
X154745406Y-142563694D01*
X154814489Y-142730889D01*
X152890378Y-144655000D01*
X151430110Y-144655000D01*
X151430162Y-144594833D01*
X151389225Y-144495757D01*
X152079097Y-143805885D01*
X152243633Y-143874206D01*
X152893874Y-143874774D01*
X153494835Y-143626462D01*
X153955026Y-143167073D01*
X154204386Y-142566547D01*
X154204954Y-141916306D01*
X154135871Y-141749111D01*
X155424982Y-140460000D01*
X157335378Y-140460000D01*
X158624295Y-141748917D01*
X158555974Y-141913453D01*
X158555406Y-142563694D01*
X158803718Y-143164655D01*
X159263107Y-143624846D01*
X159863633Y-143874206D01*
X160513874Y-143874774D01*
X161114835Y-143626462D01*
X161575026Y-143167073D01*
X161824386Y-142566547D01*
X161824954Y-141916306D01*
X161576642Y-141315345D01*
X161117253Y-140855154D01*
X160516727Y-140605794D01*
X159866486Y-140605226D01*
X159699291Y-140674309D01*
X159484982Y-140460000D01*
X164955378Y-140460000D01*
X166244295Y-141748917D01*
X166175974Y-141913453D01*
X166175406Y-142563694D01*
X166423718Y-143164655D01*
X166883107Y-143624846D01*
X167483633Y-143874206D01*
X168133874Y-143874774D01*
X168734835Y-143626462D01*
X169195026Y-143167073D01*
X169444386Y-142566547D01*
X169444954Y-141916306D01*
X169196642Y-141315345D01*
X168737253Y-140855154D01*
X168136727Y-140605794D01*
X167486486Y-140605226D01*
X167319291Y-140674309D01*
X167104982Y-140460000D01*
X172575378Y-140460000D01*
X173864295Y-141748917D01*
X173795974Y-141913453D01*
X173795406Y-142563694D01*
X174043718Y-143164655D01*
X174503107Y-143624846D01*
X175103633Y-143874206D01*
X175753874Y-143874774D01*
X176354835Y-143626462D01*
X176815026Y-143167073D01*
X177064386Y-142566547D01*
X177064954Y-141916306D01*
X176816642Y-141315345D01*
X176357253Y-140855154D01*
X175756727Y-140605794D01*
X175106486Y-140605226D01*
X174939291Y-140674309D01*
X173427581Y-139162599D01*
X173181019Y-138997852D01*
X172890180Y-138940000D01*
X155110180Y-138940000D01*
X154867594Y-138988254D01*
X154819340Y-138997852D01*
X154572779Y-139162599D01*
X153061263Y-140674115D01*
X152896727Y-140605794D01*
X152246486Y-140605226D01*
X151645525Y-140853538D01*
X151185334Y-141312927D01*
X150935974Y-141913453D01*
X150935406Y-142563694D01*
X151004489Y-142730889D01*
X149957599Y-143777779D01*
X149792852Y-144024341D01*
X149759235Y-144193345D01*
X149702808Y-144249673D01*
X149560162Y-144593201D01*
X149560108Y-144655000D01*
X149361000Y-144655000D01*
X149070160Y-144712852D01*
X148823599Y-144877599D01*
X146218638Y-147482560D01*
X144946000Y-147482560D01*
X144710683Y-147526838D01*
X144494559Y-147665910D01*
X144349569Y-147878110D01*
X144341712Y-147916910D01*
X143582959Y-147158157D01*
X143651441Y-147114090D01*
X143796431Y-146901890D01*
X143847440Y-146650000D01*
X143847440Y-145850000D01*
X143803162Y-145614683D01*
X143664090Y-145398559D01*
X143451890Y-145253569D01*
X143200000Y-145202560D01*
X141300000Y-145202560D01*
X141064683Y-145246838D01*
X140848559Y-145385910D01*
X140847440Y-145387548D01*
X140847440Y-144900000D01*
X140803162Y-144664683D01*
X140664090Y-144448559D01*
X140451890Y-144303569D01*
X140200000Y-144252560D01*
X138300000Y-144252560D01*
X138064683Y-144296838D01*
X137976459Y-144353609D01*
X137997440Y-144250000D01*
X137997440Y-142563694D01*
X143315406Y-142563694D01*
X143563718Y-143164655D01*
X144023107Y-143624846D01*
X144623633Y-143874206D01*
X145273874Y-143874774D01*
X145874835Y-143626462D01*
X146335026Y-143167073D01*
X146584386Y-142566547D01*
X146584880Y-142000511D01*
X147125898Y-142000511D01*
X147125406Y-142563694D01*
X147373718Y-143164655D01*
X147833107Y-143624846D01*
X148433633Y-143874206D01*
X149083874Y-143874774D01*
X149684835Y-143626462D01*
X150145026Y-143167073D01*
X150394386Y-142566547D01*
X150394954Y-141916306D01*
X150146642Y-141315345D01*
X149687253Y-140855154D01*
X149086727Y-140605794D01*
X148436486Y-140605226D01*
X148260454Y-140677961D01*
X148051530Y-140538363D01*
X147760691Y-140480511D01*
X145949669Y-140480511D01*
X145658830Y-140538363D01*
X145450143Y-140677803D01*
X145276727Y-140605794D01*
X144626486Y-140605226D01*
X144025525Y-140853538D01*
X143565334Y-141312927D01*
X143315974Y-141913453D01*
X143315406Y-142563694D01*
X137997440Y-142563694D01*
X137997440Y-142250000D01*
X137953162Y-142014683D01*
X137814090Y-141798559D01*
X137601890Y-141653569D01*
X137350000Y-141602560D01*
X137260000Y-141602560D01*
X137260000Y-140500000D01*
X137202148Y-140209161D01*
X137037401Y-139962599D01*
X135685122Y-138610320D01*
X135685162Y-138564833D01*
X135543117Y-138221057D01*
X135280327Y-137957808D01*
X134936799Y-137815162D01*
X134575195Y-137814847D01*
X134597440Y-137705000D01*
X134597440Y-137105000D01*
X134553162Y-136869683D01*
X134489322Y-136770472D01*
X134546431Y-136686890D01*
X134597440Y-136435000D01*
X134597440Y-135835000D01*
X134553162Y-135599683D01*
X134489322Y-135500472D01*
X134546431Y-135416890D01*
X134597440Y-135165000D01*
X134597440Y-134608418D01*
X135315360Y-134608418D01*
X135315360Y-135713622D01*
X135481683Y-136549785D01*
X135955332Y-137258650D01*
X136664197Y-137732299D01*
X137500360Y-137898622D01*
X138336523Y-137732299D01*
X138708586Y-137483694D01*
X145220406Y-137483694D01*
X145468718Y-138084655D01*
X145928107Y-138544846D01*
X146528633Y-138794206D01*
X147178874Y-138794774D01*
X147779835Y-138546462D01*
X148240026Y-138087073D01*
X148489386Y-137486547D01*
X148489388Y-137483694D01*
X152840406Y-137483694D01*
X153088718Y-138084655D01*
X153548107Y-138544846D01*
X154148633Y-138794206D01*
X154798874Y-138794774D01*
X155399835Y-138546462D01*
X155860026Y-138087073D01*
X156109386Y-137486547D01*
X156109388Y-137483694D01*
X156650406Y-137483694D01*
X156898718Y-138084655D01*
X157358107Y-138544846D01*
X157958633Y-138794206D01*
X158608874Y-138794774D01*
X159209835Y-138546462D01*
X159670026Y-138087073D01*
X159919386Y-137486547D01*
X159919954Y-136836306D01*
X159850871Y-136669111D01*
X160969802Y-135550180D01*
X161711093Y-135550180D01*
X161170525Y-135773538D01*
X160710334Y-136232927D01*
X160460974Y-136833453D01*
X160460406Y-137483694D01*
X160708718Y-138084655D01*
X161168107Y-138544846D01*
X161768633Y-138794206D01*
X162418874Y-138794774D01*
X163019835Y-138546462D01*
X163480026Y-138087073D01*
X163729386Y-137486547D01*
X163729954Y-136836306D01*
X163481642Y-136235345D01*
X163022253Y-135775154D01*
X162480455Y-135550180D01*
X165521093Y-135550180D01*
X164980525Y-135773538D01*
X164520334Y-136232927D01*
X164270974Y-136833453D01*
X164270406Y-137483694D01*
X164518718Y-138084655D01*
X164978107Y-138544846D01*
X165578633Y-138794206D01*
X166228874Y-138794774D01*
X166829835Y-138546462D01*
X167290026Y-138087073D01*
X167539386Y-137486547D01*
X167539954Y-136836306D01*
X167291642Y-136235345D01*
X166832253Y-135775154D01*
X166290455Y-135550180D01*
X169331093Y-135550180D01*
X168790525Y-135773538D01*
X168330334Y-136232927D01*
X168080974Y-136833453D01*
X168080406Y-137483694D01*
X168328718Y-138084655D01*
X168788107Y-138544846D01*
X169388633Y-138794206D01*
X170038874Y-138794774D01*
X170639835Y-138546462D01*
X171100026Y-138087073D01*
X171349386Y-137486547D01*
X171349954Y-136836306D01*
X171101642Y-136235345D01*
X170642253Y-135775154D01*
X170100455Y-135550180D01*
X173141093Y-135550180D01*
X172600525Y-135773538D01*
X172140334Y-136232927D01*
X171890974Y-136833453D01*
X171890406Y-137483694D01*
X172138718Y-138084655D01*
X172598107Y-138544846D01*
X173198633Y-138794206D01*
X173848874Y-138794774D01*
X174016069Y-138725691D01*
X175527779Y-140237401D01*
X175774340Y-140402148D01*
X175822594Y-140411746D01*
X176065180Y-140460000D01*
X179390198Y-140460000D01*
X179535965Y-140605767D01*
X178916486Y-140605226D01*
X178315525Y-140853538D01*
X177855334Y-141312927D01*
X177605974Y-141913453D01*
X177605406Y-142563694D01*
X177674489Y-142730889D01*
X174087599Y-146317779D01*
X173922852Y-146564341D01*
X173865000Y-146855180D01*
X173865000Y-147387560D01*
X173775000Y-147387560D01*
X173539683Y-147431838D01*
X173323559Y-147570910D01*
X173178569Y-147783110D01*
X173127560Y-148035000D01*
X173127560Y-150035000D01*
X173171838Y-150270317D01*
X173310910Y-150486441D01*
X173523110Y-150631431D01*
X173775000Y-150682440D01*
X175475000Y-150682440D01*
X175710317Y-150638162D01*
X175926441Y-150499090D01*
X176071431Y-150286890D01*
X176122440Y-150035000D01*
X176122440Y-148035000D01*
X176078162Y-147799683D01*
X175939090Y-147583559D01*
X175726890Y-147438569D01*
X175475000Y-147387560D01*
X175385000Y-147387560D01*
X175385000Y-147169982D01*
X178749097Y-143805885D01*
X178913633Y-143874206D01*
X179563874Y-143874774D01*
X180164835Y-143626462D01*
X180215000Y-143576384D01*
X180215000Y-146645198D01*
X179177734Y-147682464D01*
X179114090Y-147583559D01*
X178901890Y-147438569D01*
X178650000Y-147387560D01*
X176950000Y-147387560D01*
X176714683Y-147431838D01*
X176498559Y-147570910D01*
X176353569Y-147783110D01*
X176302560Y-148035000D01*
X176302560Y-150035000D01*
X176346838Y-150270317D01*
X176485910Y-150486441D01*
X176698110Y-150631431D01*
X176950000Y-150682440D01*
X178650000Y-150682440D01*
X178885317Y-150638162D01*
X179101441Y-150499090D01*
X179246431Y-150286890D01*
X179297440Y-150035000D01*
X179297440Y-149665920D01*
X179437401Y-149572401D01*
X181512401Y-147497401D01*
X181677148Y-147250839D01*
X181735000Y-146960000D01*
X181735000Y-140970000D01*
X181700757Y-140797852D01*
X181677148Y-140679160D01*
X181512401Y-140432599D01*
X180242401Y-139162599D01*
X179995839Y-138997852D01*
X179705000Y-138940000D01*
X176379982Y-138940000D01*
X175091065Y-137651083D01*
X175159386Y-137486547D01*
X175159954Y-136836306D01*
X174911642Y-136235345D01*
X174452253Y-135775154D01*
X173910455Y-135550180D01*
X180761093Y-135550180D01*
X180220525Y-135773538D01*
X179760334Y-136232927D01*
X179510974Y-136833453D01*
X179510406Y-137483694D01*
X179758718Y-138084655D01*
X180218107Y-138544846D01*
X180818633Y-138794206D01*
X181468874Y-138794774D01*
X182069835Y-138546462D01*
X182530026Y-138087073D01*
X182779386Y-137486547D01*
X182779954Y-136836306D01*
X182531642Y-136235345D01*
X182072253Y-135775154D01*
X181530455Y-135550180D01*
X182100378Y-135550180D01*
X185119878Y-138569680D01*
X185119838Y-138615167D01*
X185261883Y-138958943D01*
X185524673Y-139222192D01*
X185868201Y-139364838D01*
X186240167Y-139365162D01*
X186583943Y-139223117D01*
X186847192Y-138960327D01*
X186989838Y-138616799D01*
X186990162Y-138244833D01*
X186848117Y-137901057D01*
X186585327Y-137637808D01*
X186241799Y-137495162D01*
X186194923Y-137495121D01*
X183308220Y-134608418D01*
X188315000Y-134608418D01*
X188315000Y-135713622D01*
X188481323Y-136549785D01*
X188954972Y-137258650D01*
X189663837Y-137732299D01*
X190500000Y-137898622D01*
X191336163Y-137732299D01*
X192045028Y-137258650D01*
X192518677Y-136549785D01*
X192594885Y-136166661D01*
X194182758Y-136166661D01*
X194394990Y-136680303D01*
X194787630Y-137073629D01*
X195300900Y-137286757D01*
X195856661Y-137287242D01*
X196370303Y-137075010D01*
X196763629Y-136682370D01*
X196976757Y-136169100D01*
X196976759Y-136166661D01*
X199262758Y-136166661D01*
X199474990Y-136680303D01*
X199867630Y-137073629D01*
X200380900Y-137286757D01*
X200936661Y-137287242D01*
X201450303Y-137075010D01*
X201843629Y-136682370D01*
X202056757Y-136169100D01*
X202057242Y-135613339D01*
X201845010Y-135099697D01*
X201452370Y-134706371D01*
X201420000Y-134692930D01*
X201420000Y-134244802D01*
X202562401Y-133102401D01*
X202669283Y-132942440D01*
X203025000Y-132942440D01*
X203260317Y-132898162D01*
X203476441Y-132759090D01*
X203621431Y-132546890D01*
X203672440Y-132295000D01*
X203672440Y-130595000D01*
X203628162Y-130359683D01*
X203489090Y-130143559D01*
X203276890Y-129998569D01*
X203025000Y-129947560D01*
X202785000Y-129947560D01*
X202785000Y-129767440D01*
X203025000Y-129767440D01*
X203260317Y-129723162D01*
X203476441Y-129584090D01*
X203621431Y-129371890D01*
X203672440Y-129120000D01*
X203672440Y-127420000D01*
X203628162Y-127184683D01*
X203489090Y-126968559D01*
X203276890Y-126823569D01*
X203025000Y-126772560D01*
X201025000Y-126772560D01*
X200789683Y-126816838D01*
X200573559Y-126955910D01*
X200428569Y-127168110D01*
X200377560Y-127420000D01*
X200377560Y-129120000D01*
X200421838Y-129355317D01*
X200560910Y-129571441D01*
X200773110Y-129716431D01*
X201025000Y-129767440D01*
X201265000Y-129767440D01*
X201265000Y-129947560D01*
X201025000Y-129947560D01*
X200789683Y-129991838D01*
X200573559Y-130130910D01*
X200428569Y-130343110D01*
X200377560Y-130595000D01*
X200377560Y-132295000D01*
X200421838Y-132530317D01*
X200560910Y-132746441D01*
X200684388Y-132830810D01*
X200122599Y-133392599D01*
X199957852Y-133639161D01*
X199900000Y-133930000D01*
X199900000Y-134692469D01*
X199869697Y-134704990D01*
X199476371Y-135097630D01*
X199263243Y-135610900D01*
X199262758Y-136166661D01*
X196976759Y-136166661D01*
X196977242Y-135613339D01*
X196765010Y-135099697D01*
X196372370Y-134706371D01*
X195859100Y-134493243D01*
X195303339Y-134492758D01*
X194789697Y-134704990D01*
X194396371Y-135097630D01*
X194183243Y-135610900D01*
X194182758Y-136166661D01*
X192594885Y-136166661D01*
X192685000Y-135713622D01*
X192685000Y-134608418D01*
X192518677Y-133772255D01*
X192045028Y-133063390D01*
X191336163Y-132589741D01*
X190500000Y-132423418D01*
X189663837Y-132589741D01*
X188954972Y-133063390D01*
X188481323Y-133772255D01*
X188315000Y-134608418D01*
X183308220Y-134608418D01*
X182952581Y-134252779D01*
X182706019Y-134088032D01*
X182415180Y-134030180D01*
X160655000Y-134030180D01*
X160364161Y-134088032D01*
X160117599Y-134252779D01*
X158776263Y-135594115D01*
X158611727Y-135525794D01*
X157961486Y-135525226D01*
X157360525Y-135773538D01*
X156900334Y-136232927D01*
X156650974Y-136833453D01*
X156650406Y-137483694D01*
X156109388Y-137483694D01*
X156109954Y-136836306D01*
X155861642Y-136235345D01*
X155402253Y-135775154D01*
X154801727Y-135525794D01*
X154151486Y-135525226D01*
X153550525Y-135773538D01*
X153090334Y-136232927D01*
X152840974Y-136833453D01*
X152840406Y-137483694D01*
X148489388Y-137483694D01*
X148489954Y-136836306D01*
X148241642Y-136235345D01*
X147782253Y-135775154D01*
X147181727Y-135525794D01*
X146531486Y-135525226D01*
X145930525Y-135773538D01*
X145470334Y-136232927D01*
X145220974Y-136833453D01*
X145220406Y-137483694D01*
X138708586Y-137483694D01*
X139045388Y-137258650D01*
X139519037Y-136549785D01*
X139685360Y-135713622D01*
X139685360Y-134608418D01*
X139519037Y-133772255D01*
X139045388Y-133063390D01*
X138336523Y-132589741D01*
X137500360Y-132423418D01*
X136664197Y-132589741D01*
X135955332Y-133063390D01*
X135481683Y-133772255D01*
X135315360Y-134608418D01*
X134597440Y-134608418D01*
X134597440Y-134565000D01*
X134553162Y-134329683D01*
X134489322Y-134230472D01*
X134546431Y-134146890D01*
X134597440Y-133895000D01*
X134597440Y-133295000D01*
X134553162Y-133059683D01*
X134489322Y-132960472D01*
X134546431Y-132876890D01*
X134597440Y-132625000D01*
X134597440Y-132025000D01*
X134553162Y-131789683D01*
X134414090Y-131573559D01*
X134201890Y-131428569D01*
X133950000Y-131377560D01*
X132450000Y-131377560D01*
X132214683Y-131421838D01*
X131998559Y-131560910D01*
X131853569Y-131773110D01*
X131802560Y-132025000D01*
X131802560Y-132197638D01*
X129312579Y-134687619D01*
X129197440Y-134859937D01*
X129197440Y-134565000D01*
X129153162Y-134329683D01*
X129089322Y-134230472D01*
X129146431Y-134146890D01*
X129197440Y-133895000D01*
X129197440Y-133295000D01*
X129153162Y-133059683D01*
X129089322Y-132960472D01*
X129146431Y-132876890D01*
X129197440Y-132625000D01*
X129197440Y-132025000D01*
X129153162Y-131789683D01*
X129089322Y-131690472D01*
X129146431Y-131606890D01*
X129197440Y-131355000D01*
X129197440Y-130755000D01*
X129153162Y-130519683D01*
X129014090Y-130303559D01*
X128801890Y-130158569D01*
X128550000Y-130107560D01*
X127659642Y-130107560D01*
X128159536Y-129607666D01*
X128540000Y-129683345D01*
X129113489Y-129569271D01*
X129599670Y-129244415D01*
X129609243Y-129230087D01*
X129613238Y-129251317D01*
X129752310Y-129467441D01*
X129964510Y-129612431D01*
X130216400Y-129663440D01*
X131943600Y-129663440D01*
X132178917Y-129619162D01*
X132395041Y-129480090D01*
X132540031Y-129267890D01*
X132591040Y-129016000D01*
X132591040Y-128435167D01*
X137064838Y-128435167D01*
X137206883Y-128778943D01*
X137469673Y-129042192D01*
X137813201Y-129184838D01*
X137860077Y-129184879D01*
X139314878Y-130639680D01*
X139314838Y-130685167D01*
X139456883Y-131028943D01*
X139719673Y-131292192D01*
X140063201Y-131434838D01*
X140435167Y-131435162D01*
X140778943Y-131293117D01*
X141042192Y-131030327D01*
X141184838Y-130686799D01*
X141185162Y-130314833D01*
X141043117Y-129971057D01*
X140780327Y-129707808D01*
X140436799Y-129565162D01*
X140389923Y-129565121D01*
X139279969Y-128455167D01*
X191469838Y-128455167D01*
X191611883Y-128798943D01*
X191874673Y-129062192D01*
X192218201Y-129204838D01*
X192590167Y-129205162D01*
X192933943Y-129063117D01*
X192967118Y-129030000D01*
X196377560Y-129030000D01*
X196377560Y-129120000D01*
X196421838Y-129355317D01*
X196560910Y-129571441D01*
X196773110Y-129716431D01*
X197025000Y-129767440D01*
X199025000Y-129767440D01*
X199260317Y-129723162D01*
X199476441Y-129584090D01*
X199621431Y-129371890D01*
X199672440Y-129120000D01*
X199672440Y-127420000D01*
X199628162Y-127184683D01*
X199489090Y-126968559D01*
X199276890Y-126823569D01*
X199025000Y-126772560D01*
X197025000Y-126772560D01*
X196789683Y-126816838D01*
X196573559Y-126955910D01*
X196428569Y-127168110D01*
X196377560Y-127420000D01*
X196377560Y-127510000D01*
X192967463Y-127510000D01*
X192935327Y-127477808D01*
X192591799Y-127335162D01*
X192219833Y-127334838D01*
X191876057Y-127476883D01*
X191612808Y-127739673D01*
X191470162Y-128083201D01*
X191469838Y-128455167D01*
X139279969Y-128455167D01*
X138935122Y-128110320D01*
X138935162Y-128064833D01*
X138793117Y-127721057D01*
X138530327Y-127457808D01*
X138186799Y-127315162D01*
X137814833Y-127314838D01*
X137471057Y-127456883D01*
X137207808Y-127719673D01*
X137065162Y-128063201D01*
X137064838Y-128435167D01*
X132591040Y-128435167D01*
X132591040Y-126984000D01*
X132546762Y-126748683D01*
X132407690Y-126532559D01*
X132348330Y-126492000D01*
X203708000Y-126492000D01*
X203708000Y-162433000D01*
X203708000Y-162433000D01*
G37*
X203708000Y-162433000D02*
X195472440Y-162433000D01*
X195472440Y-161323490D01*
X195797483Y-160837029D01*
X195960000Y-160020000D01*
X195797483Y-159202971D01*
X195472440Y-158716510D01*
X195472440Y-157020000D01*
X195428162Y-156784683D01*
X195289090Y-156568559D01*
X195195000Y-156504270D01*
X195195000Y-156360000D01*
X195090715Y-155835724D01*
X194793737Y-155391264D01*
X194008736Y-154606264D01*
X193564277Y-154309285D01*
X193040000Y-154205000D01*
X189446263Y-154205000D01*
X189554762Y-153943705D01*
X189555237Y-153398686D01*
X189347107Y-152894971D01*
X188962056Y-152509248D01*
X188458705Y-152300238D01*
X187913686Y-152299763D01*
X187409971Y-152507893D01*
X187335207Y-152582527D01*
X187262056Y-152509248D01*
X186758705Y-152300238D01*
X186213686Y-152299763D01*
X185709971Y-152507893D01*
X185324248Y-152892944D01*
X185115238Y-153396295D01*
X185114763Y-153941314D01*
X185115000Y-153941888D01*
X185115000Y-155370000D01*
X185219285Y-155894277D01*
X185516264Y-156338736D01*
X185550088Y-156372560D01*
X184905000Y-156372560D01*
X184669683Y-156416838D01*
X184453559Y-156555910D01*
X184308569Y-156768110D01*
X184257560Y-157020000D01*
X184257560Y-159085093D01*
X183964833Y-159084838D01*
X183621057Y-159226883D01*
X183592440Y-159255450D01*
X183592440Y-157020000D01*
X183548162Y-156784683D01*
X183409090Y-156568559D01*
X183315000Y-156504270D01*
X183315000Y-156442472D01*
X184053736Y-155703736D01*
X184350715Y-155259277D01*
X184382429Y-155099838D01*
X184455000Y-154735000D01*
X184455000Y-153670622D01*
X184455237Y-153398686D01*
X184455000Y-153398112D01*
X184455000Y-150595000D01*
X189119320Y-150595000D01*
X189643597Y-150490715D01*
X190088056Y-150193736D01*
X191643996Y-148637797D01*
X191940974Y-148193337D01*
X191966203Y-148066500D01*
X192425320Y-148066500D01*
X192660637Y-148022222D01*
X192876761Y-147883150D01*
X193021751Y-147670950D01*
X193072760Y-147419060D01*
X193072760Y-143918940D01*
X193028482Y-143683623D01*
X192889410Y-143467499D01*
X192677210Y-143322509D01*
X192425320Y-143271500D01*
X188925200Y-143271500D01*
X188689883Y-143315778D01*
X188473759Y-143454850D01*
X188328769Y-143667050D01*
X188277760Y-143918940D01*
X188277760Y-147419060D01*
X188322038Y-147654377D01*
X188451135Y-147855000D01*
X183515000Y-147855000D01*
X182990724Y-147959285D01*
X182546264Y-148256264D01*
X182116264Y-148686264D01*
X181819285Y-149130723D01*
X181747652Y-149490849D01*
X181715000Y-149655000D01*
X181715000Y-152323614D01*
X181658705Y-152300238D01*
X181113686Y-152299763D01*
X180609971Y-152507893D01*
X180224248Y-152892944D01*
X180015238Y-153396295D01*
X180014763Y-153941314D01*
X180222893Y-154445029D01*
X180607944Y-154830752D01*
X180925304Y-154962531D01*
X180679285Y-155330724D01*
X180575000Y-155855000D01*
X180575000Y-156503504D01*
X180493559Y-156555910D01*
X180348569Y-156768110D01*
X180297560Y-157020000D01*
X180297560Y-162433000D01*
X179632440Y-162433000D01*
X179632440Y-157020000D01*
X179588162Y-156784683D01*
X179449090Y-156568559D01*
X179236890Y-156423569D01*
X178985000Y-156372560D01*
X176985000Y-156372560D01*
X176749683Y-156416838D01*
X176533559Y-156555910D01*
X176388569Y-156768110D01*
X176337560Y-157020000D01*
X176337560Y-162433000D01*
X175672440Y-162433000D01*
X175672440Y-157020000D01*
X175628162Y-156784683D01*
X175489090Y-156568559D01*
X175276890Y-156423569D01*
X175025000Y-156372560D01*
X174267242Y-156372560D01*
X175162401Y-155477401D01*
X175327148Y-155230839D01*
X175385000Y-154940000D01*
X175385000Y-154682440D01*
X175475000Y-154682440D01*
X175710317Y-154638162D01*
X175926441Y-154499090D01*
X176071431Y-154286890D01*
X176122440Y-154035000D01*
X176122440Y-152035000D01*
X176302560Y-152035000D01*
X176302560Y-154035000D01*
X176346838Y-154270317D01*
X176485910Y-154486441D01*
X176698110Y-154631431D01*
X176950000Y-154682440D01*
X178650000Y-154682440D01*
X178885317Y-154638162D01*
X179101441Y-154499090D01*
X179246431Y-154286890D01*
X179297440Y-154035000D01*
X179297440Y-152462362D01*
X179829413Y-151930389D01*
X180153201Y-152064838D01*
X180525167Y-152065162D01*
X180868943Y-151923117D01*
X181132192Y-151660327D01*
X181274838Y-151316799D01*
X181275162Y-150944833D01*
X181133117Y-150601057D01*
X180870327Y-150337808D01*
X180526799Y-150195162D01*
X180154833Y-150194838D01*
X179811057Y-150336883D01*
X179777882Y-150370000D01*
X179555000Y-150370000D01*
X179264161Y-150427852D01*
X179017599Y-150592599D01*
X178222638Y-151387560D01*
X176950000Y-151387560D01*
X176714683Y-151431838D01*
X176498559Y-151570910D01*
X176353569Y-151783110D01*
X176302560Y-152035000D01*
X176122440Y-152035000D01*
X176078162Y-151799683D01*
X175939090Y-151583559D01*
X175726890Y-151438569D01*
X175475000Y-151387560D01*
X173775000Y-151387560D01*
X173539683Y-151431838D01*
X173323559Y-151570910D01*
X173178569Y-151783110D01*
X173127560Y-152035000D01*
X173127560Y-154035000D01*
X173171838Y-154270317D01*
X173310910Y-154486441D01*
X173523110Y-154631431D01*
X173775000Y-154682440D01*
X173807758Y-154682440D01*
X173215198Y-155275000D01*
X172822463Y-155275000D01*
X172790327Y-155242808D01*
X172446799Y-155100162D01*
X172074833Y-155099838D01*
X171731057Y-155241883D01*
X171467808Y-155504673D01*
X171325162Y-155848201D01*
X171324838Y-156220167D01*
X171445070Y-156511150D01*
X171316890Y-156423569D01*
X171065000Y-156372560D01*
X169065000Y-156372560D01*
X168829683Y-156416838D01*
X168613559Y-156555910D01*
X168468569Y-156768110D01*
X168417560Y-157020000D01*
X168417560Y-162433000D01*
X167752440Y-162433000D01*
X167752440Y-157020000D01*
X167708162Y-156784683D01*
X167569090Y-156568559D01*
X167356890Y-156423569D01*
X167105000Y-156372560D01*
X166865000Y-156372560D01*
X166865000Y-154777440D01*
X167220000Y-154777440D01*
X167455317Y-154733162D01*
X167671441Y-154594090D01*
X167816431Y-154381890D01*
X167867440Y-154130000D01*
X167867440Y-152130000D01*
X167823162Y-151894683D01*
X167684090Y-151678559D01*
X167471890Y-151533569D01*
X167220000Y-151482560D01*
X165520000Y-151482560D01*
X165284683Y-151526838D01*
X165068559Y-151665910D01*
X164923569Y-151878110D01*
X164872560Y-152130000D01*
X164872560Y-154130000D01*
X164916838Y-154365317D01*
X165055910Y-154581441D01*
X165268110Y-154726431D01*
X165345000Y-154742002D01*
X165345000Y-156372560D01*
X165105000Y-156372560D01*
X164869683Y-156416838D01*
X164653559Y-156555910D01*
X164508569Y-156768110D01*
X164457560Y-157020000D01*
X164457560Y-162433000D01*
X163792440Y-162433000D01*
X163792440Y-157020000D01*
X163748162Y-156784683D01*
X163609090Y-156568559D01*
X163396890Y-156423569D01*
X163145000Y-156372560D01*
X161145000Y-156372560D01*
X160909683Y-156416838D01*
X160693559Y-156555910D01*
X160548569Y-156768110D01*
X160497560Y-157020000D01*
X160497560Y-162433000D01*
X159832440Y-162433000D01*
X159832440Y-157020000D01*
X159788162Y-156784683D01*
X159649090Y-156568559D01*
X159436890Y-156423569D01*
X159185000Y-156372560D01*
X158945000Y-156372560D01*
X158945000Y-154777440D01*
X159550000Y-154777440D01*
X159785317Y-154733162D01*
X160001441Y-154594090D01*
X160146431Y-154381890D01*
X160197440Y-154130000D01*
X160197440Y-152130000D01*
X160153162Y-151894683D01*
X160014090Y-151678559D01*
X159801890Y-151533569D01*
X159550000Y-151482560D01*
X157950000Y-151482560D01*
X157714683Y-151526838D01*
X157498559Y-151665910D01*
X157353569Y-151878110D01*
X157302560Y-152130000D01*
X157302560Y-154130000D01*
X157346838Y-154365317D01*
X157425000Y-154486784D01*
X157425000Y-156372560D01*
X157185000Y-156372560D01*
X156970000Y-156413015D01*
X156970000Y-154383984D01*
X156971431Y-154381890D01*
X157022440Y-154130000D01*
X157022440Y-152130000D01*
X156978162Y-151894683D01*
X156839090Y-151678559D01*
X156626890Y-151533569D01*
X156375000Y-151482560D01*
X154972242Y-151482560D01*
X155677362Y-150777440D01*
X156375000Y-150777440D01*
X156610317Y-150733162D01*
X156826441Y-150594090D01*
X156971431Y-150381890D01*
X157022440Y-150130000D01*
X157022440Y-148130000D01*
X157302560Y-148130000D01*
X157302560Y-150130000D01*
X157346838Y-150365317D01*
X157485910Y-150581441D01*
X157698110Y-150726431D01*
X157950000Y-150777440D01*
X159122638Y-150777440D01*
X160427560Y-152082362D01*
X160427560Y-154035000D01*
X160471838Y-154270317D01*
X160610910Y-154486441D01*
X160823110Y-154631431D01*
X161075000Y-154682440D01*
X162775000Y-154682440D01*
X163010317Y-154638162D01*
X163226441Y-154499090D01*
X163371431Y-154286890D01*
X163422440Y-154035000D01*
X163422440Y-152035000D01*
X163378162Y-151799683D01*
X163239090Y-151583559D01*
X163026890Y-151438569D01*
X162775000Y-151387560D01*
X161882362Y-151387560D01*
X161177242Y-150682440D01*
X162775000Y-150682440D01*
X163010317Y-150638162D01*
X163226441Y-150499090D01*
X163371431Y-150286890D01*
X163422440Y-150035000D01*
X163422440Y-148035000D01*
X163378162Y-147799683D01*
X163239090Y-147583559D01*
X163216606Y-147568196D01*
X163642345Y-147142457D01*
X163671883Y-147213943D01*
X163705000Y-147247118D01*
X163705000Y-148325000D01*
X163762852Y-148615839D01*
X163927599Y-148862401D01*
X164732599Y-149667401D01*
X164872560Y-149760920D01*
X164872560Y-150130000D01*
X164916838Y-150365317D01*
X165055910Y-150581441D01*
X165268110Y-150726431D01*
X165520000Y-150777440D01*
X167220000Y-150777440D01*
X167455317Y-150733162D01*
X167671441Y-150594090D01*
X167816431Y-150381890D01*
X167867440Y-150130000D01*
X167867440Y-149890000D01*
X169317560Y-149890000D01*
X169317560Y-150130000D01*
X169361838Y-150365317D01*
X169500910Y-150581441D01*
X169713110Y-150726431D01*
X169965000Y-150777440D01*
X171665000Y-150777440D01*
X171900317Y-150733162D01*
X172116441Y-150594090D01*
X172261431Y-150381890D01*
X172312440Y-150130000D01*
X172312440Y-148130000D01*
X172268162Y-147894683D01*
X172129090Y-147678559D01*
X171916890Y-147533569D01*
X171665000Y-147482560D01*
X169965000Y-147482560D01*
X169729683Y-147526838D01*
X169513559Y-147665910D01*
X169368569Y-147878110D01*
X169317560Y-148130000D01*
X169317560Y-148370000D01*
X167867440Y-148370000D01*
X167867440Y-148130000D01*
X167823162Y-147894683D01*
X167684090Y-147678559D01*
X167471890Y-147533569D01*
X167220000Y-147482560D01*
X165520000Y-147482560D01*
X165284683Y-147526838D01*
X165225000Y-147565243D01*
X165225000Y-147247463D01*
X165257192Y-147215327D01*
X165399838Y-146871799D01*
X165400162Y-146499833D01*
X165265944Y-146175000D01*
X168445180Y-146175000D01*
X168736019Y-146117148D01*
X168982581Y-145952401D01*
X171129097Y-143805885D01*
X171293633Y-143874206D01*
X171943874Y-143874774D01*
X172544835Y-143626462D01*
X173005026Y-143167073D01*
X173254386Y-142566547D01*
X173254954Y-141916306D01*
X173006642Y-141315345D01*
X172547253Y-140855154D01*
X171946727Y-140605794D01*
X171296486Y-140605226D01*
X170695525Y-140853538D01*
X170235334Y-141312927D01*
X169985974Y-141913453D01*
X169985406Y-142563694D01*
X170054489Y-142730889D01*
X168130378Y-144655000D01*
X164295000Y-144655000D01*
X164004161Y-144712852D01*
X163757599Y-144877599D01*
X161387599Y-147247599D01*
X161294080Y-147387560D01*
X161075000Y-147387560D01*
X160839683Y-147431838D01*
X160623559Y-147570910D01*
X160478569Y-147783110D01*
X160427560Y-148035000D01*
X160427560Y-149932758D01*
X160197440Y-149702638D01*
X160197440Y-148130000D01*
X160153162Y-147894683D01*
X160014090Y-147678559D01*
X159801890Y-147533569D01*
X159550000Y-147482560D01*
X157950000Y-147482560D01*
X157714683Y-147526838D01*
X157498559Y-147665910D01*
X157353569Y-147878110D01*
X157302560Y-148130000D01*
X157022440Y-148130000D01*
X156978162Y-147894683D01*
X156839090Y-147678559D01*
X156626890Y-147533569D01*
X156375000Y-147482560D01*
X154972242Y-147482560D01*
X156279802Y-146175000D01*
X160825180Y-146175000D01*
X161116019Y-146117148D01*
X161362581Y-145952401D01*
X163509097Y-143805885D01*
X163673633Y-143874206D01*
X164323874Y-143874774D01*
X164924835Y-143626462D01*
X165385026Y-143167073D01*
X165634386Y-142566547D01*
X165634954Y-141916306D01*
X165386642Y-141315345D01*
X164927253Y-140855154D01*
X164326727Y-140605794D01*
X163676486Y-140605226D01*
X163075525Y-140853538D01*
X162615334Y-141312927D01*
X162365974Y-141913453D01*
X162365406Y-142563694D01*
X162434489Y-142730889D01*
X160510378Y-144655000D01*
X155965000Y-144655000D01*
X155674160Y-144712852D01*
X155427599Y-144877599D01*
X152822638Y-147482560D01*
X151550000Y-147482560D01*
X151314683Y-147526838D01*
X151098559Y-147665910D01*
X150953569Y-147878110D01*
X150902560Y-148130000D01*
X150902560Y-150130000D01*
X150946838Y-150365317D01*
X151085910Y-150581441D01*
X151298110Y-150726431D01*
X151550000Y-150777440D01*
X153250000Y-150777440D01*
X153485317Y-150733162D01*
X153701441Y-150594090D01*
X153846431Y-150381890D01*
X153897440Y-150130000D01*
X153897440Y-148557362D01*
X154127560Y-148327242D01*
X154127560Y-150130000D01*
X154135104Y-150170094D01*
X152822638Y-151482560D01*
X151550000Y-151482560D01*
X151314683Y-151526838D01*
X151098559Y-151665910D01*
X150953569Y-151878110D01*
X150902560Y-152130000D01*
X150902560Y-154130000D01*
X150946838Y-154365317D01*
X151085910Y-154581441D01*
X151298110Y-154726431D01*
X151550000Y-154777440D01*
X153250000Y-154777440D01*
X153485317Y-154733162D01*
X153701441Y-154594090D01*
X153846431Y-154381890D01*
X153897440Y-154130000D01*
X153897440Y-152557362D01*
X154127560Y-152327242D01*
X154127560Y-154130000D01*
X154171838Y-154365317D01*
X154310910Y-154581441D01*
X154523110Y-154726431D01*
X154775000Y-154777440D01*
X155450000Y-154777440D01*
X155450000Y-156418124D01*
X155225000Y-156372560D01*
X154855920Y-156372560D01*
X154762401Y-156232599D01*
X153567401Y-155037599D01*
X153320839Y-154872852D01*
X153030000Y-154815000D01*
X150047802Y-154815000D01*
X149932039Y-154699237D01*
X150095441Y-154594090D01*
X150240431Y-154381890D01*
X150291440Y-154130000D01*
X150291440Y-152130000D01*
X150247162Y-151894683D01*
X150108090Y-151678559D01*
X149895890Y-151533569D01*
X149644000Y-151482560D01*
X148044000Y-151482560D01*
X147808683Y-151526838D01*
X147592559Y-151665910D01*
X147447569Y-151878110D01*
X147396560Y-152130000D01*
X147396560Y-154130000D01*
X147440838Y-154365317D01*
X147579910Y-154581441D01*
X147792110Y-154726431D01*
X148044000Y-154777440D01*
X148102189Y-154777440D01*
X148141852Y-154976839D01*
X148306599Y-155223401D01*
X149195599Y-156112401D01*
X149442161Y-156277148D01*
X149559920Y-156300572D01*
X149559858Y-156372560D01*
X149265000Y-156372560D01*
X149029683Y-156416838D01*
X148813559Y-156555910D01*
X148668569Y-156768110D01*
X148617560Y-157020000D01*
X148617560Y-162433000D01*
X147952440Y-162433000D01*
X147952440Y-157020000D01*
X147908162Y-156784683D01*
X147769090Y-156568559D01*
X147556890Y-156423569D01*
X147305000Y-156372560D01*
X146935920Y-156372560D01*
X146842401Y-156232599D01*
X145387242Y-154777440D01*
X146646000Y-154777440D01*
X146881317Y-154733162D01*
X147097441Y-154594090D01*
X147242431Y-154381890D01*
X147293440Y-154130000D01*
X147293440Y-152130000D01*
X147265783Y-151983019D01*
X148471362Y-150777440D01*
X149644000Y-150777440D01*
X149879317Y-150733162D01*
X150095441Y-150594090D01*
X150240431Y-150381890D01*
X150291440Y-150130000D01*
X150291440Y-148130000D01*
X150247162Y-147894683D01*
X150108090Y-147678559D01*
X149895890Y-147533569D01*
X149644000Y-147482560D01*
X148368242Y-147482560D01*
X149675802Y-146175000D01*
X153205180Y-146175000D01*
X153496019Y-146117148D01*
X153742581Y-145952401D01*
X155889097Y-143805885D01*
X156053633Y-143874206D01*
X156703874Y-143874774D01*
X157304835Y-143626462D01*
X157765026Y-143167073D01*
X158014386Y-142566547D01*
X158014954Y-141916306D01*
X157766642Y-141315345D01*
X157307253Y-140855154D01*
X156706727Y-140605794D01*
X156056486Y-140605226D01*
X155455525Y-140853538D01*
X154995334Y-141312927D01*
X154745974Y-141913453D01*
X154745406Y-142563694D01*
X154814489Y-142730889D01*
X152890378Y-144655000D01*
X151430110Y-144655000D01*
X151430162Y-144594833D01*
X151389225Y-144495757D01*
X152079097Y-143805885D01*
X152243633Y-143874206D01*
X152893874Y-143874774D01*
X153494835Y-143626462D01*
X153955026Y-143167073D01*
X154204386Y-142566547D01*
X154204954Y-141916306D01*
X154135871Y-141749111D01*
X155424982Y-140460000D01*
X157335378Y-140460000D01*
X158624295Y-141748917D01*
X158555974Y-141913453D01*
X158555406Y-142563694D01*
X158803718Y-143164655D01*
X159263107Y-143624846D01*
X159863633Y-143874206D01*
X160513874Y-143874774D01*
X161114835Y-143626462D01*
X161575026Y-143167073D01*
X161824386Y-142566547D01*
X161824954Y-141916306D01*
X161576642Y-141315345D01*
X161117253Y-140855154D01*
X160516727Y-140605794D01*
X159866486Y-140605226D01*
X159699291Y-140674309D01*
X159484982Y-140460000D01*
X164955378Y-140460000D01*
X166244295Y-141748917D01*
X166175974Y-141913453D01*
X166175406Y-142563694D01*
X166423718Y-143164655D01*
X166883107Y-143624846D01*
X167483633Y-143874206D01*
X168133874Y-143874774D01*
X168734835Y-143626462D01*
X169195026Y-143167073D01*
X169444386Y-142566547D01*
X169444954Y-141916306D01*
X169196642Y-141315345D01*
X168737253Y-140855154D01*
X168136727Y-140605794D01*
X167486486Y-140605226D01*
X167319291Y-140674309D01*
X167104982Y-140460000D01*
X172575378Y-140460000D01*
X173864295Y-141748917D01*
X173795974Y-141913453D01*
X173795406Y-142563694D01*
X174043718Y-143164655D01*
X174503107Y-143624846D01*
X175103633Y-143874206D01*
X175753874Y-143874774D01*
X176354835Y-143626462D01*
X176815026Y-143167073D01*
X177064386Y-142566547D01*
X177064954Y-141916306D01*
X176816642Y-141315345D01*
X176357253Y-140855154D01*
X175756727Y-140605794D01*
X175106486Y-140605226D01*
X174939291Y-140674309D01*
X173427581Y-139162599D01*
X173181019Y-138997852D01*
X172890180Y-138940000D01*
X155110180Y-138940000D01*
X154867594Y-138988254D01*
X154819340Y-138997852D01*
X154572779Y-139162599D01*
X153061263Y-140674115D01*
X152896727Y-140605794D01*
X152246486Y-140605226D01*
X151645525Y-140853538D01*
X151185334Y-141312927D01*
X150935974Y-141913453D01*
X150935406Y-142563694D01*
X151004489Y-142730889D01*
X149957599Y-143777779D01*
X149792852Y-144024341D01*
X149759235Y-144193345D01*
X149702808Y-144249673D01*
X149560162Y-144593201D01*
X149560108Y-144655000D01*
X149361000Y-144655000D01*
X149070160Y-144712852D01*
X148823599Y-144877599D01*
X146218638Y-147482560D01*
X144946000Y-147482560D01*
X144710683Y-147526838D01*
X144494559Y-147665910D01*
X144349569Y-147878110D01*
X144341712Y-147916910D01*
X143582959Y-147158157D01*
X143651441Y-147114090D01*
X143796431Y-146901890D01*
X143847440Y-146650000D01*
X143847440Y-145850000D01*
X143803162Y-145614683D01*
X143664090Y-145398559D01*
X143451890Y-145253569D01*
X143200000Y-145202560D01*
X141300000Y-145202560D01*
X141064683Y-145246838D01*
X140848559Y-145385910D01*
X140847440Y-145387548D01*
X140847440Y-144900000D01*
X140803162Y-144664683D01*
X140664090Y-144448559D01*
X140451890Y-144303569D01*
X140200000Y-144252560D01*
X138300000Y-144252560D01*
X138064683Y-144296838D01*
X137976459Y-144353609D01*
X137997440Y-144250000D01*
X137997440Y-142563694D01*
X143315406Y-142563694D01*
X143563718Y-143164655D01*
X144023107Y-143624846D01*
X144623633Y-143874206D01*
X145273874Y-143874774D01*
X145874835Y-143626462D01*
X146335026Y-143167073D01*
X146584386Y-142566547D01*
X146584880Y-142000511D01*
X147125898Y-142000511D01*
X147125406Y-142563694D01*
X147373718Y-143164655D01*
X147833107Y-143624846D01*
X148433633Y-143874206D01*
X149083874Y-143874774D01*
X149684835Y-143626462D01*
X150145026Y-143167073D01*
X150394386Y-142566547D01*
X150394954Y-141916306D01*
X150146642Y-141315345D01*
X149687253Y-140855154D01*
X149086727Y-140605794D01*
X148436486Y-140605226D01*
X148260454Y-140677961D01*
X148051530Y-140538363D01*
X147760691Y-140480511D01*
X145949669Y-140480511D01*
X145658830Y-140538363D01*
X145450143Y-140677803D01*
X145276727Y-140605794D01*
X144626486Y-140605226D01*
X144025525Y-140853538D01*
X143565334Y-141312927D01*
X143315974Y-141913453D01*
X143315406Y-142563694D01*
X137997440Y-142563694D01*
X137997440Y-142250000D01*
X137953162Y-142014683D01*
X137814090Y-141798559D01*
X137601890Y-141653569D01*
X137350000Y-141602560D01*
X137260000Y-141602560D01*
X137260000Y-140500000D01*
X137202148Y-140209161D01*
X137037401Y-139962599D01*
X135685122Y-138610320D01*
X135685162Y-138564833D01*
X135543117Y-138221057D01*
X135280327Y-137957808D01*
X134936799Y-137815162D01*
X134575195Y-137814847D01*
X134597440Y-137705000D01*
X134597440Y-137105000D01*
X134553162Y-136869683D01*
X134489322Y-136770472D01*
X134546431Y-136686890D01*
X134597440Y-136435000D01*
X134597440Y-135835000D01*
X134553162Y-135599683D01*
X134489322Y-135500472D01*
X134546431Y-135416890D01*
X134597440Y-135165000D01*
X134597440Y-134608418D01*
X135315360Y-134608418D01*
X135315360Y-135713622D01*
X135481683Y-136549785D01*
X135955332Y-137258650D01*
X136664197Y-137732299D01*
X137500360Y-137898622D01*
X138336523Y-137732299D01*
X138708586Y-137483694D01*
X145220406Y-137483694D01*
X145468718Y-138084655D01*
X145928107Y-138544846D01*
X146528633Y-138794206D01*
X147178874Y-138794774D01*
X147779835Y-138546462D01*
X148240026Y-138087073D01*
X148489386Y-137486547D01*
X148489388Y-137483694D01*
X152840406Y-137483694D01*
X153088718Y-138084655D01*
X153548107Y-138544846D01*
X154148633Y-138794206D01*
X154798874Y-138794774D01*
X155399835Y-138546462D01*
X155860026Y-138087073D01*
X156109386Y-137486547D01*
X156109388Y-137483694D01*
X156650406Y-137483694D01*
X156898718Y-138084655D01*
X157358107Y-138544846D01*
X157958633Y-138794206D01*
X158608874Y-138794774D01*
X159209835Y-138546462D01*
X159670026Y-138087073D01*
X159919386Y-137486547D01*
X159919954Y-136836306D01*
X159850871Y-136669111D01*
X160969802Y-135550180D01*
X161711093Y-135550180D01*
X161170525Y-135773538D01*
X160710334Y-136232927D01*
X160460974Y-136833453D01*
X160460406Y-137483694D01*
X160708718Y-138084655D01*
X161168107Y-138544846D01*
X161768633Y-138794206D01*
X162418874Y-138794774D01*
X163019835Y-138546462D01*
X163480026Y-138087073D01*
X163729386Y-137486547D01*
X163729954Y-136836306D01*
X163481642Y-136235345D01*
X163022253Y-135775154D01*
X162480455Y-135550180D01*
X165521093Y-135550180D01*
X164980525Y-135773538D01*
X164520334Y-136232927D01*
X164270974Y-136833453D01*
X164270406Y-137483694D01*
X164518718Y-138084655D01*
X164978107Y-138544846D01*
X165578633Y-138794206D01*
X166228874Y-138794774D01*
X166829835Y-138546462D01*
X167290026Y-138087073D01*
X167539386Y-137486547D01*
X167539954Y-136836306D01*
X167291642Y-136235345D01*
X166832253Y-135775154D01*
X166290455Y-135550180D01*
X169331093Y-135550180D01*
X168790525Y-135773538D01*
X168330334Y-136232927D01*
X168080974Y-136833453D01*
X168080406Y-137483694D01*
X168328718Y-138084655D01*
X168788107Y-138544846D01*
X169388633Y-138794206D01*
X170038874Y-138794774D01*
X170639835Y-138546462D01*
X171100026Y-138087073D01*
X171349386Y-137486547D01*
X171349954Y-136836306D01*
X171101642Y-136235345D01*
X170642253Y-135775154D01*
X170100455Y-135550180D01*
X173141093Y-135550180D01*
X172600525Y-135773538D01*
X172140334Y-136232927D01*
X171890974Y-136833453D01*
X171890406Y-137483694D01*
X172138718Y-138084655D01*
X172598107Y-138544846D01*
X173198633Y-138794206D01*
X173848874Y-138794774D01*
X174016069Y-138725691D01*
X175527779Y-140237401D01*
X175774340Y-140402148D01*
X175822594Y-140411746D01*
X176065180Y-140460000D01*
X179390198Y-140460000D01*
X179535965Y-140605767D01*
X178916486Y-140605226D01*
X178315525Y-140853538D01*
X177855334Y-141312927D01*
X177605974Y-141913453D01*
X177605406Y-142563694D01*
X177674489Y-142730889D01*
X174087599Y-146317779D01*
X173922852Y-146564341D01*
X173865000Y-146855180D01*
X173865000Y-147387560D01*
X173775000Y-147387560D01*
X173539683Y-147431838D01*
X173323559Y-147570910D01*
X173178569Y-147783110D01*
X173127560Y-148035000D01*
X173127560Y-150035000D01*
X173171838Y-150270317D01*
X173310910Y-150486441D01*
X173523110Y-150631431D01*
X173775000Y-150682440D01*
X175475000Y-150682440D01*
X175710317Y-150638162D01*
X175926441Y-150499090D01*
X176071431Y-150286890D01*
X176122440Y-150035000D01*
X176122440Y-148035000D01*
X176078162Y-147799683D01*
X175939090Y-147583559D01*
X175726890Y-147438569D01*
X175475000Y-147387560D01*
X175385000Y-147387560D01*
X175385000Y-147169982D01*
X178749097Y-143805885D01*
X178913633Y-143874206D01*
X179563874Y-143874774D01*
X180164835Y-143626462D01*
X180215000Y-143576384D01*
X180215000Y-146645198D01*
X179177734Y-147682464D01*
X179114090Y-147583559D01*
X178901890Y-147438569D01*
X178650000Y-147387560D01*
X176950000Y-147387560D01*
X176714683Y-147431838D01*
X176498559Y-147570910D01*
X176353569Y-147783110D01*
X176302560Y-148035000D01*
X176302560Y-150035000D01*
X176346838Y-150270317D01*
X176485910Y-150486441D01*
X176698110Y-150631431D01*
X176950000Y-150682440D01*
X178650000Y-150682440D01*
X178885317Y-150638162D01*
X179101441Y-150499090D01*
X179246431Y-150286890D01*
X179297440Y-150035000D01*
X179297440Y-149665920D01*
X179437401Y-149572401D01*
X181512401Y-147497401D01*
X181677148Y-147250839D01*
X181735000Y-146960000D01*
X181735000Y-140970000D01*
X181700757Y-140797852D01*
X181677148Y-140679160D01*
X181512401Y-140432599D01*
X180242401Y-139162599D01*
X179995839Y-138997852D01*
X179705000Y-138940000D01*
X176379982Y-138940000D01*
X175091065Y-137651083D01*
X175159386Y-137486547D01*
X175159954Y-136836306D01*
X174911642Y-136235345D01*
X174452253Y-135775154D01*
X173910455Y-135550180D01*
X180761093Y-135550180D01*
X180220525Y-135773538D01*
X179760334Y-136232927D01*
X179510974Y-136833453D01*
X179510406Y-137483694D01*
X179758718Y-138084655D01*
X180218107Y-138544846D01*
X180818633Y-138794206D01*
X181468874Y-138794774D01*
X182069835Y-138546462D01*
X182530026Y-138087073D01*
X182779386Y-137486547D01*
X182779954Y-136836306D01*
X182531642Y-136235345D01*
X182072253Y-135775154D01*
X181530455Y-135550180D01*
X182100378Y-135550180D01*
X185119878Y-138569680D01*
X185119838Y-138615167D01*
X185261883Y-138958943D01*
X185524673Y-139222192D01*
X185868201Y-139364838D01*
X186240167Y-139365162D01*
X186583943Y-139223117D01*
X186847192Y-138960327D01*
X186989838Y-138616799D01*
X186990162Y-138244833D01*
X186848117Y-137901057D01*
X186585327Y-137637808D01*
X186241799Y-137495162D01*
X186194923Y-137495121D01*
X183308220Y-134608418D01*
X188315000Y-134608418D01*
X188315000Y-135713622D01*
X188481323Y-136549785D01*
X188954972Y-137258650D01*
X189663837Y-137732299D01*
X190500000Y-137898622D01*
X191336163Y-137732299D01*
X192045028Y-137258650D01*
X192518677Y-136549785D01*
X192594885Y-136166661D01*
X194182758Y-136166661D01*
X194394990Y-136680303D01*
X194787630Y-137073629D01*
X195300900Y-137286757D01*
X195856661Y-137287242D01*
X196370303Y-137075010D01*
X196763629Y-136682370D01*
X196976757Y-136169100D01*
X196976759Y-136166661D01*
X199262758Y-136166661D01*
X199474990Y-136680303D01*
X199867630Y-137073629D01*
X200380900Y-137286757D01*
X200936661Y-137287242D01*
X201450303Y-137075010D01*
X201843629Y-136682370D01*
X202056757Y-136169100D01*
X202057242Y-135613339D01*
X201845010Y-135099697D01*
X201452370Y-134706371D01*
X201420000Y-134692930D01*
X201420000Y-134244802D01*
X202562401Y-133102401D01*
X202669283Y-132942440D01*
X203025000Y-132942440D01*
X203260317Y-132898162D01*
X203476441Y-132759090D01*
X203621431Y-132546890D01*
X203672440Y-132295000D01*
X203672440Y-130595000D01*
X203628162Y-130359683D01*
X203489090Y-130143559D01*
X203276890Y-129998569D01*
X203025000Y-129947560D01*
X202785000Y-129947560D01*
X202785000Y-129767440D01*
X203025000Y-129767440D01*
X203260317Y-129723162D01*
X203476441Y-129584090D01*
X203621431Y-129371890D01*
X203672440Y-129120000D01*
X203672440Y-127420000D01*
X203628162Y-127184683D01*
X203489090Y-126968559D01*
X203276890Y-126823569D01*
X203025000Y-126772560D01*
X201025000Y-126772560D01*
X200789683Y-126816838D01*
X200573559Y-126955910D01*
X200428569Y-127168110D01*
X200377560Y-127420000D01*
X200377560Y-129120000D01*
X200421838Y-129355317D01*
X200560910Y-129571441D01*
X200773110Y-129716431D01*
X201025000Y-129767440D01*
X201265000Y-129767440D01*
X201265000Y-129947560D01*
X201025000Y-129947560D01*
X200789683Y-129991838D01*
X200573559Y-130130910D01*
X200428569Y-130343110D01*
X200377560Y-130595000D01*
X200377560Y-132295000D01*
X200421838Y-132530317D01*
X200560910Y-132746441D01*
X200684388Y-132830810D01*
X200122599Y-133392599D01*
X199957852Y-133639161D01*
X199900000Y-133930000D01*
X199900000Y-134692469D01*
X199869697Y-134704990D01*
X199476371Y-135097630D01*
X199263243Y-135610900D01*
X199262758Y-136166661D01*
X196976759Y-136166661D01*
X196977242Y-135613339D01*
X196765010Y-135099697D01*
X196372370Y-134706371D01*
X195859100Y-134493243D01*
X195303339Y-134492758D01*
X194789697Y-134704990D01*
X194396371Y-135097630D01*
X194183243Y-135610900D01*
X194182758Y-136166661D01*
X192594885Y-136166661D01*
X192685000Y-135713622D01*
X192685000Y-134608418D01*
X192518677Y-133772255D01*
X192045028Y-133063390D01*
X191336163Y-132589741D01*
X190500000Y-132423418D01*
X189663837Y-132589741D01*
X188954972Y-133063390D01*
X188481323Y-133772255D01*
X188315000Y-134608418D01*
X183308220Y-134608418D01*
X182952581Y-134252779D01*
X182706019Y-134088032D01*
X182415180Y-134030180D01*
X160655000Y-134030180D01*
X160364161Y-134088032D01*
X160117599Y-134252779D01*
X158776263Y-135594115D01*
X158611727Y-135525794D01*
X157961486Y-135525226D01*
X157360525Y-135773538D01*
X156900334Y-136232927D01*
X156650974Y-136833453D01*
X156650406Y-137483694D01*
X156109388Y-137483694D01*
X156109954Y-136836306D01*
X155861642Y-136235345D01*
X155402253Y-135775154D01*
X154801727Y-135525794D01*
X154151486Y-135525226D01*
X153550525Y-135773538D01*
X153090334Y-136232927D01*
X152840974Y-136833453D01*
X152840406Y-137483694D01*
X148489388Y-137483694D01*
X148489954Y-136836306D01*
X148241642Y-136235345D01*
X147782253Y-135775154D01*
X147181727Y-135525794D01*
X146531486Y-135525226D01*
X145930525Y-135773538D01*
X145470334Y-136232927D01*
X145220974Y-136833453D01*
X145220406Y-137483694D01*
X138708586Y-137483694D01*
X139045388Y-137258650D01*
X139519037Y-136549785D01*
X139685360Y-135713622D01*
X139685360Y-134608418D01*
X139519037Y-133772255D01*
X139045388Y-133063390D01*
X138336523Y-132589741D01*
X137500360Y-132423418D01*
X136664197Y-132589741D01*
X135955332Y-133063390D01*
X135481683Y-133772255D01*
X135315360Y-134608418D01*
X134597440Y-134608418D01*
X134597440Y-134565000D01*
X134553162Y-134329683D01*
X134489322Y-134230472D01*
X134546431Y-134146890D01*
X134597440Y-133895000D01*
X134597440Y-133295000D01*
X134553162Y-133059683D01*
X134489322Y-132960472D01*
X134546431Y-132876890D01*
X134597440Y-132625000D01*
X134597440Y-132025000D01*
X134553162Y-131789683D01*
X134414090Y-131573559D01*
X134201890Y-131428569D01*
X133950000Y-131377560D01*
X132450000Y-131377560D01*
X132214683Y-131421838D01*
X131998559Y-131560910D01*
X131853569Y-131773110D01*
X131802560Y-132025000D01*
X131802560Y-132197638D01*
X129312579Y-134687619D01*
X129197440Y-134859937D01*
X129197440Y-134565000D01*
X129153162Y-134329683D01*
X129089322Y-134230472D01*
X129146431Y-134146890D01*
X129197440Y-133895000D01*
X129197440Y-133295000D01*
X129153162Y-133059683D01*
X129089322Y-132960472D01*
X129146431Y-132876890D01*
X129197440Y-132625000D01*
X129197440Y-132025000D01*
X129153162Y-131789683D01*
X129089322Y-131690472D01*
X129146431Y-131606890D01*
X129197440Y-131355000D01*
X129197440Y-130755000D01*
X129153162Y-130519683D01*
X129014090Y-130303559D01*
X128801890Y-130158569D01*
X128550000Y-130107560D01*
X127659642Y-130107560D01*
X128159536Y-129607666D01*
X128540000Y-129683345D01*
X129113489Y-129569271D01*
X129599670Y-129244415D01*
X129609243Y-129230087D01*
X129613238Y-129251317D01*
X129752310Y-129467441D01*
X129964510Y-129612431D01*
X130216400Y-129663440D01*
X131943600Y-129663440D01*
X132178917Y-129619162D01*
X132395041Y-129480090D01*
X132540031Y-129267890D01*
X132591040Y-129016000D01*
X132591040Y-128435167D01*
X137064838Y-128435167D01*
X137206883Y-128778943D01*
X137469673Y-129042192D01*
X137813201Y-129184838D01*
X137860077Y-129184879D01*
X139314878Y-130639680D01*
X139314838Y-130685167D01*
X139456883Y-131028943D01*
X139719673Y-131292192D01*
X140063201Y-131434838D01*
X140435167Y-131435162D01*
X140778943Y-131293117D01*
X141042192Y-131030327D01*
X141184838Y-130686799D01*
X141185162Y-130314833D01*
X141043117Y-129971057D01*
X140780327Y-129707808D01*
X140436799Y-129565162D01*
X140389923Y-129565121D01*
X139279969Y-128455167D01*
X191469838Y-128455167D01*
X191611883Y-128798943D01*
X191874673Y-129062192D01*
X192218201Y-129204838D01*
X192590167Y-129205162D01*
X192933943Y-129063117D01*
X192967118Y-129030000D01*
X196377560Y-129030000D01*
X196377560Y-129120000D01*
X196421838Y-129355317D01*
X196560910Y-129571441D01*
X196773110Y-129716431D01*
X197025000Y-129767440D01*
X199025000Y-129767440D01*
X199260317Y-129723162D01*
X199476441Y-129584090D01*
X199621431Y-129371890D01*
X199672440Y-129120000D01*
X199672440Y-127420000D01*
X199628162Y-127184683D01*
X199489090Y-126968559D01*
X199276890Y-126823569D01*
X199025000Y-126772560D01*
X197025000Y-126772560D01*
X196789683Y-126816838D01*
X196573559Y-126955910D01*
X196428569Y-127168110D01*
X196377560Y-127420000D01*
X196377560Y-127510000D01*
X192967463Y-127510000D01*
X192935327Y-127477808D01*
X192591799Y-127335162D01*
X192219833Y-127334838D01*
X191876057Y-127476883D01*
X191612808Y-127739673D01*
X191470162Y-128083201D01*
X191469838Y-128455167D01*
X139279969Y-128455167D01*
X138935122Y-128110320D01*
X138935162Y-128064833D01*
X138793117Y-127721057D01*
X138530327Y-127457808D01*
X138186799Y-127315162D01*
X137814833Y-127314838D01*
X137471057Y-127456883D01*
X137207808Y-127719673D01*
X137065162Y-128063201D01*
X137064838Y-128435167D01*
X132591040Y-128435167D01*
X132591040Y-126984000D01*
X132546762Y-126748683D01*
X132407690Y-126532559D01*
X132348330Y-126492000D01*
X203708000Y-126492000D01*
X203708000Y-162433000D01*
G36*
X142438338Y-149528138D02*
X142348559Y-149585910D01*
X142203569Y-149798110D01*
X142152560Y-150050000D01*
X142152560Y-151950000D01*
X142196838Y-152185317D01*
X142335910Y-152401441D01*
X142337548Y-152402560D01*
X141850000Y-152402560D01*
X141614683Y-152446838D01*
X141398559Y-152585910D01*
X141253569Y-152798110D01*
X141202560Y-153050000D01*
X141202560Y-154950000D01*
X141246838Y-155185317D01*
X141385910Y-155401441D01*
X141490000Y-155472563D01*
X141490000Y-156372560D01*
X141345000Y-156372560D01*
X141109683Y-156416838D01*
X140893559Y-156555910D01*
X140748569Y-156768110D01*
X140697560Y-157020000D01*
X140697560Y-162433000D01*
X140032440Y-162433000D01*
X140032440Y-157020000D01*
X139988162Y-156784683D01*
X139849090Y-156568559D01*
X139636890Y-156423569D01*
X139385000Y-156372560D01*
X139010000Y-156372560D01*
X139010000Y-155472931D01*
X139101441Y-155414090D01*
X139246431Y-155201890D01*
X139297440Y-154950000D01*
X139297440Y-153050000D01*
X139253162Y-152814683D01*
X139114090Y-152598559D01*
X139112452Y-152597440D01*
X139600000Y-152597440D01*
X139835317Y-152553162D01*
X140051441Y-152414090D01*
X140196431Y-152201890D01*
X140247440Y-151950000D01*
X140247440Y-150050000D01*
X140203162Y-149814683D01*
X140064090Y-149598559D01*
X139851890Y-149453569D01*
X139600000Y-149402560D01*
X139227362Y-149402560D01*
X138418377Y-148593575D01*
X138435001Y-148510001D01*
X138435001Y-147234999D01*
X140145199Y-147234999D01*
X142438338Y-149528138D01*
X142438338Y-149528138D01*
G37*
X142438338Y-149528138D02*
X142348559Y-149585910D01*
X142203569Y-149798110D01*
X142152560Y-150050000D01*
X142152560Y-151950000D01*
X142196838Y-152185317D01*
X142335910Y-152401441D01*
X142337548Y-152402560D01*
X141850000Y-152402560D01*
X141614683Y-152446838D01*
X141398559Y-152585910D01*
X141253569Y-152798110D01*
X141202560Y-153050000D01*
X141202560Y-154950000D01*
X141246838Y-155185317D01*
X141385910Y-155401441D01*
X141490000Y-155472563D01*
X141490000Y-156372560D01*
X141345000Y-156372560D01*
X141109683Y-156416838D01*
X140893559Y-156555910D01*
X140748569Y-156768110D01*
X140697560Y-157020000D01*
X140697560Y-162433000D01*
X140032440Y-162433000D01*
X140032440Y-157020000D01*
X139988162Y-156784683D01*
X139849090Y-156568559D01*
X139636890Y-156423569D01*
X139385000Y-156372560D01*
X139010000Y-156372560D01*
X139010000Y-155472931D01*
X139101441Y-155414090D01*
X139246431Y-155201890D01*
X139297440Y-154950000D01*
X139297440Y-153050000D01*
X139253162Y-152814683D01*
X139114090Y-152598559D01*
X139112452Y-152597440D01*
X139600000Y-152597440D01*
X139835317Y-152553162D01*
X140051441Y-152414090D01*
X140196431Y-152201890D01*
X140247440Y-151950000D01*
X140247440Y-150050000D01*
X140203162Y-149814683D01*
X140064090Y-149598559D01*
X139851890Y-149453569D01*
X139600000Y-149402560D01*
X139227362Y-149402560D01*
X138418377Y-148593575D01*
X138435001Y-148510001D01*
X138435001Y-147234999D01*
X140145199Y-147234999D01*
X142438338Y-149528138D01*
G36*
X106402560Y-151950000D02*
X106446838Y-152185317D01*
X106585910Y-152401441D01*
X106587548Y-152402560D01*
X106100000Y-152402560D01*
X105864683Y-152446838D01*
X105648559Y-152585910D01*
X105503569Y-152798110D01*
X105452560Y-153050000D01*
X105452560Y-154950000D01*
X105496838Y-155185317D01*
X105635910Y-155401441D01*
X105740000Y-155472563D01*
X105740000Y-156372560D01*
X105705000Y-156372560D01*
X105469683Y-156416838D01*
X105253559Y-156555910D01*
X105108569Y-156768110D01*
X105057560Y-157020000D01*
X105057560Y-162433000D01*
X104392440Y-162433000D01*
X104392440Y-157020000D01*
X104348162Y-156784683D01*
X104209090Y-156568559D01*
X103996890Y-156423569D01*
X103745000Y-156372560D01*
X101745000Y-156372560D01*
X101509683Y-156416838D01*
X101293559Y-156555910D01*
X101148569Y-156768110D01*
X101097560Y-157020000D01*
X101097560Y-162433000D01*
X93472000Y-162433000D01*
X93472000Y-155726100D01*
X93648110Y-155846431D01*
X93900000Y-155897440D01*
X95600000Y-155897440D01*
X95835317Y-155853162D01*
X96051441Y-155714090D01*
X96124884Y-155606603D01*
X96185910Y-155701441D01*
X96398110Y-155846431D01*
X96650000Y-155897440D01*
X98350000Y-155897440D01*
X98585317Y-155853162D01*
X98801441Y-155714090D01*
X98874884Y-155606603D01*
X98935910Y-155701441D01*
X99148110Y-155846431D01*
X99400000Y-155897440D01*
X101100000Y-155897440D01*
X101335317Y-155853162D01*
X101551441Y-155714090D01*
X101624884Y-155606603D01*
X101685910Y-155701441D01*
X101898110Y-155846431D01*
X102150000Y-155897440D01*
X103850000Y-155897440D01*
X104085317Y-155853162D01*
X104301441Y-155714090D01*
X104446431Y-155501890D01*
X104497440Y-155250000D01*
X104497440Y-153250000D01*
X104453162Y-153014683D01*
X104314090Y-152798559D01*
X104101890Y-152653569D01*
X103864766Y-152605550D01*
X103934838Y-152436799D01*
X103935162Y-152064833D01*
X103864843Y-151894647D01*
X104085317Y-151853162D01*
X104301441Y-151714090D01*
X104446431Y-151501890D01*
X104497440Y-151250000D01*
X104497440Y-150880920D01*
X104637401Y-150787401D01*
X104939803Y-150484999D01*
X106402560Y-150484999D01*
X106402560Y-151950000D01*
X106402560Y-151950000D01*
G37*
X106402560Y-151950000D02*
X106446838Y-152185317D01*
X106585910Y-152401441D01*
X106587548Y-152402560D01*
X106100000Y-152402560D01*
X105864683Y-152446838D01*
X105648559Y-152585910D01*
X105503569Y-152798110D01*
X105452560Y-153050000D01*
X105452560Y-154950000D01*
X105496838Y-155185317D01*
X105635910Y-155401441D01*
X105740000Y-155472563D01*
X105740000Y-156372560D01*
X105705000Y-156372560D01*
X105469683Y-156416838D01*
X105253559Y-156555910D01*
X105108569Y-156768110D01*
X105057560Y-157020000D01*
X105057560Y-162433000D01*
X104392440Y-162433000D01*
X104392440Y-157020000D01*
X104348162Y-156784683D01*
X104209090Y-156568559D01*
X103996890Y-156423569D01*
X103745000Y-156372560D01*
X101745000Y-156372560D01*
X101509683Y-156416838D01*
X101293559Y-156555910D01*
X101148569Y-156768110D01*
X101097560Y-157020000D01*
X101097560Y-162433000D01*
X93472000Y-162433000D01*
X93472000Y-155726100D01*
X93648110Y-155846431D01*
X93900000Y-155897440D01*
X95600000Y-155897440D01*
X95835317Y-155853162D01*
X96051441Y-155714090D01*
X96124884Y-155606603D01*
X96185910Y-155701441D01*
X96398110Y-155846431D01*
X96650000Y-155897440D01*
X98350000Y-155897440D01*
X98585317Y-155853162D01*
X98801441Y-155714090D01*
X98874884Y-155606603D01*
X98935910Y-155701441D01*
X99148110Y-155846431D01*
X99400000Y-155897440D01*
X101100000Y-155897440D01*
X101335317Y-155853162D01*
X101551441Y-155714090D01*
X101624884Y-155606603D01*
X101685910Y-155701441D01*
X101898110Y-155846431D01*
X102150000Y-155897440D01*
X103850000Y-155897440D01*
X104085317Y-155853162D01*
X104301441Y-155714090D01*
X104446431Y-155501890D01*
X104497440Y-155250000D01*
X104497440Y-153250000D01*
X104453162Y-153014683D01*
X104314090Y-152798559D01*
X104101890Y-152653569D01*
X103864766Y-152605550D01*
X103934838Y-152436799D01*
X103935162Y-152064833D01*
X103864843Y-151894647D01*
X104085317Y-151853162D01*
X104301441Y-151714090D01*
X104446431Y-151501890D01*
X104497440Y-151250000D01*
X104497440Y-150880920D01*
X104637401Y-150787401D01*
X104939803Y-150484999D01*
X106402560Y-150484999D01*
X106402560Y-151950000D01*
G36*
X110402560Y-150477362D02*
X110402560Y-151950000D01*
X110446838Y-152185317D01*
X110585910Y-152401441D01*
X110587548Y-152402560D01*
X110100000Y-152402560D01*
X109864683Y-152446838D01*
X109648559Y-152585910D01*
X109503569Y-152798110D01*
X109452560Y-153050000D01*
X109452560Y-154950000D01*
X109496838Y-155185317D01*
X109635910Y-155401441D01*
X109740000Y-155472563D01*
X109740000Y-156372560D01*
X109665000Y-156372560D01*
X109429683Y-156416838D01*
X109213559Y-156555910D01*
X109068569Y-156768110D01*
X109017560Y-157020000D01*
X109017560Y-162433000D01*
X108352440Y-162433000D01*
X108352440Y-157020000D01*
X108308162Y-156784683D01*
X108169090Y-156568559D01*
X107956890Y-156423569D01*
X107705000Y-156372560D01*
X107260000Y-156372560D01*
X107260000Y-155472931D01*
X107351441Y-155414090D01*
X107496431Y-155201890D01*
X107547440Y-154950000D01*
X107547440Y-153050000D01*
X107503162Y-152814683D01*
X107364090Y-152598559D01*
X107362452Y-152597440D01*
X107850000Y-152597440D01*
X108085317Y-152553162D01*
X108301441Y-152414090D01*
X108446431Y-152201890D01*
X108497440Y-151950000D01*
X108497440Y-150050000D01*
X108453162Y-149814683D01*
X108369713Y-149684999D01*
X109610197Y-149684999D01*
X110402560Y-150477362D01*
X110402560Y-150477362D01*
G37*
X110402560Y-150477362D02*
X110402560Y-151950000D01*
X110446838Y-152185317D01*
X110585910Y-152401441D01*
X110587548Y-152402560D01*
X110100000Y-152402560D01*
X109864683Y-152446838D01*
X109648559Y-152585910D01*
X109503569Y-152798110D01*
X109452560Y-153050000D01*
X109452560Y-154950000D01*
X109496838Y-155185317D01*
X109635910Y-155401441D01*
X109740000Y-155472563D01*
X109740000Y-156372560D01*
X109665000Y-156372560D01*
X109429683Y-156416838D01*
X109213559Y-156555910D01*
X109068569Y-156768110D01*
X109017560Y-157020000D01*
X109017560Y-162433000D01*
X108352440Y-162433000D01*
X108352440Y-157020000D01*
X108308162Y-156784683D01*
X108169090Y-156568559D01*
X107956890Y-156423569D01*
X107705000Y-156372560D01*
X107260000Y-156372560D01*
X107260000Y-155472931D01*
X107351441Y-155414090D01*
X107496431Y-155201890D01*
X107547440Y-154950000D01*
X107547440Y-153050000D01*
X107503162Y-152814683D01*
X107364090Y-152598559D01*
X107362452Y-152597440D01*
X107850000Y-152597440D01*
X108085317Y-152553162D01*
X108301441Y-152414090D01*
X108446431Y-152201890D01*
X108497440Y-151950000D01*
X108497440Y-150050000D01*
X108453162Y-149814683D01*
X108369713Y-149684999D01*
X109610197Y-149684999D01*
X110402560Y-150477362D01*
G36*
X114402560Y-150477362D02*
X114402560Y-151950000D01*
X114446838Y-152185317D01*
X114585910Y-152401441D01*
X114587548Y-152402560D01*
X114100000Y-152402560D01*
X113864683Y-152446838D01*
X113648559Y-152585910D01*
X113503569Y-152798110D01*
X113452560Y-153050000D01*
X113452560Y-154950000D01*
X113496838Y-155185317D01*
X113635910Y-155401441D01*
X113740000Y-155472563D01*
X113740000Y-156372560D01*
X113625000Y-156372560D01*
X113389683Y-156416838D01*
X113173559Y-156555910D01*
X113028569Y-156768110D01*
X112977560Y-157020000D01*
X112977560Y-162433000D01*
X112312440Y-162433000D01*
X112312440Y-157020000D01*
X112268162Y-156784683D01*
X112129090Y-156568559D01*
X111916890Y-156423569D01*
X111665000Y-156372560D01*
X111260000Y-156372560D01*
X111260000Y-155472931D01*
X111351441Y-155414090D01*
X111496431Y-155201890D01*
X111547440Y-154950000D01*
X111547440Y-153050000D01*
X111503162Y-152814683D01*
X111364090Y-152598559D01*
X111362452Y-152597440D01*
X111850000Y-152597440D01*
X112085317Y-152553162D01*
X112301441Y-152414090D01*
X112446431Y-152201890D01*
X112497440Y-151950000D01*
X112497440Y-150050000D01*
X112453162Y-149814683D01*
X112314090Y-149598559D01*
X112101890Y-149453569D01*
X111850000Y-149402560D01*
X111477362Y-149402560D01*
X111309791Y-149234989D01*
X113160187Y-149234989D01*
X114402560Y-150477362D01*
X114402560Y-150477362D01*
G37*
X114402560Y-150477362D02*
X114402560Y-151950000D01*
X114446838Y-152185317D01*
X114585910Y-152401441D01*
X114587548Y-152402560D01*
X114100000Y-152402560D01*
X113864683Y-152446838D01*
X113648559Y-152585910D01*
X113503569Y-152798110D01*
X113452560Y-153050000D01*
X113452560Y-154950000D01*
X113496838Y-155185317D01*
X113635910Y-155401441D01*
X113740000Y-155472563D01*
X113740000Y-156372560D01*
X113625000Y-156372560D01*
X113389683Y-156416838D01*
X113173559Y-156555910D01*
X113028569Y-156768110D01*
X112977560Y-157020000D01*
X112977560Y-162433000D01*
X112312440Y-162433000D01*
X112312440Y-157020000D01*
X112268162Y-156784683D01*
X112129090Y-156568559D01*
X111916890Y-156423569D01*
X111665000Y-156372560D01*
X111260000Y-156372560D01*
X111260000Y-155472931D01*
X111351441Y-155414090D01*
X111496431Y-155201890D01*
X111547440Y-154950000D01*
X111547440Y-153050000D01*
X111503162Y-152814683D01*
X111364090Y-152598559D01*
X111362452Y-152597440D01*
X111850000Y-152597440D01*
X112085317Y-152553162D01*
X112301441Y-152414090D01*
X112446431Y-152201890D01*
X112497440Y-151950000D01*
X112497440Y-150050000D01*
X112453162Y-149814683D01*
X112314090Y-149598559D01*
X112101890Y-149453569D01*
X111850000Y-149402560D01*
X111477362Y-149402560D01*
X111309791Y-149234989D01*
X113160187Y-149234989D01*
X114402560Y-150477362D01*
G36*
X118402560Y-150992360D02*
X118402560Y-151950000D01*
X118446838Y-152185317D01*
X118585910Y-152401441D01*
X118587548Y-152402560D01*
X118100000Y-152402560D01*
X117864683Y-152446838D01*
X117648559Y-152585910D01*
X117503569Y-152798110D01*
X117452560Y-153050000D01*
X117452560Y-154950000D01*
X117496838Y-155185317D01*
X117635910Y-155401441D01*
X117740000Y-155472563D01*
X117740000Y-156372560D01*
X117585000Y-156372560D01*
X117349683Y-156416838D01*
X117133559Y-156555910D01*
X116988569Y-156768110D01*
X116937560Y-157020000D01*
X116937560Y-162433000D01*
X116272440Y-162433000D01*
X116272440Y-157020000D01*
X116228162Y-156784683D01*
X116089090Y-156568559D01*
X115876890Y-156423569D01*
X115625000Y-156372560D01*
X115260000Y-156372560D01*
X115260000Y-155472931D01*
X115351441Y-155414090D01*
X115496431Y-155201890D01*
X115547440Y-154950000D01*
X115547440Y-153050000D01*
X115503162Y-152814683D01*
X115364090Y-152598559D01*
X115362452Y-152597440D01*
X115850000Y-152597440D01*
X116085317Y-152553162D01*
X116301441Y-152414090D01*
X116446431Y-152201890D01*
X116497440Y-151950000D01*
X116497440Y-150050000D01*
X116453162Y-149814683D01*
X116314090Y-149598559D01*
X116101890Y-149453569D01*
X115850000Y-149402560D01*
X115477362Y-149402560D01*
X114859781Y-148784979D01*
X116195179Y-148784979D01*
X118402560Y-150992360D01*
X118402560Y-150992360D01*
G37*
X118402560Y-150992360D02*
X118402560Y-151950000D01*
X118446838Y-152185317D01*
X118585910Y-152401441D01*
X118587548Y-152402560D01*
X118100000Y-152402560D01*
X117864683Y-152446838D01*
X117648559Y-152585910D01*
X117503569Y-152798110D01*
X117452560Y-153050000D01*
X117452560Y-154950000D01*
X117496838Y-155185317D01*
X117635910Y-155401441D01*
X117740000Y-155472563D01*
X117740000Y-156372560D01*
X117585000Y-156372560D01*
X117349683Y-156416838D01*
X117133559Y-156555910D01*
X116988569Y-156768110D01*
X116937560Y-157020000D01*
X116937560Y-162433000D01*
X116272440Y-162433000D01*
X116272440Y-157020000D01*
X116228162Y-156784683D01*
X116089090Y-156568559D01*
X115876890Y-156423569D01*
X115625000Y-156372560D01*
X115260000Y-156372560D01*
X115260000Y-155472931D01*
X115351441Y-155414090D01*
X115496431Y-155201890D01*
X115547440Y-154950000D01*
X115547440Y-153050000D01*
X115503162Y-152814683D01*
X115364090Y-152598559D01*
X115362452Y-152597440D01*
X115850000Y-152597440D01*
X116085317Y-152553162D01*
X116301441Y-152414090D01*
X116446431Y-152201890D01*
X116497440Y-151950000D01*
X116497440Y-150050000D01*
X116453162Y-149814683D01*
X116314090Y-149598559D01*
X116101890Y-149453569D01*
X115850000Y-149402560D01*
X115477362Y-149402560D01*
X114859781Y-148784979D01*
X116195179Y-148784979D01*
X118402560Y-150992360D01*
G36*
X118887600Y-149112402D02*
X119134161Y-149277149D01*
X119425001Y-149335001D01*
X121210199Y-149335001D01*
X122352560Y-150477362D01*
X122352560Y-151950000D01*
X122396838Y-152185317D01*
X122535910Y-152401441D01*
X122537548Y-152402560D01*
X122050000Y-152402560D01*
X121814683Y-152446838D01*
X121598559Y-152585910D01*
X121453569Y-152798110D01*
X121402560Y-153050000D01*
X121402560Y-154950000D01*
X121446838Y-155185317D01*
X121585910Y-155401441D01*
X121690000Y-155472563D01*
X121690000Y-156372560D01*
X121545000Y-156372560D01*
X121309683Y-156416838D01*
X121093559Y-156555910D01*
X120948569Y-156768110D01*
X120897560Y-157020000D01*
X120897560Y-162433000D01*
X120232440Y-162433000D01*
X120232440Y-157020000D01*
X120188162Y-156784683D01*
X120049090Y-156568559D01*
X119836890Y-156423569D01*
X119585000Y-156372560D01*
X119260000Y-156372560D01*
X119260000Y-155472931D01*
X119351441Y-155414090D01*
X119496431Y-155201890D01*
X119547440Y-154950000D01*
X119547440Y-153050000D01*
X119503162Y-152814683D01*
X119364090Y-152598559D01*
X119362452Y-152597440D01*
X119850000Y-152597440D01*
X120085317Y-152553162D01*
X120301441Y-152414090D01*
X120446431Y-152201890D01*
X120497440Y-151950000D01*
X120497440Y-150050000D01*
X120453162Y-149814683D01*
X120314090Y-149598559D01*
X120101890Y-149453569D01*
X119850000Y-149402560D01*
X119050000Y-149402560D01*
X118976242Y-149416438D01*
X118457244Y-148897440D01*
X118672638Y-148897440D01*
X118887600Y-149112402D01*
X118887600Y-149112402D01*
G37*
X118887600Y-149112402D02*
X119134161Y-149277149D01*
X119425001Y-149335001D01*
X121210199Y-149335001D01*
X122352560Y-150477362D01*
X122352560Y-151950000D01*
X122396838Y-152185317D01*
X122535910Y-152401441D01*
X122537548Y-152402560D01*
X122050000Y-152402560D01*
X121814683Y-152446838D01*
X121598559Y-152585910D01*
X121453569Y-152798110D01*
X121402560Y-153050000D01*
X121402560Y-154950000D01*
X121446838Y-155185317D01*
X121585910Y-155401441D01*
X121690000Y-155472563D01*
X121690000Y-156372560D01*
X121545000Y-156372560D01*
X121309683Y-156416838D01*
X121093559Y-156555910D01*
X120948569Y-156768110D01*
X120897560Y-157020000D01*
X120897560Y-162433000D01*
X120232440Y-162433000D01*
X120232440Y-157020000D01*
X120188162Y-156784683D01*
X120049090Y-156568559D01*
X119836890Y-156423569D01*
X119585000Y-156372560D01*
X119260000Y-156372560D01*
X119260000Y-155472931D01*
X119351441Y-155414090D01*
X119496431Y-155201890D01*
X119547440Y-154950000D01*
X119547440Y-153050000D01*
X119503162Y-152814683D01*
X119364090Y-152598559D01*
X119362452Y-152597440D01*
X119850000Y-152597440D01*
X120085317Y-152553162D01*
X120301441Y-152414090D01*
X120446431Y-152201890D01*
X120497440Y-151950000D01*
X120497440Y-150050000D01*
X120453162Y-149814683D01*
X120314090Y-149598559D01*
X120101890Y-149453569D01*
X119850000Y-149402560D01*
X119050000Y-149402560D01*
X118976242Y-149416438D01*
X118457244Y-148897440D01*
X118672638Y-148897440D01*
X118887600Y-149112402D01*
G36*
X125112618Y-150187421D02*
X125236682Y-150270317D01*
X125359181Y-150352168D01*
X125650020Y-150410020D01*
X126402560Y-150410020D01*
X126402560Y-151950000D01*
X126446838Y-152185317D01*
X126585910Y-152401441D01*
X126587548Y-152402560D01*
X126100000Y-152402560D01*
X125864683Y-152446838D01*
X125648559Y-152585910D01*
X125503569Y-152798110D01*
X125452560Y-153050000D01*
X125452560Y-154950000D01*
X125496838Y-155185317D01*
X125635910Y-155401441D01*
X125740000Y-155472563D01*
X125740000Y-156372560D01*
X125505000Y-156372560D01*
X125269683Y-156416838D01*
X125053559Y-156555910D01*
X124908569Y-156768110D01*
X124857560Y-157020000D01*
X124857560Y-162433000D01*
X124192440Y-162433000D01*
X124192440Y-157020000D01*
X124148162Y-156784683D01*
X124009090Y-156568559D01*
X123796890Y-156423569D01*
X123545000Y-156372560D01*
X123210000Y-156372560D01*
X123210000Y-155472931D01*
X123301441Y-155414090D01*
X123446431Y-155201890D01*
X123497440Y-154950000D01*
X123497440Y-153050000D01*
X123453162Y-152814683D01*
X123314090Y-152598559D01*
X123312452Y-152597440D01*
X123800000Y-152597440D01*
X124035317Y-152553162D01*
X124251441Y-152414090D01*
X124396431Y-152201890D01*
X124447440Y-151950000D01*
X124447440Y-150050000D01*
X124403162Y-149814683D01*
X124264090Y-149598559D01*
X124134480Y-149510000D01*
X124435198Y-149510000D01*
X125112618Y-150187421D01*
X125112618Y-150187421D01*
G37*
X125112618Y-150187421D02*
X125236682Y-150270317D01*
X125359181Y-150352168D01*
X125650020Y-150410020D01*
X126402560Y-150410020D01*
X126402560Y-151950000D01*
X126446838Y-152185317D01*
X126585910Y-152401441D01*
X126587548Y-152402560D01*
X126100000Y-152402560D01*
X125864683Y-152446838D01*
X125648559Y-152585910D01*
X125503569Y-152798110D01*
X125452560Y-153050000D01*
X125452560Y-154950000D01*
X125496838Y-155185317D01*
X125635910Y-155401441D01*
X125740000Y-155472563D01*
X125740000Y-156372560D01*
X125505000Y-156372560D01*
X125269683Y-156416838D01*
X125053559Y-156555910D01*
X124908569Y-156768110D01*
X124857560Y-157020000D01*
X124857560Y-162433000D01*
X124192440Y-162433000D01*
X124192440Y-157020000D01*
X124148162Y-156784683D01*
X124009090Y-156568559D01*
X123796890Y-156423569D01*
X123545000Y-156372560D01*
X123210000Y-156372560D01*
X123210000Y-155472931D01*
X123301441Y-155414090D01*
X123446431Y-155201890D01*
X123497440Y-154950000D01*
X123497440Y-153050000D01*
X123453162Y-152814683D01*
X123314090Y-152598559D01*
X123312452Y-152597440D01*
X123800000Y-152597440D01*
X124035317Y-152553162D01*
X124251441Y-152414090D01*
X124396431Y-152201890D01*
X124447440Y-151950000D01*
X124447440Y-150050000D01*
X124403162Y-149814683D01*
X124264090Y-149598559D01*
X124134480Y-149510000D01*
X124435198Y-149510000D01*
X125112618Y-150187421D01*
G36*
X134352560Y-150477362D02*
X134352560Y-151950000D01*
X134396838Y-152185317D01*
X134535910Y-152401441D01*
X134537548Y-152402560D01*
X134050000Y-152402560D01*
X133814683Y-152446838D01*
X133598559Y-152585910D01*
X133453569Y-152798110D01*
X133402560Y-153050000D01*
X133402560Y-154950000D01*
X133446838Y-155185317D01*
X133585910Y-155401441D01*
X133690000Y-155472563D01*
X133690000Y-156372560D01*
X133425000Y-156372560D01*
X133189683Y-156416838D01*
X132973559Y-156555910D01*
X132828569Y-156768110D01*
X132777560Y-157020000D01*
X132777560Y-162433000D01*
X132112440Y-162433000D01*
X132112440Y-157020000D01*
X132068162Y-156784683D01*
X131929090Y-156568559D01*
X131716890Y-156423569D01*
X131465000Y-156372560D01*
X131260000Y-156372560D01*
X131260000Y-155472931D01*
X131351441Y-155414090D01*
X131496431Y-155201890D01*
X131547440Y-154950000D01*
X131547440Y-153050000D01*
X131503162Y-152814683D01*
X131364090Y-152598559D01*
X131362452Y-152597440D01*
X131850000Y-152597440D01*
X132085317Y-152553162D01*
X132301441Y-152414090D01*
X132446431Y-152201890D01*
X132497440Y-151950000D01*
X132497440Y-150235021D01*
X134110219Y-150235021D01*
X134352560Y-150477362D01*
X134352560Y-150477362D01*
G37*
X134352560Y-150477362D02*
X134352560Y-151950000D01*
X134396838Y-152185317D01*
X134535910Y-152401441D01*
X134537548Y-152402560D01*
X134050000Y-152402560D01*
X133814683Y-152446838D01*
X133598559Y-152585910D01*
X133453569Y-152798110D01*
X133402560Y-153050000D01*
X133402560Y-154950000D01*
X133446838Y-155185317D01*
X133585910Y-155401441D01*
X133690000Y-155472563D01*
X133690000Y-156372560D01*
X133425000Y-156372560D01*
X133189683Y-156416838D01*
X132973559Y-156555910D01*
X132828569Y-156768110D01*
X132777560Y-157020000D01*
X132777560Y-162433000D01*
X132112440Y-162433000D01*
X132112440Y-157020000D01*
X132068162Y-156784683D01*
X131929090Y-156568559D01*
X131716890Y-156423569D01*
X131465000Y-156372560D01*
X131260000Y-156372560D01*
X131260000Y-155472931D01*
X131351441Y-155414090D01*
X131496431Y-155201890D01*
X131547440Y-154950000D01*
X131547440Y-153050000D01*
X131503162Y-152814683D01*
X131364090Y-152598559D01*
X131362452Y-152597440D01*
X131850000Y-152597440D01*
X132085317Y-152553162D01*
X132301441Y-152414090D01*
X132446431Y-152201890D01*
X132497440Y-151950000D01*
X132497440Y-150235021D01*
X134110219Y-150235021D01*
X134352560Y-150477362D01*
G36*
X130402560Y-150477362D02*
X130402560Y-151950000D01*
X130446838Y-152185317D01*
X130585910Y-152401441D01*
X130587548Y-152402560D01*
X130100000Y-152402560D01*
X129864683Y-152446838D01*
X129648559Y-152585910D01*
X129503569Y-152798110D01*
X129452560Y-153050000D01*
X129452560Y-154950000D01*
X129496838Y-155185317D01*
X129635910Y-155401441D01*
X129740000Y-155472563D01*
X129740000Y-156372560D01*
X129465000Y-156372560D01*
X129229683Y-156416838D01*
X129013559Y-156555910D01*
X128868569Y-156768110D01*
X128817560Y-157020000D01*
X128817560Y-162433000D01*
X128152440Y-162433000D01*
X128152440Y-157020000D01*
X128108162Y-156784683D01*
X127969090Y-156568559D01*
X127756890Y-156423569D01*
X127505000Y-156372560D01*
X127260000Y-156372560D01*
X127260000Y-155472931D01*
X127351441Y-155414090D01*
X127496431Y-155201890D01*
X127547440Y-154950000D01*
X127547440Y-153050000D01*
X127503162Y-152814683D01*
X127364090Y-152598559D01*
X127362452Y-152597440D01*
X127850000Y-152597440D01*
X128085317Y-152553162D01*
X128301441Y-152414090D01*
X128446431Y-152201890D01*
X128497440Y-151950000D01*
X128497440Y-150050000D01*
X128480507Y-149960010D01*
X129885208Y-149960010D01*
X130402560Y-150477362D01*
X130402560Y-150477362D01*
G37*
X130402560Y-150477362D02*
X130402560Y-151950000D01*
X130446838Y-152185317D01*
X130585910Y-152401441D01*
X130587548Y-152402560D01*
X130100000Y-152402560D01*
X129864683Y-152446838D01*
X129648559Y-152585910D01*
X129503569Y-152798110D01*
X129452560Y-153050000D01*
X129452560Y-154950000D01*
X129496838Y-155185317D01*
X129635910Y-155401441D01*
X129740000Y-155472563D01*
X129740000Y-156372560D01*
X129465000Y-156372560D01*
X129229683Y-156416838D01*
X129013559Y-156555910D01*
X128868569Y-156768110D01*
X128817560Y-157020000D01*
X128817560Y-162433000D01*
X128152440Y-162433000D01*
X128152440Y-157020000D01*
X128108162Y-156784683D01*
X127969090Y-156568559D01*
X127756890Y-156423569D01*
X127505000Y-156372560D01*
X127260000Y-156372560D01*
X127260000Y-155472931D01*
X127351441Y-155414090D01*
X127496431Y-155201890D01*
X127547440Y-154950000D01*
X127547440Y-153050000D01*
X127503162Y-152814683D01*
X127364090Y-152598559D01*
X127362452Y-152597440D01*
X127850000Y-152597440D01*
X128085317Y-152553162D01*
X128301441Y-152414090D01*
X128446431Y-152201890D01*
X128497440Y-151950000D01*
X128497440Y-150050000D01*
X128480507Y-149960010D01*
X129885208Y-149960010D01*
X130402560Y-150477362D01*
G36*
X138152560Y-150477362D02*
X138152560Y-151950000D01*
X138196838Y-152185317D01*
X138335910Y-152401441D01*
X138337548Y-152402560D01*
X137850000Y-152402560D01*
X137614683Y-152446838D01*
X137398559Y-152585910D01*
X137253569Y-152798110D01*
X137202560Y-153050000D01*
X137202560Y-154950000D01*
X137246838Y-155185317D01*
X137385910Y-155401441D01*
X137490000Y-155472563D01*
X137490000Y-156372560D01*
X137385000Y-156372560D01*
X137149683Y-156416838D01*
X136933559Y-156555910D01*
X136788569Y-156768110D01*
X136737560Y-157020000D01*
X136737560Y-162433000D01*
X136072440Y-162433000D01*
X136072440Y-157020000D01*
X136028162Y-156784683D01*
X135889090Y-156568559D01*
X135676890Y-156423569D01*
X135425000Y-156372560D01*
X135210000Y-156372560D01*
X135210000Y-155472931D01*
X135301441Y-155414090D01*
X135446431Y-155201890D01*
X135497440Y-154950000D01*
X135497440Y-153050000D01*
X135453162Y-152814683D01*
X135314090Y-152598559D01*
X135312452Y-152597440D01*
X135800000Y-152597440D01*
X136035317Y-152553162D01*
X136251441Y-152414090D01*
X136396431Y-152201890D01*
X136447440Y-151950000D01*
X136447440Y-150050000D01*
X136403162Y-149814683D01*
X136384069Y-149785011D01*
X137460209Y-149785011D01*
X138152560Y-150477362D01*
X138152560Y-150477362D01*
G37*
X138152560Y-150477362D02*
X138152560Y-151950000D01*
X138196838Y-152185317D01*
X138335910Y-152401441D01*
X138337548Y-152402560D01*
X137850000Y-152402560D01*
X137614683Y-152446838D01*
X137398559Y-152585910D01*
X137253569Y-152798110D01*
X137202560Y-153050000D01*
X137202560Y-154950000D01*
X137246838Y-155185317D01*
X137385910Y-155401441D01*
X137490000Y-155472563D01*
X137490000Y-156372560D01*
X137385000Y-156372560D01*
X137149683Y-156416838D01*
X136933559Y-156555910D01*
X136788569Y-156768110D01*
X136737560Y-157020000D01*
X136737560Y-162433000D01*
X136072440Y-162433000D01*
X136072440Y-157020000D01*
X136028162Y-156784683D01*
X135889090Y-156568559D01*
X135676890Y-156423569D01*
X135425000Y-156372560D01*
X135210000Y-156372560D01*
X135210000Y-155472931D01*
X135301441Y-155414090D01*
X135446431Y-155201890D01*
X135497440Y-154950000D01*
X135497440Y-153050000D01*
X135453162Y-152814683D01*
X135314090Y-152598559D01*
X135312452Y-152597440D01*
X135800000Y-152597440D01*
X136035317Y-152553162D01*
X136251441Y-152414090D01*
X136396431Y-152201890D01*
X136447440Y-151950000D01*
X136447440Y-150050000D01*
X136403162Y-149814683D01*
X136384069Y-149785011D01*
X137460209Y-149785011D01*
X138152560Y-150477362D01*
G36*
X98270000Y-146636929D02*
X98352591Y-147052141D01*
X98494805Y-147264979D01*
X96825021Y-147264979D01*
X96534182Y-147322831D01*
X96287620Y-147487578D01*
X95172638Y-148602560D01*
X94461213Y-148602560D01*
X98078783Y-144984990D01*
X98270000Y-144984990D01*
X98270000Y-146636929D01*
X98270000Y-146636929D01*
G37*
X98270000Y-146636929D02*
X98352591Y-147052141D01*
X98494805Y-147264979D01*
X96825021Y-147264979D01*
X96534182Y-147322831D01*
X96287620Y-147487578D01*
X95172638Y-148602560D01*
X94461213Y-148602560D01*
X98078783Y-144984990D01*
X98270000Y-144984990D01*
X98270000Y-146636929D01*
G36*
X119421400Y-127815255D02*
X119421400Y-128184745D01*
X119500222Y-128581010D01*
X115868990Y-128581010D01*
X115626404Y-128629264D01*
X115578150Y-128638862D01*
X115331589Y-128803609D01*
X114617897Y-129517301D01*
X114639338Y-129485212D01*
X114721929Y-129070000D01*
X114639338Y-128654788D01*
X114404140Y-128302789D01*
X114052141Y-128067591D01*
X113636929Y-127985000D01*
X111963071Y-127985000D01*
X111547859Y-128067591D01*
X111195860Y-128302789D01*
X110960662Y-128654788D01*
X110878071Y-129070000D01*
X110960662Y-129485212D01*
X111107520Y-129705000D01*
X110960662Y-129924788D01*
X110878071Y-130340000D01*
X110931026Y-130606224D01*
X109435122Y-129110320D01*
X109435162Y-129064833D01*
X109293117Y-128721057D01*
X109030327Y-128457808D01*
X108686799Y-128315162D01*
X108314833Y-128314838D01*
X107971057Y-128456883D01*
X107707808Y-128719673D01*
X107565162Y-129063201D01*
X107564838Y-129435167D01*
X107641416Y-129620501D01*
X107523221Y-129905145D01*
X107522897Y-130277111D01*
X107652413Y-130590565D01*
X107556277Y-130822086D01*
X107555953Y-131194052D01*
X107697998Y-131537828D01*
X107960788Y-131801077D01*
X108304316Y-131943723D01*
X108598883Y-131943980D01*
X109490000Y-132835097D01*
X109490000Y-133740934D01*
X104211665Y-128462599D01*
X103965103Y-128297852D01*
X103674264Y-128240000D01*
X102300944Y-128240000D01*
X102293117Y-128221057D01*
X102030327Y-127957808D01*
X101686799Y-127815162D01*
X101314833Y-127814838D01*
X100971057Y-127956883D01*
X100707808Y-128219673D01*
X100565162Y-128563201D01*
X100564838Y-128935167D01*
X100706883Y-129278943D01*
X100969673Y-129542192D01*
X101313201Y-129684838D01*
X101433410Y-129684943D01*
X101459160Y-129702148D01*
X101750000Y-129760000D01*
X103359462Y-129760000D01*
X108093769Y-134494307D01*
X108065162Y-134563201D01*
X108064838Y-134935167D01*
X108206883Y-135278943D01*
X108469673Y-135542192D01*
X108813201Y-135684838D01*
X109185167Y-135685162D01*
X109490000Y-135559208D01*
X109490000Y-136915198D01*
X108435122Y-135860320D01*
X108435162Y-135814833D01*
X108293117Y-135471057D01*
X108030327Y-135207808D01*
X107686799Y-135065162D01*
X107314833Y-135064838D01*
X106971057Y-135206883D01*
X106707808Y-135469673D01*
X106565162Y-135813201D01*
X106564838Y-136185167D01*
X106706883Y-136528943D01*
X106969673Y-136792192D01*
X107313201Y-136934838D01*
X107360077Y-136934879D01*
X110885890Y-140460692D01*
X110878071Y-140500000D01*
X110925810Y-140740000D01*
X98562463Y-140740000D01*
X98530327Y-140707808D01*
X98186799Y-140565162D01*
X97814833Y-140564838D01*
X97471057Y-140706883D01*
X97207808Y-140969673D01*
X97065162Y-141313201D01*
X97064838Y-141685167D01*
X97206883Y-142028943D01*
X97242870Y-142064993D01*
X97064833Y-142064838D01*
X96721057Y-142206883D01*
X96504530Y-142423033D01*
X96492480Y-142405000D01*
X96639338Y-142185212D01*
X96721929Y-141770000D01*
X96639338Y-141354788D01*
X96492480Y-141135000D01*
X96639338Y-140915212D01*
X96721929Y-140500000D01*
X96639338Y-140084788D01*
X96492480Y-139865000D01*
X96639338Y-139645212D01*
X96721929Y-139230000D01*
X96639338Y-138814788D01*
X96492480Y-138595000D01*
X96639338Y-138375212D01*
X96721929Y-137960000D01*
X96639338Y-137544788D01*
X96492480Y-137325000D01*
X96639338Y-137105212D01*
X96721929Y-136690000D01*
X96639338Y-136274788D01*
X96492480Y-136055000D01*
X96639338Y-135835212D01*
X96721929Y-135420000D01*
X96639338Y-135004788D01*
X96492480Y-134785000D01*
X96639338Y-134565212D01*
X96721929Y-134150000D01*
X96639338Y-133734788D01*
X96492480Y-133515000D01*
X96639338Y-133295212D01*
X96721929Y-132880000D01*
X96639338Y-132464788D01*
X96492480Y-132245000D01*
X96639338Y-132025212D01*
X96721929Y-131610000D01*
X96639338Y-131194788D01*
X96492480Y-130975000D01*
X96639338Y-130755212D01*
X96721929Y-130340000D01*
X96656288Y-130010000D01*
X96687537Y-130010000D01*
X96719673Y-130042192D01*
X97063201Y-130184838D01*
X97435167Y-130185162D01*
X97778943Y-130043117D01*
X98042192Y-129780327D01*
X98184838Y-129436799D01*
X98185162Y-129064833D01*
X98043117Y-128721057D01*
X97780327Y-128457808D01*
X97436799Y-128315162D01*
X97064833Y-128314838D01*
X96721057Y-128456883D01*
X96687882Y-128490000D01*
X96529230Y-128490000D01*
X96404140Y-128302789D01*
X96052141Y-128067591D01*
X95636929Y-127985000D01*
X93984990Y-127985000D01*
X93984990Y-127793783D01*
X94359783Y-127418990D01*
X119500222Y-127418990D01*
X119421400Y-127815255D01*
X119421400Y-127815255D01*
G37*
X119421400Y-127815255D02*
X119421400Y-128184745D01*
X119500222Y-128581010D01*
X115868990Y-128581010D01*
X115626404Y-128629264D01*
X115578150Y-128638862D01*
X115331589Y-128803609D01*
X114617897Y-129517301D01*
X114639338Y-129485212D01*
X114721929Y-129070000D01*
X114639338Y-128654788D01*
X114404140Y-128302789D01*
X114052141Y-128067591D01*
X113636929Y-127985000D01*
X111963071Y-127985000D01*
X111547859Y-128067591D01*
X111195860Y-128302789D01*
X110960662Y-128654788D01*
X110878071Y-129070000D01*
X110960662Y-129485212D01*
X111107520Y-129705000D01*
X110960662Y-129924788D01*
X110878071Y-130340000D01*
X110931026Y-130606224D01*
X109435122Y-129110320D01*
X109435162Y-129064833D01*
X109293117Y-128721057D01*
X109030327Y-128457808D01*
X108686799Y-128315162D01*
X108314833Y-128314838D01*
X107971057Y-128456883D01*
X107707808Y-128719673D01*
X107565162Y-129063201D01*
X107564838Y-129435167D01*
X107641416Y-129620501D01*
X107523221Y-129905145D01*
X107522897Y-130277111D01*
X107652413Y-130590565D01*
X107556277Y-130822086D01*
X107555953Y-131194052D01*
X107697998Y-131537828D01*
X107960788Y-131801077D01*
X108304316Y-131943723D01*
X108598883Y-131943980D01*
X109490000Y-132835097D01*
X109490000Y-133740934D01*
X104211665Y-128462599D01*
X103965103Y-128297852D01*
X103674264Y-128240000D01*
X102300944Y-128240000D01*
X102293117Y-128221057D01*
X102030327Y-127957808D01*
X101686799Y-127815162D01*
X101314833Y-127814838D01*
X100971057Y-127956883D01*
X100707808Y-128219673D01*
X100565162Y-128563201D01*
X100564838Y-128935167D01*
X100706883Y-129278943D01*
X100969673Y-129542192D01*
X101313201Y-129684838D01*
X101433410Y-129684943D01*
X101459160Y-129702148D01*
X101750000Y-129760000D01*
X103359462Y-129760000D01*
X108093769Y-134494307D01*
X108065162Y-134563201D01*
X108064838Y-134935167D01*
X108206883Y-135278943D01*
X108469673Y-135542192D01*
X108813201Y-135684838D01*
X109185167Y-135685162D01*
X109490000Y-135559208D01*
X109490000Y-136915198D01*
X108435122Y-135860320D01*
X108435162Y-135814833D01*
X108293117Y-135471057D01*
X108030327Y-135207808D01*
X107686799Y-135065162D01*
X107314833Y-135064838D01*
X106971057Y-135206883D01*
X106707808Y-135469673D01*
X106565162Y-135813201D01*
X106564838Y-136185167D01*
X106706883Y-136528943D01*
X106969673Y-136792192D01*
X107313201Y-136934838D01*
X107360077Y-136934879D01*
X110885890Y-140460692D01*
X110878071Y-140500000D01*
X110925810Y-140740000D01*
X98562463Y-140740000D01*
X98530327Y-140707808D01*
X98186799Y-140565162D01*
X97814833Y-140564838D01*
X97471057Y-140706883D01*
X97207808Y-140969673D01*
X97065162Y-141313201D01*
X97064838Y-141685167D01*
X97206883Y-142028943D01*
X97242870Y-142064993D01*
X97064833Y-142064838D01*
X96721057Y-142206883D01*
X96504530Y-142423033D01*
X96492480Y-142405000D01*
X96639338Y-142185212D01*
X96721929Y-141770000D01*
X96639338Y-141354788D01*
X96492480Y-141135000D01*
X96639338Y-140915212D01*
X96721929Y-140500000D01*
X96639338Y-140084788D01*
X96492480Y-139865000D01*
X96639338Y-139645212D01*
X96721929Y-139230000D01*
X96639338Y-138814788D01*
X96492480Y-138595000D01*
X96639338Y-138375212D01*
X96721929Y-137960000D01*
X96639338Y-137544788D01*
X96492480Y-137325000D01*
X96639338Y-137105212D01*
X96721929Y-136690000D01*
X96639338Y-136274788D01*
X96492480Y-136055000D01*
X96639338Y-135835212D01*
X96721929Y-135420000D01*
X96639338Y-135004788D01*
X96492480Y-134785000D01*
X96639338Y-134565212D01*
X96721929Y-134150000D01*
X96639338Y-133734788D01*
X96492480Y-133515000D01*
X96639338Y-133295212D01*
X96721929Y-132880000D01*
X96639338Y-132464788D01*
X96492480Y-132245000D01*
X96639338Y-132025212D01*
X96721929Y-131610000D01*
X96639338Y-131194788D01*
X96492480Y-130975000D01*
X96639338Y-130755212D01*
X96721929Y-130340000D01*
X96656288Y-130010000D01*
X96687537Y-130010000D01*
X96719673Y-130042192D01*
X97063201Y-130184838D01*
X97435167Y-130185162D01*
X97778943Y-130043117D01*
X98042192Y-129780327D01*
X98184838Y-129436799D01*
X98185162Y-129064833D01*
X98043117Y-128721057D01*
X97780327Y-128457808D01*
X97436799Y-128315162D01*
X97064833Y-128314838D01*
X96721057Y-128456883D01*
X96687882Y-128490000D01*
X96529230Y-128490000D01*
X96404140Y-128302789D01*
X96052141Y-128067591D01*
X95636929Y-127985000D01*
X93984990Y-127985000D01*
X93984990Y-127793783D01*
X94359783Y-127418990D01*
X119500222Y-127418990D01*
X119421400Y-127815255D01*
M02*
