G04 #@! TF.FileFunction,Soldermask,Top*
%FSLAX46Y46*%
G04 Gerber Fmt 4.6, Leading zero omitted, Abs format (unit mm)*
G04 Created by KiCad (PCBNEW 4.0.6) date Sunday, 07 January 2018 'AMt' 11:42:42*
%MOMM*%
%LPD*%
G01*
G04 APERTURE LIST*
%ADD10C,0.100000*%
%ADD11R,2.400000X6.400000*%
%ADD12R,2.000000X2.400000*%
%ADD13R,3.900120X3.900120*%
%ADD14C,1.870000*%
%ADD15C,2.398980*%
%ADD16O,3.500000X4.500000*%
%ADD17R,2.100000X2.400000*%
%ADD18R,2.400000X2.100000*%
%ADD19C,1.924000*%
%ADD20R,2.127200X2.432000*%
%ADD21O,2.127200X2.432000*%
%ADD22R,4.200000X2.400000*%
%ADD23R,1.900000X2.400000*%
%ADD24O,1.100000X2.900000*%
%ADD25O,2.900000X1.100000*%
%ADD26R,6.400000X6.400000*%
%ADD27R,2.400000X2.000000*%
%ADD28R,1.000000X2.400000*%
G04 APERTURE END LIST*
D10*
D11*
X146305000Y-160020000D03*
X138385000Y-160020000D03*
X134425000Y-160020000D03*
X130465000Y-160020000D03*
X126505000Y-160020000D03*
X122545000Y-160020000D03*
X118585000Y-160020000D03*
X142345000Y-160020000D03*
X114625000Y-160020000D03*
X106705000Y-160020000D03*
X102745000Y-160020000D03*
X98785000Y-160020000D03*
X110665000Y-160020000D03*
X170065000Y-160020000D03*
X166105000Y-160020000D03*
X158185000Y-160020000D03*
X174025000Y-160020000D03*
X162145000Y-160020000D03*
X150265000Y-160020000D03*
X154225000Y-160020000D03*
X193825000Y-160020000D03*
X189865000Y-160020000D03*
X181945000Y-160020000D03*
X185905000Y-160020000D03*
X177985000Y-160020000D03*
X197785000Y-160020000D03*
X94825000Y-160020000D03*
X201745000Y-160020000D03*
D12*
X158750000Y-153130000D03*
X158750000Y-149130000D03*
X155575000Y-153130000D03*
X155575000Y-149130000D03*
X148844000Y-153130000D03*
X148844000Y-149130000D03*
D13*
X190675260Y-145669000D03*
X196674740Y-145669000D03*
X193675000Y-140970000D03*
D14*
X184785000Y-153670000D03*
X183085000Y-153670000D03*
X186485000Y-153670000D03*
X188185000Y-153670000D03*
X181385000Y-153670000D03*
D15*
X144950180Y-142240000D03*
X146855180Y-137160000D03*
X148760180Y-142240000D03*
X150665180Y-137160000D03*
X152570180Y-142240000D03*
X154475180Y-137160000D03*
X156380180Y-142240000D03*
X158285180Y-137160000D03*
X160190180Y-142240000D03*
X162095180Y-137160000D03*
X164000180Y-142240000D03*
X165905180Y-137160000D03*
X167810180Y-142240000D03*
X169715180Y-137160000D03*
X171620180Y-142240000D03*
X173525180Y-137160000D03*
X175430180Y-142240000D03*
X177335180Y-137160000D03*
X179240180Y-142240000D03*
X181145180Y-137160000D03*
X183050180Y-142240000D03*
D16*
X137500360Y-135161020D03*
X190500000Y-135161020D03*
D17*
X173750000Y-149035000D03*
X173750000Y-153035000D03*
X161925000Y-149035000D03*
X161925000Y-153035000D03*
X152400000Y-149130000D03*
X152400000Y-153130000D03*
X145796000Y-149130000D03*
X145796000Y-153130000D03*
X166370000Y-149130000D03*
X166370000Y-153130000D03*
X169500000Y-149130000D03*
X169500000Y-153130000D03*
D18*
X202025000Y-128270000D03*
X198025000Y-128270000D03*
D19*
X198120000Y-135890000D03*
X195580000Y-135890000D03*
X200660000Y-135890000D03*
D18*
X202025000Y-131445000D03*
X198025000Y-131445000D03*
D17*
X177800000Y-153035000D03*
X177800000Y-149035000D03*
D20*
X95920000Y-128000000D03*
D21*
X98460000Y-128000000D03*
X101000000Y-128000000D03*
X103540000Y-128000000D03*
X106080000Y-128000000D03*
X108620000Y-128000000D03*
D22*
X131000000Y-129350000D03*
D23*
X131000000Y-135650000D03*
X133300000Y-135650000D03*
X128700000Y-135650000D03*
D24*
X101800000Y-132200000D03*
X103070000Y-132200000D03*
X104340000Y-132200000D03*
X105610000Y-132200000D03*
X106880000Y-132200000D03*
X108150000Y-132200000D03*
X109420000Y-132200000D03*
X110690000Y-132200000D03*
X111960000Y-132200000D03*
X113230000Y-132200000D03*
X114500000Y-132200000D03*
X115770000Y-132200000D03*
X117040000Y-132200000D03*
X118310000Y-132200000D03*
D25*
X119800000Y-135485000D03*
X119800000Y-136755000D03*
X119800000Y-138025000D03*
X119800000Y-139295000D03*
X119800000Y-140565000D03*
X119800000Y-141835000D03*
X119800000Y-143105000D03*
X119800000Y-144375000D03*
X119800000Y-145645000D03*
X119800000Y-146915000D03*
D24*
X118310000Y-150200000D03*
X117040000Y-150200000D03*
X115770000Y-150200000D03*
X114500000Y-150200000D03*
X113230000Y-150200000D03*
X111960000Y-150200000D03*
X110690000Y-150200000D03*
X109420000Y-150200000D03*
X108150000Y-150200000D03*
X106880000Y-150200000D03*
X105610000Y-150200000D03*
X104340000Y-150200000D03*
X103070000Y-150200000D03*
X101800000Y-150200000D03*
D26*
X109500000Y-141500000D03*
D27*
X100500000Y-153500000D03*
X96500000Y-153500000D03*
D17*
X123500000Y-135500000D03*
X123500000Y-131500000D03*
D28*
X123730000Y-150500000D03*
X125000000Y-150500000D03*
X126270000Y-150500000D03*
X127540000Y-150500000D03*
X128810000Y-150500000D03*
X130080000Y-150500000D03*
X131350000Y-150500000D03*
X132620000Y-150500000D03*
X133890000Y-150500000D03*
X135160000Y-150500000D03*
X136430000Y-150500000D03*
X137700000Y-150500000D03*
X137700000Y-141100000D03*
X136430000Y-141100000D03*
X135160000Y-141100000D03*
X133890000Y-141100000D03*
X132620000Y-141100000D03*
X131350000Y-141100000D03*
X130080000Y-141100000D03*
X128810000Y-141100000D03*
X127540000Y-141100000D03*
X126270000Y-141100000D03*
X125000000Y-141100000D03*
X123730000Y-141100000D03*
D27*
X194700000Y-129500000D03*
X189300000Y-129500000D03*
X103800000Y-154000000D03*
X109200000Y-154000000D03*
X112300000Y-128000000D03*
X117700000Y-128000000D03*
M02*
