G04 #@! TF.FileFunction,Legend,Top*
%FSLAX46Y46*%
G04 Gerber Fmt 4.6, Leading zero omitted, Abs format (unit mm)*
G04 Created by KiCad (PCBNEW 4.0.6) date Wednesday, 03 January 2018 'PMt' 19:42:02*
%MOMM*%
%LPD*%
G01*
G04 APERTURE LIST*
%ADD10C,0.100000*%
%ADD11C,0.250000*%
%ADD12C,0.200000*%
%ADD13C,0.375000*%
%ADD14C,0.300000*%
%ADD15C,0.150000*%
%ADD16C,0.381000*%
%ADD17C,0.500000*%
%ADD18C,0.120000*%
%ADD19C,0.304800*%
G04 APERTURE END LIST*
D10*
D11*
X197064667Y-139152381D02*
X196588476Y-139152381D01*
X196540857Y-139628571D01*
X196588476Y-139580952D01*
X196683714Y-139533333D01*
X196921810Y-139533333D01*
X197017048Y-139580952D01*
X197064667Y-139628571D01*
X197112286Y-139723810D01*
X197112286Y-139961905D01*
X197064667Y-140057143D01*
X197017048Y-140104762D01*
X196921810Y-140152381D01*
X196683714Y-140152381D01*
X196588476Y-140104762D01*
X196540857Y-140057143D01*
X197398000Y-139152381D02*
X197731333Y-140152381D01*
X198064667Y-139152381D01*
X199112286Y-139866667D02*
X199588477Y-139866667D01*
X199017048Y-140152381D02*
X199350381Y-139152381D01*
X199683715Y-140152381D01*
X200445620Y-140152381D02*
X200445620Y-139152381D01*
X200445620Y-140104762D02*
X200350382Y-140152381D01*
X200159905Y-140152381D01*
X200064667Y-140104762D01*
X200017048Y-140057143D01*
X199969429Y-139961905D01*
X199969429Y-139676190D01*
X200017048Y-139580952D01*
X200064667Y-139533333D01*
X200159905Y-139485714D01*
X200350382Y-139485714D01*
X200445620Y-139533333D01*
X200921810Y-139485714D02*
X200921810Y-140342857D01*
X200874191Y-140438095D01*
X200778953Y-140485714D01*
X200731334Y-140485714D01*
X200921810Y-139152381D02*
X200874191Y-139200000D01*
X200921810Y-139247619D01*
X200969429Y-139200000D01*
X200921810Y-139152381D01*
X200921810Y-139247619D01*
X201826572Y-139485714D02*
X201826572Y-140152381D01*
X201398000Y-139485714D02*
X201398000Y-140009524D01*
X201445619Y-140104762D01*
X201540857Y-140152381D01*
X201683715Y-140152381D01*
X201778953Y-140104762D01*
X201826572Y-140057143D01*
X202255143Y-140104762D02*
X202350381Y-140152381D01*
X202540857Y-140152381D01*
X202636096Y-140104762D01*
X202683715Y-140009524D01*
X202683715Y-139961905D01*
X202636096Y-139866667D01*
X202540857Y-139819048D01*
X202398000Y-139819048D01*
X202302762Y-139771429D01*
X202255143Y-139676190D01*
X202255143Y-139628571D01*
X202302762Y-139533333D01*
X202398000Y-139485714D01*
X202540857Y-139485714D01*
X202636096Y-139533333D01*
X202969429Y-139485714D02*
X203350381Y-139485714D01*
X203112286Y-139152381D02*
X203112286Y-140009524D01*
X203159905Y-140104762D01*
X203255143Y-140152381D01*
X203350381Y-140152381D01*
X182634191Y-147818143D02*
X182586572Y-147865762D01*
X182443715Y-147913381D01*
X182348477Y-147913381D01*
X182205619Y-147865762D01*
X182110381Y-147770524D01*
X182062762Y-147675286D01*
X182015143Y-147484810D01*
X182015143Y-147341952D01*
X182062762Y-147151476D01*
X182110381Y-147056238D01*
X182205619Y-146961000D01*
X182348477Y-146913381D01*
X182443715Y-146913381D01*
X182586572Y-146961000D01*
X182634191Y-147008619D01*
X183491334Y-147913381D02*
X183491334Y-147389571D01*
X183443715Y-147294333D01*
X183348477Y-147246714D01*
X183158000Y-147246714D01*
X183062762Y-147294333D01*
X183491334Y-147865762D02*
X183396096Y-147913381D01*
X183158000Y-147913381D01*
X183062762Y-147865762D01*
X183015143Y-147770524D01*
X183015143Y-147675286D01*
X183062762Y-147580048D01*
X183158000Y-147532429D01*
X183396096Y-147532429D01*
X183491334Y-147484810D01*
X184396096Y-147246714D02*
X184396096Y-147913381D01*
X183967524Y-147246714D02*
X183967524Y-147770524D01*
X184015143Y-147865762D01*
X184110381Y-147913381D01*
X184253239Y-147913381D01*
X184348477Y-147865762D01*
X184396096Y-147818143D01*
X184729429Y-147246714D02*
X185110381Y-147246714D01*
X184872286Y-146913381D02*
X184872286Y-147770524D01*
X184919905Y-147865762D01*
X185015143Y-147913381D01*
X185110381Y-147913381D01*
X185443715Y-147913381D02*
X185443715Y-147246714D01*
X185443715Y-146913381D02*
X185396096Y-146961000D01*
X185443715Y-147008619D01*
X185491334Y-146961000D01*
X185443715Y-146913381D01*
X185443715Y-147008619D01*
X186062762Y-147913381D02*
X185967524Y-147865762D01*
X185919905Y-147818143D01*
X185872286Y-147722905D01*
X185872286Y-147437190D01*
X185919905Y-147341952D01*
X185967524Y-147294333D01*
X186062762Y-147246714D01*
X186205620Y-147246714D01*
X186300858Y-147294333D01*
X186348477Y-147341952D01*
X186396096Y-147437190D01*
X186396096Y-147722905D01*
X186348477Y-147818143D01*
X186300858Y-147865762D01*
X186205620Y-147913381D01*
X186062762Y-147913381D01*
X186824667Y-147246714D02*
X186824667Y-147913381D01*
X186824667Y-147341952D02*
X186872286Y-147294333D01*
X186967524Y-147246714D01*
X187110382Y-147246714D01*
X187205620Y-147294333D01*
X187253239Y-147389571D01*
X187253239Y-147913381D01*
X183467524Y-149663381D02*
X183467524Y-148663381D01*
X183467524Y-149139571D02*
X184038953Y-149139571D01*
X184038953Y-149663381D02*
X184038953Y-148663381D01*
X184705619Y-148663381D02*
X184896096Y-148663381D01*
X184991334Y-148711000D01*
X185086572Y-148806238D01*
X185134191Y-148996714D01*
X185134191Y-149330048D01*
X185086572Y-149520524D01*
X184991334Y-149615762D01*
X184896096Y-149663381D01*
X184705619Y-149663381D01*
X184610381Y-149615762D01*
X184515143Y-149520524D01*
X184467524Y-149330048D01*
X184467524Y-148996714D01*
X184515143Y-148806238D01*
X184610381Y-148711000D01*
X184705619Y-148663381D01*
X185419905Y-148663381D02*
X185991334Y-148663381D01*
X185705619Y-149663381D02*
X185705619Y-148663381D01*
D12*
X176022000Y-157480000D02*
X176784000Y-156718000D01*
X178308000Y-163322000D02*
X179832000Y-161798000D01*
X177038000Y-163322000D02*
X178562000Y-163322000D01*
X179832000Y-160528000D02*
X177038000Y-163322000D01*
X179832000Y-159512000D02*
X179832000Y-160528000D01*
X176022000Y-162814000D02*
X179832000Y-159258000D01*
X176022000Y-162814000D02*
X176022000Y-163068000D01*
X176022000Y-161798000D02*
X176022000Y-162814000D01*
X179832000Y-157988000D02*
X176022000Y-161798000D01*
X179832000Y-156718000D02*
X179832000Y-157988000D01*
X176022000Y-160528000D02*
X179832000Y-156718000D01*
X176022000Y-160274000D02*
X176022000Y-160528000D01*
X176022000Y-159512000D02*
X176022000Y-160274000D01*
X178816000Y-156718000D02*
X176022000Y-159512000D01*
X177800000Y-156718000D02*
X178816000Y-156718000D01*
X176022000Y-158496000D02*
X177800000Y-156718000D01*
X176022000Y-163322000D02*
X179832000Y-163322000D01*
X176022000Y-156718000D02*
X176022000Y-163322000D01*
X179832000Y-156718000D02*
X176022000Y-156718000D01*
X179832000Y-163322000D02*
X179832000Y-156718000D01*
D13*
X145838178Y-145347571D02*
X145686392Y-146561857D01*
X145597106Y-146704714D01*
X145516749Y-146776143D01*
X145364964Y-146847571D01*
X145150678Y-146847571D01*
X145016749Y-146776143D01*
X145722106Y-146276143D02*
X145570321Y-146347571D01*
X145284607Y-146347571D01*
X145150677Y-146276143D01*
X145088178Y-146204714D01*
X145034606Y-146061857D01*
X145088177Y-145633286D01*
X145177463Y-145490429D01*
X145257820Y-145419000D01*
X145409607Y-145347571D01*
X145695321Y-145347571D01*
X145829249Y-145419000D01*
X146427464Y-146347571D02*
X146552464Y-145347571D01*
X146614964Y-144847571D02*
X146534606Y-144919000D01*
X146597106Y-144990429D01*
X146677463Y-144919000D01*
X146614964Y-144847571D01*
X146597106Y-144990429D01*
X147052464Y-145347571D02*
X147623893Y-145347571D01*
X147329250Y-144847571D02*
X147168535Y-146133286D01*
X147222106Y-146276143D01*
X147356036Y-146347571D01*
X147498893Y-146347571D01*
X147998893Y-146347571D02*
X148186393Y-144847571D01*
X148641750Y-146347571D02*
X148739964Y-145561857D01*
X148686392Y-145419000D01*
X148552464Y-145347571D01*
X148338179Y-145347571D01*
X148186392Y-145419000D01*
X148106035Y-145490429D01*
X150123893Y-145347571D02*
X149998893Y-146347571D01*
X149481036Y-145347571D02*
X149382821Y-146133286D01*
X149436392Y-146276143D01*
X149570322Y-146347571D01*
X149784607Y-146347571D01*
X149936392Y-146276143D01*
X150016750Y-146204714D01*
X150713179Y-146347571D02*
X150900679Y-144847571D01*
X150829250Y-145419000D02*
X150981036Y-145347571D01*
X151266750Y-145347571D01*
X151400678Y-145419000D01*
X151463178Y-145490429D01*
X151516750Y-145633286D01*
X151463179Y-146061857D01*
X151373893Y-146204714D01*
X151293535Y-146276143D01*
X151141750Y-146347571D01*
X150856036Y-146347571D01*
X150722107Y-146276143D01*
X152088179Y-146204714D02*
X152150678Y-146276143D01*
X152070322Y-146347571D01*
X152007821Y-146276143D01*
X152088179Y-146204714D01*
X152070322Y-146347571D01*
X153436393Y-146276143D02*
X153284608Y-146347571D01*
X152998894Y-146347571D01*
X152864964Y-146276143D01*
X152802465Y-146204714D01*
X152748893Y-146061857D01*
X152802464Y-145633286D01*
X152891750Y-145490429D01*
X152972107Y-145419000D01*
X153123894Y-145347571D01*
X153409608Y-145347571D01*
X153543536Y-145419000D01*
X154284608Y-146347571D02*
X154150678Y-146276143D01*
X154088179Y-146204714D01*
X154034607Y-146061857D01*
X154088178Y-145633286D01*
X154177464Y-145490429D01*
X154257821Y-145419000D01*
X154409608Y-145347571D01*
X154623893Y-145347571D01*
X154757821Y-145419000D01*
X154820321Y-145490429D01*
X154873893Y-145633286D01*
X154820322Y-146061857D01*
X154731036Y-146204714D01*
X154650678Y-146276143D01*
X154498893Y-146347571D01*
X154284608Y-146347571D01*
X155427465Y-146347571D02*
X155552465Y-145347571D01*
X155534607Y-145490429D02*
X155614964Y-145419000D01*
X155766751Y-145347571D01*
X155981036Y-145347571D01*
X156114964Y-145419000D01*
X156168536Y-145561857D01*
X156070322Y-146347571D01*
X156168536Y-145561857D02*
X156257822Y-145419000D01*
X156409608Y-145347571D01*
X156623893Y-145347571D01*
X156757822Y-145419000D01*
X156811393Y-145561857D01*
X156713179Y-146347571D01*
X158695321Y-144776143D02*
X157168536Y-146704714D01*
X159650679Y-146276143D02*
X159498894Y-146347571D01*
X159213180Y-146347571D01*
X159079250Y-146276143D01*
X159016751Y-146204714D01*
X158963179Y-146061857D01*
X159016750Y-145633286D01*
X159106036Y-145490429D01*
X159186393Y-145419000D01*
X159338180Y-145347571D01*
X159623894Y-145347571D01*
X159757822Y-145419000D01*
X160284608Y-146347571D02*
X160472108Y-144847571D01*
X160927465Y-146347571D02*
X161025679Y-145561857D01*
X160972107Y-145419000D01*
X160838179Y-145347571D01*
X160623894Y-145347571D01*
X160472107Y-145419000D01*
X160391750Y-145490429D01*
X162284608Y-146347571D02*
X162382822Y-145561857D01*
X162329250Y-145419000D01*
X162195322Y-145347571D01*
X161909608Y-145347571D01*
X161757822Y-145419000D01*
X162293536Y-146276143D02*
X162141751Y-146347571D01*
X161784608Y-146347571D01*
X161650679Y-146276143D01*
X161597107Y-146133286D01*
X161614964Y-145990429D01*
X161704251Y-145847571D01*
X161856036Y-145776143D01*
X162213179Y-145776143D01*
X162364965Y-145704714D01*
X162998894Y-146347571D02*
X163123894Y-145347571D01*
X163088179Y-145633286D02*
X163177464Y-145490429D01*
X163257822Y-145419000D01*
X163409608Y-145347571D01*
X163552465Y-145347571D01*
X164579250Y-146276143D02*
X164427465Y-146347571D01*
X164141751Y-146347571D01*
X164007821Y-146276143D01*
X163945322Y-146204714D01*
X163891750Y-146061857D01*
X163945321Y-145633286D01*
X164034607Y-145490429D01*
X164114964Y-145419000D01*
X164266751Y-145347571D01*
X164552465Y-145347571D01*
X164686393Y-145419000D01*
X165427465Y-146347571D02*
X165293535Y-146276143D01*
X165231036Y-146204714D01*
X165177464Y-146061857D01*
X165231035Y-145633286D01*
X165320321Y-145490429D01*
X165400678Y-145419000D01*
X165552465Y-145347571D01*
X165766750Y-145347571D01*
X165900678Y-145419000D01*
X165963178Y-145490429D01*
X166016750Y-145633286D01*
X165963179Y-146061857D01*
X165873893Y-146204714D01*
X165793535Y-146276143D01*
X165641750Y-146347571D01*
X165427465Y-146347571D01*
X166784608Y-146347571D02*
X166650678Y-146276143D01*
X166597107Y-146133286D01*
X166757822Y-144847571D01*
X167936392Y-146276143D02*
X167784607Y-146347571D01*
X167498893Y-146347571D01*
X167364964Y-146276143D01*
X167311392Y-146133286D01*
X167382821Y-145561857D01*
X167472107Y-145419000D01*
X167623893Y-145347571D01*
X167909607Y-145347571D01*
X168043535Y-145419000D01*
X168097107Y-145561857D01*
X168079250Y-145704714D01*
X167347107Y-145847571D01*
X169909606Y-144776143D02*
X168382821Y-146704714D01*
X170213179Y-146347571D02*
X170338179Y-145347571D01*
X170320321Y-145490429D02*
X170400678Y-145419000D01*
X170552465Y-145347571D01*
X170766750Y-145347571D01*
X170900678Y-145419000D01*
X170954250Y-145561857D01*
X170856036Y-146347571D01*
X170954250Y-145561857D02*
X171043536Y-145419000D01*
X171195322Y-145347571D01*
X171409607Y-145347571D01*
X171543536Y-145419000D01*
X171597107Y-145561857D01*
X171498893Y-146347571D01*
X172213179Y-146347571D02*
X172338179Y-145347571D01*
X172400679Y-144847571D02*
X172320321Y-144919000D01*
X172382821Y-144990429D01*
X172463178Y-144919000D01*
X172400679Y-144847571D01*
X172382821Y-144990429D01*
X173052465Y-145347571D02*
X172927465Y-146347571D01*
X173034607Y-145490429D02*
X173114964Y-145419000D01*
X173266751Y-145347571D01*
X173481036Y-145347571D01*
X173614964Y-145419000D01*
X173668536Y-145561857D01*
X173570322Y-146347571D01*
X174284608Y-146347571D02*
X174409608Y-145347571D01*
X174472108Y-144847571D02*
X174391750Y-144919000D01*
X174454250Y-144990429D01*
X174534607Y-144919000D01*
X174472108Y-144847571D01*
X174454250Y-144990429D01*
X175766751Y-145347571D02*
X175614965Y-146561857D01*
X175525679Y-146704714D01*
X175445322Y-146776143D01*
X175293537Y-146847571D01*
X175079251Y-146847571D01*
X174945322Y-146776143D01*
X175650679Y-146276143D02*
X175498894Y-146347571D01*
X175213180Y-146347571D01*
X175079250Y-146276143D01*
X175016751Y-146204714D01*
X174963179Y-146061857D01*
X175016750Y-145633286D01*
X175106036Y-145490429D01*
X175186393Y-145419000D01*
X175338180Y-145347571D01*
X175623894Y-145347571D01*
X175757822Y-145419000D01*
X177123894Y-145347571D02*
X176998894Y-146347571D01*
X176481037Y-145347571D02*
X176382822Y-146133286D01*
X176436393Y-146276143D01*
X176570323Y-146347571D01*
X176784608Y-146347571D01*
X176936393Y-146276143D01*
X177016751Y-146204714D01*
X177838180Y-145347571D02*
X177713180Y-146347571D01*
X177820322Y-145490429D02*
X177900679Y-145419000D01*
X178052466Y-145347571D01*
X178266751Y-145347571D01*
X178400679Y-145419000D01*
X178454251Y-145561857D01*
X178356037Y-146347571D01*
D14*
X193103572Y-155047143D02*
X194246429Y-155047143D01*
D12*
X197985923Y-155507961D02*
G75*
G02X195580000Y-154940000I-1135923J567961D01*
G01*
X197985923Y-154372039D02*
G75*
G03X195580000Y-154940000I-1135923J-567961D01*
G01*
D14*
X200088572Y-155047143D02*
X201231429Y-155047143D01*
X200660000Y-155618571D02*
X200660000Y-154475714D01*
D12*
X196850000Y-154940000D02*
X199390000Y-154940000D01*
D14*
X195921429Y-152443571D02*
X195064286Y-152443571D01*
X195492858Y-152443571D02*
X195492858Y-150943571D01*
X195350001Y-151157857D01*
X195207143Y-151300714D01*
X195064286Y-151372143D01*
X196492857Y-151086429D02*
X196564286Y-151015000D01*
X196707143Y-150943571D01*
X197064286Y-150943571D01*
X197207143Y-151015000D01*
X197278572Y-151086429D01*
X197350000Y-151229286D01*
X197350000Y-151372143D01*
X197278572Y-151586429D01*
X196421429Y-152443571D01*
X197350000Y-152443571D01*
X197778571Y-150943571D02*
X198278571Y-152443571D01*
X198778571Y-150943571D01*
D15*
X157725000Y-150130000D02*
X157725000Y-152130000D01*
X159775000Y-152130000D02*
X159775000Y-150130000D01*
X154550000Y-150130000D02*
X154550000Y-152130000D01*
X156600000Y-152130000D02*
X156600000Y-150130000D01*
X147819000Y-150130000D02*
X147819000Y-152130000D01*
X149869000Y-152130000D02*
X149869000Y-150130000D01*
X200875900Y-150169880D02*
X200875900Y-141168120D01*
X204376020Y-150169880D02*
X204376020Y-141168120D01*
X204376020Y-141168120D02*
X189875160Y-141168120D01*
X189875160Y-141168120D02*
X189875160Y-150169880D01*
X189875160Y-150169880D02*
X204376020Y-150169880D01*
X179685000Y-145170000D02*
X179685000Y-155370000D01*
X189885000Y-145170000D02*
X179685000Y-145170000D01*
X189885000Y-155370000D02*
X189885000Y-145170000D01*
X179685000Y-155370000D02*
X189885000Y-155370000D01*
D16*
X189400180Y-136357360D02*
X189400180Y-133309360D01*
X138600180Y-136357360D02*
X138600180Y-133309360D01*
X187368180Y-126451360D02*
X140124180Y-126451360D01*
X191051180Y-136357360D02*
X191051180Y-133309360D01*
X136949180Y-136357360D02*
X136949180Y-133309360D01*
X187368180Y-136357360D02*
X187368180Y-143469360D01*
X187368180Y-143469360D02*
X140124180Y-143469360D01*
X140124180Y-143469360D02*
X140124180Y-136357360D01*
X191051180Y-136357360D02*
X136949180Y-136357360D01*
X136949180Y-133309360D02*
X191051180Y-133309360D01*
X187368180Y-126451360D02*
X187368180Y-133309360D01*
X140124180Y-126451360D02*
X140124180Y-133309360D01*
D15*
X173550000Y-152035000D02*
X173550000Y-150035000D01*
X175700000Y-150035000D02*
X175700000Y-152035000D01*
X160850000Y-152035000D02*
X160850000Y-150035000D01*
X163000000Y-150035000D02*
X163000000Y-152035000D01*
X151325000Y-152130000D02*
X151325000Y-150130000D01*
X153475000Y-150130000D02*
X153475000Y-152130000D01*
X144721000Y-152130000D02*
X144721000Y-150130000D01*
X146871000Y-150130000D02*
X146871000Y-152130000D01*
X165295000Y-152130000D02*
X165295000Y-150130000D01*
X167445000Y-150130000D02*
X167445000Y-152130000D01*
X169740000Y-152130000D02*
X169740000Y-150130000D01*
X171890000Y-150130000D02*
X171890000Y-152130000D01*
X199025000Y-127195000D02*
X201025000Y-127195000D01*
X201025000Y-129345000D02*
X199025000Y-129345000D01*
X201676000Y-137922000D02*
X201676000Y-136652000D01*
X200888600Y-137172700D02*
X200926700Y-137426700D01*
X200926700Y-137426700D02*
X201104500Y-137706100D01*
X201104500Y-137706100D02*
X201422000Y-137922000D01*
X201422000Y-137922000D02*
X201866500Y-137934700D01*
X201866500Y-137934700D02*
X202222100Y-137731500D01*
X202222100Y-137731500D02*
X202399900Y-137439400D01*
X202399900Y-137439400D02*
X202450700Y-137121900D01*
X202450700Y-137121900D02*
X202349100Y-136715500D01*
X202349100Y-136715500D02*
X202006200Y-136461500D01*
X202006200Y-136461500D02*
X201828400Y-136372600D01*
X193294000Y-134112000D02*
X202946000Y-134112000D01*
X202946000Y-137160000D02*
X202946000Y-138430000D01*
X202946000Y-138430000D02*
X193294000Y-138430000D01*
X193294000Y-138430000D02*
X193294000Y-133350000D01*
X202946000Y-133350000D02*
X202946000Y-135890000D01*
X202946000Y-135890000D02*
X202946000Y-137160000D01*
X199025000Y-130370000D02*
X201025000Y-130370000D01*
X201025000Y-132520000D02*
X199025000Y-132520000D01*
X178875000Y-150035000D02*
X178875000Y-152035000D01*
X176725000Y-152035000D02*
X176725000Y-150035000D01*
X129810000Y-129270000D02*
X117110000Y-129270000D01*
X117110000Y-129270000D02*
X117110000Y-126730000D01*
X117110000Y-126730000D02*
X129810000Y-126730000D01*
X132630000Y-129550000D02*
X131080000Y-129550000D01*
X129810000Y-129270000D02*
X129810000Y-126730000D01*
X131080000Y-126450000D02*
X132630000Y-126450000D01*
X132630000Y-126450000D02*
X132630000Y-129550000D01*
D17*
X94177981Y-126446000D02*
G75*
G03X94177981Y-126446000I-283981J0D01*
G01*
D15*
X112800000Y-126300000D02*
X94800000Y-126300000D01*
X94800000Y-120300000D02*
X94800000Y-145800000D01*
X112800000Y-120300000D02*
X112800000Y-145800000D01*
X112800000Y-145800000D02*
X94800000Y-145800000D01*
X112800000Y-120300000D02*
X94800000Y-120300000D01*
D18*
X141510000Y-147830000D02*
X141510000Y-146900000D01*
X141510000Y-144670000D02*
X141510000Y-145600000D01*
X141510000Y-144670000D02*
X138350000Y-144670000D01*
X141510000Y-147830000D02*
X140050000Y-147830000D01*
X140670000Y-153260000D02*
X141600000Y-153260000D01*
X143830000Y-153260000D02*
X142900000Y-153260000D01*
X143830000Y-153260000D02*
X143830000Y-150100000D01*
X140670000Y-153260000D02*
X140670000Y-151800000D01*
X132870000Y-153260000D02*
X133800000Y-153260000D01*
X136030000Y-153260000D02*
X135100000Y-153260000D01*
X136030000Y-153260000D02*
X136030000Y-150100000D01*
X132870000Y-153260000D02*
X132870000Y-151800000D01*
X124920000Y-153260000D02*
X125850000Y-153260000D01*
X128080000Y-153260000D02*
X127150000Y-153260000D01*
X128080000Y-153260000D02*
X128080000Y-150100000D01*
X124920000Y-153260000D02*
X124920000Y-151800000D01*
X116920000Y-153260000D02*
X117850000Y-153260000D01*
X120080000Y-153260000D02*
X119150000Y-153260000D01*
X120080000Y-153260000D02*
X120080000Y-150100000D01*
X116920000Y-153260000D02*
X116920000Y-151800000D01*
X108920000Y-153260000D02*
X109850000Y-153260000D01*
X112080000Y-153260000D02*
X111150000Y-153260000D01*
X112080000Y-153260000D02*
X112080000Y-150100000D01*
X108920000Y-153260000D02*
X108920000Y-151800000D01*
X136670000Y-153260000D02*
X137600000Y-153260000D01*
X139830000Y-153260000D02*
X138900000Y-153260000D01*
X139830000Y-153260000D02*
X139830000Y-150100000D01*
X136670000Y-153260000D02*
X136670000Y-151800000D01*
X128920000Y-153260000D02*
X129850000Y-153260000D01*
X132080000Y-153260000D02*
X131150000Y-153260000D01*
X132080000Y-153260000D02*
X132080000Y-150100000D01*
X128920000Y-153260000D02*
X128920000Y-151800000D01*
X120870000Y-153260000D02*
X121800000Y-153260000D01*
X124030000Y-153260000D02*
X123100000Y-153260000D01*
X124030000Y-153260000D02*
X124030000Y-150100000D01*
X120870000Y-153260000D02*
X120870000Y-151800000D01*
X112920000Y-153260000D02*
X113850000Y-153260000D01*
X116080000Y-153260000D02*
X115150000Y-153260000D01*
X116080000Y-153260000D02*
X116080000Y-150100000D01*
X112920000Y-153260000D02*
X112920000Y-151800000D01*
X104920000Y-153260000D02*
X105850000Y-153260000D01*
X108080000Y-153260000D02*
X107150000Y-153260000D01*
X108080000Y-153260000D02*
X108080000Y-150100000D01*
X104920000Y-153260000D02*
X104920000Y-151800000D01*
D15*
X137575000Y-144250000D02*
X137575000Y-146250000D01*
X135425000Y-146250000D02*
X135425000Y-144250000D01*
X134575000Y-144250000D02*
X134575000Y-146250000D01*
X132425000Y-146250000D02*
X132425000Y-144250000D01*
X131575000Y-144250000D02*
X131575000Y-146250000D01*
X129425000Y-146250000D02*
X129425000Y-144250000D01*
X128325000Y-144250000D02*
X128325000Y-146250000D01*
X126175000Y-146250000D02*
X126175000Y-144250000D01*
X125325000Y-144250000D02*
X125325000Y-146250000D01*
X123175000Y-146250000D02*
X123175000Y-144250000D01*
X122325000Y-144250000D02*
X122325000Y-146250000D01*
X120175000Y-146250000D02*
X120175000Y-144250000D01*
X119325000Y-144250000D02*
X119325000Y-146250000D01*
X117175000Y-146250000D02*
X117175000Y-144250000D01*
X93675000Y-153250000D02*
X93675000Y-151250000D01*
X95825000Y-151250000D02*
X95825000Y-153250000D01*
X96425000Y-153250000D02*
X96425000Y-151250000D01*
X98575000Y-151250000D02*
X98575000Y-153250000D01*
X99175000Y-153250000D02*
X99175000Y-151250000D01*
X101325000Y-151250000D02*
X101325000Y-153250000D01*
X101925000Y-153250000D02*
X101925000Y-151250000D01*
X104075000Y-151250000D02*
X104075000Y-153250000D01*
X132575000Y-140575000D02*
X132575000Y-140550000D01*
X128425000Y-140575000D02*
X128425000Y-140470000D01*
X128425000Y-130425000D02*
X128425000Y-130530000D01*
X132575000Y-130425000D02*
X132575000Y-130530000D01*
X132575000Y-140575000D02*
X128425000Y-140575000D01*
X132575000Y-130425000D02*
X128425000Y-130425000D01*
X132575000Y-140550000D02*
X133950000Y-140550000D01*
X122575000Y-140575000D02*
X122575000Y-140550000D01*
X118425000Y-140575000D02*
X118425000Y-140470000D01*
X118425000Y-130425000D02*
X118425000Y-130530000D01*
X122575000Y-130425000D02*
X122575000Y-130530000D01*
X122575000Y-140575000D02*
X118425000Y-140575000D01*
X122575000Y-130425000D02*
X118425000Y-130425000D01*
X122575000Y-140550000D02*
X123950000Y-140550000D01*
X158583334Y-155932143D02*
X158535715Y-155979762D01*
X158392858Y-156027381D01*
X158297620Y-156027381D01*
X158154762Y-155979762D01*
X158059524Y-155884524D01*
X158011905Y-155789286D01*
X157964286Y-155598810D01*
X157964286Y-155455952D01*
X158011905Y-155265476D01*
X158059524Y-155170238D01*
X158154762Y-155075000D01*
X158297620Y-155027381D01*
X158392858Y-155027381D01*
X158535715Y-155075000D01*
X158583334Y-155122619D01*
X159535715Y-156027381D02*
X158964286Y-156027381D01*
X159250000Y-156027381D02*
X159250000Y-155027381D01*
X159154762Y-155170238D01*
X159059524Y-155265476D01*
X158964286Y-155313095D01*
X155408334Y-155932143D02*
X155360715Y-155979762D01*
X155217858Y-156027381D01*
X155122620Y-156027381D01*
X154979762Y-155979762D01*
X154884524Y-155884524D01*
X154836905Y-155789286D01*
X154789286Y-155598810D01*
X154789286Y-155455952D01*
X154836905Y-155265476D01*
X154884524Y-155170238D01*
X154979762Y-155075000D01*
X155122620Y-155027381D01*
X155217858Y-155027381D01*
X155360715Y-155075000D01*
X155408334Y-155122619D01*
X155789286Y-155122619D02*
X155836905Y-155075000D01*
X155932143Y-155027381D01*
X156170239Y-155027381D01*
X156265477Y-155075000D01*
X156313096Y-155122619D01*
X156360715Y-155217857D01*
X156360715Y-155313095D01*
X156313096Y-155455952D01*
X155741667Y-156027381D01*
X156360715Y-156027381D01*
X148677334Y-155932143D02*
X148629715Y-155979762D01*
X148486858Y-156027381D01*
X148391620Y-156027381D01*
X148248762Y-155979762D01*
X148153524Y-155884524D01*
X148105905Y-155789286D01*
X148058286Y-155598810D01*
X148058286Y-155455952D01*
X148105905Y-155265476D01*
X148153524Y-155170238D01*
X148248762Y-155075000D01*
X148391620Y-155027381D01*
X148486858Y-155027381D01*
X148629715Y-155075000D01*
X148677334Y-155122619D01*
X149010667Y-155027381D02*
X149629715Y-155027381D01*
X149296381Y-155408333D01*
X149439239Y-155408333D01*
X149534477Y-155455952D01*
X149582096Y-155503571D01*
X149629715Y-155598810D01*
X149629715Y-155836905D01*
X149582096Y-155932143D01*
X149534477Y-155979762D01*
X149439239Y-156027381D01*
X149153524Y-156027381D01*
X149058286Y-155979762D01*
X149010667Y-155932143D01*
X199691667Y-144867381D02*
X199691667Y-145581667D01*
X199644047Y-145724524D01*
X199548809Y-145819762D01*
X199405952Y-145867381D01*
X199310714Y-145867381D01*
X200644048Y-144867381D02*
X200167857Y-144867381D01*
X200120238Y-145343571D01*
X200167857Y-145295952D01*
X200263095Y-145248333D01*
X200501191Y-145248333D01*
X200596429Y-145295952D01*
X200644048Y-145343571D01*
X200691667Y-145438810D01*
X200691667Y-145676905D01*
X200644048Y-145772143D01*
X200596429Y-145819762D01*
X200501191Y-145867381D01*
X200263095Y-145867381D01*
X200167857Y-145819762D01*
X200120238Y-145772143D01*
X184451667Y-151344381D02*
X184451667Y-152058667D01*
X184404047Y-152201524D01*
X184308809Y-152296762D01*
X184165952Y-152344381D01*
X184070714Y-152344381D01*
X185356429Y-151344381D02*
X185165952Y-151344381D01*
X185070714Y-151392000D01*
X185023095Y-151439619D01*
X184927857Y-151582476D01*
X184880238Y-151772952D01*
X184880238Y-152153905D01*
X184927857Y-152249143D01*
X184975476Y-152296762D01*
X185070714Y-152344381D01*
X185261191Y-152344381D01*
X185356429Y-152296762D01*
X185404048Y-152249143D01*
X185451667Y-152153905D01*
X185451667Y-151915810D01*
X185404048Y-151820571D01*
X185356429Y-151772952D01*
X185261191Y-151725333D01*
X185070714Y-151725333D01*
X184975476Y-151772952D01*
X184927857Y-151820571D01*
X184880238Y-151915810D01*
D19*
X163449000Y-128197429D02*
X163449000Y-129286000D01*
X163376428Y-129503714D01*
X163231285Y-129648857D01*
X163013571Y-129721429D01*
X162868428Y-129721429D01*
X164029571Y-128197429D02*
X165045571Y-128197429D01*
X164392428Y-129721429D01*
X159167286Y-132061857D02*
X159385000Y-132134429D01*
X159747857Y-132134429D01*
X159893000Y-132061857D01*
X159965571Y-131989286D01*
X160038143Y-131844143D01*
X160038143Y-131699000D01*
X159965571Y-131553857D01*
X159893000Y-131481286D01*
X159747857Y-131408714D01*
X159457571Y-131336143D01*
X159312429Y-131263571D01*
X159239857Y-131191000D01*
X159167286Y-131045857D01*
X159167286Y-130900714D01*
X159239857Y-130755571D01*
X159312429Y-130683000D01*
X159457571Y-130610429D01*
X159820429Y-130610429D01*
X160038143Y-130683000D01*
X161562143Y-131989286D02*
X161489572Y-132061857D01*
X161271858Y-132134429D01*
X161126715Y-132134429D01*
X160909000Y-132061857D01*
X160763858Y-131916714D01*
X160691286Y-131771571D01*
X160618715Y-131481286D01*
X160618715Y-131263571D01*
X160691286Y-130973286D01*
X160763858Y-130828143D01*
X160909000Y-130683000D01*
X161126715Y-130610429D01*
X161271858Y-130610429D01*
X161489572Y-130683000D01*
X161562143Y-130755571D01*
X162142715Y-131699000D02*
X162868429Y-131699000D01*
X161997572Y-132134429D02*
X162505572Y-130610429D01*
X163013572Y-132134429D01*
X164392429Y-132134429D02*
X163884429Y-131408714D01*
X163521572Y-132134429D02*
X163521572Y-130610429D01*
X164102144Y-130610429D01*
X164247286Y-130683000D01*
X164319858Y-130755571D01*
X164392429Y-130900714D01*
X164392429Y-131118429D01*
X164319858Y-131263571D01*
X164247286Y-131336143D01*
X164102144Y-131408714D01*
X163521572Y-131408714D01*
X164827858Y-130610429D02*
X165698715Y-130610429D01*
X165263286Y-132134429D02*
X165263286Y-130610429D01*
X166206715Y-131553857D02*
X167367858Y-131553857D01*
X168601572Y-131336143D02*
X168093572Y-131336143D01*
X168093572Y-132134429D02*
X168093572Y-130610429D01*
X168819286Y-130610429D01*
D15*
X174458334Y-156027381D02*
X174125000Y-155551190D01*
X173886905Y-156027381D02*
X173886905Y-155027381D01*
X174267858Y-155027381D01*
X174363096Y-155075000D01*
X174410715Y-155122619D01*
X174458334Y-155217857D01*
X174458334Y-155360714D01*
X174410715Y-155455952D01*
X174363096Y-155503571D01*
X174267858Y-155551190D01*
X173886905Y-155551190D01*
X175410715Y-156027381D02*
X174839286Y-156027381D01*
X175125000Y-156027381D02*
X175125000Y-155027381D01*
X175029762Y-155170238D01*
X174934524Y-155265476D01*
X174839286Y-155313095D01*
X161758334Y-156027381D02*
X161425000Y-155551190D01*
X161186905Y-156027381D02*
X161186905Y-155027381D01*
X161567858Y-155027381D01*
X161663096Y-155075000D01*
X161710715Y-155122619D01*
X161758334Y-155217857D01*
X161758334Y-155360714D01*
X161710715Y-155455952D01*
X161663096Y-155503571D01*
X161567858Y-155551190D01*
X161186905Y-155551190D01*
X162139286Y-155122619D02*
X162186905Y-155075000D01*
X162282143Y-155027381D01*
X162520239Y-155027381D01*
X162615477Y-155075000D01*
X162663096Y-155122619D01*
X162710715Y-155217857D01*
X162710715Y-155313095D01*
X162663096Y-155455952D01*
X162091667Y-156027381D01*
X162710715Y-156027381D01*
X152233334Y-156027381D02*
X151900000Y-155551190D01*
X151661905Y-156027381D02*
X151661905Y-155027381D01*
X152042858Y-155027381D01*
X152138096Y-155075000D01*
X152185715Y-155122619D01*
X152233334Y-155217857D01*
X152233334Y-155360714D01*
X152185715Y-155455952D01*
X152138096Y-155503571D01*
X152042858Y-155551190D01*
X151661905Y-155551190D01*
X152566667Y-155027381D02*
X153185715Y-155027381D01*
X152852381Y-155408333D01*
X152995239Y-155408333D01*
X153090477Y-155455952D01*
X153138096Y-155503571D01*
X153185715Y-155598810D01*
X153185715Y-155836905D01*
X153138096Y-155932143D01*
X153090477Y-155979762D01*
X152995239Y-156027381D01*
X152709524Y-156027381D01*
X152614286Y-155979762D01*
X152566667Y-155932143D01*
X145629334Y-156027381D02*
X145296000Y-155551190D01*
X145057905Y-156027381D02*
X145057905Y-155027381D01*
X145438858Y-155027381D01*
X145534096Y-155075000D01*
X145581715Y-155122619D01*
X145629334Y-155217857D01*
X145629334Y-155360714D01*
X145581715Y-155455952D01*
X145534096Y-155503571D01*
X145438858Y-155551190D01*
X145057905Y-155551190D01*
X146486477Y-155360714D02*
X146486477Y-156027381D01*
X146248381Y-154979762D02*
X146010286Y-155694048D01*
X146629334Y-155694048D01*
X166203334Y-156027381D02*
X165870000Y-155551190D01*
X165631905Y-156027381D02*
X165631905Y-155027381D01*
X166012858Y-155027381D01*
X166108096Y-155075000D01*
X166155715Y-155122619D01*
X166203334Y-155217857D01*
X166203334Y-155360714D01*
X166155715Y-155455952D01*
X166108096Y-155503571D01*
X166012858Y-155551190D01*
X165631905Y-155551190D01*
X167108096Y-155027381D02*
X166631905Y-155027381D01*
X166584286Y-155503571D01*
X166631905Y-155455952D01*
X166727143Y-155408333D01*
X166965239Y-155408333D01*
X167060477Y-155455952D01*
X167108096Y-155503571D01*
X167155715Y-155598810D01*
X167155715Y-155836905D01*
X167108096Y-155932143D01*
X167060477Y-155979762D01*
X166965239Y-156027381D01*
X166727143Y-156027381D01*
X166631905Y-155979762D01*
X166584286Y-155932143D01*
X170648334Y-156027381D02*
X170315000Y-155551190D01*
X170076905Y-156027381D02*
X170076905Y-155027381D01*
X170457858Y-155027381D01*
X170553096Y-155075000D01*
X170600715Y-155122619D01*
X170648334Y-155217857D01*
X170648334Y-155360714D01*
X170600715Y-155455952D01*
X170553096Y-155503571D01*
X170457858Y-155551190D01*
X170076905Y-155551190D01*
X171505477Y-155027381D02*
X171315000Y-155027381D01*
X171219762Y-155075000D01*
X171172143Y-155122619D01*
X171076905Y-155265476D01*
X171029286Y-155455952D01*
X171029286Y-155836905D01*
X171076905Y-155932143D01*
X171124524Y-155979762D01*
X171219762Y-156027381D01*
X171410239Y-156027381D01*
X171505477Y-155979762D01*
X171553096Y-155932143D01*
X171600715Y-155836905D01*
X171600715Y-155598810D01*
X171553096Y-155503571D01*
X171505477Y-155455952D01*
X171410239Y-155408333D01*
X171219762Y-155408333D01*
X171124524Y-155455952D01*
X171076905Y-155503571D01*
X171029286Y-155598810D01*
X194778334Y-128722381D02*
X194445000Y-128246190D01*
X194206905Y-128722381D02*
X194206905Y-127722381D01*
X194587858Y-127722381D01*
X194683096Y-127770000D01*
X194730715Y-127817619D01*
X194778334Y-127912857D01*
X194778334Y-128055714D01*
X194730715Y-128150952D01*
X194683096Y-128198571D01*
X194587858Y-128246190D01*
X194206905Y-128246190D01*
X195111667Y-127722381D02*
X195778334Y-127722381D01*
X195349762Y-128722381D01*
X190952381Y-136056666D02*
X190476190Y-136390000D01*
X190952381Y-136628095D02*
X189952381Y-136628095D01*
X189952381Y-136247142D01*
X190000000Y-136151904D01*
X190047619Y-136104285D01*
X190142857Y-136056666D01*
X190285714Y-136056666D01*
X190380952Y-136104285D01*
X190428571Y-136151904D01*
X190476190Y-136247142D01*
X190476190Y-136628095D01*
X190380952Y-135485238D02*
X190333333Y-135580476D01*
X190285714Y-135628095D01*
X190190476Y-135675714D01*
X190142857Y-135675714D01*
X190047619Y-135628095D01*
X190000000Y-135580476D01*
X189952381Y-135485238D01*
X189952381Y-135294761D01*
X190000000Y-135199523D01*
X190047619Y-135151904D01*
X190142857Y-135104285D01*
X190190476Y-135104285D01*
X190285714Y-135151904D01*
X190333333Y-135199523D01*
X190380952Y-135294761D01*
X190380952Y-135485238D01*
X190428571Y-135580476D01*
X190476190Y-135628095D01*
X190571429Y-135675714D01*
X190761905Y-135675714D01*
X190857143Y-135628095D01*
X190904762Y-135580476D01*
X190952381Y-135485238D01*
X190952381Y-135294761D01*
X190904762Y-135199523D01*
X190857143Y-135151904D01*
X190761905Y-135104285D01*
X190571429Y-135104285D01*
X190476190Y-135151904D01*
X190428571Y-135199523D01*
X190380952Y-135294761D01*
X194778334Y-131897381D02*
X194445000Y-131421190D01*
X194206905Y-131897381D02*
X194206905Y-130897381D01*
X194587858Y-130897381D01*
X194683096Y-130945000D01*
X194730715Y-130992619D01*
X194778334Y-131087857D01*
X194778334Y-131230714D01*
X194730715Y-131325952D01*
X194683096Y-131373571D01*
X194587858Y-131421190D01*
X194206905Y-131421190D01*
X195254524Y-131897381D02*
X195445000Y-131897381D01*
X195540239Y-131849762D01*
X195587858Y-131802143D01*
X195683096Y-131659286D01*
X195730715Y-131468810D01*
X195730715Y-131087857D01*
X195683096Y-130992619D01*
X195635477Y-130945000D01*
X195540239Y-130897381D01*
X195349762Y-130897381D01*
X195254524Y-130945000D01*
X195206905Y-130992619D01*
X195159286Y-131087857D01*
X195159286Y-131325952D01*
X195206905Y-131421190D01*
X195254524Y-131468810D01*
X195349762Y-131516429D01*
X195540239Y-131516429D01*
X195635477Y-131468810D01*
X195683096Y-131421190D01*
X195730715Y-131325952D01*
X177157143Y-156027381D02*
X176823809Y-155551190D01*
X176585714Y-156027381D02*
X176585714Y-155027381D01*
X176966667Y-155027381D01*
X177061905Y-155075000D01*
X177109524Y-155122619D01*
X177157143Y-155217857D01*
X177157143Y-155360714D01*
X177109524Y-155455952D01*
X177061905Y-155503571D01*
X176966667Y-155551190D01*
X176585714Y-155551190D01*
X178109524Y-156027381D02*
X177538095Y-156027381D01*
X177823809Y-156027381D02*
X177823809Y-155027381D01*
X177728571Y-155170238D01*
X177633333Y-155265476D01*
X177538095Y-155313095D01*
X178728571Y-155027381D02*
X178823810Y-155027381D01*
X178919048Y-155075000D01*
X178966667Y-155122619D01*
X179014286Y-155217857D01*
X179061905Y-155408333D01*
X179061905Y-155646429D01*
X179014286Y-155836905D01*
X178966667Y-155932143D01*
X178919048Y-155979762D01*
X178823810Y-156027381D01*
X178728571Y-156027381D01*
X178633333Y-155979762D01*
X178585714Y-155932143D01*
X178538095Y-155836905D01*
X178490476Y-155646429D01*
X178490476Y-155408333D01*
X178538095Y-155217857D01*
X178585714Y-155122619D01*
X178633333Y-155075000D01*
X178728571Y-155027381D01*
X135632381Y-128333333D02*
X136346667Y-128333333D01*
X136489524Y-128380953D01*
X136584762Y-128476191D01*
X136632381Y-128619048D01*
X136632381Y-128714286D01*
X135727619Y-127904762D02*
X135680000Y-127857143D01*
X135632381Y-127761905D01*
X135632381Y-127523809D01*
X135680000Y-127428571D01*
X135727619Y-127380952D01*
X135822857Y-127333333D01*
X135918095Y-127333333D01*
X136060952Y-127380952D01*
X136632381Y-127952381D01*
X136632381Y-127333333D01*
X114595095Y-123485381D02*
X114595095Y-124294905D01*
X114642714Y-124390143D01*
X114690333Y-124437762D01*
X114785571Y-124485381D01*
X114976048Y-124485381D01*
X115071286Y-124437762D01*
X115118905Y-124390143D01*
X115166524Y-124294905D01*
X115166524Y-123485381D01*
X115595095Y-123580619D02*
X115642714Y-123533000D01*
X115737952Y-123485381D01*
X115976048Y-123485381D01*
X116071286Y-123533000D01*
X116118905Y-123580619D01*
X116166524Y-123675857D01*
X116166524Y-123771095D01*
X116118905Y-123913952D01*
X115547476Y-124485381D01*
X116166524Y-124485381D01*
X110586571Y-140510430D02*
X110586571Y-140177096D01*
X111110381Y-140034239D02*
X111110381Y-140510430D01*
X110110381Y-140510430D01*
X110110381Y-140034239D01*
X111062762Y-139653287D02*
X111110381Y-139558049D01*
X111110381Y-139367573D01*
X111062762Y-139272334D01*
X110967524Y-139224715D01*
X110919905Y-139224715D01*
X110824667Y-139272334D01*
X110777048Y-139367573D01*
X110777048Y-139510430D01*
X110729429Y-139605668D01*
X110634190Y-139653287D01*
X110586571Y-139653287D01*
X110491333Y-139605668D01*
X110443714Y-139510430D01*
X110443714Y-139367573D01*
X110491333Y-139272334D01*
X110443714Y-138796144D02*
X111443714Y-138796144D01*
X110491333Y-138796144D02*
X110443714Y-138700906D01*
X110443714Y-138510429D01*
X110491333Y-138415191D01*
X110538952Y-138367572D01*
X110634190Y-138319953D01*
X110919905Y-138319953D01*
X111015143Y-138367572D01*
X111062762Y-138415191D01*
X111110381Y-138510429D01*
X111110381Y-138700906D01*
X111062762Y-138796144D01*
X111110381Y-137891382D02*
X110443714Y-137891382D01*
X110634190Y-137891382D02*
X110538952Y-137843763D01*
X110491333Y-137796144D01*
X110443714Y-137700906D01*
X110443714Y-137605667D01*
X111062762Y-136891381D02*
X111110381Y-136986619D01*
X111110381Y-137177096D01*
X111062762Y-137272334D01*
X110967524Y-137319953D01*
X110586571Y-137319953D01*
X110491333Y-137272334D01*
X110443714Y-137177096D01*
X110443714Y-136986619D01*
X110491333Y-136891381D01*
X110586571Y-136843762D01*
X110681810Y-136843762D01*
X110777048Y-137319953D01*
X111062762Y-136462810D02*
X111110381Y-136367572D01*
X111110381Y-136177096D01*
X111062762Y-136081857D01*
X110967524Y-136034238D01*
X110919905Y-136034238D01*
X110824667Y-136081857D01*
X110777048Y-136177096D01*
X110777048Y-136319953D01*
X110729429Y-136415191D01*
X110634190Y-136462810D01*
X110586571Y-136462810D01*
X110491333Y-136415191D01*
X110443714Y-136319953D01*
X110443714Y-136177096D01*
X110491333Y-136081857D01*
X111062762Y-135653286D02*
X111110381Y-135558048D01*
X111110381Y-135367572D01*
X111062762Y-135272333D01*
X110967524Y-135224714D01*
X110919905Y-135224714D01*
X110824667Y-135272333D01*
X110777048Y-135367572D01*
X110777048Y-135510429D01*
X110729429Y-135605667D01*
X110634190Y-135653286D01*
X110586571Y-135653286D01*
X110491333Y-135605667D01*
X110443714Y-135510429D01*
X110443714Y-135367572D01*
X110491333Y-135272333D01*
X111110381Y-134796143D02*
X110443714Y-134796143D01*
X110110381Y-134796143D02*
X110158000Y-134843762D01*
X110205619Y-134796143D01*
X110158000Y-134748524D01*
X110110381Y-134796143D01*
X110205619Y-134796143D01*
X110443714Y-134462810D02*
X110443714Y-134081858D01*
X111110381Y-134319953D02*
X110253238Y-134319953D01*
X110158000Y-134272334D01*
X110110381Y-134177096D01*
X110110381Y-134081858D01*
X111062762Y-133034238D02*
X111110381Y-132891381D01*
X111110381Y-132653285D01*
X111062762Y-132558047D01*
X111015143Y-132510428D01*
X110919905Y-132462809D01*
X110824667Y-132462809D01*
X110729429Y-132510428D01*
X110681810Y-132558047D01*
X110634190Y-132653285D01*
X110586571Y-132843762D01*
X110538952Y-132939000D01*
X110491333Y-132986619D01*
X110396095Y-133034238D01*
X110300857Y-133034238D01*
X110205619Y-132986619D01*
X110158000Y-132939000D01*
X110110381Y-132843762D01*
X110110381Y-132605666D01*
X110158000Y-132462809D01*
X110443714Y-132129476D02*
X111110381Y-131891381D01*
X110443714Y-131653285D02*
X111110381Y-131891381D01*
X111348476Y-131986619D01*
X111396095Y-132034238D01*
X111443714Y-132129476D01*
X111062762Y-131319952D02*
X111110381Y-131224714D01*
X111110381Y-131034238D01*
X111062762Y-130938999D01*
X110967524Y-130891380D01*
X110919905Y-130891380D01*
X110824667Y-130938999D01*
X110777048Y-131034238D01*
X110777048Y-131177095D01*
X110729429Y-131272333D01*
X110634190Y-131319952D01*
X110586571Y-131319952D01*
X110491333Y-131272333D01*
X110443714Y-131177095D01*
X110443714Y-131034238D01*
X110491333Y-130938999D01*
X110443714Y-130605666D02*
X110443714Y-130224714D01*
X110110381Y-130462809D02*
X110967524Y-130462809D01*
X111062762Y-130415190D01*
X111110381Y-130319952D01*
X111110381Y-130224714D01*
X111062762Y-129510427D02*
X111110381Y-129605665D01*
X111110381Y-129796142D01*
X111062762Y-129891380D01*
X110967524Y-129938999D01*
X110586571Y-129938999D01*
X110491333Y-129891380D01*
X110443714Y-129796142D01*
X110443714Y-129605665D01*
X110491333Y-129510427D01*
X110586571Y-129462808D01*
X110681810Y-129462808D01*
X110777048Y-129938999D01*
X111110381Y-129034237D02*
X110443714Y-129034237D01*
X110538952Y-129034237D02*
X110491333Y-128986618D01*
X110443714Y-128891380D01*
X110443714Y-128748522D01*
X110491333Y-128653284D01*
X110586571Y-128605665D01*
X111110381Y-128605665D01*
X110586571Y-128605665D02*
X110491333Y-128558046D01*
X110443714Y-128462808D01*
X110443714Y-128319951D01*
X110491333Y-128224713D01*
X110586571Y-128177094D01*
X111110381Y-128177094D01*
X111062762Y-127748523D02*
X111110381Y-127653285D01*
X111110381Y-127462809D01*
X111062762Y-127367570D01*
X110967524Y-127319951D01*
X110919905Y-127319951D01*
X110824667Y-127367570D01*
X110777048Y-127462809D01*
X110777048Y-127605666D01*
X110729429Y-127700904D01*
X110634190Y-127748523D01*
X110586571Y-127748523D01*
X110491333Y-127700904D01*
X110443714Y-127605666D01*
X110443714Y-127462809D01*
X110491333Y-127367570D01*
X108935571Y-138248381D02*
X108935571Y-137915047D01*
X109459381Y-137772190D02*
X109459381Y-138248381D01*
X108459381Y-138248381D01*
X108459381Y-137772190D01*
X109411762Y-137391238D02*
X109459381Y-137248381D01*
X109459381Y-137010285D01*
X109411762Y-136915047D01*
X109364143Y-136867428D01*
X109268905Y-136819809D01*
X109173667Y-136819809D01*
X109078429Y-136867428D01*
X109030810Y-136915047D01*
X108983190Y-137010285D01*
X108935571Y-137200762D01*
X108887952Y-137296000D01*
X108840333Y-137343619D01*
X108745095Y-137391238D01*
X108649857Y-137391238D01*
X108554619Y-137343619D01*
X108507000Y-137296000D01*
X108459381Y-137200762D01*
X108459381Y-136962666D01*
X108507000Y-136819809D01*
X109459381Y-136391238D02*
X108459381Y-136391238D01*
X108459381Y-136010285D01*
X108507000Y-135915047D01*
X108554619Y-135867428D01*
X108649857Y-135819809D01*
X108792714Y-135819809D01*
X108887952Y-135867428D01*
X108935571Y-135915047D01*
X108983190Y-136010285D01*
X108983190Y-136391238D01*
X108459381Y-135486476D02*
X108459381Y-134867428D01*
X108840333Y-135200762D01*
X108840333Y-135057904D01*
X108887952Y-134962666D01*
X108935571Y-134915047D01*
X109030810Y-134867428D01*
X109268905Y-134867428D01*
X109364143Y-134915047D01*
X109411762Y-134962666D01*
X109459381Y-135057904D01*
X109459381Y-135343619D01*
X109411762Y-135438857D01*
X109364143Y-135486476D01*
X108554619Y-134486476D02*
X108507000Y-134438857D01*
X108459381Y-134343619D01*
X108459381Y-134105523D01*
X108507000Y-134010285D01*
X108554619Y-133962666D01*
X108649857Y-133915047D01*
X108745095Y-133915047D01*
X108887952Y-133962666D01*
X109459381Y-134534095D01*
X109459381Y-133915047D01*
X109078429Y-133486476D02*
X109078429Y-132724571D01*
X108459381Y-132343619D02*
X109459381Y-132105524D01*
X108745095Y-131915047D01*
X109459381Y-131724571D01*
X108459381Y-131486476D01*
X109459381Y-130534095D02*
X108983190Y-130867429D01*
X109459381Y-131105524D02*
X108459381Y-131105524D01*
X108459381Y-130724571D01*
X108507000Y-130629333D01*
X108554619Y-130581714D01*
X108649857Y-130534095D01*
X108792714Y-130534095D01*
X108887952Y-130581714D01*
X108935571Y-130629333D01*
X108983190Y-130724571D01*
X108983190Y-131105524D01*
X108459381Y-129915048D02*
X108459381Y-129724571D01*
X108507000Y-129629333D01*
X108602238Y-129534095D01*
X108792714Y-129486476D01*
X109126048Y-129486476D01*
X109316524Y-129534095D01*
X109411762Y-129629333D01*
X109459381Y-129724571D01*
X109459381Y-129915048D01*
X109411762Y-130010286D01*
X109316524Y-130105524D01*
X109126048Y-130153143D01*
X108792714Y-130153143D01*
X108602238Y-130105524D01*
X108507000Y-130010286D01*
X108459381Y-129915048D01*
X108459381Y-128867429D02*
X108459381Y-128676952D01*
X108507000Y-128581714D01*
X108602238Y-128486476D01*
X108792714Y-128438857D01*
X109126048Y-128438857D01*
X109316524Y-128486476D01*
X109411762Y-128581714D01*
X109459381Y-128676952D01*
X109459381Y-128867429D01*
X109411762Y-128962667D01*
X109316524Y-129057905D01*
X109126048Y-129105524D01*
X108792714Y-129105524D01*
X108602238Y-129057905D01*
X108507000Y-128962667D01*
X108459381Y-128867429D01*
X109459381Y-128010286D02*
X108459381Y-128010286D01*
X109173667Y-127676952D01*
X108459381Y-127343619D01*
X109459381Y-127343619D01*
X140654762Y-144297619D02*
X140559524Y-144250000D01*
X140464286Y-144154762D01*
X140321429Y-144011905D01*
X140226190Y-143964286D01*
X140130952Y-143964286D01*
X140178571Y-144202381D02*
X140083333Y-144154762D01*
X139988095Y-144059524D01*
X139940476Y-143869048D01*
X139940476Y-143535714D01*
X139988095Y-143345238D01*
X140083333Y-143250000D01*
X140178571Y-143202381D01*
X140369048Y-143202381D01*
X140464286Y-143250000D01*
X140559524Y-143345238D01*
X140607143Y-143535714D01*
X140607143Y-143869048D01*
X140559524Y-144059524D01*
X140464286Y-144154762D01*
X140369048Y-144202381D01*
X140178571Y-144202381D01*
X141559524Y-144202381D02*
X140988095Y-144202381D01*
X141273809Y-144202381D02*
X141273809Y-143202381D01*
X141178571Y-143345238D01*
X141083333Y-143440476D01*
X140988095Y-143488095D01*
X145297619Y-152595238D02*
X145250000Y-152690476D01*
X145154762Y-152785714D01*
X145011905Y-152928571D01*
X144964286Y-153023810D01*
X144964286Y-153119048D01*
X145202381Y-153071429D02*
X145154762Y-153166667D01*
X145059524Y-153261905D01*
X144869048Y-153309524D01*
X144535714Y-153309524D01*
X144345238Y-153261905D01*
X144250000Y-153166667D01*
X144202381Y-153071429D01*
X144202381Y-152880952D01*
X144250000Y-152785714D01*
X144345238Y-152690476D01*
X144535714Y-152642857D01*
X144869048Y-152642857D01*
X145059524Y-152690476D01*
X145154762Y-152785714D01*
X145202381Y-152880952D01*
X145202381Y-153071429D01*
X144297619Y-152261905D02*
X144250000Y-152214286D01*
X144202381Y-152119048D01*
X144202381Y-151880952D01*
X144250000Y-151785714D01*
X144297619Y-151738095D01*
X144392857Y-151690476D01*
X144488095Y-151690476D01*
X144630952Y-151738095D01*
X145202381Y-152309524D01*
X145202381Y-151690476D01*
X137497619Y-152595238D02*
X137450000Y-152690476D01*
X137354762Y-152785714D01*
X137211905Y-152928571D01*
X137164286Y-153023810D01*
X137164286Y-153119048D01*
X137402381Y-153071429D02*
X137354762Y-153166667D01*
X137259524Y-153261905D01*
X137069048Y-153309524D01*
X136735714Y-153309524D01*
X136545238Y-153261905D01*
X136450000Y-153166667D01*
X136402381Y-153071429D01*
X136402381Y-152880952D01*
X136450000Y-152785714D01*
X136545238Y-152690476D01*
X136735714Y-152642857D01*
X137069048Y-152642857D01*
X137259524Y-152690476D01*
X137354762Y-152785714D01*
X137402381Y-152880952D01*
X137402381Y-153071429D01*
X136402381Y-152309524D02*
X136402381Y-151690476D01*
X136783333Y-152023810D01*
X136783333Y-151880952D01*
X136830952Y-151785714D01*
X136878571Y-151738095D01*
X136973810Y-151690476D01*
X137211905Y-151690476D01*
X137307143Y-151738095D01*
X137354762Y-151785714D01*
X137402381Y-151880952D01*
X137402381Y-152166667D01*
X137354762Y-152261905D01*
X137307143Y-152309524D01*
X129547619Y-152595238D02*
X129500000Y-152690476D01*
X129404762Y-152785714D01*
X129261905Y-152928571D01*
X129214286Y-153023810D01*
X129214286Y-153119048D01*
X129452381Y-153071429D02*
X129404762Y-153166667D01*
X129309524Y-153261905D01*
X129119048Y-153309524D01*
X128785714Y-153309524D01*
X128595238Y-153261905D01*
X128500000Y-153166667D01*
X128452381Y-153071429D01*
X128452381Y-152880952D01*
X128500000Y-152785714D01*
X128595238Y-152690476D01*
X128785714Y-152642857D01*
X129119048Y-152642857D01*
X129309524Y-152690476D01*
X129404762Y-152785714D01*
X129452381Y-152880952D01*
X129452381Y-153071429D01*
X128785714Y-151785714D02*
X129452381Y-151785714D01*
X128404762Y-152023810D02*
X129119048Y-152261905D01*
X129119048Y-151642857D01*
X121547619Y-152595238D02*
X121500000Y-152690476D01*
X121404762Y-152785714D01*
X121261905Y-152928571D01*
X121214286Y-153023810D01*
X121214286Y-153119048D01*
X121452381Y-153071429D02*
X121404762Y-153166667D01*
X121309524Y-153261905D01*
X121119048Y-153309524D01*
X120785714Y-153309524D01*
X120595238Y-153261905D01*
X120500000Y-153166667D01*
X120452381Y-153071429D01*
X120452381Y-152880952D01*
X120500000Y-152785714D01*
X120595238Y-152690476D01*
X120785714Y-152642857D01*
X121119048Y-152642857D01*
X121309524Y-152690476D01*
X121404762Y-152785714D01*
X121452381Y-152880952D01*
X121452381Y-153071429D01*
X120452381Y-151738095D02*
X120452381Y-152214286D01*
X120928571Y-152261905D01*
X120880952Y-152214286D01*
X120833333Y-152119048D01*
X120833333Y-151880952D01*
X120880952Y-151785714D01*
X120928571Y-151738095D01*
X121023810Y-151690476D01*
X121261905Y-151690476D01*
X121357143Y-151738095D01*
X121404762Y-151785714D01*
X121452381Y-151880952D01*
X121452381Y-152119048D01*
X121404762Y-152214286D01*
X121357143Y-152261905D01*
X113547619Y-152595238D02*
X113500000Y-152690476D01*
X113404762Y-152785714D01*
X113261905Y-152928571D01*
X113214286Y-153023810D01*
X113214286Y-153119048D01*
X113452381Y-153071429D02*
X113404762Y-153166667D01*
X113309524Y-153261905D01*
X113119048Y-153309524D01*
X112785714Y-153309524D01*
X112595238Y-153261905D01*
X112500000Y-153166667D01*
X112452381Y-153071429D01*
X112452381Y-152880952D01*
X112500000Y-152785714D01*
X112595238Y-152690476D01*
X112785714Y-152642857D01*
X113119048Y-152642857D01*
X113309524Y-152690476D01*
X113404762Y-152785714D01*
X113452381Y-152880952D01*
X113452381Y-153071429D01*
X112452381Y-151785714D02*
X112452381Y-151976191D01*
X112500000Y-152071429D01*
X112547619Y-152119048D01*
X112690476Y-152214286D01*
X112880952Y-152261905D01*
X113261905Y-152261905D01*
X113357143Y-152214286D01*
X113404762Y-152166667D01*
X113452381Y-152071429D01*
X113452381Y-151880952D01*
X113404762Y-151785714D01*
X113357143Y-151738095D01*
X113261905Y-151690476D01*
X113023810Y-151690476D01*
X112928571Y-151738095D01*
X112880952Y-151785714D01*
X112833333Y-151880952D01*
X112833333Y-152071429D01*
X112880952Y-152166667D01*
X112928571Y-152214286D01*
X113023810Y-152261905D01*
X141297619Y-153071428D02*
X141250000Y-153166666D01*
X141154762Y-153261904D01*
X141011905Y-153404761D01*
X140964286Y-153500000D01*
X140964286Y-153595238D01*
X141202381Y-153547619D02*
X141154762Y-153642857D01*
X141059524Y-153738095D01*
X140869048Y-153785714D01*
X140535714Y-153785714D01*
X140345238Y-153738095D01*
X140250000Y-153642857D01*
X140202381Y-153547619D01*
X140202381Y-153357142D01*
X140250000Y-153261904D01*
X140345238Y-153166666D01*
X140535714Y-153119047D01*
X140869048Y-153119047D01*
X141059524Y-153166666D01*
X141154762Y-153261904D01*
X141202381Y-153357142D01*
X141202381Y-153547619D01*
X141202381Y-152166666D02*
X141202381Y-152738095D01*
X141202381Y-152452381D02*
X140202381Y-152452381D01*
X140345238Y-152547619D01*
X140440476Y-152642857D01*
X140488095Y-152738095D01*
X140202381Y-151833333D02*
X140202381Y-151214285D01*
X140583333Y-151547619D01*
X140583333Y-151404761D01*
X140630952Y-151309523D01*
X140678571Y-151261904D01*
X140773810Y-151214285D01*
X141011905Y-151214285D01*
X141107143Y-151261904D01*
X141154762Y-151309523D01*
X141202381Y-151404761D01*
X141202381Y-151690476D01*
X141154762Y-151785714D01*
X141107143Y-151833333D01*
X133547619Y-153071428D02*
X133500000Y-153166666D01*
X133404762Y-153261904D01*
X133261905Y-153404761D01*
X133214286Y-153500000D01*
X133214286Y-153595238D01*
X133452381Y-153547619D02*
X133404762Y-153642857D01*
X133309524Y-153738095D01*
X133119048Y-153785714D01*
X132785714Y-153785714D01*
X132595238Y-153738095D01*
X132500000Y-153642857D01*
X132452381Y-153547619D01*
X132452381Y-153357142D01*
X132500000Y-153261904D01*
X132595238Y-153166666D01*
X132785714Y-153119047D01*
X133119048Y-153119047D01*
X133309524Y-153166666D01*
X133404762Y-153261904D01*
X133452381Y-153357142D01*
X133452381Y-153547619D01*
X133452381Y-152166666D02*
X133452381Y-152738095D01*
X133452381Y-152452381D02*
X132452381Y-152452381D01*
X132595238Y-152547619D01*
X132690476Y-152642857D01*
X132738095Y-152738095D01*
X132785714Y-151309523D02*
X133452381Y-151309523D01*
X132404762Y-151547619D02*
X133119048Y-151785714D01*
X133119048Y-151166666D01*
X125497619Y-153071428D02*
X125450000Y-153166666D01*
X125354762Y-153261904D01*
X125211905Y-153404761D01*
X125164286Y-153500000D01*
X125164286Y-153595238D01*
X125402381Y-153547619D02*
X125354762Y-153642857D01*
X125259524Y-153738095D01*
X125069048Y-153785714D01*
X124735714Y-153785714D01*
X124545238Y-153738095D01*
X124450000Y-153642857D01*
X124402381Y-153547619D01*
X124402381Y-153357142D01*
X124450000Y-153261904D01*
X124545238Y-153166666D01*
X124735714Y-153119047D01*
X125069048Y-153119047D01*
X125259524Y-153166666D01*
X125354762Y-153261904D01*
X125402381Y-153357142D01*
X125402381Y-153547619D01*
X125402381Y-152166666D02*
X125402381Y-152738095D01*
X125402381Y-152452381D02*
X124402381Y-152452381D01*
X124545238Y-152547619D01*
X124640476Y-152642857D01*
X124688095Y-152738095D01*
X124402381Y-151261904D02*
X124402381Y-151738095D01*
X124878571Y-151785714D01*
X124830952Y-151738095D01*
X124783333Y-151642857D01*
X124783333Y-151404761D01*
X124830952Y-151309523D01*
X124878571Y-151261904D01*
X124973810Y-151214285D01*
X125211905Y-151214285D01*
X125307143Y-151261904D01*
X125354762Y-151309523D01*
X125402381Y-151404761D01*
X125402381Y-151642857D01*
X125354762Y-151738095D01*
X125307143Y-151785714D01*
X117547619Y-153071428D02*
X117500000Y-153166666D01*
X117404762Y-153261904D01*
X117261905Y-153404761D01*
X117214286Y-153500000D01*
X117214286Y-153595238D01*
X117452381Y-153547619D02*
X117404762Y-153642857D01*
X117309524Y-153738095D01*
X117119048Y-153785714D01*
X116785714Y-153785714D01*
X116595238Y-153738095D01*
X116500000Y-153642857D01*
X116452381Y-153547619D01*
X116452381Y-153357142D01*
X116500000Y-153261904D01*
X116595238Y-153166666D01*
X116785714Y-153119047D01*
X117119048Y-153119047D01*
X117309524Y-153166666D01*
X117404762Y-153261904D01*
X117452381Y-153357142D01*
X117452381Y-153547619D01*
X117452381Y-152166666D02*
X117452381Y-152738095D01*
X117452381Y-152452381D02*
X116452381Y-152452381D01*
X116595238Y-152547619D01*
X116690476Y-152642857D01*
X116738095Y-152738095D01*
X116452381Y-151309523D02*
X116452381Y-151500000D01*
X116500000Y-151595238D01*
X116547619Y-151642857D01*
X116690476Y-151738095D01*
X116880952Y-151785714D01*
X117261905Y-151785714D01*
X117357143Y-151738095D01*
X117404762Y-151690476D01*
X117452381Y-151595238D01*
X117452381Y-151404761D01*
X117404762Y-151309523D01*
X117357143Y-151261904D01*
X117261905Y-151214285D01*
X117023810Y-151214285D01*
X116928571Y-151261904D01*
X116880952Y-151309523D01*
X116833333Y-151404761D01*
X116833333Y-151595238D01*
X116880952Y-151690476D01*
X116928571Y-151738095D01*
X117023810Y-151785714D01*
X109547619Y-153071428D02*
X109500000Y-153166666D01*
X109404762Y-153261904D01*
X109261905Y-153404761D01*
X109214286Y-153500000D01*
X109214286Y-153595238D01*
X109452381Y-153547619D02*
X109404762Y-153642857D01*
X109309524Y-153738095D01*
X109119048Y-153785714D01*
X108785714Y-153785714D01*
X108595238Y-153738095D01*
X108500000Y-153642857D01*
X108452381Y-153547619D01*
X108452381Y-153357142D01*
X108500000Y-153261904D01*
X108595238Y-153166666D01*
X108785714Y-153119047D01*
X109119048Y-153119047D01*
X109309524Y-153166666D01*
X109404762Y-153261904D01*
X109452381Y-153357142D01*
X109452381Y-153547619D01*
X109452381Y-152166666D02*
X109452381Y-152738095D01*
X109452381Y-152452381D02*
X108452381Y-152452381D01*
X108595238Y-152547619D01*
X108690476Y-152642857D01*
X108738095Y-152738095D01*
X108452381Y-151833333D02*
X108452381Y-151166666D01*
X109452381Y-151595238D01*
X134652381Y-145892857D02*
X134176190Y-146226191D01*
X134652381Y-146464286D02*
X133652381Y-146464286D01*
X133652381Y-146083333D01*
X133700000Y-145988095D01*
X133747619Y-145940476D01*
X133842857Y-145892857D01*
X133985714Y-145892857D01*
X134080952Y-145940476D01*
X134128571Y-145988095D01*
X134176190Y-146083333D01*
X134176190Y-146464286D01*
X134652381Y-144940476D02*
X134652381Y-145511905D01*
X134652381Y-145226191D02*
X133652381Y-145226191D01*
X133795238Y-145321429D01*
X133890476Y-145416667D01*
X133938095Y-145511905D01*
X134652381Y-143988095D02*
X134652381Y-144559524D01*
X134652381Y-144273810D02*
X133652381Y-144273810D01*
X133795238Y-144369048D01*
X133890476Y-144464286D01*
X133938095Y-144559524D01*
X131652381Y-145892857D02*
X131176190Y-146226191D01*
X131652381Y-146464286D02*
X130652381Y-146464286D01*
X130652381Y-146083333D01*
X130700000Y-145988095D01*
X130747619Y-145940476D01*
X130842857Y-145892857D01*
X130985714Y-145892857D01*
X131080952Y-145940476D01*
X131128571Y-145988095D01*
X131176190Y-146083333D01*
X131176190Y-146464286D01*
X131652381Y-144940476D02*
X131652381Y-145511905D01*
X131652381Y-145226191D02*
X130652381Y-145226191D01*
X130795238Y-145321429D01*
X130890476Y-145416667D01*
X130938095Y-145511905D01*
X130652381Y-144607143D02*
X130652381Y-143988095D01*
X131033333Y-144321429D01*
X131033333Y-144178571D01*
X131080952Y-144083333D01*
X131128571Y-144035714D01*
X131223810Y-143988095D01*
X131461905Y-143988095D01*
X131557143Y-144035714D01*
X131604762Y-144083333D01*
X131652381Y-144178571D01*
X131652381Y-144464286D01*
X131604762Y-144559524D01*
X131557143Y-144607143D01*
X128652381Y-145892857D02*
X128176190Y-146226191D01*
X128652381Y-146464286D02*
X127652381Y-146464286D01*
X127652381Y-146083333D01*
X127700000Y-145988095D01*
X127747619Y-145940476D01*
X127842857Y-145892857D01*
X127985714Y-145892857D01*
X128080952Y-145940476D01*
X128128571Y-145988095D01*
X128176190Y-146083333D01*
X128176190Y-146464286D01*
X128652381Y-144940476D02*
X128652381Y-145511905D01*
X128652381Y-145226191D02*
X127652381Y-145226191D01*
X127795238Y-145321429D01*
X127890476Y-145416667D01*
X127938095Y-145511905D01*
X127985714Y-144083333D02*
X128652381Y-144083333D01*
X127604762Y-144321429D02*
X128319048Y-144559524D01*
X128319048Y-143940476D01*
X125402381Y-145892857D02*
X124926190Y-146226191D01*
X125402381Y-146464286D02*
X124402381Y-146464286D01*
X124402381Y-146083333D01*
X124450000Y-145988095D01*
X124497619Y-145940476D01*
X124592857Y-145892857D01*
X124735714Y-145892857D01*
X124830952Y-145940476D01*
X124878571Y-145988095D01*
X124926190Y-146083333D01*
X124926190Y-146464286D01*
X125402381Y-144940476D02*
X125402381Y-145511905D01*
X125402381Y-145226191D02*
X124402381Y-145226191D01*
X124545238Y-145321429D01*
X124640476Y-145416667D01*
X124688095Y-145511905D01*
X124402381Y-144035714D02*
X124402381Y-144511905D01*
X124878571Y-144559524D01*
X124830952Y-144511905D01*
X124783333Y-144416667D01*
X124783333Y-144178571D01*
X124830952Y-144083333D01*
X124878571Y-144035714D01*
X124973810Y-143988095D01*
X125211905Y-143988095D01*
X125307143Y-144035714D01*
X125354762Y-144083333D01*
X125402381Y-144178571D01*
X125402381Y-144416667D01*
X125354762Y-144511905D01*
X125307143Y-144559524D01*
X122402381Y-145892857D02*
X121926190Y-146226191D01*
X122402381Y-146464286D02*
X121402381Y-146464286D01*
X121402381Y-146083333D01*
X121450000Y-145988095D01*
X121497619Y-145940476D01*
X121592857Y-145892857D01*
X121735714Y-145892857D01*
X121830952Y-145940476D01*
X121878571Y-145988095D01*
X121926190Y-146083333D01*
X121926190Y-146464286D01*
X122402381Y-144940476D02*
X122402381Y-145511905D01*
X122402381Y-145226191D02*
X121402381Y-145226191D01*
X121545238Y-145321429D01*
X121640476Y-145416667D01*
X121688095Y-145511905D01*
X121402381Y-144083333D02*
X121402381Y-144273810D01*
X121450000Y-144369048D01*
X121497619Y-144416667D01*
X121640476Y-144511905D01*
X121830952Y-144559524D01*
X122211905Y-144559524D01*
X122307143Y-144511905D01*
X122354762Y-144464286D01*
X122402381Y-144369048D01*
X122402381Y-144178571D01*
X122354762Y-144083333D01*
X122307143Y-144035714D01*
X122211905Y-143988095D01*
X121973810Y-143988095D01*
X121878571Y-144035714D01*
X121830952Y-144083333D01*
X121783333Y-144178571D01*
X121783333Y-144369048D01*
X121830952Y-144464286D01*
X121878571Y-144511905D01*
X121973810Y-144559524D01*
X119402381Y-145892857D02*
X118926190Y-146226191D01*
X119402381Y-146464286D02*
X118402381Y-146464286D01*
X118402381Y-146083333D01*
X118450000Y-145988095D01*
X118497619Y-145940476D01*
X118592857Y-145892857D01*
X118735714Y-145892857D01*
X118830952Y-145940476D01*
X118878571Y-145988095D01*
X118926190Y-146083333D01*
X118926190Y-146464286D01*
X119402381Y-144940476D02*
X119402381Y-145511905D01*
X119402381Y-145226191D02*
X118402381Y-145226191D01*
X118545238Y-145321429D01*
X118640476Y-145416667D01*
X118688095Y-145511905D01*
X118402381Y-144607143D02*
X118402381Y-143940476D01*
X119402381Y-144369048D01*
X116402381Y-145892857D02*
X115926190Y-146226191D01*
X116402381Y-146464286D02*
X115402381Y-146464286D01*
X115402381Y-146083333D01*
X115450000Y-145988095D01*
X115497619Y-145940476D01*
X115592857Y-145892857D01*
X115735714Y-145892857D01*
X115830952Y-145940476D01*
X115878571Y-145988095D01*
X115926190Y-146083333D01*
X115926190Y-146464286D01*
X116402381Y-144940476D02*
X116402381Y-145511905D01*
X116402381Y-145226191D02*
X115402381Y-145226191D01*
X115545238Y-145321429D01*
X115640476Y-145416667D01*
X115688095Y-145511905D01*
X115830952Y-144369048D02*
X115783333Y-144464286D01*
X115735714Y-144511905D01*
X115640476Y-144559524D01*
X115592857Y-144559524D01*
X115497619Y-144511905D01*
X115450000Y-144464286D01*
X115402381Y-144369048D01*
X115402381Y-144178571D01*
X115450000Y-144083333D01*
X115497619Y-144035714D01*
X115592857Y-143988095D01*
X115640476Y-143988095D01*
X115735714Y-144035714D01*
X115783333Y-144083333D01*
X115830952Y-144178571D01*
X115830952Y-144369048D01*
X115878571Y-144464286D01*
X115926190Y-144511905D01*
X116021429Y-144559524D01*
X116211905Y-144559524D01*
X116307143Y-144511905D01*
X116354762Y-144464286D01*
X116402381Y-144369048D01*
X116402381Y-144178571D01*
X116354762Y-144083333D01*
X116307143Y-144035714D01*
X116211905Y-143988095D01*
X116021429Y-143988095D01*
X115926190Y-144035714D01*
X115878571Y-144083333D01*
X115830952Y-144178571D01*
X97502381Y-152892857D02*
X97026190Y-153226191D01*
X97502381Y-153464286D02*
X96502381Y-153464286D01*
X96502381Y-153083333D01*
X96550000Y-152988095D01*
X96597619Y-152940476D01*
X96692857Y-152892857D01*
X96835714Y-152892857D01*
X96930952Y-152940476D01*
X96978571Y-152988095D01*
X97026190Y-153083333D01*
X97026190Y-153464286D01*
X97502381Y-151940476D02*
X97502381Y-152511905D01*
X97502381Y-152226191D02*
X96502381Y-152226191D01*
X96645238Y-152321429D01*
X96740476Y-152416667D01*
X96788095Y-152511905D01*
X97502381Y-151464286D02*
X97502381Y-151273810D01*
X97454762Y-151178571D01*
X97407143Y-151130952D01*
X97264286Y-151035714D01*
X97073810Y-150988095D01*
X96692857Y-150988095D01*
X96597619Y-151035714D01*
X96550000Y-151083333D01*
X96502381Y-151178571D01*
X96502381Y-151369048D01*
X96550000Y-151464286D01*
X96597619Y-151511905D01*
X96692857Y-151559524D01*
X96930952Y-151559524D01*
X97026190Y-151511905D01*
X97073810Y-151464286D01*
X97121429Y-151369048D01*
X97121429Y-151178571D01*
X97073810Y-151083333D01*
X97026190Y-151035714D01*
X96930952Y-150988095D01*
X100252381Y-152892857D02*
X99776190Y-153226191D01*
X100252381Y-153464286D02*
X99252381Y-153464286D01*
X99252381Y-153083333D01*
X99300000Y-152988095D01*
X99347619Y-152940476D01*
X99442857Y-152892857D01*
X99585714Y-152892857D01*
X99680952Y-152940476D01*
X99728571Y-152988095D01*
X99776190Y-153083333D01*
X99776190Y-153464286D01*
X99347619Y-152511905D02*
X99300000Y-152464286D01*
X99252381Y-152369048D01*
X99252381Y-152130952D01*
X99300000Y-152035714D01*
X99347619Y-151988095D01*
X99442857Y-151940476D01*
X99538095Y-151940476D01*
X99680952Y-151988095D01*
X100252381Y-152559524D01*
X100252381Y-151940476D01*
X99252381Y-151321429D02*
X99252381Y-151226190D01*
X99300000Y-151130952D01*
X99347619Y-151083333D01*
X99442857Y-151035714D01*
X99633333Y-150988095D01*
X99871429Y-150988095D01*
X100061905Y-151035714D01*
X100157143Y-151083333D01*
X100204762Y-151130952D01*
X100252381Y-151226190D01*
X100252381Y-151321429D01*
X100204762Y-151416667D01*
X100157143Y-151464286D01*
X100061905Y-151511905D01*
X99871429Y-151559524D01*
X99633333Y-151559524D01*
X99442857Y-151511905D01*
X99347619Y-151464286D01*
X99300000Y-151416667D01*
X99252381Y-151321429D01*
X103002381Y-152892857D02*
X102526190Y-153226191D01*
X103002381Y-153464286D02*
X102002381Y-153464286D01*
X102002381Y-153083333D01*
X102050000Y-152988095D01*
X102097619Y-152940476D01*
X102192857Y-152892857D01*
X102335714Y-152892857D01*
X102430952Y-152940476D01*
X102478571Y-152988095D01*
X102526190Y-153083333D01*
X102526190Y-153464286D01*
X102097619Y-152511905D02*
X102050000Y-152464286D01*
X102002381Y-152369048D01*
X102002381Y-152130952D01*
X102050000Y-152035714D01*
X102097619Y-151988095D01*
X102192857Y-151940476D01*
X102288095Y-151940476D01*
X102430952Y-151988095D01*
X103002381Y-152559524D01*
X103002381Y-151940476D01*
X103002381Y-150988095D02*
X103002381Y-151559524D01*
X103002381Y-151273810D02*
X102002381Y-151273810D01*
X102145238Y-151369048D01*
X102240476Y-151464286D01*
X102288095Y-151559524D01*
X105752381Y-152892857D02*
X105276190Y-153226191D01*
X105752381Y-153464286D02*
X104752381Y-153464286D01*
X104752381Y-153083333D01*
X104800000Y-152988095D01*
X104847619Y-152940476D01*
X104942857Y-152892857D01*
X105085714Y-152892857D01*
X105180952Y-152940476D01*
X105228571Y-152988095D01*
X105276190Y-153083333D01*
X105276190Y-153464286D01*
X104847619Y-152511905D02*
X104800000Y-152464286D01*
X104752381Y-152369048D01*
X104752381Y-152130952D01*
X104800000Y-152035714D01*
X104847619Y-151988095D01*
X104942857Y-151940476D01*
X105038095Y-151940476D01*
X105180952Y-151988095D01*
X105752381Y-152559524D01*
X105752381Y-151940476D01*
X104847619Y-151559524D02*
X104800000Y-151511905D01*
X104752381Y-151416667D01*
X104752381Y-151178571D01*
X104800000Y-151083333D01*
X104847619Y-151035714D01*
X104942857Y-150988095D01*
X105038095Y-150988095D01*
X105180952Y-151035714D01*
X105752381Y-151607143D01*
X105752381Y-150988095D01*
X129738095Y-140952381D02*
X129738095Y-141761905D01*
X129785714Y-141857143D01*
X129833333Y-141904762D01*
X129928571Y-141952381D01*
X130119048Y-141952381D01*
X130214286Y-141904762D01*
X130261905Y-141857143D01*
X130309524Y-141761905D01*
X130309524Y-140952381D01*
X130690476Y-140952381D02*
X131309524Y-140952381D01*
X130976190Y-141333333D01*
X131119048Y-141333333D01*
X131214286Y-141380952D01*
X131261905Y-141428571D01*
X131309524Y-141523810D01*
X131309524Y-141761905D01*
X131261905Y-141857143D01*
X131214286Y-141904762D01*
X131119048Y-141952381D01*
X130833333Y-141952381D01*
X130738095Y-141904762D01*
X130690476Y-141857143D01*
X119738095Y-140952381D02*
X119738095Y-141761905D01*
X119785714Y-141857143D01*
X119833333Y-141904762D01*
X119928571Y-141952381D01*
X120119048Y-141952381D01*
X120214286Y-141904762D01*
X120261905Y-141857143D01*
X120309524Y-141761905D01*
X120309524Y-140952381D01*
X121214286Y-141285714D02*
X121214286Y-141952381D01*
X120976190Y-140904762D02*
X120738095Y-141619048D01*
X121357143Y-141619048D01*
M02*
