G04 #@! TF.FileFunction,Copper,L1,Top,Signal*
%FSLAX46Y46*%
G04 Gerber Fmt 4.6, Leading zero omitted, Abs format (unit mm)*
G04 Created by KiCad (PCBNEW 4.0.6) date Saturday, 22 July 2017 'PMt' 21:55:12*
%MOMM*%
%LPD*%
G01*
G04 APERTURE LIST*
%ADD10C,0.100000*%
%ADD11R,2.000000X6.000000*%
%ADD12R,1.600000X2.000000*%
%ADD13C,2.000000*%
%ADD14R,3.500120X3.500120*%
%ADD15C,1.470000*%
%ADD16C,1.998980*%
%ADD17O,3.100000X4.100000*%
%ADD18R,1.700000X2.000000*%
%ADD19R,2.000000X1.700000*%
%ADD20C,1.524000*%
%ADD21C,3.810000*%
%ADD22R,1.524000X1.524000*%
%ADD23C,0.600000*%
%ADD24C,0.250000*%
%ADD25C,1.470000*%
%ADD26C,3.000000*%
%ADD27C,0.254000*%
G04 APERTURE END LIST*
D10*
D11*
X146305000Y-160020000D03*
X138385000Y-160020000D03*
X134425000Y-160020000D03*
X130465000Y-160020000D03*
X126505000Y-160020000D03*
X122545000Y-160020000D03*
X118585000Y-160020000D03*
X142345000Y-160020000D03*
X114625000Y-160020000D03*
X106705000Y-160020000D03*
X102745000Y-160020000D03*
X98785000Y-160020000D03*
X110665000Y-160020000D03*
X170065000Y-160020000D03*
X166105000Y-160020000D03*
X158185000Y-160020000D03*
X174025000Y-160020000D03*
X162145000Y-160020000D03*
X150265000Y-160020000D03*
X154225000Y-160020000D03*
X193825000Y-160020000D03*
X189865000Y-160020000D03*
X181945000Y-160020000D03*
X185905000Y-160020000D03*
X177985000Y-160020000D03*
X197785000Y-160020000D03*
X94825000Y-160020000D03*
X201745000Y-160020000D03*
D12*
X158750000Y-153130000D03*
X158750000Y-149130000D03*
X155575000Y-153130000D03*
X155575000Y-149130000D03*
X146050000Y-153130000D03*
X146050000Y-149130000D03*
D13*
X139065000Y-148535000D03*
X139065000Y-153035000D03*
X132565000Y-148535000D03*
X132565000Y-153035000D03*
D14*
X190675260Y-145669000D03*
X196674740Y-145669000D03*
X193675000Y-140970000D03*
D15*
X184785000Y-153670000D03*
X183085000Y-153670000D03*
X186485000Y-153670000D03*
X188185000Y-153670000D03*
X181385000Y-153670000D03*
D16*
X144950180Y-142240000D03*
X146855180Y-137160000D03*
X148760180Y-142240000D03*
X150665180Y-137160000D03*
X152570180Y-142240000D03*
X154475180Y-137160000D03*
X156380180Y-142240000D03*
X158285180Y-137160000D03*
X160190180Y-142240000D03*
X162095180Y-137160000D03*
X164000180Y-142240000D03*
X165905180Y-137160000D03*
X167810180Y-142240000D03*
X169715180Y-137160000D03*
X171620180Y-142240000D03*
X173525180Y-137160000D03*
X175430180Y-142240000D03*
X177335180Y-137160000D03*
X179240180Y-142240000D03*
X181145180Y-137160000D03*
X183050180Y-142240000D03*
D17*
X137500360Y-135161020D03*
X190500000Y-135161020D03*
D18*
X174625000Y-149035000D03*
X174625000Y-153035000D03*
X161925000Y-149035000D03*
X161925000Y-153035000D03*
X152400000Y-149130000D03*
X152400000Y-153130000D03*
X142875000Y-149130000D03*
X142875000Y-153130000D03*
X166370000Y-149130000D03*
X166370000Y-153130000D03*
X170815000Y-149130000D03*
X170815000Y-153130000D03*
D19*
X202025000Y-128270000D03*
X198025000Y-128270000D03*
D20*
X198120000Y-135890000D03*
X195580000Y-135890000D03*
X200660000Y-135890000D03*
D19*
X202025000Y-131445000D03*
X198025000Y-131445000D03*
D18*
X177800000Y-153035000D03*
X177800000Y-149035000D03*
D21*
X96393000Y-130937000D03*
X129667000Y-130937000D03*
D22*
X103505000Y-129540000D03*
D20*
X106172000Y-129540000D03*
X108966000Y-129540000D03*
X111633000Y-129540000D03*
X114427000Y-129540000D03*
X117221000Y-129540000D03*
X119888000Y-129540000D03*
X122682000Y-129540000D03*
X104775000Y-132334000D03*
X107569000Y-132334000D03*
X110363000Y-132334000D03*
X113030000Y-132334000D03*
X115824000Y-132334000D03*
X118491000Y-132334000D03*
X121285000Y-132334000D03*
D21*
X96393000Y-141859000D03*
X129667000Y-141859000D03*
D22*
X103505000Y-140462000D03*
D20*
X106172000Y-140462000D03*
X108966000Y-140462000D03*
X111633000Y-140462000D03*
X114427000Y-140462000D03*
X117221000Y-140462000D03*
X119888000Y-140462000D03*
X122682000Y-140462000D03*
X104775000Y-143256000D03*
X107569000Y-143256000D03*
X110363000Y-143256000D03*
X113030000Y-143256000D03*
X115824000Y-143256000D03*
X118491000Y-143256000D03*
X121285000Y-143256000D03*
D23*
X156210000Y-160020000D03*
X134620000Y-147320000D03*
X127000000Y-134620000D03*
X136525000Y-141605000D03*
X170180000Y-145415000D03*
X150495000Y-156210000D03*
X150495000Y-144780000D03*
X126365000Y-143510000D03*
X184785000Y-134620000D03*
X180340000Y-151130000D03*
X186055000Y-149225000D03*
X186055000Y-138430000D03*
X184150000Y-160020000D03*
X172260000Y-156035000D03*
X164465000Y-146685000D03*
X192405000Y-128270000D03*
D24*
X158185000Y-160020000D02*
X158185000Y-153695000D01*
X158185000Y-153695000D02*
X158750000Y-153130000D01*
X158750000Y-149130000D02*
X158750000Y-149330000D01*
X158750000Y-149330000D02*
X161925000Y-152505000D01*
X161925000Y-152505000D02*
X161925000Y-153035000D01*
X156210000Y-153965000D02*
X156210000Y-160020000D01*
X155575000Y-153130000D02*
X155575000Y-153330000D01*
X155575000Y-153330000D02*
X156210000Y-153965000D01*
X155575000Y-149130000D02*
X155575000Y-149805000D01*
X155575000Y-149805000D02*
X152400000Y-152980000D01*
X152400000Y-152980000D02*
X152400000Y-153130000D01*
X153030000Y-155575000D02*
X148295000Y-155575000D01*
X148295000Y-155575000D02*
X146050000Y-153330000D01*
X146050000Y-153330000D02*
X146050000Y-153130000D01*
X154225000Y-160020000D02*
X154225000Y-156770000D01*
X154225000Y-156770000D02*
X153030000Y-155575000D01*
X146050000Y-149130000D02*
X146050000Y-149805000D01*
X146050000Y-149805000D02*
X142875000Y-152980000D01*
X142875000Y-152980000D02*
X142875000Y-153130000D01*
X134620000Y-147320000D02*
X134620000Y-150980000D01*
X134620000Y-150980000D02*
X132565000Y-153035000D01*
X142240000Y-156210000D02*
X144495000Y-156210000D01*
X144495000Y-156210000D02*
X146305000Y-158020000D01*
X146305000Y-158020000D02*
X146305000Y-160020000D01*
X139065000Y-153035000D02*
X142240000Y-156210000D01*
X135940000Y-143560000D02*
X127000000Y-134620000D01*
X135940000Y-155575000D02*
X135940000Y-143560000D01*
X138385000Y-160020000D02*
X138385000Y-158020000D01*
X138385000Y-158020000D02*
X135940000Y-155575000D01*
X121285000Y-132334000D02*
X121285000Y-135890000D01*
X121285000Y-135890000D02*
X125095000Y-139700000D01*
X125095000Y-139700000D02*
X125095000Y-143510000D01*
X125095000Y-143510000D02*
X128905000Y-147320000D01*
X128905000Y-147320000D02*
X128905000Y-153874998D01*
X128905000Y-153874998D02*
X130605002Y-155575000D01*
X130605002Y-155575000D02*
X131980000Y-155575000D01*
X131980000Y-155575000D02*
X134425000Y-158020000D01*
X134425000Y-158020000D02*
X134425000Y-160020000D01*
X134425000Y-156770000D02*
X134425000Y-160020000D01*
X119888000Y-129540000D02*
X119888000Y-136059238D01*
X119888000Y-136059238D02*
X123825000Y-139996238D01*
X123825000Y-139996238D02*
X123825000Y-143550828D01*
X126365001Y-146090829D02*
X126365000Y-153920000D01*
X123825000Y-143550828D02*
X126365001Y-146090829D01*
X130465000Y-158020000D02*
X130465000Y-160020000D01*
X126365000Y-153920000D02*
X130465000Y-158020000D01*
X118491000Y-132334000D02*
X118491000Y-137456238D01*
X120197999Y-151712999D02*
X126505000Y-158020000D01*
X118491000Y-137456238D02*
X120975001Y-139940239D01*
X120975001Y-139940239D02*
X120975001Y-141957237D01*
X120975001Y-141957237D02*
X120197999Y-142734239D01*
X120197999Y-142734239D02*
X120197999Y-151712999D01*
X126505000Y-158020000D02*
X126505000Y-160020000D01*
X117221000Y-129540000D02*
X117221000Y-138853238D01*
X118308001Y-141830237D02*
X117403999Y-142734239D01*
X117221000Y-138853238D02*
X118308001Y-139940239D01*
X118308001Y-139940239D02*
X118308001Y-141830237D01*
X117403999Y-142734239D02*
X117403999Y-152878999D01*
X117403999Y-152878999D02*
X122545000Y-158020000D01*
X122545000Y-158020000D02*
X122545000Y-160020000D01*
X115824000Y-132334000D02*
X115824000Y-140673762D01*
X114736999Y-141760763D02*
X114736999Y-154171999D01*
X115824000Y-140673762D02*
X114736999Y-141760763D01*
X114736999Y-154171999D02*
X118585000Y-158020000D01*
X118585000Y-158020000D02*
X118585000Y-160020000D01*
X136525000Y-154940000D02*
X139265000Y-154940000D01*
X139265000Y-154940000D02*
X142345000Y-158020000D01*
X142345000Y-158020000D02*
X142345000Y-160020000D01*
X136525000Y-141605000D02*
X136525000Y-154940000D01*
X114427000Y-129540000D02*
X114427000Y-138853238D01*
X114427000Y-138853238D02*
X112720001Y-140560237D01*
X112720001Y-140560237D02*
X112720001Y-141957237D01*
X111942999Y-142734239D02*
X111942999Y-155337999D01*
X112720001Y-141957237D02*
X111942999Y-142734239D01*
X111942999Y-155337999D02*
X114625000Y-158020000D01*
X114625000Y-158020000D02*
X114625000Y-160020000D01*
X111633000Y-129540000D02*
X111633000Y-136186238D01*
X111633000Y-136186238D02*
X107259001Y-140560237D01*
X107259001Y-140560237D02*
X107259001Y-141957237D01*
X107259001Y-141957237D02*
X106481999Y-142734239D01*
X106481999Y-142734239D02*
X106481999Y-156546999D01*
X106481999Y-156546999D02*
X106705000Y-156770000D01*
X106705000Y-156770000D02*
X106705000Y-160020000D01*
X129667000Y-130937000D02*
X140064999Y-141334999D01*
X140064999Y-141334999D02*
X140064999Y-142604999D01*
X198120000Y-135890000D02*
X198120000Y-138525060D01*
X198025000Y-131445000D02*
X198025000Y-135795000D01*
X198025000Y-135795000D02*
X198120000Y-135890000D01*
X198120000Y-138525060D02*
X195675060Y-140970000D01*
X198120000Y-131540000D02*
X198025000Y-131445000D01*
D25*
X196674740Y-145669000D02*
X196674740Y-149860000D01*
X196674740Y-149860000D02*
X196674740Y-158909740D01*
X184785000Y-151765000D02*
X194769740Y-151765000D01*
X194769740Y-151765000D02*
X196674740Y-149860000D01*
X184785000Y-153670000D02*
X184785000Y-151765000D01*
D24*
X183050180Y-142240000D02*
X192405000Y-142240000D01*
X192405000Y-142240000D02*
X193675000Y-140970000D01*
D25*
X196674740Y-149684740D02*
X201745000Y-154755000D01*
X201745000Y-154755000D02*
X201745000Y-160020000D01*
D24*
X196674740Y-145669000D02*
X196674740Y-149684740D01*
X196674740Y-158909740D02*
X197785000Y-160020000D01*
D25*
X193675000Y-140970000D02*
X195675060Y-140970000D01*
D24*
X196674740Y-143668940D02*
X196674740Y-145669000D01*
D25*
X195675060Y-140970000D02*
X196674740Y-141969680D01*
X196674740Y-141969680D02*
X196674740Y-143668940D01*
D24*
X98785000Y-160020000D02*
X98785000Y-148865000D01*
X94825000Y-160020000D02*
X94825000Y-150670000D01*
X197785000Y-158020000D02*
X197785000Y-160020000D01*
X177335180Y-137160000D02*
X178659671Y-138484491D01*
X178659671Y-138484491D02*
X179294671Y-138484491D01*
X179294671Y-138484491D02*
X182050691Y-141240511D01*
X182050691Y-141240511D02*
X183050180Y-142240000D01*
X150665180Y-137160000D02*
X147490180Y-140335000D01*
X147490180Y-140335000D02*
X142334998Y-140335000D01*
X142334998Y-140335000D02*
X140064999Y-142604999D01*
X170180000Y-145415000D02*
X172720000Y-147955000D01*
X172720000Y-147955000D02*
X172720000Y-152400000D01*
X172720000Y-152400000D02*
X171990000Y-153130000D01*
X171990000Y-153130000D02*
X170815000Y-153130000D01*
X140064999Y-142604999D02*
X140037923Y-142604999D01*
X139065000Y-148535000D02*
X140064999Y-147535001D01*
X140064999Y-147535001D02*
X140064999Y-142604999D01*
X129794000Y-141605000D02*
X129794000Y-145764000D01*
X129794000Y-145764000D02*
X132565000Y-148535000D01*
X113030000Y-132334000D02*
X113030000Y-137456238D01*
X110053001Y-140433237D02*
X110053001Y-141957237D01*
X113030000Y-137456238D02*
X110053001Y-140433237D01*
X110053001Y-141957237D02*
X109275999Y-142734239D01*
X109275999Y-142734239D02*
X109275999Y-155380999D01*
X109275999Y-155380999D02*
X110665000Y-156770000D01*
X110665000Y-156770000D02*
X110665000Y-160020000D01*
X166105000Y-160020000D02*
X166105000Y-153395000D01*
X166105000Y-153395000D02*
X166370000Y-153130000D01*
X150495000Y-156210000D02*
X150495000Y-159790000D01*
X150495000Y-159790000D02*
X150265000Y-160020000D01*
X152570180Y-142240000D02*
X150495000Y-144315180D01*
X150495000Y-144315180D02*
X150495000Y-144780000D01*
X165270180Y-139700000D02*
X172890180Y-139700000D01*
X172890180Y-139700000D02*
X175430180Y-142240000D01*
X157480000Y-139700000D02*
X157650180Y-139700000D01*
X155110180Y-139700000D02*
X157480000Y-139700000D01*
X157480000Y-139700000D02*
X165270180Y-139700000D01*
X165270180Y-139700000D02*
X167810180Y-142240000D01*
X157650180Y-139700000D02*
X160190180Y-142240000D01*
X152570180Y-142240000D02*
X155110180Y-139700000D01*
D26*
X189865000Y-160020000D02*
X193825000Y-160020000D01*
D24*
X122682000Y-135382000D02*
X126365000Y-139065000D01*
X126365000Y-139065000D02*
X126365000Y-143510000D01*
X122682000Y-129540000D02*
X122682000Y-135382000D01*
X127635000Y-127635000D02*
X177800000Y-127635000D01*
X177800000Y-127635000D02*
X184785000Y-134620000D01*
X125730000Y-129540000D02*
X127635000Y-127635000D01*
X122682000Y-129540000D02*
X125730000Y-129540000D01*
X180340000Y-151130000D02*
X179555000Y-151130000D01*
X179555000Y-151130000D02*
X177800000Y-152885000D01*
D25*
X177800000Y-152885000D02*
X177800000Y-153035000D01*
X187420000Y-155575000D02*
X193040000Y-155575000D01*
X193040000Y-155575000D02*
X193825000Y-156360000D01*
X193825000Y-156360000D02*
X193825000Y-160020000D01*
X186690000Y-155575000D02*
X187420000Y-155575000D01*
X187420000Y-155575000D02*
X189865000Y-158020000D01*
X189865000Y-158020000D02*
X189865000Y-160020000D01*
X186485000Y-155370000D02*
X186690000Y-155575000D01*
X186485000Y-153670000D02*
X186485000Y-155370000D01*
X183085000Y-151560000D02*
X183085000Y-149655000D01*
X183085000Y-149655000D02*
X183515000Y-149225000D01*
X183515000Y-149225000D02*
X185420000Y-149225000D01*
X186055000Y-149225000D02*
X189119320Y-149225000D01*
X189119320Y-149225000D02*
X190675260Y-147669060D01*
D24*
X190675260Y-147669060D02*
X190675260Y-145669000D01*
D25*
X185420000Y-149225000D02*
X186055000Y-149225000D01*
X183085000Y-153670000D02*
X183085000Y-151560000D01*
D24*
X181945000Y-155855000D02*
X181965000Y-155855000D01*
D25*
X181965000Y-155855000D02*
X183085000Y-154735000D01*
X183085000Y-154735000D02*
X183085000Y-153670000D01*
D24*
X160655000Y-134790180D02*
X182415180Y-134790180D01*
X182415180Y-134790180D02*
X186055000Y-138430000D01*
X158285180Y-137160000D02*
X160655000Y-134790180D01*
D25*
X181945000Y-155855000D02*
X181945000Y-160020000D01*
D24*
X185905000Y-160020000D02*
X184150000Y-160020000D01*
X173530000Y-156035000D02*
X174625000Y-154940000D01*
X174625000Y-154940000D02*
X174625000Y-153035000D01*
X172260000Y-156035000D02*
X173530000Y-156035000D01*
X164465000Y-146685000D02*
X164465000Y-148325000D01*
X164465000Y-148325000D02*
X165270000Y-149130000D01*
X165270000Y-149130000D02*
X166370000Y-149130000D01*
X144950180Y-142240000D02*
X145949669Y-141240511D01*
X145949669Y-141240511D02*
X147760691Y-141240511D01*
X147760691Y-141240511D02*
X148760180Y-142240000D01*
X166370000Y-149130000D02*
X167470000Y-149130000D01*
X167470000Y-149130000D02*
X170815000Y-149130000D01*
X145340000Y-145415000D02*
X153205180Y-145415000D01*
X153205180Y-145415000D02*
X156380180Y-142240000D01*
X142875000Y-149130000D02*
X142875000Y-147880000D01*
X142875000Y-147880000D02*
X145340000Y-145415000D01*
X155965000Y-145415000D02*
X160825180Y-145415000D01*
X160825180Y-145415000D02*
X164000180Y-142240000D01*
X152400000Y-149130000D02*
X152400000Y-148980000D01*
X152400000Y-148980000D02*
X155965000Y-145415000D01*
X164295000Y-145415000D02*
X168445180Y-145415000D01*
X168445180Y-145415000D02*
X171620180Y-142240000D01*
X161925000Y-149035000D02*
X161925000Y-147785000D01*
X161925000Y-147785000D02*
X164295000Y-145415000D01*
X177800000Y-149035000D02*
X178900000Y-149035000D01*
X178900000Y-149035000D02*
X180975000Y-146960000D01*
X180975000Y-146960000D02*
X180975000Y-146515000D01*
X180975000Y-146515000D02*
X180975000Y-140970000D01*
X180975000Y-140970000D02*
X179705000Y-139700000D01*
X179705000Y-139700000D02*
X176065180Y-139700000D01*
X176065180Y-139700000D02*
X173525180Y-137160000D01*
X179240180Y-142240000D02*
X174625000Y-146855180D01*
X174625000Y-146855180D02*
X174625000Y-149035000D01*
X200660000Y-133930000D02*
X200660000Y-135890000D01*
X200660000Y-133930000D02*
X202025000Y-132565000D01*
X202025000Y-132565000D02*
X202025000Y-131445000D01*
X202025000Y-131445000D02*
X202025000Y-128270000D01*
X201875000Y-131445000D02*
X202025000Y-131445000D01*
X198025000Y-128270000D02*
X192405000Y-128270000D01*
D27*
G36*
X203708000Y-162433000D02*
X195472440Y-162433000D01*
X195472440Y-161323490D01*
X195797483Y-160837029D01*
X195960000Y-160020000D01*
X195797483Y-159202971D01*
X195472440Y-158716510D01*
X195472440Y-157020000D01*
X195428162Y-156784683D01*
X195289090Y-156568559D01*
X195195000Y-156504270D01*
X195195000Y-156360000D01*
X195090715Y-155835724D01*
X195058158Y-155786999D01*
X194793737Y-155391264D01*
X194008736Y-154606264D01*
X193564277Y-154309285D01*
X193040000Y-154205000D01*
X189446263Y-154205000D01*
X189554762Y-153943705D01*
X189555237Y-153398686D01*
X189347107Y-152894971D01*
X188962056Y-152509248D01*
X188458705Y-152300238D01*
X187913686Y-152299763D01*
X187409971Y-152507893D01*
X187335207Y-152582527D01*
X187262056Y-152509248D01*
X186758705Y-152300238D01*
X186213686Y-152299763D01*
X185709971Y-152507893D01*
X185324248Y-152892944D01*
X185115238Y-153396295D01*
X185114763Y-153941314D01*
X185115000Y-153941888D01*
X185115000Y-155370000D01*
X185219285Y-155894277D01*
X185516264Y-156338736D01*
X185550088Y-156372560D01*
X184905000Y-156372560D01*
X184669683Y-156416838D01*
X184453559Y-156555910D01*
X184308569Y-156768110D01*
X184257560Y-157020000D01*
X184257560Y-159085093D01*
X183964833Y-159084838D01*
X183621057Y-159226883D01*
X183592440Y-159255450D01*
X183592440Y-157020000D01*
X183548162Y-156784683D01*
X183409090Y-156568559D01*
X183315000Y-156504270D01*
X183315000Y-156442472D01*
X184053736Y-155703736D01*
X184350715Y-155259277D01*
X184382429Y-155099838D01*
X184455000Y-154735000D01*
X184455000Y-153670622D01*
X184455237Y-153398686D01*
X184455000Y-153398112D01*
X184455000Y-150595000D01*
X189119320Y-150595000D01*
X189643597Y-150490715D01*
X190088056Y-150193736D01*
X191643996Y-148637797D01*
X191940974Y-148193337D01*
X191966203Y-148066500D01*
X192425320Y-148066500D01*
X192660637Y-148022222D01*
X192876761Y-147883150D01*
X193021751Y-147670950D01*
X193072760Y-147419060D01*
X193072760Y-143918940D01*
X193028482Y-143683623D01*
X192889410Y-143467499D01*
X192677210Y-143322509D01*
X192425320Y-143271500D01*
X188925200Y-143271500D01*
X188689883Y-143315778D01*
X188473759Y-143454850D01*
X188328769Y-143667050D01*
X188277760Y-143918940D01*
X188277760Y-147419060D01*
X188322038Y-147654377D01*
X188451135Y-147855000D01*
X183515000Y-147855000D01*
X182990724Y-147959285D01*
X182546264Y-148256264D01*
X182116264Y-148686264D01*
X181819285Y-149130723D01*
X181743015Y-149514161D01*
X181715000Y-149655000D01*
X181715000Y-152323614D01*
X181658705Y-152300238D01*
X181113686Y-152299763D01*
X180609971Y-152507893D01*
X180224248Y-152892944D01*
X180015238Y-153396295D01*
X180014763Y-153941314D01*
X180222893Y-154445029D01*
X180607944Y-154830752D01*
X180925304Y-154962531D01*
X180679285Y-155330724D01*
X180575000Y-155855000D01*
X180575000Y-156503504D01*
X180493559Y-156555910D01*
X180348569Y-156768110D01*
X180297560Y-157020000D01*
X180297560Y-162433000D01*
X179632440Y-162433000D01*
X179632440Y-157020000D01*
X179588162Y-156784683D01*
X179449090Y-156568559D01*
X179236890Y-156423569D01*
X178985000Y-156372560D01*
X176985000Y-156372560D01*
X176749683Y-156416838D01*
X176533559Y-156555910D01*
X176388569Y-156768110D01*
X176337560Y-157020000D01*
X176337560Y-162433000D01*
X175672440Y-162433000D01*
X175672440Y-157020000D01*
X175628162Y-156784683D01*
X175489090Y-156568559D01*
X175276890Y-156423569D01*
X175025000Y-156372560D01*
X174267242Y-156372560D01*
X175162401Y-155477401D01*
X175327148Y-155230839D01*
X175385000Y-154940000D01*
X175385000Y-154682440D01*
X175475000Y-154682440D01*
X175710317Y-154638162D01*
X175926441Y-154499090D01*
X176071431Y-154286890D01*
X176122440Y-154035000D01*
X176122440Y-152035000D01*
X176302560Y-152035000D01*
X176302560Y-154035000D01*
X176346838Y-154270317D01*
X176485910Y-154486441D01*
X176698110Y-154631431D01*
X176950000Y-154682440D01*
X178650000Y-154682440D01*
X178885317Y-154638162D01*
X179101441Y-154499090D01*
X179246431Y-154286890D01*
X179297440Y-154035000D01*
X179297440Y-152462362D01*
X179829413Y-151930389D01*
X180153201Y-152064838D01*
X180525167Y-152065162D01*
X180868943Y-151923117D01*
X181132192Y-151660327D01*
X181274838Y-151316799D01*
X181275162Y-150944833D01*
X181133117Y-150601057D01*
X180870327Y-150337808D01*
X180526799Y-150195162D01*
X180154833Y-150194838D01*
X179811057Y-150336883D01*
X179777882Y-150370000D01*
X179555000Y-150370000D01*
X179264161Y-150427852D01*
X179017599Y-150592599D01*
X178222638Y-151387560D01*
X176950000Y-151387560D01*
X176714683Y-151431838D01*
X176498559Y-151570910D01*
X176353569Y-151783110D01*
X176302560Y-152035000D01*
X176122440Y-152035000D01*
X176078162Y-151799683D01*
X175939090Y-151583559D01*
X175726890Y-151438569D01*
X175475000Y-151387560D01*
X173775000Y-151387560D01*
X173539683Y-151431838D01*
X173323559Y-151570910D01*
X173178569Y-151783110D01*
X173127560Y-152035000D01*
X173127560Y-154035000D01*
X173171838Y-154270317D01*
X173310910Y-154486441D01*
X173523110Y-154631431D01*
X173775000Y-154682440D01*
X173807758Y-154682440D01*
X173215198Y-155275000D01*
X172822463Y-155275000D01*
X172790327Y-155242808D01*
X172446799Y-155100162D01*
X172074833Y-155099838D01*
X171731057Y-155241883D01*
X171467808Y-155504673D01*
X171325162Y-155848201D01*
X171324838Y-156220167D01*
X171445070Y-156511150D01*
X171316890Y-156423569D01*
X171065000Y-156372560D01*
X169065000Y-156372560D01*
X168829683Y-156416838D01*
X168613559Y-156555910D01*
X168468569Y-156768110D01*
X168417560Y-157020000D01*
X168417560Y-162433000D01*
X167752440Y-162433000D01*
X167752440Y-157020000D01*
X167708162Y-156784683D01*
X167569090Y-156568559D01*
X167356890Y-156423569D01*
X167105000Y-156372560D01*
X166865000Y-156372560D01*
X166865000Y-154777440D01*
X167220000Y-154777440D01*
X167455317Y-154733162D01*
X167671441Y-154594090D01*
X167816431Y-154381890D01*
X167867440Y-154130000D01*
X167867440Y-152130000D01*
X167823162Y-151894683D01*
X167684090Y-151678559D01*
X167471890Y-151533569D01*
X167220000Y-151482560D01*
X165520000Y-151482560D01*
X165284683Y-151526838D01*
X165068559Y-151665910D01*
X164923569Y-151878110D01*
X164872560Y-152130000D01*
X164872560Y-154130000D01*
X164916838Y-154365317D01*
X165055910Y-154581441D01*
X165268110Y-154726431D01*
X165345000Y-154742002D01*
X165345000Y-156372560D01*
X165105000Y-156372560D01*
X164869683Y-156416838D01*
X164653559Y-156555910D01*
X164508569Y-156768110D01*
X164457560Y-157020000D01*
X164457560Y-162433000D01*
X163792440Y-162433000D01*
X163792440Y-157020000D01*
X163748162Y-156784683D01*
X163609090Y-156568559D01*
X163396890Y-156423569D01*
X163145000Y-156372560D01*
X161145000Y-156372560D01*
X160909683Y-156416838D01*
X160693559Y-156555910D01*
X160548569Y-156768110D01*
X160497560Y-157020000D01*
X160497560Y-162433000D01*
X159832440Y-162433000D01*
X159832440Y-157020000D01*
X159788162Y-156784683D01*
X159649090Y-156568559D01*
X159436890Y-156423569D01*
X159185000Y-156372560D01*
X158945000Y-156372560D01*
X158945000Y-154777440D01*
X159550000Y-154777440D01*
X159785317Y-154733162D01*
X160001441Y-154594090D01*
X160146431Y-154381890D01*
X160197440Y-154130000D01*
X160197440Y-152130000D01*
X160153162Y-151894683D01*
X160014090Y-151678559D01*
X159801890Y-151533569D01*
X159550000Y-151482560D01*
X157950000Y-151482560D01*
X157714683Y-151526838D01*
X157498559Y-151665910D01*
X157353569Y-151878110D01*
X157302560Y-152130000D01*
X157302560Y-154130000D01*
X157346838Y-154365317D01*
X157425000Y-154486784D01*
X157425000Y-156372560D01*
X157185000Y-156372560D01*
X156970000Y-156413015D01*
X156970000Y-154383984D01*
X156971431Y-154381890D01*
X157022440Y-154130000D01*
X157022440Y-152130000D01*
X156978162Y-151894683D01*
X156839090Y-151678559D01*
X156626890Y-151533569D01*
X156375000Y-151482560D01*
X154972242Y-151482560D01*
X155677362Y-150777440D01*
X156375000Y-150777440D01*
X156610317Y-150733162D01*
X156826441Y-150594090D01*
X156971431Y-150381890D01*
X157022440Y-150130000D01*
X157022440Y-148130000D01*
X157302560Y-148130000D01*
X157302560Y-150130000D01*
X157346838Y-150365317D01*
X157485910Y-150581441D01*
X157698110Y-150726431D01*
X157950000Y-150777440D01*
X159122638Y-150777440D01*
X160427560Y-152082362D01*
X160427560Y-154035000D01*
X160471838Y-154270317D01*
X160610910Y-154486441D01*
X160823110Y-154631431D01*
X161075000Y-154682440D01*
X162775000Y-154682440D01*
X163010317Y-154638162D01*
X163226441Y-154499090D01*
X163371431Y-154286890D01*
X163422440Y-154035000D01*
X163422440Y-152035000D01*
X163378162Y-151799683D01*
X163239090Y-151583559D01*
X163026890Y-151438569D01*
X162775000Y-151387560D01*
X161882362Y-151387560D01*
X161177242Y-150682440D01*
X162775000Y-150682440D01*
X163010317Y-150638162D01*
X163226441Y-150499090D01*
X163371431Y-150286890D01*
X163422440Y-150035000D01*
X163422440Y-148035000D01*
X163378162Y-147799683D01*
X163239090Y-147583559D01*
X163216606Y-147568196D01*
X163642345Y-147142457D01*
X163671883Y-147213943D01*
X163705000Y-147247118D01*
X163705000Y-148325000D01*
X163762852Y-148615839D01*
X163927599Y-148862401D01*
X164732599Y-149667401D01*
X164872560Y-149760920D01*
X164872560Y-150130000D01*
X164916838Y-150365317D01*
X165055910Y-150581441D01*
X165268110Y-150726431D01*
X165520000Y-150777440D01*
X167220000Y-150777440D01*
X167455317Y-150733162D01*
X167671441Y-150594090D01*
X167816431Y-150381890D01*
X167867440Y-150130000D01*
X167867440Y-149890000D01*
X169317560Y-149890000D01*
X169317560Y-150130000D01*
X169361838Y-150365317D01*
X169500910Y-150581441D01*
X169713110Y-150726431D01*
X169965000Y-150777440D01*
X171665000Y-150777440D01*
X171900317Y-150733162D01*
X172116441Y-150594090D01*
X172261431Y-150381890D01*
X172312440Y-150130000D01*
X172312440Y-148130000D01*
X172268162Y-147894683D01*
X172129090Y-147678559D01*
X171916890Y-147533569D01*
X171665000Y-147482560D01*
X169965000Y-147482560D01*
X169729683Y-147526838D01*
X169513559Y-147665910D01*
X169368569Y-147878110D01*
X169317560Y-148130000D01*
X169317560Y-148370000D01*
X167867440Y-148370000D01*
X167867440Y-148130000D01*
X167823162Y-147894683D01*
X167684090Y-147678559D01*
X167471890Y-147533569D01*
X167220000Y-147482560D01*
X165520000Y-147482560D01*
X165284683Y-147526838D01*
X165225000Y-147565243D01*
X165225000Y-147247463D01*
X165257192Y-147215327D01*
X165399838Y-146871799D01*
X165400162Y-146499833D01*
X165265944Y-146175000D01*
X168445180Y-146175000D01*
X168736019Y-146117148D01*
X168982581Y-145952401D01*
X171129097Y-143805885D01*
X171293633Y-143874206D01*
X171943874Y-143874774D01*
X172544835Y-143626462D01*
X173005026Y-143167073D01*
X173254386Y-142566547D01*
X173254954Y-141916306D01*
X173006642Y-141315345D01*
X172547253Y-140855154D01*
X171946727Y-140605794D01*
X171296486Y-140605226D01*
X170695525Y-140853538D01*
X170235334Y-141312927D01*
X169985974Y-141913453D01*
X169985406Y-142563694D01*
X170054489Y-142730889D01*
X168130378Y-144655000D01*
X164295000Y-144655000D01*
X164004161Y-144712852D01*
X163757599Y-144877599D01*
X161387599Y-147247599D01*
X161294080Y-147387560D01*
X161075000Y-147387560D01*
X160839683Y-147431838D01*
X160623559Y-147570910D01*
X160478569Y-147783110D01*
X160427560Y-148035000D01*
X160427560Y-149932758D01*
X160197440Y-149702638D01*
X160197440Y-148130000D01*
X160153162Y-147894683D01*
X160014090Y-147678559D01*
X159801890Y-147533569D01*
X159550000Y-147482560D01*
X157950000Y-147482560D01*
X157714683Y-147526838D01*
X157498559Y-147665910D01*
X157353569Y-147878110D01*
X157302560Y-148130000D01*
X157022440Y-148130000D01*
X156978162Y-147894683D01*
X156839090Y-147678559D01*
X156626890Y-147533569D01*
X156375000Y-147482560D01*
X154972242Y-147482560D01*
X156279802Y-146175000D01*
X160825180Y-146175000D01*
X161116019Y-146117148D01*
X161362581Y-145952401D01*
X163509097Y-143805885D01*
X163673633Y-143874206D01*
X164323874Y-143874774D01*
X164924835Y-143626462D01*
X165385026Y-143167073D01*
X165634386Y-142566547D01*
X165634954Y-141916306D01*
X165386642Y-141315345D01*
X164927253Y-140855154D01*
X164326727Y-140605794D01*
X163676486Y-140605226D01*
X163075525Y-140853538D01*
X162615334Y-141312927D01*
X162365974Y-141913453D01*
X162365406Y-142563694D01*
X162434489Y-142730889D01*
X160510378Y-144655000D01*
X155965000Y-144655000D01*
X155674160Y-144712852D01*
X155427599Y-144877599D01*
X152822638Y-147482560D01*
X151550000Y-147482560D01*
X151314683Y-147526838D01*
X151098559Y-147665910D01*
X150953569Y-147878110D01*
X150902560Y-148130000D01*
X150902560Y-150130000D01*
X150946838Y-150365317D01*
X151085910Y-150581441D01*
X151298110Y-150726431D01*
X151550000Y-150777440D01*
X153250000Y-150777440D01*
X153485317Y-150733162D01*
X153701441Y-150594090D01*
X153846431Y-150381890D01*
X153897440Y-150130000D01*
X153897440Y-148557362D01*
X154127560Y-148327242D01*
X154127560Y-150130000D01*
X154135104Y-150170094D01*
X152822638Y-151482560D01*
X151550000Y-151482560D01*
X151314683Y-151526838D01*
X151098559Y-151665910D01*
X150953569Y-151878110D01*
X150902560Y-152130000D01*
X150902560Y-154130000D01*
X150946838Y-154365317D01*
X151085910Y-154581441D01*
X151298110Y-154726431D01*
X151550000Y-154777440D01*
X153250000Y-154777440D01*
X153485317Y-154733162D01*
X153701441Y-154594090D01*
X153846431Y-154381890D01*
X153897440Y-154130000D01*
X153897440Y-152557362D01*
X154127560Y-152327242D01*
X154127560Y-154130000D01*
X154171838Y-154365317D01*
X154310910Y-154581441D01*
X154523110Y-154726431D01*
X154775000Y-154777440D01*
X155450000Y-154777440D01*
X155450000Y-156418124D01*
X155225000Y-156372560D01*
X154855920Y-156372560D01*
X154762401Y-156232599D01*
X153567401Y-155037599D01*
X153320839Y-154872852D01*
X153030000Y-154815000D01*
X148609802Y-154815000D01*
X147497440Y-153702638D01*
X147497440Y-152130000D01*
X147453162Y-151894683D01*
X147314090Y-151678559D01*
X147101890Y-151533569D01*
X146850000Y-151482560D01*
X145447242Y-151482560D01*
X146152362Y-150777440D01*
X146850000Y-150777440D01*
X147085317Y-150733162D01*
X147301441Y-150594090D01*
X147446431Y-150381890D01*
X147497440Y-150130000D01*
X147497440Y-148130000D01*
X147453162Y-147894683D01*
X147314090Y-147678559D01*
X147101890Y-147533569D01*
X146850000Y-147482560D01*
X145250000Y-147482560D01*
X145014683Y-147526838D01*
X144798559Y-147665910D01*
X144653569Y-147878110D01*
X144602560Y-148130000D01*
X144602560Y-150130000D01*
X144610104Y-150170094D01*
X143297638Y-151482560D01*
X142025000Y-151482560D01*
X141789683Y-151526838D01*
X141573559Y-151665910D01*
X141428569Y-151878110D01*
X141377560Y-152130000D01*
X141377560Y-154130000D01*
X141410648Y-154305846D01*
X140631275Y-153526473D01*
X140699716Y-153361648D01*
X140700284Y-152711205D01*
X140451894Y-152110057D01*
X139992363Y-151649722D01*
X139391648Y-151400284D01*
X138741205Y-151399716D01*
X138140057Y-151648106D01*
X137679722Y-152107637D01*
X137430284Y-152708352D01*
X137429716Y-153358795D01*
X137678106Y-153959943D01*
X137897779Y-154180000D01*
X137285000Y-154180000D01*
X137285000Y-148130000D01*
X141377560Y-148130000D01*
X141377560Y-150130000D01*
X141421838Y-150365317D01*
X141560910Y-150581441D01*
X141773110Y-150726431D01*
X142025000Y-150777440D01*
X143725000Y-150777440D01*
X143960317Y-150733162D01*
X144176441Y-150594090D01*
X144321431Y-150381890D01*
X144372440Y-150130000D01*
X144372440Y-148130000D01*
X144328162Y-147894683D01*
X144189090Y-147678559D01*
X144166606Y-147663196D01*
X145654802Y-146175000D01*
X153205180Y-146175000D01*
X153496019Y-146117148D01*
X153742581Y-145952401D01*
X155889097Y-143805885D01*
X156053633Y-143874206D01*
X156703874Y-143874774D01*
X157304835Y-143626462D01*
X157765026Y-143167073D01*
X158014386Y-142566547D01*
X158014954Y-141916306D01*
X157766642Y-141315345D01*
X157307253Y-140855154D01*
X156706727Y-140605794D01*
X156056486Y-140605226D01*
X155455525Y-140853538D01*
X154995334Y-141312927D01*
X154745974Y-141913453D01*
X154745406Y-142563694D01*
X154814489Y-142730889D01*
X152890378Y-144655000D01*
X151430110Y-144655000D01*
X151430162Y-144594833D01*
X151389225Y-144495757D01*
X152079097Y-143805885D01*
X152243633Y-143874206D01*
X152893874Y-143874774D01*
X153494835Y-143626462D01*
X153955026Y-143167073D01*
X154204386Y-142566547D01*
X154204954Y-141916306D01*
X154135871Y-141749111D01*
X155424982Y-140460000D01*
X157335378Y-140460000D01*
X158624295Y-141748917D01*
X158555974Y-141913453D01*
X158555406Y-142563694D01*
X158803718Y-143164655D01*
X159263107Y-143624846D01*
X159863633Y-143874206D01*
X160513874Y-143874774D01*
X161114835Y-143626462D01*
X161575026Y-143167073D01*
X161824386Y-142566547D01*
X161824954Y-141916306D01*
X161576642Y-141315345D01*
X161117253Y-140855154D01*
X160516727Y-140605794D01*
X159866486Y-140605226D01*
X159699291Y-140674309D01*
X159484982Y-140460000D01*
X164955378Y-140460000D01*
X166244295Y-141748917D01*
X166175974Y-141913453D01*
X166175406Y-142563694D01*
X166423718Y-143164655D01*
X166883107Y-143624846D01*
X167483633Y-143874206D01*
X168133874Y-143874774D01*
X168734835Y-143626462D01*
X169195026Y-143167073D01*
X169444386Y-142566547D01*
X169444954Y-141916306D01*
X169196642Y-141315345D01*
X168737253Y-140855154D01*
X168136727Y-140605794D01*
X167486486Y-140605226D01*
X167319291Y-140674309D01*
X167104982Y-140460000D01*
X172575378Y-140460000D01*
X173864295Y-141748917D01*
X173795974Y-141913453D01*
X173795406Y-142563694D01*
X174043718Y-143164655D01*
X174503107Y-143624846D01*
X175103633Y-143874206D01*
X175753874Y-143874774D01*
X176354835Y-143626462D01*
X176815026Y-143167073D01*
X177064386Y-142566547D01*
X177064954Y-141916306D01*
X176816642Y-141315345D01*
X176357253Y-140855154D01*
X175756727Y-140605794D01*
X175106486Y-140605226D01*
X174939291Y-140674309D01*
X173427581Y-139162599D01*
X173181019Y-138997852D01*
X172890180Y-138940000D01*
X155110180Y-138940000D01*
X154867594Y-138988254D01*
X154819340Y-138997852D01*
X154572779Y-139162599D01*
X153061263Y-140674115D01*
X152896727Y-140605794D01*
X152246486Y-140605226D01*
X151645525Y-140853538D01*
X151185334Y-141312927D01*
X150935974Y-141913453D01*
X150935406Y-142563694D01*
X151004489Y-142730889D01*
X149957599Y-143777779D01*
X149792852Y-144024341D01*
X149759235Y-144193345D01*
X149702808Y-144249673D01*
X149560162Y-144593201D01*
X149560108Y-144655000D01*
X145340000Y-144655000D01*
X145097414Y-144703254D01*
X145049160Y-144712852D01*
X144802599Y-144877599D01*
X142337599Y-147342599D01*
X142244080Y-147482560D01*
X142025000Y-147482560D01*
X141789683Y-147526838D01*
X141573559Y-147665910D01*
X141428569Y-147878110D01*
X141377560Y-148130000D01*
X137285000Y-148130000D01*
X137285000Y-142563694D01*
X143315406Y-142563694D01*
X143563718Y-143164655D01*
X144023107Y-143624846D01*
X144623633Y-143874206D01*
X145273874Y-143874774D01*
X145874835Y-143626462D01*
X146335026Y-143167073D01*
X146584386Y-142566547D01*
X146584880Y-142000511D01*
X147125898Y-142000511D01*
X147125406Y-142563694D01*
X147373718Y-143164655D01*
X147833107Y-143624846D01*
X148433633Y-143874206D01*
X149083874Y-143874774D01*
X149684835Y-143626462D01*
X150145026Y-143167073D01*
X150394386Y-142566547D01*
X150394954Y-141916306D01*
X150146642Y-141315345D01*
X149687253Y-140855154D01*
X149086727Y-140605794D01*
X148436486Y-140605226D01*
X148260454Y-140677961D01*
X148051530Y-140538363D01*
X147760691Y-140480511D01*
X145949669Y-140480511D01*
X145658830Y-140538363D01*
X145450143Y-140677803D01*
X145276727Y-140605794D01*
X144626486Y-140605226D01*
X144025525Y-140853538D01*
X143565334Y-141312927D01*
X143315974Y-141913453D01*
X143315406Y-142563694D01*
X137285000Y-142563694D01*
X137285000Y-142167463D01*
X137317192Y-142135327D01*
X137459838Y-141791799D01*
X137460162Y-141419833D01*
X137318117Y-141076057D01*
X137055327Y-140812808D01*
X136711799Y-140670162D01*
X136339833Y-140669838D01*
X135996057Y-140811883D01*
X135732808Y-141074673D01*
X135590162Y-141418201D01*
X135589838Y-141790167D01*
X135731883Y-142133943D01*
X135765000Y-142167118D01*
X135765000Y-142310198D01*
X128063220Y-134608418D01*
X135315360Y-134608418D01*
X135315360Y-135713622D01*
X135481683Y-136549785D01*
X135955332Y-137258650D01*
X136664197Y-137732299D01*
X137500360Y-137898622D01*
X138336523Y-137732299D01*
X138708586Y-137483694D01*
X145220406Y-137483694D01*
X145468718Y-138084655D01*
X145928107Y-138544846D01*
X146528633Y-138794206D01*
X147178874Y-138794774D01*
X147779835Y-138546462D01*
X148240026Y-138087073D01*
X148489386Y-137486547D01*
X148489388Y-137483694D01*
X152840406Y-137483694D01*
X153088718Y-138084655D01*
X153548107Y-138544846D01*
X154148633Y-138794206D01*
X154798874Y-138794774D01*
X155399835Y-138546462D01*
X155860026Y-138087073D01*
X156109386Y-137486547D01*
X156109388Y-137483694D01*
X156650406Y-137483694D01*
X156898718Y-138084655D01*
X157358107Y-138544846D01*
X157958633Y-138794206D01*
X158608874Y-138794774D01*
X159209835Y-138546462D01*
X159670026Y-138087073D01*
X159919386Y-137486547D01*
X159919954Y-136836306D01*
X159850871Y-136669111D01*
X160969802Y-135550180D01*
X161711093Y-135550180D01*
X161170525Y-135773538D01*
X160710334Y-136232927D01*
X160460974Y-136833453D01*
X160460406Y-137483694D01*
X160708718Y-138084655D01*
X161168107Y-138544846D01*
X161768633Y-138794206D01*
X162418874Y-138794774D01*
X163019835Y-138546462D01*
X163480026Y-138087073D01*
X163729386Y-137486547D01*
X163729954Y-136836306D01*
X163481642Y-136235345D01*
X163022253Y-135775154D01*
X162480455Y-135550180D01*
X165521093Y-135550180D01*
X164980525Y-135773538D01*
X164520334Y-136232927D01*
X164270974Y-136833453D01*
X164270406Y-137483694D01*
X164518718Y-138084655D01*
X164978107Y-138544846D01*
X165578633Y-138794206D01*
X166228874Y-138794774D01*
X166829835Y-138546462D01*
X167290026Y-138087073D01*
X167539386Y-137486547D01*
X167539954Y-136836306D01*
X167291642Y-136235345D01*
X166832253Y-135775154D01*
X166290455Y-135550180D01*
X169331093Y-135550180D01*
X168790525Y-135773538D01*
X168330334Y-136232927D01*
X168080974Y-136833453D01*
X168080406Y-137483694D01*
X168328718Y-138084655D01*
X168788107Y-138544846D01*
X169388633Y-138794206D01*
X170038874Y-138794774D01*
X170639835Y-138546462D01*
X171100026Y-138087073D01*
X171349386Y-137486547D01*
X171349954Y-136836306D01*
X171101642Y-136235345D01*
X170642253Y-135775154D01*
X170100455Y-135550180D01*
X173141093Y-135550180D01*
X172600525Y-135773538D01*
X172140334Y-136232927D01*
X171890974Y-136833453D01*
X171890406Y-137483694D01*
X172138718Y-138084655D01*
X172598107Y-138544846D01*
X173198633Y-138794206D01*
X173848874Y-138794774D01*
X174016069Y-138725691D01*
X175527779Y-140237401D01*
X175774340Y-140402148D01*
X175822594Y-140411746D01*
X176065180Y-140460000D01*
X179390198Y-140460000D01*
X179535965Y-140605767D01*
X178916486Y-140605226D01*
X178315525Y-140853538D01*
X177855334Y-141312927D01*
X177605974Y-141913453D01*
X177605406Y-142563694D01*
X177674489Y-142730889D01*
X174087599Y-146317779D01*
X173922852Y-146564341D01*
X173865000Y-146855180D01*
X173865000Y-147387560D01*
X173775000Y-147387560D01*
X173539683Y-147431838D01*
X173323559Y-147570910D01*
X173178569Y-147783110D01*
X173127560Y-148035000D01*
X173127560Y-150035000D01*
X173171838Y-150270317D01*
X173310910Y-150486441D01*
X173523110Y-150631431D01*
X173775000Y-150682440D01*
X175475000Y-150682440D01*
X175710317Y-150638162D01*
X175926441Y-150499090D01*
X176071431Y-150286890D01*
X176122440Y-150035000D01*
X176122440Y-148035000D01*
X176078162Y-147799683D01*
X175939090Y-147583559D01*
X175726890Y-147438569D01*
X175475000Y-147387560D01*
X175385000Y-147387560D01*
X175385000Y-147169982D01*
X178749097Y-143805885D01*
X178913633Y-143874206D01*
X179563874Y-143874774D01*
X180164835Y-143626462D01*
X180215000Y-143576384D01*
X180215000Y-146645198D01*
X179177734Y-147682464D01*
X179114090Y-147583559D01*
X178901890Y-147438569D01*
X178650000Y-147387560D01*
X176950000Y-147387560D01*
X176714683Y-147431838D01*
X176498559Y-147570910D01*
X176353569Y-147783110D01*
X176302560Y-148035000D01*
X176302560Y-150035000D01*
X176346838Y-150270317D01*
X176485910Y-150486441D01*
X176698110Y-150631431D01*
X176950000Y-150682440D01*
X178650000Y-150682440D01*
X178885317Y-150638162D01*
X179101441Y-150499090D01*
X179246431Y-150286890D01*
X179297440Y-150035000D01*
X179297440Y-149665920D01*
X179437401Y-149572401D01*
X181512401Y-147497401D01*
X181677148Y-147250839D01*
X181735000Y-146960000D01*
X181735000Y-140970000D01*
X181689469Y-140741100D01*
X181677148Y-140679160D01*
X181512401Y-140432599D01*
X180242401Y-139162599D01*
X179995839Y-138997852D01*
X179705000Y-138940000D01*
X176379982Y-138940000D01*
X175091065Y-137651083D01*
X175159386Y-137486547D01*
X175159954Y-136836306D01*
X174911642Y-136235345D01*
X174452253Y-135775154D01*
X173910455Y-135550180D01*
X180761093Y-135550180D01*
X180220525Y-135773538D01*
X179760334Y-136232927D01*
X179510974Y-136833453D01*
X179510406Y-137483694D01*
X179758718Y-138084655D01*
X180218107Y-138544846D01*
X180818633Y-138794206D01*
X181468874Y-138794774D01*
X182069835Y-138546462D01*
X182530026Y-138087073D01*
X182779386Y-137486547D01*
X182779954Y-136836306D01*
X182531642Y-136235345D01*
X182072253Y-135775154D01*
X181530455Y-135550180D01*
X182100378Y-135550180D01*
X185119878Y-138569680D01*
X185119838Y-138615167D01*
X185261883Y-138958943D01*
X185524673Y-139222192D01*
X185868201Y-139364838D01*
X186240167Y-139365162D01*
X186583943Y-139223117D01*
X186847192Y-138960327D01*
X186989838Y-138616799D01*
X186990162Y-138244833D01*
X186848117Y-137901057D01*
X186585327Y-137637808D01*
X186241799Y-137495162D01*
X186194923Y-137495121D01*
X182952581Y-134252779D01*
X182706019Y-134088032D01*
X182415180Y-134030180D01*
X160655000Y-134030180D01*
X160364161Y-134088032D01*
X160117599Y-134252779D01*
X158776263Y-135594115D01*
X158611727Y-135525794D01*
X157961486Y-135525226D01*
X157360525Y-135773538D01*
X156900334Y-136232927D01*
X156650974Y-136833453D01*
X156650406Y-137483694D01*
X156109388Y-137483694D01*
X156109954Y-136836306D01*
X155861642Y-136235345D01*
X155402253Y-135775154D01*
X154801727Y-135525794D01*
X154151486Y-135525226D01*
X153550525Y-135773538D01*
X153090334Y-136232927D01*
X152840974Y-136833453D01*
X152840406Y-137483694D01*
X148489388Y-137483694D01*
X148489954Y-136836306D01*
X148241642Y-136235345D01*
X147782253Y-135775154D01*
X147181727Y-135525794D01*
X146531486Y-135525226D01*
X145930525Y-135773538D01*
X145470334Y-136232927D01*
X145220974Y-136833453D01*
X145220406Y-137483694D01*
X138708586Y-137483694D01*
X139045388Y-137258650D01*
X139519037Y-136549785D01*
X139685360Y-135713622D01*
X139685360Y-134608418D01*
X139519037Y-133772255D01*
X139045388Y-133063390D01*
X138336523Y-132589741D01*
X137500360Y-132423418D01*
X136664197Y-132589741D01*
X135955332Y-133063390D01*
X135481683Y-133772255D01*
X135315360Y-134608418D01*
X128063220Y-134608418D01*
X127935122Y-134480320D01*
X127935162Y-134434833D01*
X127793117Y-134091057D01*
X127530327Y-133827808D01*
X127186799Y-133685162D01*
X126814833Y-133684838D01*
X126471057Y-133826883D01*
X126207808Y-134089673D01*
X126065162Y-134433201D01*
X126064838Y-134805167D01*
X126206883Y-135148943D01*
X126469673Y-135412192D01*
X126813201Y-135554838D01*
X126860077Y-135554879D01*
X135180000Y-143874802D01*
X135180000Y-146557533D01*
X135150327Y-146527808D01*
X134806799Y-146385162D01*
X134434833Y-146384838D01*
X134091057Y-146526883D01*
X133827808Y-146789673D01*
X133685162Y-147133201D01*
X133684838Y-147505167D01*
X133826883Y-147848943D01*
X133860000Y-147882118D01*
X133860000Y-150665198D01*
X133056473Y-151468725D01*
X132891648Y-151400284D01*
X132241205Y-151399716D01*
X131640057Y-151648106D01*
X131179722Y-152107637D01*
X130930284Y-152708352D01*
X130929716Y-153358795D01*
X131178106Y-153959943D01*
X131637637Y-154420278D01*
X132238352Y-154669716D01*
X132888795Y-154670284D01*
X133489943Y-154421894D01*
X133950278Y-153962363D01*
X134199716Y-153361648D01*
X134200284Y-152711205D01*
X134131081Y-152543721D01*
X135157401Y-151517401D01*
X135180000Y-151483579D01*
X135180000Y-155575000D01*
X135237852Y-155865839D01*
X135402599Y-156112401D01*
X135793321Y-156503123D01*
X135676890Y-156423569D01*
X135425000Y-156372560D01*
X135055920Y-156372560D01*
X134962401Y-156232599D01*
X134715839Y-156067852D01*
X134425000Y-156010000D01*
X134134161Y-156067852D01*
X133887599Y-156232599D01*
X133817425Y-156337623D01*
X132517401Y-155037599D01*
X132270839Y-154872852D01*
X131980000Y-154815000D01*
X130919804Y-154815000D01*
X129665000Y-153560196D01*
X129665000Y-147320000D01*
X129607148Y-147029161D01*
X129442401Y-146782599D01*
X126928461Y-144268659D01*
X127157192Y-144040327D01*
X127299838Y-143696799D01*
X127300162Y-143324833D01*
X127158117Y-142981057D01*
X127125000Y-142947882D01*
X127125000Y-139065000D01*
X127067148Y-138774161D01*
X126902401Y-138527599D01*
X123442000Y-135067198D01*
X123442000Y-130737531D01*
X123472303Y-130725010D01*
X123865629Y-130332370D01*
X123879070Y-130300000D01*
X125730000Y-130300000D01*
X126020839Y-130242148D01*
X126267401Y-130077401D01*
X127949802Y-128395000D01*
X177485198Y-128395000D01*
X183849878Y-134759680D01*
X183849838Y-134805167D01*
X183991883Y-135148943D01*
X184254673Y-135412192D01*
X184598201Y-135554838D01*
X184970167Y-135555162D01*
X185313943Y-135413117D01*
X185577192Y-135150327D01*
X185719838Y-134806799D01*
X185720010Y-134608418D01*
X188315000Y-134608418D01*
X188315000Y-135713622D01*
X188481323Y-136549785D01*
X188954972Y-137258650D01*
X189663837Y-137732299D01*
X190500000Y-137898622D01*
X191336163Y-137732299D01*
X192045028Y-137258650D01*
X192518677Y-136549785D01*
X192594885Y-136166661D01*
X194182758Y-136166661D01*
X194394990Y-136680303D01*
X194787630Y-137073629D01*
X195300900Y-137286757D01*
X195856661Y-137287242D01*
X196370303Y-137075010D01*
X196763629Y-136682370D01*
X196976757Y-136169100D01*
X196976759Y-136166661D01*
X199262758Y-136166661D01*
X199474990Y-136680303D01*
X199867630Y-137073629D01*
X200380900Y-137286757D01*
X200936661Y-137287242D01*
X201450303Y-137075010D01*
X201843629Y-136682370D01*
X202056757Y-136169100D01*
X202057242Y-135613339D01*
X201845010Y-135099697D01*
X201452370Y-134706371D01*
X201420000Y-134692930D01*
X201420000Y-134244802D01*
X202562401Y-133102401D01*
X202669283Y-132942440D01*
X203025000Y-132942440D01*
X203260317Y-132898162D01*
X203476441Y-132759090D01*
X203621431Y-132546890D01*
X203672440Y-132295000D01*
X203672440Y-130595000D01*
X203628162Y-130359683D01*
X203489090Y-130143559D01*
X203276890Y-129998569D01*
X203025000Y-129947560D01*
X202785000Y-129947560D01*
X202785000Y-129767440D01*
X203025000Y-129767440D01*
X203260317Y-129723162D01*
X203476441Y-129584090D01*
X203621431Y-129371890D01*
X203672440Y-129120000D01*
X203672440Y-127420000D01*
X203628162Y-127184683D01*
X203489090Y-126968559D01*
X203276890Y-126823569D01*
X203025000Y-126772560D01*
X201025000Y-126772560D01*
X200789683Y-126816838D01*
X200573559Y-126955910D01*
X200428569Y-127168110D01*
X200377560Y-127420000D01*
X200377560Y-129120000D01*
X200421838Y-129355317D01*
X200560910Y-129571441D01*
X200773110Y-129716431D01*
X201025000Y-129767440D01*
X201265000Y-129767440D01*
X201265000Y-129947560D01*
X201025000Y-129947560D01*
X200789683Y-129991838D01*
X200573559Y-130130910D01*
X200428569Y-130343110D01*
X200377560Y-130595000D01*
X200377560Y-132295000D01*
X200421838Y-132530317D01*
X200560910Y-132746441D01*
X200684388Y-132830810D01*
X200122599Y-133392599D01*
X199957852Y-133639161D01*
X199900000Y-133930000D01*
X199900000Y-134692469D01*
X199869697Y-134704990D01*
X199476371Y-135097630D01*
X199263243Y-135610900D01*
X199262758Y-136166661D01*
X196976759Y-136166661D01*
X196977242Y-135613339D01*
X196765010Y-135099697D01*
X196372370Y-134706371D01*
X195859100Y-134493243D01*
X195303339Y-134492758D01*
X194789697Y-134704990D01*
X194396371Y-135097630D01*
X194183243Y-135610900D01*
X194182758Y-136166661D01*
X192594885Y-136166661D01*
X192685000Y-135713622D01*
X192685000Y-134608418D01*
X192518677Y-133772255D01*
X192045028Y-133063390D01*
X191336163Y-132589741D01*
X190500000Y-132423418D01*
X189663837Y-132589741D01*
X188954972Y-133063390D01*
X188481323Y-133772255D01*
X188315000Y-134608418D01*
X185720010Y-134608418D01*
X185720162Y-134434833D01*
X185578117Y-134091057D01*
X185315327Y-133827808D01*
X184971799Y-133685162D01*
X184924923Y-133685121D01*
X179694969Y-128455167D01*
X191469838Y-128455167D01*
X191611883Y-128798943D01*
X191874673Y-129062192D01*
X192218201Y-129204838D01*
X192590167Y-129205162D01*
X192933943Y-129063117D01*
X192967118Y-129030000D01*
X196377560Y-129030000D01*
X196377560Y-129120000D01*
X196421838Y-129355317D01*
X196560910Y-129571441D01*
X196773110Y-129716431D01*
X197025000Y-129767440D01*
X199025000Y-129767440D01*
X199260317Y-129723162D01*
X199476441Y-129584090D01*
X199621431Y-129371890D01*
X199672440Y-129120000D01*
X199672440Y-127420000D01*
X199628162Y-127184683D01*
X199489090Y-126968559D01*
X199276890Y-126823569D01*
X199025000Y-126772560D01*
X197025000Y-126772560D01*
X196789683Y-126816838D01*
X196573559Y-126955910D01*
X196428569Y-127168110D01*
X196377560Y-127420000D01*
X196377560Y-127510000D01*
X192967463Y-127510000D01*
X192935327Y-127477808D01*
X192591799Y-127335162D01*
X192219833Y-127334838D01*
X191876057Y-127476883D01*
X191612808Y-127739673D01*
X191470162Y-128083201D01*
X191469838Y-128455167D01*
X179694969Y-128455167D01*
X178337401Y-127097599D01*
X178090839Y-126932852D01*
X177800000Y-126875000D01*
X127635000Y-126875000D01*
X127344161Y-126932852D01*
X127097599Y-127097599D01*
X125415198Y-128780000D01*
X123879531Y-128780000D01*
X123867010Y-128749697D01*
X123474370Y-128356371D01*
X122961100Y-128143243D01*
X122405339Y-128142758D01*
X121891697Y-128354990D01*
X121498371Y-128747630D01*
X121285243Y-129260900D01*
X121285241Y-129263336D01*
X121073010Y-128749697D01*
X120680370Y-128356371D01*
X120167100Y-128143243D01*
X119611339Y-128142758D01*
X119097697Y-128354990D01*
X118704371Y-128747630D01*
X118554394Y-129108815D01*
X118406010Y-128749697D01*
X118013370Y-128356371D01*
X117500100Y-128143243D01*
X116944339Y-128142758D01*
X116430697Y-128354990D01*
X116037371Y-128747630D01*
X115824243Y-129260900D01*
X115824241Y-129263336D01*
X115612010Y-128749697D01*
X115219370Y-128356371D01*
X114706100Y-128143243D01*
X114150339Y-128142758D01*
X113636697Y-128354990D01*
X113243371Y-128747630D01*
X113030243Y-129260900D01*
X113030241Y-129263336D01*
X112818010Y-128749697D01*
X112425370Y-128356371D01*
X111912100Y-128143243D01*
X111356339Y-128142758D01*
X110842697Y-128354990D01*
X110449371Y-128747630D01*
X110299394Y-129108815D01*
X110151010Y-128749697D01*
X109758370Y-128356371D01*
X109245100Y-128143243D01*
X108689339Y-128142758D01*
X108175697Y-128354990D01*
X107782371Y-128747630D01*
X107569243Y-129260900D01*
X107569241Y-129263336D01*
X107357010Y-128749697D01*
X106964370Y-128356371D01*
X106451100Y-128143243D01*
X105895339Y-128142758D01*
X105381697Y-128354990D01*
X104988371Y-128747630D01*
X104775243Y-129260900D01*
X104774758Y-129816661D01*
X104986990Y-130330303D01*
X105379630Y-130723629D01*
X105892900Y-130936757D01*
X106448661Y-130937242D01*
X106962303Y-130725010D01*
X107355629Y-130332370D01*
X107568757Y-129819100D01*
X107568759Y-129816664D01*
X107780990Y-130330303D01*
X108173630Y-130723629D01*
X108686900Y-130936757D01*
X109242661Y-130937242D01*
X109756303Y-130725010D01*
X110149629Y-130332370D01*
X110299606Y-129971185D01*
X110447990Y-130330303D01*
X110840630Y-130723629D01*
X110873000Y-130737070D01*
X110873000Y-131033121D01*
X110642100Y-130937243D01*
X110086339Y-130936758D01*
X109572697Y-131148990D01*
X109179371Y-131541630D01*
X108966243Y-132054900D01*
X108966241Y-132057336D01*
X108754010Y-131543697D01*
X108361370Y-131150371D01*
X107848100Y-130937243D01*
X107292339Y-130936758D01*
X106778697Y-131148990D01*
X106385371Y-131541630D01*
X106172243Y-132054900D01*
X106172241Y-132057336D01*
X105960010Y-131543697D01*
X105567370Y-131150371D01*
X105054100Y-130937243D01*
X104498339Y-130936758D01*
X103984697Y-131148990D01*
X103591371Y-131541630D01*
X103378243Y-132054900D01*
X103377758Y-132610661D01*
X103589990Y-133124303D01*
X103982630Y-133517629D01*
X104495900Y-133730757D01*
X105051661Y-133731242D01*
X105565303Y-133519010D01*
X105958629Y-133126370D01*
X106171757Y-132613100D01*
X106171759Y-132610664D01*
X106383990Y-133124303D01*
X106776630Y-133517629D01*
X107289900Y-133730757D01*
X107845661Y-133731242D01*
X108359303Y-133519010D01*
X108752629Y-133126370D01*
X108965757Y-132613100D01*
X108965759Y-132610664D01*
X109177990Y-133124303D01*
X109570630Y-133517629D01*
X110083900Y-133730757D01*
X110639661Y-133731242D01*
X110873000Y-133634829D01*
X110873000Y-135871436D01*
X107214999Y-139529437D01*
X106964370Y-139278371D01*
X106451100Y-139065243D01*
X105895339Y-139064758D01*
X105381697Y-139276990D01*
X104988371Y-139669630D01*
X104775243Y-140182900D01*
X104774758Y-140738661D01*
X104986990Y-141252303D01*
X105379630Y-141645629D01*
X105892900Y-141858757D01*
X106282339Y-141859097D01*
X105944598Y-142196838D01*
X105843163Y-142348646D01*
X105567370Y-142072371D01*
X105054100Y-141859243D01*
X104498339Y-141858758D01*
X103984697Y-142070990D01*
X103591371Y-142463630D01*
X103378243Y-142976900D01*
X103377758Y-143532661D01*
X103589990Y-144046303D01*
X103982630Y-144439629D01*
X104495900Y-144652757D01*
X105051661Y-144653242D01*
X105565303Y-144441010D01*
X105721999Y-144284587D01*
X105721999Y-156372560D01*
X105705000Y-156372560D01*
X105469683Y-156416838D01*
X105253559Y-156555910D01*
X105108569Y-156768110D01*
X105057560Y-157020000D01*
X105057560Y-162433000D01*
X104392440Y-162433000D01*
X104392440Y-157020000D01*
X104348162Y-156784683D01*
X104209090Y-156568559D01*
X103996890Y-156423569D01*
X103745000Y-156372560D01*
X101745000Y-156372560D01*
X101509683Y-156416838D01*
X101293559Y-156555910D01*
X101148569Y-156768110D01*
X101097560Y-157020000D01*
X101097560Y-162433000D01*
X93472000Y-162433000D01*
X93472000Y-126492000D01*
X203708000Y-126492000D01*
X203708000Y-162433000D01*
X203708000Y-162433000D01*
G37*
X203708000Y-162433000D02*
X195472440Y-162433000D01*
X195472440Y-161323490D01*
X195797483Y-160837029D01*
X195960000Y-160020000D01*
X195797483Y-159202971D01*
X195472440Y-158716510D01*
X195472440Y-157020000D01*
X195428162Y-156784683D01*
X195289090Y-156568559D01*
X195195000Y-156504270D01*
X195195000Y-156360000D01*
X195090715Y-155835724D01*
X195058158Y-155786999D01*
X194793737Y-155391264D01*
X194008736Y-154606264D01*
X193564277Y-154309285D01*
X193040000Y-154205000D01*
X189446263Y-154205000D01*
X189554762Y-153943705D01*
X189555237Y-153398686D01*
X189347107Y-152894971D01*
X188962056Y-152509248D01*
X188458705Y-152300238D01*
X187913686Y-152299763D01*
X187409971Y-152507893D01*
X187335207Y-152582527D01*
X187262056Y-152509248D01*
X186758705Y-152300238D01*
X186213686Y-152299763D01*
X185709971Y-152507893D01*
X185324248Y-152892944D01*
X185115238Y-153396295D01*
X185114763Y-153941314D01*
X185115000Y-153941888D01*
X185115000Y-155370000D01*
X185219285Y-155894277D01*
X185516264Y-156338736D01*
X185550088Y-156372560D01*
X184905000Y-156372560D01*
X184669683Y-156416838D01*
X184453559Y-156555910D01*
X184308569Y-156768110D01*
X184257560Y-157020000D01*
X184257560Y-159085093D01*
X183964833Y-159084838D01*
X183621057Y-159226883D01*
X183592440Y-159255450D01*
X183592440Y-157020000D01*
X183548162Y-156784683D01*
X183409090Y-156568559D01*
X183315000Y-156504270D01*
X183315000Y-156442472D01*
X184053736Y-155703736D01*
X184350715Y-155259277D01*
X184382429Y-155099838D01*
X184455000Y-154735000D01*
X184455000Y-153670622D01*
X184455237Y-153398686D01*
X184455000Y-153398112D01*
X184455000Y-150595000D01*
X189119320Y-150595000D01*
X189643597Y-150490715D01*
X190088056Y-150193736D01*
X191643996Y-148637797D01*
X191940974Y-148193337D01*
X191966203Y-148066500D01*
X192425320Y-148066500D01*
X192660637Y-148022222D01*
X192876761Y-147883150D01*
X193021751Y-147670950D01*
X193072760Y-147419060D01*
X193072760Y-143918940D01*
X193028482Y-143683623D01*
X192889410Y-143467499D01*
X192677210Y-143322509D01*
X192425320Y-143271500D01*
X188925200Y-143271500D01*
X188689883Y-143315778D01*
X188473759Y-143454850D01*
X188328769Y-143667050D01*
X188277760Y-143918940D01*
X188277760Y-147419060D01*
X188322038Y-147654377D01*
X188451135Y-147855000D01*
X183515000Y-147855000D01*
X182990724Y-147959285D01*
X182546264Y-148256264D01*
X182116264Y-148686264D01*
X181819285Y-149130723D01*
X181743015Y-149514161D01*
X181715000Y-149655000D01*
X181715000Y-152323614D01*
X181658705Y-152300238D01*
X181113686Y-152299763D01*
X180609971Y-152507893D01*
X180224248Y-152892944D01*
X180015238Y-153396295D01*
X180014763Y-153941314D01*
X180222893Y-154445029D01*
X180607944Y-154830752D01*
X180925304Y-154962531D01*
X180679285Y-155330724D01*
X180575000Y-155855000D01*
X180575000Y-156503504D01*
X180493559Y-156555910D01*
X180348569Y-156768110D01*
X180297560Y-157020000D01*
X180297560Y-162433000D01*
X179632440Y-162433000D01*
X179632440Y-157020000D01*
X179588162Y-156784683D01*
X179449090Y-156568559D01*
X179236890Y-156423569D01*
X178985000Y-156372560D01*
X176985000Y-156372560D01*
X176749683Y-156416838D01*
X176533559Y-156555910D01*
X176388569Y-156768110D01*
X176337560Y-157020000D01*
X176337560Y-162433000D01*
X175672440Y-162433000D01*
X175672440Y-157020000D01*
X175628162Y-156784683D01*
X175489090Y-156568559D01*
X175276890Y-156423569D01*
X175025000Y-156372560D01*
X174267242Y-156372560D01*
X175162401Y-155477401D01*
X175327148Y-155230839D01*
X175385000Y-154940000D01*
X175385000Y-154682440D01*
X175475000Y-154682440D01*
X175710317Y-154638162D01*
X175926441Y-154499090D01*
X176071431Y-154286890D01*
X176122440Y-154035000D01*
X176122440Y-152035000D01*
X176302560Y-152035000D01*
X176302560Y-154035000D01*
X176346838Y-154270317D01*
X176485910Y-154486441D01*
X176698110Y-154631431D01*
X176950000Y-154682440D01*
X178650000Y-154682440D01*
X178885317Y-154638162D01*
X179101441Y-154499090D01*
X179246431Y-154286890D01*
X179297440Y-154035000D01*
X179297440Y-152462362D01*
X179829413Y-151930389D01*
X180153201Y-152064838D01*
X180525167Y-152065162D01*
X180868943Y-151923117D01*
X181132192Y-151660327D01*
X181274838Y-151316799D01*
X181275162Y-150944833D01*
X181133117Y-150601057D01*
X180870327Y-150337808D01*
X180526799Y-150195162D01*
X180154833Y-150194838D01*
X179811057Y-150336883D01*
X179777882Y-150370000D01*
X179555000Y-150370000D01*
X179264161Y-150427852D01*
X179017599Y-150592599D01*
X178222638Y-151387560D01*
X176950000Y-151387560D01*
X176714683Y-151431838D01*
X176498559Y-151570910D01*
X176353569Y-151783110D01*
X176302560Y-152035000D01*
X176122440Y-152035000D01*
X176078162Y-151799683D01*
X175939090Y-151583559D01*
X175726890Y-151438569D01*
X175475000Y-151387560D01*
X173775000Y-151387560D01*
X173539683Y-151431838D01*
X173323559Y-151570910D01*
X173178569Y-151783110D01*
X173127560Y-152035000D01*
X173127560Y-154035000D01*
X173171838Y-154270317D01*
X173310910Y-154486441D01*
X173523110Y-154631431D01*
X173775000Y-154682440D01*
X173807758Y-154682440D01*
X173215198Y-155275000D01*
X172822463Y-155275000D01*
X172790327Y-155242808D01*
X172446799Y-155100162D01*
X172074833Y-155099838D01*
X171731057Y-155241883D01*
X171467808Y-155504673D01*
X171325162Y-155848201D01*
X171324838Y-156220167D01*
X171445070Y-156511150D01*
X171316890Y-156423569D01*
X171065000Y-156372560D01*
X169065000Y-156372560D01*
X168829683Y-156416838D01*
X168613559Y-156555910D01*
X168468569Y-156768110D01*
X168417560Y-157020000D01*
X168417560Y-162433000D01*
X167752440Y-162433000D01*
X167752440Y-157020000D01*
X167708162Y-156784683D01*
X167569090Y-156568559D01*
X167356890Y-156423569D01*
X167105000Y-156372560D01*
X166865000Y-156372560D01*
X166865000Y-154777440D01*
X167220000Y-154777440D01*
X167455317Y-154733162D01*
X167671441Y-154594090D01*
X167816431Y-154381890D01*
X167867440Y-154130000D01*
X167867440Y-152130000D01*
X167823162Y-151894683D01*
X167684090Y-151678559D01*
X167471890Y-151533569D01*
X167220000Y-151482560D01*
X165520000Y-151482560D01*
X165284683Y-151526838D01*
X165068559Y-151665910D01*
X164923569Y-151878110D01*
X164872560Y-152130000D01*
X164872560Y-154130000D01*
X164916838Y-154365317D01*
X165055910Y-154581441D01*
X165268110Y-154726431D01*
X165345000Y-154742002D01*
X165345000Y-156372560D01*
X165105000Y-156372560D01*
X164869683Y-156416838D01*
X164653559Y-156555910D01*
X164508569Y-156768110D01*
X164457560Y-157020000D01*
X164457560Y-162433000D01*
X163792440Y-162433000D01*
X163792440Y-157020000D01*
X163748162Y-156784683D01*
X163609090Y-156568559D01*
X163396890Y-156423569D01*
X163145000Y-156372560D01*
X161145000Y-156372560D01*
X160909683Y-156416838D01*
X160693559Y-156555910D01*
X160548569Y-156768110D01*
X160497560Y-157020000D01*
X160497560Y-162433000D01*
X159832440Y-162433000D01*
X159832440Y-157020000D01*
X159788162Y-156784683D01*
X159649090Y-156568559D01*
X159436890Y-156423569D01*
X159185000Y-156372560D01*
X158945000Y-156372560D01*
X158945000Y-154777440D01*
X159550000Y-154777440D01*
X159785317Y-154733162D01*
X160001441Y-154594090D01*
X160146431Y-154381890D01*
X160197440Y-154130000D01*
X160197440Y-152130000D01*
X160153162Y-151894683D01*
X160014090Y-151678559D01*
X159801890Y-151533569D01*
X159550000Y-151482560D01*
X157950000Y-151482560D01*
X157714683Y-151526838D01*
X157498559Y-151665910D01*
X157353569Y-151878110D01*
X157302560Y-152130000D01*
X157302560Y-154130000D01*
X157346838Y-154365317D01*
X157425000Y-154486784D01*
X157425000Y-156372560D01*
X157185000Y-156372560D01*
X156970000Y-156413015D01*
X156970000Y-154383984D01*
X156971431Y-154381890D01*
X157022440Y-154130000D01*
X157022440Y-152130000D01*
X156978162Y-151894683D01*
X156839090Y-151678559D01*
X156626890Y-151533569D01*
X156375000Y-151482560D01*
X154972242Y-151482560D01*
X155677362Y-150777440D01*
X156375000Y-150777440D01*
X156610317Y-150733162D01*
X156826441Y-150594090D01*
X156971431Y-150381890D01*
X157022440Y-150130000D01*
X157022440Y-148130000D01*
X157302560Y-148130000D01*
X157302560Y-150130000D01*
X157346838Y-150365317D01*
X157485910Y-150581441D01*
X157698110Y-150726431D01*
X157950000Y-150777440D01*
X159122638Y-150777440D01*
X160427560Y-152082362D01*
X160427560Y-154035000D01*
X160471838Y-154270317D01*
X160610910Y-154486441D01*
X160823110Y-154631431D01*
X161075000Y-154682440D01*
X162775000Y-154682440D01*
X163010317Y-154638162D01*
X163226441Y-154499090D01*
X163371431Y-154286890D01*
X163422440Y-154035000D01*
X163422440Y-152035000D01*
X163378162Y-151799683D01*
X163239090Y-151583559D01*
X163026890Y-151438569D01*
X162775000Y-151387560D01*
X161882362Y-151387560D01*
X161177242Y-150682440D01*
X162775000Y-150682440D01*
X163010317Y-150638162D01*
X163226441Y-150499090D01*
X163371431Y-150286890D01*
X163422440Y-150035000D01*
X163422440Y-148035000D01*
X163378162Y-147799683D01*
X163239090Y-147583559D01*
X163216606Y-147568196D01*
X163642345Y-147142457D01*
X163671883Y-147213943D01*
X163705000Y-147247118D01*
X163705000Y-148325000D01*
X163762852Y-148615839D01*
X163927599Y-148862401D01*
X164732599Y-149667401D01*
X164872560Y-149760920D01*
X164872560Y-150130000D01*
X164916838Y-150365317D01*
X165055910Y-150581441D01*
X165268110Y-150726431D01*
X165520000Y-150777440D01*
X167220000Y-150777440D01*
X167455317Y-150733162D01*
X167671441Y-150594090D01*
X167816431Y-150381890D01*
X167867440Y-150130000D01*
X167867440Y-149890000D01*
X169317560Y-149890000D01*
X169317560Y-150130000D01*
X169361838Y-150365317D01*
X169500910Y-150581441D01*
X169713110Y-150726431D01*
X169965000Y-150777440D01*
X171665000Y-150777440D01*
X171900317Y-150733162D01*
X172116441Y-150594090D01*
X172261431Y-150381890D01*
X172312440Y-150130000D01*
X172312440Y-148130000D01*
X172268162Y-147894683D01*
X172129090Y-147678559D01*
X171916890Y-147533569D01*
X171665000Y-147482560D01*
X169965000Y-147482560D01*
X169729683Y-147526838D01*
X169513559Y-147665910D01*
X169368569Y-147878110D01*
X169317560Y-148130000D01*
X169317560Y-148370000D01*
X167867440Y-148370000D01*
X167867440Y-148130000D01*
X167823162Y-147894683D01*
X167684090Y-147678559D01*
X167471890Y-147533569D01*
X167220000Y-147482560D01*
X165520000Y-147482560D01*
X165284683Y-147526838D01*
X165225000Y-147565243D01*
X165225000Y-147247463D01*
X165257192Y-147215327D01*
X165399838Y-146871799D01*
X165400162Y-146499833D01*
X165265944Y-146175000D01*
X168445180Y-146175000D01*
X168736019Y-146117148D01*
X168982581Y-145952401D01*
X171129097Y-143805885D01*
X171293633Y-143874206D01*
X171943874Y-143874774D01*
X172544835Y-143626462D01*
X173005026Y-143167073D01*
X173254386Y-142566547D01*
X173254954Y-141916306D01*
X173006642Y-141315345D01*
X172547253Y-140855154D01*
X171946727Y-140605794D01*
X171296486Y-140605226D01*
X170695525Y-140853538D01*
X170235334Y-141312927D01*
X169985974Y-141913453D01*
X169985406Y-142563694D01*
X170054489Y-142730889D01*
X168130378Y-144655000D01*
X164295000Y-144655000D01*
X164004161Y-144712852D01*
X163757599Y-144877599D01*
X161387599Y-147247599D01*
X161294080Y-147387560D01*
X161075000Y-147387560D01*
X160839683Y-147431838D01*
X160623559Y-147570910D01*
X160478569Y-147783110D01*
X160427560Y-148035000D01*
X160427560Y-149932758D01*
X160197440Y-149702638D01*
X160197440Y-148130000D01*
X160153162Y-147894683D01*
X160014090Y-147678559D01*
X159801890Y-147533569D01*
X159550000Y-147482560D01*
X157950000Y-147482560D01*
X157714683Y-147526838D01*
X157498559Y-147665910D01*
X157353569Y-147878110D01*
X157302560Y-148130000D01*
X157022440Y-148130000D01*
X156978162Y-147894683D01*
X156839090Y-147678559D01*
X156626890Y-147533569D01*
X156375000Y-147482560D01*
X154972242Y-147482560D01*
X156279802Y-146175000D01*
X160825180Y-146175000D01*
X161116019Y-146117148D01*
X161362581Y-145952401D01*
X163509097Y-143805885D01*
X163673633Y-143874206D01*
X164323874Y-143874774D01*
X164924835Y-143626462D01*
X165385026Y-143167073D01*
X165634386Y-142566547D01*
X165634954Y-141916306D01*
X165386642Y-141315345D01*
X164927253Y-140855154D01*
X164326727Y-140605794D01*
X163676486Y-140605226D01*
X163075525Y-140853538D01*
X162615334Y-141312927D01*
X162365974Y-141913453D01*
X162365406Y-142563694D01*
X162434489Y-142730889D01*
X160510378Y-144655000D01*
X155965000Y-144655000D01*
X155674160Y-144712852D01*
X155427599Y-144877599D01*
X152822638Y-147482560D01*
X151550000Y-147482560D01*
X151314683Y-147526838D01*
X151098559Y-147665910D01*
X150953569Y-147878110D01*
X150902560Y-148130000D01*
X150902560Y-150130000D01*
X150946838Y-150365317D01*
X151085910Y-150581441D01*
X151298110Y-150726431D01*
X151550000Y-150777440D01*
X153250000Y-150777440D01*
X153485317Y-150733162D01*
X153701441Y-150594090D01*
X153846431Y-150381890D01*
X153897440Y-150130000D01*
X153897440Y-148557362D01*
X154127560Y-148327242D01*
X154127560Y-150130000D01*
X154135104Y-150170094D01*
X152822638Y-151482560D01*
X151550000Y-151482560D01*
X151314683Y-151526838D01*
X151098559Y-151665910D01*
X150953569Y-151878110D01*
X150902560Y-152130000D01*
X150902560Y-154130000D01*
X150946838Y-154365317D01*
X151085910Y-154581441D01*
X151298110Y-154726431D01*
X151550000Y-154777440D01*
X153250000Y-154777440D01*
X153485317Y-154733162D01*
X153701441Y-154594090D01*
X153846431Y-154381890D01*
X153897440Y-154130000D01*
X153897440Y-152557362D01*
X154127560Y-152327242D01*
X154127560Y-154130000D01*
X154171838Y-154365317D01*
X154310910Y-154581441D01*
X154523110Y-154726431D01*
X154775000Y-154777440D01*
X155450000Y-154777440D01*
X155450000Y-156418124D01*
X155225000Y-156372560D01*
X154855920Y-156372560D01*
X154762401Y-156232599D01*
X153567401Y-155037599D01*
X153320839Y-154872852D01*
X153030000Y-154815000D01*
X148609802Y-154815000D01*
X147497440Y-153702638D01*
X147497440Y-152130000D01*
X147453162Y-151894683D01*
X147314090Y-151678559D01*
X147101890Y-151533569D01*
X146850000Y-151482560D01*
X145447242Y-151482560D01*
X146152362Y-150777440D01*
X146850000Y-150777440D01*
X147085317Y-150733162D01*
X147301441Y-150594090D01*
X147446431Y-150381890D01*
X147497440Y-150130000D01*
X147497440Y-148130000D01*
X147453162Y-147894683D01*
X147314090Y-147678559D01*
X147101890Y-147533569D01*
X146850000Y-147482560D01*
X145250000Y-147482560D01*
X145014683Y-147526838D01*
X144798559Y-147665910D01*
X144653569Y-147878110D01*
X144602560Y-148130000D01*
X144602560Y-150130000D01*
X144610104Y-150170094D01*
X143297638Y-151482560D01*
X142025000Y-151482560D01*
X141789683Y-151526838D01*
X141573559Y-151665910D01*
X141428569Y-151878110D01*
X141377560Y-152130000D01*
X141377560Y-154130000D01*
X141410648Y-154305846D01*
X140631275Y-153526473D01*
X140699716Y-153361648D01*
X140700284Y-152711205D01*
X140451894Y-152110057D01*
X139992363Y-151649722D01*
X139391648Y-151400284D01*
X138741205Y-151399716D01*
X138140057Y-151648106D01*
X137679722Y-152107637D01*
X137430284Y-152708352D01*
X137429716Y-153358795D01*
X137678106Y-153959943D01*
X137897779Y-154180000D01*
X137285000Y-154180000D01*
X137285000Y-148130000D01*
X141377560Y-148130000D01*
X141377560Y-150130000D01*
X141421838Y-150365317D01*
X141560910Y-150581441D01*
X141773110Y-150726431D01*
X142025000Y-150777440D01*
X143725000Y-150777440D01*
X143960317Y-150733162D01*
X144176441Y-150594090D01*
X144321431Y-150381890D01*
X144372440Y-150130000D01*
X144372440Y-148130000D01*
X144328162Y-147894683D01*
X144189090Y-147678559D01*
X144166606Y-147663196D01*
X145654802Y-146175000D01*
X153205180Y-146175000D01*
X153496019Y-146117148D01*
X153742581Y-145952401D01*
X155889097Y-143805885D01*
X156053633Y-143874206D01*
X156703874Y-143874774D01*
X157304835Y-143626462D01*
X157765026Y-143167073D01*
X158014386Y-142566547D01*
X158014954Y-141916306D01*
X157766642Y-141315345D01*
X157307253Y-140855154D01*
X156706727Y-140605794D01*
X156056486Y-140605226D01*
X155455525Y-140853538D01*
X154995334Y-141312927D01*
X154745974Y-141913453D01*
X154745406Y-142563694D01*
X154814489Y-142730889D01*
X152890378Y-144655000D01*
X151430110Y-144655000D01*
X151430162Y-144594833D01*
X151389225Y-144495757D01*
X152079097Y-143805885D01*
X152243633Y-143874206D01*
X152893874Y-143874774D01*
X153494835Y-143626462D01*
X153955026Y-143167073D01*
X154204386Y-142566547D01*
X154204954Y-141916306D01*
X154135871Y-141749111D01*
X155424982Y-140460000D01*
X157335378Y-140460000D01*
X158624295Y-141748917D01*
X158555974Y-141913453D01*
X158555406Y-142563694D01*
X158803718Y-143164655D01*
X159263107Y-143624846D01*
X159863633Y-143874206D01*
X160513874Y-143874774D01*
X161114835Y-143626462D01*
X161575026Y-143167073D01*
X161824386Y-142566547D01*
X161824954Y-141916306D01*
X161576642Y-141315345D01*
X161117253Y-140855154D01*
X160516727Y-140605794D01*
X159866486Y-140605226D01*
X159699291Y-140674309D01*
X159484982Y-140460000D01*
X164955378Y-140460000D01*
X166244295Y-141748917D01*
X166175974Y-141913453D01*
X166175406Y-142563694D01*
X166423718Y-143164655D01*
X166883107Y-143624846D01*
X167483633Y-143874206D01*
X168133874Y-143874774D01*
X168734835Y-143626462D01*
X169195026Y-143167073D01*
X169444386Y-142566547D01*
X169444954Y-141916306D01*
X169196642Y-141315345D01*
X168737253Y-140855154D01*
X168136727Y-140605794D01*
X167486486Y-140605226D01*
X167319291Y-140674309D01*
X167104982Y-140460000D01*
X172575378Y-140460000D01*
X173864295Y-141748917D01*
X173795974Y-141913453D01*
X173795406Y-142563694D01*
X174043718Y-143164655D01*
X174503107Y-143624846D01*
X175103633Y-143874206D01*
X175753874Y-143874774D01*
X176354835Y-143626462D01*
X176815026Y-143167073D01*
X177064386Y-142566547D01*
X177064954Y-141916306D01*
X176816642Y-141315345D01*
X176357253Y-140855154D01*
X175756727Y-140605794D01*
X175106486Y-140605226D01*
X174939291Y-140674309D01*
X173427581Y-139162599D01*
X173181019Y-138997852D01*
X172890180Y-138940000D01*
X155110180Y-138940000D01*
X154867594Y-138988254D01*
X154819340Y-138997852D01*
X154572779Y-139162599D01*
X153061263Y-140674115D01*
X152896727Y-140605794D01*
X152246486Y-140605226D01*
X151645525Y-140853538D01*
X151185334Y-141312927D01*
X150935974Y-141913453D01*
X150935406Y-142563694D01*
X151004489Y-142730889D01*
X149957599Y-143777779D01*
X149792852Y-144024341D01*
X149759235Y-144193345D01*
X149702808Y-144249673D01*
X149560162Y-144593201D01*
X149560108Y-144655000D01*
X145340000Y-144655000D01*
X145097414Y-144703254D01*
X145049160Y-144712852D01*
X144802599Y-144877599D01*
X142337599Y-147342599D01*
X142244080Y-147482560D01*
X142025000Y-147482560D01*
X141789683Y-147526838D01*
X141573559Y-147665910D01*
X141428569Y-147878110D01*
X141377560Y-148130000D01*
X137285000Y-148130000D01*
X137285000Y-142563694D01*
X143315406Y-142563694D01*
X143563718Y-143164655D01*
X144023107Y-143624846D01*
X144623633Y-143874206D01*
X145273874Y-143874774D01*
X145874835Y-143626462D01*
X146335026Y-143167073D01*
X146584386Y-142566547D01*
X146584880Y-142000511D01*
X147125898Y-142000511D01*
X147125406Y-142563694D01*
X147373718Y-143164655D01*
X147833107Y-143624846D01*
X148433633Y-143874206D01*
X149083874Y-143874774D01*
X149684835Y-143626462D01*
X150145026Y-143167073D01*
X150394386Y-142566547D01*
X150394954Y-141916306D01*
X150146642Y-141315345D01*
X149687253Y-140855154D01*
X149086727Y-140605794D01*
X148436486Y-140605226D01*
X148260454Y-140677961D01*
X148051530Y-140538363D01*
X147760691Y-140480511D01*
X145949669Y-140480511D01*
X145658830Y-140538363D01*
X145450143Y-140677803D01*
X145276727Y-140605794D01*
X144626486Y-140605226D01*
X144025525Y-140853538D01*
X143565334Y-141312927D01*
X143315974Y-141913453D01*
X143315406Y-142563694D01*
X137285000Y-142563694D01*
X137285000Y-142167463D01*
X137317192Y-142135327D01*
X137459838Y-141791799D01*
X137460162Y-141419833D01*
X137318117Y-141076057D01*
X137055327Y-140812808D01*
X136711799Y-140670162D01*
X136339833Y-140669838D01*
X135996057Y-140811883D01*
X135732808Y-141074673D01*
X135590162Y-141418201D01*
X135589838Y-141790167D01*
X135731883Y-142133943D01*
X135765000Y-142167118D01*
X135765000Y-142310198D01*
X128063220Y-134608418D01*
X135315360Y-134608418D01*
X135315360Y-135713622D01*
X135481683Y-136549785D01*
X135955332Y-137258650D01*
X136664197Y-137732299D01*
X137500360Y-137898622D01*
X138336523Y-137732299D01*
X138708586Y-137483694D01*
X145220406Y-137483694D01*
X145468718Y-138084655D01*
X145928107Y-138544846D01*
X146528633Y-138794206D01*
X147178874Y-138794774D01*
X147779835Y-138546462D01*
X148240026Y-138087073D01*
X148489386Y-137486547D01*
X148489388Y-137483694D01*
X152840406Y-137483694D01*
X153088718Y-138084655D01*
X153548107Y-138544846D01*
X154148633Y-138794206D01*
X154798874Y-138794774D01*
X155399835Y-138546462D01*
X155860026Y-138087073D01*
X156109386Y-137486547D01*
X156109388Y-137483694D01*
X156650406Y-137483694D01*
X156898718Y-138084655D01*
X157358107Y-138544846D01*
X157958633Y-138794206D01*
X158608874Y-138794774D01*
X159209835Y-138546462D01*
X159670026Y-138087073D01*
X159919386Y-137486547D01*
X159919954Y-136836306D01*
X159850871Y-136669111D01*
X160969802Y-135550180D01*
X161711093Y-135550180D01*
X161170525Y-135773538D01*
X160710334Y-136232927D01*
X160460974Y-136833453D01*
X160460406Y-137483694D01*
X160708718Y-138084655D01*
X161168107Y-138544846D01*
X161768633Y-138794206D01*
X162418874Y-138794774D01*
X163019835Y-138546462D01*
X163480026Y-138087073D01*
X163729386Y-137486547D01*
X163729954Y-136836306D01*
X163481642Y-136235345D01*
X163022253Y-135775154D01*
X162480455Y-135550180D01*
X165521093Y-135550180D01*
X164980525Y-135773538D01*
X164520334Y-136232927D01*
X164270974Y-136833453D01*
X164270406Y-137483694D01*
X164518718Y-138084655D01*
X164978107Y-138544846D01*
X165578633Y-138794206D01*
X166228874Y-138794774D01*
X166829835Y-138546462D01*
X167290026Y-138087073D01*
X167539386Y-137486547D01*
X167539954Y-136836306D01*
X167291642Y-136235345D01*
X166832253Y-135775154D01*
X166290455Y-135550180D01*
X169331093Y-135550180D01*
X168790525Y-135773538D01*
X168330334Y-136232927D01*
X168080974Y-136833453D01*
X168080406Y-137483694D01*
X168328718Y-138084655D01*
X168788107Y-138544846D01*
X169388633Y-138794206D01*
X170038874Y-138794774D01*
X170639835Y-138546462D01*
X171100026Y-138087073D01*
X171349386Y-137486547D01*
X171349954Y-136836306D01*
X171101642Y-136235345D01*
X170642253Y-135775154D01*
X170100455Y-135550180D01*
X173141093Y-135550180D01*
X172600525Y-135773538D01*
X172140334Y-136232927D01*
X171890974Y-136833453D01*
X171890406Y-137483694D01*
X172138718Y-138084655D01*
X172598107Y-138544846D01*
X173198633Y-138794206D01*
X173848874Y-138794774D01*
X174016069Y-138725691D01*
X175527779Y-140237401D01*
X175774340Y-140402148D01*
X175822594Y-140411746D01*
X176065180Y-140460000D01*
X179390198Y-140460000D01*
X179535965Y-140605767D01*
X178916486Y-140605226D01*
X178315525Y-140853538D01*
X177855334Y-141312927D01*
X177605974Y-141913453D01*
X177605406Y-142563694D01*
X177674489Y-142730889D01*
X174087599Y-146317779D01*
X173922852Y-146564341D01*
X173865000Y-146855180D01*
X173865000Y-147387560D01*
X173775000Y-147387560D01*
X173539683Y-147431838D01*
X173323559Y-147570910D01*
X173178569Y-147783110D01*
X173127560Y-148035000D01*
X173127560Y-150035000D01*
X173171838Y-150270317D01*
X173310910Y-150486441D01*
X173523110Y-150631431D01*
X173775000Y-150682440D01*
X175475000Y-150682440D01*
X175710317Y-150638162D01*
X175926441Y-150499090D01*
X176071431Y-150286890D01*
X176122440Y-150035000D01*
X176122440Y-148035000D01*
X176078162Y-147799683D01*
X175939090Y-147583559D01*
X175726890Y-147438569D01*
X175475000Y-147387560D01*
X175385000Y-147387560D01*
X175385000Y-147169982D01*
X178749097Y-143805885D01*
X178913633Y-143874206D01*
X179563874Y-143874774D01*
X180164835Y-143626462D01*
X180215000Y-143576384D01*
X180215000Y-146645198D01*
X179177734Y-147682464D01*
X179114090Y-147583559D01*
X178901890Y-147438569D01*
X178650000Y-147387560D01*
X176950000Y-147387560D01*
X176714683Y-147431838D01*
X176498559Y-147570910D01*
X176353569Y-147783110D01*
X176302560Y-148035000D01*
X176302560Y-150035000D01*
X176346838Y-150270317D01*
X176485910Y-150486441D01*
X176698110Y-150631431D01*
X176950000Y-150682440D01*
X178650000Y-150682440D01*
X178885317Y-150638162D01*
X179101441Y-150499090D01*
X179246431Y-150286890D01*
X179297440Y-150035000D01*
X179297440Y-149665920D01*
X179437401Y-149572401D01*
X181512401Y-147497401D01*
X181677148Y-147250839D01*
X181735000Y-146960000D01*
X181735000Y-140970000D01*
X181689469Y-140741100D01*
X181677148Y-140679160D01*
X181512401Y-140432599D01*
X180242401Y-139162599D01*
X179995839Y-138997852D01*
X179705000Y-138940000D01*
X176379982Y-138940000D01*
X175091065Y-137651083D01*
X175159386Y-137486547D01*
X175159954Y-136836306D01*
X174911642Y-136235345D01*
X174452253Y-135775154D01*
X173910455Y-135550180D01*
X180761093Y-135550180D01*
X180220525Y-135773538D01*
X179760334Y-136232927D01*
X179510974Y-136833453D01*
X179510406Y-137483694D01*
X179758718Y-138084655D01*
X180218107Y-138544846D01*
X180818633Y-138794206D01*
X181468874Y-138794774D01*
X182069835Y-138546462D01*
X182530026Y-138087073D01*
X182779386Y-137486547D01*
X182779954Y-136836306D01*
X182531642Y-136235345D01*
X182072253Y-135775154D01*
X181530455Y-135550180D01*
X182100378Y-135550180D01*
X185119878Y-138569680D01*
X185119838Y-138615167D01*
X185261883Y-138958943D01*
X185524673Y-139222192D01*
X185868201Y-139364838D01*
X186240167Y-139365162D01*
X186583943Y-139223117D01*
X186847192Y-138960327D01*
X186989838Y-138616799D01*
X186990162Y-138244833D01*
X186848117Y-137901057D01*
X186585327Y-137637808D01*
X186241799Y-137495162D01*
X186194923Y-137495121D01*
X182952581Y-134252779D01*
X182706019Y-134088032D01*
X182415180Y-134030180D01*
X160655000Y-134030180D01*
X160364161Y-134088032D01*
X160117599Y-134252779D01*
X158776263Y-135594115D01*
X158611727Y-135525794D01*
X157961486Y-135525226D01*
X157360525Y-135773538D01*
X156900334Y-136232927D01*
X156650974Y-136833453D01*
X156650406Y-137483694D01*
X156109388Y-137483694D01*
X156109954Y-136836306D01*
X155861642Y-136235345D01*
X155402253Y-135775154D01*
X154801727Y-135525794D01*
X154151486Y-135525226D01*
X153550525Y-135773538D01*
X153090334Y-136232927D01*
X152840974Y-136833453D01*
X152840406Y-137483694D01*
X148489388Y-137483694D01*
X148489954Y-136836306D01*
X148241642Y-136235345D01*
X147782253Y-135775154D01*
X147181727Y-135525794D01*
X146531486Y-135525226D01*
X145930525Y-135773538D01*
X145470334Y-136232927D01*
X145220974Y-136833453D01*
X145220406Y-137483694D01*
X138708586Y-137483694D01*
X139045388Y-137258650D01*
X139519037Y-136549785D01*
X139685360Y-135713622D01*
X139685360Y-134608418D01*
X139519037Y-133772255D01*
X139045388Y-133063390D01*
X138336523Y-132589741D01*
X137500360Y-132423418D01*
X136664197Y-132589741D01*
X135955332Y-133063390D01*
X135481683Y-133772255D01*
X135315360Y-134608418D01*
X128063220Y-134608418D01*
X127935122Y-134480320D01*
X127935162Y-134434833D01*
X127793117Y-134091057D01*
X127530327Y-133827808D01*
X127186799Y-133685162D01*
X126814833Y-133684838D01*
X126471057Y-133826883D01*
X126207808Y-134089673D01*
X126065162Y-134433201D01*
X126064838Y-134805167D01*
X126206883Y-135148943D01*
X126469673Y-135412192D01*
X126813201Y-135554838D01*
X126860077Y-135554879D01*
X135180000Y-143874802D01*
X135180000Y-146557533D01*
X135150327Y-146527808D01*
X134806799Y-146385162D01*
X134434833Y-146384838D01*
X134091057Y-146526883D01*
X133827808Y-146789673D01*
X133685162Y-147133201D01*
X133684838Y-147505167D01*
X133826883Y-147848943D01*
X133860000Y-147882118D01*
X133860000Y-150665198D01*
X133056473Y-151468725D01*
X132891648Y-151400284D01*
X132241205Y-151399716D01*
X131640057Y-151648106D01*
X131179722Y-152107637D01*
X130930284Y-152708352D01*
X130929716Y-153358795D01*
X131178106Y-153959943D01*
X131637637Y-154420278D01*
X132238352Y-154669716D01*
X132888795Y-154670284D01*
X133489943Y-154421894D01*
X133950278Y-153962363D01*
X134199716Y-153361648D01*
X134200284Y-152711205D01*
X134131081Y-152543721D01*
X135157401Y-151517401D01*
X135180000Y-151483579D01*
X135180000Y-155575000D01*
X135237852Y-155865839D01*
X135402599Y-156112401D01*
X135793321Y-156503123D01*
X135676890Y-156423569D01*
X135425000Y-156372560D01*
X135055920Y-156372560D01*
X134962401Y-156232599D01*
X134715839Y-156067852D01*
X134425000Y-156010000D01*
X134134161Y-156067852D01*
X133887599Y-156232599D01*
X133817425Y-156337623D01*
X132517401Y-155037599D01*
X132270839Y-154872852D01*
X131980000Y-154815000D01*
X130919804Y-154815000D01*
X129665000Y-153560196D01*
X129665000Y-147320000D01*
X129607148Y-147029161D01*
X129442401Y-146782599D01*
X126928461Y-144268659D01*
X127157192Y-144040327D01*
X127299838Y-143696799D01*
X127300162Y-143324833D01*
X127158117Y-142981057D01*
X127125000Y-142947882D01*
X127125000Y-139065000D01*
X127067148Y-138774161D01*
X126902401Y-138527599D01*
X123442000Y-135067198D01*
X123442000Y-130737531D01*
X123472303Y-130725010D01*
X123865629Y-130332370D01*
X123879070Y-130300000D01*
X125730000Y-130300000D01*
X126020839Y-130242148D01*
X126267401Y-130077401D01*
X127949802Y-128395000D01*
X177485198Y-128395000D01*
X183849878Y-134759680D01*
X183849838Y-134805167D01*
X183991883Y-135148943D01*
X184254673Y-135412192D01*
X184598201Y-135554838D01*
X184970167Y-135555162D01*
X185313943Y-135413117D01*
X185577192Y-135150327D01*
X185719838Y-134806799D01*
X185720010Y-134608418D01*
X188315000Y-134608418D01*
X188315000Y-135713622D01*
X188481323Y-136549785D01*
X188954972Y-137258650D01*
X189663837Y-137732299D01*
X190500000Y-137898622D01*
X191336163Y-137732299D01*
X192045028Y-137258650D01*
X192518677Y-136549785D01*
X192594885Y-136166661D01*
X194182758Y-136166661D01*
X194394990Y-136680303D01*
X194787630Y-137073629D01*
X195300900Y-137286757D01*
X195856661Y-137287242D01*
X196370303Y-137075010D01*
X196763629Y-136682370D01*
X196976757Y-136169100D01*
X196976759Y-136166661D01*
X199262758Y-136166661D01*
X199474990Y-136680303D01*
X199867630Y-137073629D01*
X200380900Y-137286757D01*
X200936661Y-137287242D01*
X201450303Y-137075010D01*
X201843629Y-136682370D01*
X202056757Y-136169100D01*
X202057242Y-135613339D01*
X201845010Y-135099697D01*
X201452370Y-134706371D01*
X201420000Y-134692930D01*
X201420000Y-134244802D01*
X202562401Y-133102401D01*
X202669283Y-132942440D01*
X203025000Y-132942440D01*
X203260317Y-132898162D01*
X203476441Y-132759090D01*
X203621431Y-132546890D01*
X203672440Y-132295000D01*
X203672440Y-130595000D01*
X203628162Y-130359683D01*
X203489090Y-130143559D01*
X203276890Y-129998569D01*
X203025000Y-129947560D01*
X202785000Y-129947560D01*
X202785000Y-129767440D01*
X203025000Y-129767440D01*
X203260317Y-129723162D01*
X203476441Y-129584090D01*
X203621431Y-129371890D01*
X203672440Y-129120000D01*
X203672440Y-127420000D01*
X203628162Y-127184683D01*
X203489090Y-126968559D01*
X203276890Y-126823569D01*
X203025000Y-126772560D01*
X201025000Y-126772560D01*
X200789683Y-126816838D01*
X200573559Y-126955910D01*
X200428569Y-127168110D01*
X200377560Y-127420000D01*
X200377560Y-129120000D01*
X200421838Y-129355317D01*
X200560910Y-129571441D01*
X200773110Y-129716431D01*
X201025000Y-129767440D01*
X201265000Y-129767440D01*
X201265000Y-129947560D01*
X201025000Y-129947560D01*
X200789683Y-129991838D01*
X200573559Y-130130910D01*
X200428569Y-130343110D01*
X200377560Y-130595000D01*
X200377560Y-132295000D01*
X200421838Y-132530317D01*
X200560910Y-132746441D01*
X200684388Y-132830810D01*
X200122599Y-133392599D01*
X199957852Y-133639161D01*
X199900000Y-133930000D01*
X199900000Y-134692469D01*
X199869697Y-134704990D01*
X199476371Y-135097630D01*
X199263243Y-135610900D01*
X199262758Y-136166661D01*
X196976759Y-136166661D01*
X196977242Y-135613339D01*
X196765010Y-135099697D01*
X196372370Y-134706371D01*
X195859100Y-134493243D01*
X195303339Y-134492758D01*
X194789697Y-134704990D01*
X194396371Y-135097630D01*
X194183243Y-135610900D01*
X194182758Y-136166661D01*
X192594885Y-136166661D01*
X192685000Y-135713622D01*
X192685000Y-134608418D01*
X192518677Y-133772255D01*
X192045028Y-133063390D01*
X191336163Y-132589741D01*
X190500000Y-132423418D01*
X189663837Y-132589741D01*
X188954972Y-133063390D01*
X188481323Y-133772255D01*
X188315000Y-134608418D01*
X185720010Y-134608418D01*
X185720162Y-134434833D01*
X185578117Y-134091057D01*
X185315327Y-133827808D01*
X184971799Y-133685162D01*
X184924923Y-133685121D01*
X179694969Y-128455167D01*
X191469838Y-128455167D01*
X191611883Y-128798943D01*
X191874673Y-129062192D01*
X192218201Y-129204838D01*
X192590167Y-129205162D01*
X192933943Y-129063117D01*
X192967118Y-129030000D01*
X196377560Y-129030000D01*
X196377560Y-129120000D01*
X196421838Y-129355317D01*
X196560910Y-129571441D01*
X196773110Y-129716431D01*
X197025000Y-129767440D01*
X199025000Y-129767440D01*
X199260317Y-129723162D01*
X199476441Y-129584090D01*
X199621431Y-129371890D01*
X199672440Y-129120000D01*
X199672440Y-127420000D01*
X199628162Y-127184683D01*
X199489090Y-126968559D01*
X199276890Y-126823569D01*
X199025000Y-126772560D01*
X197025000Y-126772560D01*
X196789683Y-126816838D01*
X196573559Y-126955910D01*
X196428569Y-127168110D01*
X196377560Y-127420000D01*
X196377560Y-127510000D01*
X192967463Y-127510000D01*
X192935327Y-127477808D01*
X192591799Y-127335162D01*
X192219833Y-127334838D01*
X191876057Y-127476883D01*
X191612808Y-127739673D01*
X191470162Y-128083201D01*
X191469838Y-128455167D01*
X179694969Y-128455167D01*
X178337401Y-127097599D01*
X178090839Y-126932852D01*
X177800000Y-126875000D01*
X127635000Y-126875000D01*
X127344161Y-126932852D01*
X127097599Y-127097599D01*
X125415198Y-128780000D01*
X123879531Y-128780000D01*
X123867010Y-128749697D01*
X123474370Y-128356371D01*
X122961100Y-128143243D01*
X122405339Y-128142758D01*
X121891697Y-128354990D01*
X121498371Y-128747630D01*
X121285243Y-129260900D01*
X121285241Y-129263336D01*
X121073010Y-128749697D01*
X120680370Y-128356371D01*
X120167100Y-128143243D01*
X119611339Y-128142758D01*
X119097697Y-128354990D01*
X118704371Y-128747630D01*
X118554394Y-129108815D01*
X118406010Y-128749697D01*
X118013370Y-128356371D01*
X117500100Y-128143243D01*
X116944339Y-128142758D01*
X116430697Y-128354990D01*
X116037371Y-128747630D01*
X115824243Y-129260900D01*
X115824241Y-129263336D01*
X115612010Y-128749697D01*
X115219370Y-128356371D01*
X114706100Y-128143243D01*
X114150339Y-128142758D01*
X113636697Y-128354990D01*
X113243371Y-128747630D01*
X113030243Y-129260900D01*
X113030241Y-129263336D01*
X112818010Y-128749697D01*
X112425370Y-128356371D01*
X111912100Y-128143243D01*
X111356339Y-128142758D01*
X110842697Y-128354990D01*
X110449371Y-128747630D01*
X110299394Y-129108815D01*
X110151010Y-128749697D01*
X109758370Y-128356371D01*
X109245100Y-128143243D01*
X108689339Y-128142758D01*
X108175697Y-128354990D01*
X107782371Y-128747630D01*
X107569243Y-129260900D01*
X107569241Y-129263336D01*
X107357010Y-128749697D01*
X106964370Y-128356371D01*
X106451100Y-128143243D01*
X105895339Y-128142758D01*
X105381697Y-128354990D01*
X104988371Y-128747630D01*
X104775243Y-129260900D01*
X104774758Y-129816661D01*
X104986990Y-130330303D01*
X105379630Y-130723629D01*
X105892900Y-130936757D01*
X106448661Y-130937242D01*
X106962303Y-130725010D01*
X107355629Y-130332370D01*
X107568757Y-129819100D01*
X107568759Y-129816664D01*
X107780990Y-130330303D01*
X108173630Y-130723629D01*
X108686900Y-130936757D01*
X109242661Y-130937242D01*
X109756303Y-130725010D01*
X110149629Y-130332370D01*
X110299606Y-129971185D01*
X110447990Y-130330303D01*
X110840630Y-130723629D01*
X110873000Y-130737070D01*
X110873000Y-131033121D01*
X110642100Y-130937243D01*
X110086339Y-130936758D01*
X109572697Y-131148990D01*
X109179371Y-131541630D01*
X108966243Y-132054900D01*
X108966241Y-132057336D01*
X108754010Y-131543697D01*
X108361370Y-131150371D01*
X107848100Y-130937243D01*
X107292339Y-130936758D01*
X106778697Y-131148990D01*
X106385371Y-131541630D01*
X106172243Y-132054900D01*
X106172241Y-132057336D01*
X105960010Y-131543697D01*
X105567370Y-131150371D01*
X105054100Y-130937243D01*
X104498339Y-130936758D01*
X103984697Y-131148990D01*
X103591371Y-131541630D01*
X103378243Y-132054900D01*
X103377758Y-132610661D01*
X103589990Y-133124303D01*
X103982630Y-133517629D01*
X104495900Y-133730757D01*
X105051661Y-133731242D01*
X105565303Y-133519010D01*
X105958629Y-133126370D01*
X106171757Y-132613100D01*
X106171759Y-132610664D01*
X106383990Y-133124303D01*
X106776630Y-133517629D01*
X107289900Y-133730757D01*
X107845661Y-133731242D01*
X108359303Y-133519010D01*
X108752629Y-133126370D01*
X108965757Y-132613100D01*
X108965759Y-132610664D01*
X109177990Y-133124303D01*
X109570630Y-133517629D01*
X110083900Y-133730757D01*
X110639661Y-133731242D01*
X110873000Y-133634829D01*
X110873000Y-135871436D01*
X107214999Y-139529437D01*
X106964370Y-139278371D01*
X106451100Y-139065243D01*
X105895339Y-139064758D01*
X105381697Y-139276990D01*
X104988371Y-139669630D01*
X104775243Y-140182900D01*
X104774758Y-140738661D01*
X104986990Y-141252303D01*
X105379630Y-141645629D01*
X105892900Y-141858757D01*
X106282339Y-141859097D01*
X105944598Y-142196838D01*
X105843163Y-142348646D01*
X105567370Y-142072371D01*
X105054100Y-141859243D01*
X104498339Y-141858758D01*
X103984697Y-142070990D01*
X103591371Y-142463630D01*
X103378243Y-142976900D01*
X103377758Y-143532661D01*
X103589990Y-144046303D01*
X103982630Y-144439629D01*
X104495900Y-144652757D01*
X105051661Y-144653242D01*
X105565303Y-144441010D01*
X105721999Y-144284587D01*
X105721999Y-156372560D01*
X105705000Y-156372560D01*
X105469683Y-156416838D01*
X105253559Y-156555910D01*
X105108569Y-156768110D01*
X105057560Y-157020000D01*
X105057560Y-162433000D01*
X104392440Y-162433000D01*
X104392440Y-157020000D01*
X104348162Y-156784683D01*
X104209090Y-156568559D01*
X103996890Y-156423569D01*
X103745000Y-156372560D01*
X101745000Y-156372560D01*
X101509683Y-156416838D01*
X101293559Y-156555910D01*
X101148569Y-156768110D01*
X101097560Y-157020000D01*
X101097560Y-162433000D01*
X93472000Y-162433000D01*
X93472000Y-126492000D01*
X203708000Y-126492000D01*
X203708000Y-162433000D01*
M02*
