G04 #@! TF.FileFunction,Legend,Top*
%FSLAX46Y46*%
G04 Gerber Fmt 4.6, Leading zero omitted, Abs format (unit mm)*
G04 Created by KiCad (PCBNEW 4.0.6) date Sunday, 07 January 2018 'AMt' 11:42:42*
%MOMM*%
%LPD*%
G01*
G04 APERTURE LIST*
%ADD10C,0.100000*%
%ADD11C,0.150000*%
%ADD12C,0.250000*%
%ADD13C,0.200000*%
%ADD14C,0.375000*%
%ADD15C,0.300000*%
%ADD16C,0.381000*%
%ADD17C,0.120000*%
%ADD18C,0.500000*%
%ADD19C,0.304800*%
G04 APERTURE END LIST*
D10*
D11*
X172011905Y-155904762D02*
X172154762Y-155952381D01*
X172392858Y-155952381D01*
X172488096Y-155904762D01*
X172535715Y-155857143D01*
X172583334Y-155761905D01*
X172583334Y-155666667D01*
X172535715Y-155571429D01*
X172488096Y-155523810D01*
X172392858Y-155476190D01*
X172202381Y-155428571D01*
X172107143Y-155380952D01*
X172059524Y-155333333D01*
X172011905Y-155238095D01*
X172011905Y-155142857D01*
X172059524Y-155047619D01*
X172107143Y-155000000D01*
X172202381Y-154952381D01*
X172440477Y-154952381D01*
X172583334Y-155000000D01*
X173202381Y-155476190D02*
X173202381Y-155952381D01*
X172869048Y-154952381D02*
X173202381Y-155476190D01*
X173535715Y-154952381D01*
X173869048Y-155952381D02*
X173869048Y-154952381D01*
X174440477Y-155952381D01*
X174440477Y-154952381D01*
X175488096Y-155857143D02*
X175440477Y-155904762D01*
X175297620Y-155952381D01*
X175202382Y-155952381D01*
X175059524Y-155904762D01*
X174964286Y-155809524D01*
X174916667Y-155714286D01*
X174869048Y-155523810D01*
X174869048Y-155380952D01*
X174916667Y-155190476D01*
X174964286Y-155095238D01*
X175059524Y-155000000D01*
X175202382Y-154952381D01*
X175297620Y-154952381D01*
X175440477Y-155000000D01*
X175488096Y-155047619D01*
D12*
X176607143Y-155952381D02*
X176607143Y-154952381D01*
X177178572Y-155952381D02*
X176750000Y-155380952D01*
X177178572Y-154952381D02*
X176607143Y-155523810D01*
X177607143Y-155428571D02*
X177940477Y-155428571D01*
X178083334Y-155952381D02*
X177607143Y-155952381D01*
X177607143Y-154952381D01*
X178083334Y-154952381D01*
X178702381Y-155476190D02*
X178702381Y-155952381D01*
X178369048Y-154952381D02*
X178702381Y-155476190D01*
X179035715Y-154952381D01*
D11*
X165976191Y-155666667D02*
X166452382Y-155666667D01*
X165880953Y-155952381D02*
X166214286Y-154952381D01*
X166547620Y-155952381D01*
X166880953Y-154952381D02*
X166880953Y-155761905D01*
X166928572Y-155857143D01*
X166976191Y-155904762D01*
X167071429Y-155952381D01*
X167261906Y-155952381D01*
X167357144Y-155904762D01*
X167404763Y-155857143D01*
X167452382Y-155761905D01*
X167452382Y-154952381D01*
X167928572Y-155952381D02*
X167928572Y-154952381D01*
X168166667Y-154952381D01*
X168309525Y-155000000D01*
X168404763Y-155095238D01*
X168452382Y-155190476D01*
X168500001Y-155380952D01*
X168500001Y-155523810D01*
X168452382Y-155714286D01*
X168404763Y-155809524D01*
X168309525Y-155904762D01*
X168166667Y-155952381D01*
X167928572Y-155952381D01*
X168928572Y-155952381D02*
X168928572Y-154952381D01*
X169595238Y-154952381D02*
X169785715Y-154952381D01*
X169880953Y-155000000D01*
X169976191Y-155095238D01*
X170023810Y-155285714D01*
X170023810Y-155619048D01*
X169976191Y-155809524D01*
X169880953Y-155904762D01*
X169785715Y-155952381D01*
X169595238Y-155952381D01*
X169500000Y-155904762D01*
X169404762Y-155809524D01*
X169357143Y-155619048D01*
X169357143Y-155285714D01*
X169404762Y-155095238D01*
X169500000Y-155000000D01*
X169595238Y-154952381D01*
X159607143Y-155952381D02*
X159273809Y-155476190D01*
X159035714Y-155952381D02*
X159035714Y-154952381D01*
X159416667Y-154952381D01*
X159511905Y-155000000D01*
X159559524Y-155047619D01*
X159607143Y-155142857D01*
X159607143Y-155285714D01*
X159559524Y-155380952D01*
X159511905Y-155428571D01*
X159416667Y-155476190D01*
X159035714Y-155476190D01*
X160035714Y-155428571D02*
X160369048Y-155428571D01*
X160511905Y-155952381D02*
X160035714Y-155952381D01*
X160035714Y-154952381D01*
X160511905Y-154952381D01*
X160940476Y-155952381D02*
X160940476Y-154952381D01*
X161178571Y-154952381D01*
X161321429Y-155000000D01*
X161416667Y-155095238D01*
X161464286Y-155190476D01*
X161511905Y-155380952D01*
X161511905Y-155523810D01*
X161464286Y-155714286D01*
X161416667Y-155809524D01*
X161321429Y-155904762D01*
X161178571Y-155952381D01*
X160940476Y-155952381D01*
X152333334Y-155000000D02*
X152238096Y-154952381D01*
X152095239Y-154952381D01*
X151952381Y-155000000D01*
X151857143Y-155095238D01*
X151809524Y-155190476D01*
X151761905Y-155380952D01*
X151761905Y-155523810D01*
X151809524Y-155714286D01*
X151857143Y-155809524D01*
X151952381Y-155904762D01*
X152095239Y-155952381D01*
X152190477Y-155952381D01*
X152333334Y-155904762D01*
X152380953Y-155857143D01*
X152380953Y-155523810D01*
X152190477Y-155523810D01*
X153380953Y-155952381D02*
X153047619Y-155476190D01*
X152809524Y-155952381D02*
X152809524Y-154952381D01*
X153190477Y-154952381D01*
X153285715Y-155000000D01*
X153333334Y-155047619D01*
X153380953Y-155142857D01*
X153380953Y-155285714D01*
X153333334Y-155380952D01*
X153285715Y-155428571D01*
X153190477Y-155476190D01*
X152809524Y-155476190D01*
X153809524Y-155428571D02*
X154142858Y-155428571D01*
X154285715Y-155952381D02*
X153809524Y-155952381D01*
X153809524Y-154952381D01*
X154285715Y-154952381D01*
X154714286Y-155428571D02*
X155047620Y-155428571D01*
X155190477Y-155952381D02*
X154714286Y-155952381D01*
X154714286Y-154952381D01*
X155190477Y-154952381D01*
X155619048Y-155952381D02*
X155619048Y-154952381D01*
X156190477Y-155952381D01*
X156190477Y-154952381D01*
X146190477Y-155428571D02*
X146333334Y-155476190D01*
X146380953Y-155523810D01*
X146428572Y-155619048D01*
X146428572Y-155761905D01*
X146380953Y-155857143D01*
X146333334Y-155904762D01*
X146238096Y-155952381D01*
X145857143Y-155952381D01*
X145857143Y-154952381D01*
X146190477Y-154952381D01*
X146285715Y-155000000D01*
X146333334Y-155047619D01*
X146380953Y-155142857D01*
X146380953Y-155238095D01*
X146333334Y-155333333D01*
X146285715Y-155380952D01*
X146190477Y-155428571D01*
X145857143Y-155428571D01*
X147333334Y-155952381D02*
X146857143Y-155952381D01*
X146857143Y-154952381D01*
X147666667Y-154952381D02*
X147666667Y-155761905D01*
X147714286Y-155857143D01*
X147761905Y-155904762D01*
X147857143Y-155952381D01*
X148047620Y-155952381D01*
X148142858Y-155904762D01*
X148190477Y-155857143D01*
X148238096Y-155761905D01*
X148238096Y-154952381D01*
X148714286Y-155428571D02*
X149047620Y-155428571D01*
X149190477Y-155952381D02*
X148714286Y-155952381D01*
X148714286Y-154952381D01*
X149190477Y-154952381D01*
D12*
X190809524Y-127202381D02*
X190476190Y-126726190D01*
X190238095Y-127202381D02*
X190238095Y-126202381D01*
X190619048Y-126202381D01*
X190714286Y-126250000D01*
X190761905Y-126297619D01*
X190809524Y-126392857D01*
X190809524Y-126535714D01*
X190761905Y-126630952D01*
X190714286Y-126678571D01*
X190619048Y-126726190D01*
X190238095Y-126726190D01*
X191238095Y-126678571D02*
X191571429Y-126678571D01*
X191714286Y-127202381D02*
X191238095Y-127202381D01*
X191238095Y-126202381D01*
X191714286Y-126202381D01*
X192095238Y-127154762D02*
X192238095Y-127202381D01*
X192476191Y-127202381D01*
X192571429Y-127154762D01*
X192619048Y-127107143D01*
X192666667Y-127011905D01*
X192666667Y-126916667D01*
X192619048Y-126821429D01*
X192571429Y-126773810D01*
X192476191Y-126726190D01*
X192285714Y-126678571D01*
X192190476Y-126630952D01*
X192142857Y-126583333D01*
X192095238Y-126488095D01*
X192095238Y-126392857D01*
X192142857Y-126297619D01*
X192190476Y-126250000D01*
X192285714Y-126202381D01*
X192523810Y-126202381D01*
X192666667Y-126250000D01*
X193095238Y-126678571D02*
X193428572Y-126678571D01*
X193571429Y-127202381D02*
X193095238Y-127202381D01*
X193095238Y-126202381D01*
X193571429Y-126202381D01*
X193857143Y-126202381D02*
X194428572Y-126202381D01*
X194142857Y-127202381D02*
X194142857Y-126202381D01*
X111238095Y-153053571D02*
X111571429Y-153053571D01*
X111714286Y-153577381D02*
X111238095Y-153577381D01*
X111238095Y-152577381D01*
X111714286Y-152577381D01*
X112095238Y-153529762D02*
X112238095Y-153577381D01*
X112476191Y-153577381D01*
X112571429Y-153529762D01*
X112619048Y-153482143D01*
X112666667Y-153386905D01*
X112666667Y-153291667D01*
X112619048Y-153196429D01*
X112571429Y-153148810D01*
X112476191Y-153101190D01*
X112285714Y-153053571D01*
X112190476Y-153005952D01*
X112142857Y-152958333D01*
X112095238Y-152863095D01*
X112095238Y-152767857D01*
X112142857Y-152672619D01*
X112190476Y-152625000D01*
X112285714Y-152577381D01*
X112523810Y-152577381D01*
X112666667Y-152625000D01*
X113095238Y-153577381D02*
X113095238Y-152577381D01*
X113476191Y-152577381D01*
X113571429Y-152625000D01*
X113619048Y-152672619D01*
X113666667Y-152767857D01*
X113666667Y-152910714D01*
X113619048Y-153005952D01*
X113571429Y-153053571D01*
X113476191Y-153101190D01*
X113095238Y-153101190D01*
X114000000Y-152577381D02*
X114619048Y-152577381D01*
X114285714Y-152958333D01*
X114428572Y-152958333D01*
X114523810Y-153005952D01*
X114571429Y-153053571D01*
X114619048Y-153148810D01*
X114619048Y-153386905D01*
X114571429Y-153482143D01*
X114523810Y-153529762D01*
X114428572Y-153577381D01*
X114142857Y-153577381D01*
X114047619Y-153529762D01*
X114000000Y-153482143D01*
X115000000Y-152672619D02*
X115047619Y-152625000D01*
X115142857Y-152577381D01*
X115380953Y-152577381D01*
X115476191Y-152625000D01*
X115523810Y-152672619D01*
X115571429Y-152767857D01*
X115571429Y-152863095D01*
X115523810Y-153005952D01*
X114952381Y-153577381D01*
X115571429Y-153577381D01*
X111809524Y-155327381D02*
X111476190Y-154851190D01*
X111238095Y-155327381D02*
X111238095Y-154327381D01*
X111619048Y-154327381D01*
X111714286Y-154375000D01*
X111761905Y-154422619D01*
X111809524Y-154517857D01*
X111809524Y-154660714D01*
X111761905Y-154755952D01*
X111714286Y-154803571D01*
X111619048Y-154851190D01*
X111238095Y-154851190D01*
X112238095Y-154803571D02*
X112571429Y-154803571D01*
X112714286Y-155327381D02*
X112238095Y-155327381D01*
X112238095Y-154327381D01*
X112714286Y-154327381D01*
X113095238Y-155279762D02*
X113238095Y-155327381D01*
X113476191Y-155327381D01*
X113571429Y-155279762D01*
X113619048Y-155232143D01*
X113666667Y-155136905D01*
X113666667Y-155041667D01*
X113619048Y-154946429D01*
X113571429Y-154898810D01*
X113476191Y-154851190D01*
X113285714Y-154803571D01*
X113190476Y-154755952D01*
X113142857Y-154708333D01*
X113095238Y-154613095D01*
X113095238Y-154517857D01*
X113142857Y-154422619D01*
X113190476Y-154375000D01*
X113285714Y-154327381D01*
X113523810Y-154327381D01*
X113666667Y-154375000D01*
X114095238Y-154803571D02*
X114428572Y-154803571D01*
X114571429Y-155327381D02*
X114095238Y-155327381D01*
X114095238Y-154327381D01*
X114571429Y-154327381D01*
X114857143Y-154327381D02*
X115428572Y-154327381D01*
X115142857Y-155327381D02*
X115142857Y-154327381D01*
X119738095Y-127053571D02*
X120071429Y-127053571D01*
X120214286Y-127577381D02*
X119738095Y-127577381D01*
X119738095Y-126577381D01*
X120214286Y-126577381D01*
X120595238Y-127529762D02*
X120738095Y-127577381D01*
X120976191Y-127577381D01*
X121071429Y-127529762D01*
X121119048Y-127482143D01*
X121166667Y-127386905D01*
X121166667Y-127291667D01*
X121119048Y-127196429D01*
X121071429Y-127148810D01*
X120976191Y-127101190D01*
X120785714Y-127053571D01*
X120690476Y-127005952D01*
X120642857Y-126958333D01*
X120595238Y-126863095D01*
X120595238Y-126767857D01*
X120642857Y-126672619D01*
X120690476Y-126625000D01*
X120785714Y-126577381D01*
X121023810Y-126577381D01*
X121166667Y-126625000D01*
X121595238Y-127577381D02*
X121595238Y-126577381D01*
X121976191Y-126577381D01*
X122071429Y-126625000D01*
X122119048Y-126672619D01*
X122166667Y-126767857D01*
X122166667Y-126910714D01*
X122119048Y-127005952D01*
X122071429Y-127053571D01*
X121976191Y-127101190D01*
X121595238Y-127101190D01*
X122500000Y-126577381D02*
X123119048Y-126577381D01*
X122785714Y-126958333D01*
X122928572Y-126958333D01*
X123023810Y-127005952D01*
X123071429Y-127053571D01*
X123119048Y-127148810D01*
X123119048Y-127386905D01*
X123071429Y-127482143D01*
X123023810Y-127529762D01*
X122928572Y-127577381D01*
X122642857Y-127577381D01*
X122547619Y-127529762D01*
X122500000Y-127482143D01*
X123500000Y-126672619D02*
X123547619Y-126625000D01*
X123642857Y-126577381D01*
X123880953Y-126577381D01*
X123976191Y-126625000D01*
X124023810Y-126672619D01*
X124071429Y-126767857D01*
X124071429Y-126863095D01*
X124023810Y-127005952D01*
X123452381Y-127577381D01*
X124071429Y-127577381D01*
X119738095Y-129327381D02*
X119738095Y-128327381D01*
X120119048Y-128327381D01*
X120214286Y-128375000D01*
X120261905Y-128422619D01*
X120309524Y-128517857D01*
X120309524Y-128660714D01*
X120261905Y-128755952D01*
X120214286Y-128803571D01*
X120119048Y-128851190D01*
X119738095Y-128851190D01*
X121309524Y-129327381D02*
X120976190Y-128851190D01*
X120738095Y-129327381D02*
X120738095Y-128327381D01*
X121119048Y-128327381D01*
X121214286Y-128375000D01*
X121261905Y-128422619D01*
X121309524Y-128517857D01*
X121309524Y-128660714D01*
X121261905Y-128755952D01*
X121214286Y-128803571D01*
X121119048Y-128851190D01*
X120738095Y-128851190D01*
X121928571Y-128327381D02*
X122119048Y-128327381D01*
X122214286Y-128375000D01*
X122309524Y-128470238D01*
X122357143Y-128660714D01*
X122357143Y-128994048D01*
X122309524Y-129184524D01*
X122214286Y-129279762D01*
X122119048Y-129327381D01*
X121928571Y-129327381D01*
X121833333Y-129279762D01*
X121738095Y-129184524D01*
X121690476Y-128994048D01*
X121690476Y-128660714D01*
X121738095Y-128470238D01*
X121833333Y-128375000D01*
X121928571Y-128327381D01*
X123309524Y-128375000D02*
X123214286Y-128327381D01*
X123071429Y-128327381D01*
X122928571Y-128375000D01*
X122833333Y-128470238D01*
X122785714Y-128565476D01*
X122738095Y-128755952D01*
X122738095Y-128898810D01*
X122785714Y-129089286D01*
X122833333Y-129184524D01*
X122928571Y-129279762D01*
X123071429Y-129327381D01*
X123166667Y-129327381D01*
X123309524Y-129279762D01*
X123357143Y-129232143D01*
X123357143Y-128898810D01*
X123166667Y-128898810D01*
X124357143Y-129327381D02*
X124023809Y-128851190D01*
X123785714Y-129327381D02*
X123785714Y-128327381D01*
X124166667Y-128327381D01*
X124261905Y-128375000D01*
X124309524Y-128422619D01*
X124357143Y-128517857D01*
X124357143Y-128660714D01*
X124309524Y-128755952D01*
X124261905Y-128803571D01*
X124166667Y-128851190D01*
X123785714Y-128851190D01*
X124738095Y-129041667D02*
X125214286Y-129041667D01*
X124642857Y-129327381D02*
X124976190Y-128327381D01*
X125309524Y-129327381D01*
X125642857Y-129327381D02*
X125642857Y-128327381D01*
X125976191Y-129041667D01*
X126309524Y-128327381D01*
X126309524Y-129327381D01*
X197064667Y-139152381D02*
X196588476Y-139152381D01*
X196540857Y-139628571D01*
X196588476Y-139580952D01*
X196683714Y-139533333D01*
X196921810Y-139533333D01*
X197017048Y-139580952D01*
X197064667Y-139628571D01*
X197112286Y-139723810D01*
X197112286Y-139961905D01*
X197064667Y-140057143D01*
X197017048Y-140104762D01*
X196921810Y-140152381D01*
X196683714Y-140152381D01*
X196588476Y-140104762D01*
X196540857Y-140057143D01*
X197398000Y-139152381D02*
X197731333Y-140152381D01*
X198064667Y-139152381D01*
X199112286Y-139866667D02*
X199588477Y-139866667D01*
X199017048Y-140152381D02*
X199350381Y-139152381D01*
X199683715Y-140152381D01*
X200445620Y-140152381D02*
X200445620Y-139152381D01*
X200445620Y-140104762D02*
X200350382Y-140152381D01*
X200159905Y-140152381D01*
X200064667Y-140104762D01*
X200017048Y-140057143D01*
X199969429Y-139961905D01*
X199969429Y-139676190D01*
X200017048Y-139580952D01*
X200064667Y-139533333D01*
X200159905Y-139485714D01*
X200350382Y-139485714D01*
X200445620Y-139533333D01*
X200921810Y-139485714D02*
X200921810Y-140342857D01*
X200874191Y-140438095D01*
X200778953Y-140485714D01*
X200731334Y-140485714D01*
X200921810Y-139152381D02*
X200874191Y-139200000D01*
X200921810Y-139247619D01*
X200969429Y-139200000D01*
X200921810Y-139152381D01*
X200921810Y-139247619D01*
X201826572Y-139485714D02*
X201826572Y-140152381D01*
X201398000Y-139485714D02*
X201398000Y-140009524D01*
X201445619Y-140104762D01*
X201540857Y-140152381D01*
X201683715Y-140152381D01*
X201778953Y-140104762D01*
X201826572Y-140057143D01*
X202255143Y-140104762D02*
X202350381Y-140152381D01*
X202540857Y-140152381D01*
X202636096Y-140104762D01*
X202683715Y-140009524D01*
X202683715Y-139961905D01*
X202636096Y-139866667D01*
X202540857Y-139819048D01*
X202398000Y-139819048D01*
X202302762Y-139771429D01*
X202255143Y-139676190D01*
X202255143Y-139628571D01*
X202302762Y-139533333D01*
X202398000Y-139485714D01*
X202540857Y-139485714D01*
X202636096Y-139533333D01*
X202969429Y-139485714D02*
X203350381Y-139485714D01*
X203112286Y-139152381D02*
X203112286Y-140009524D01*
X203159905Y-140104762D01*
X203255143Y-140152381D01*
X203350381Y-140152381D01*
X182634191Y-147818143D02*
X182586572Y-147865762D01*
X182443715Y-147913381D01*
X182348477Y-147913381D01*
X182205619Y-147865762D01*
X182110381Y-147770524D01*
X182062762Y-147675286D01*
X182015143Y-147484810D01*
X182015143Y-147341952D01*
X182062762Y-147151476D01*
X182110381Y-147056238D01*
X182205619Y-146961000D01*
X182348477Y-146913381D01*
X182443715Y-146913381D01*
X182586572Y-146961000D01*
X182634191Y-147008619D01*
X183491334Y-147913381D02*
X183491334Y-147389571D01*
X183443715Y-147294333D01*
X183348477Y-147246714D01*
X183158000Y-147246714D01*
X183062762Y-147294333D01*
X183491334Y-147865762D02*
X183396096Y-147913381D01*
X183158000Y-147913381D01*
X183062762Y-147865762D01*
X183015143Y-147770524D01*
X183015143Y-147675286D01*
X183062762Y-147580048D01*
X183158000Y-147532429D01*
X183396096Y-147532429D01*
X183491334Y-147484810D01*
X184396096Y-147246714D02*
X184396096Y-147913381D01*
X183967524Y-147246714D02*
X183967524Y-147770524D01*
X184015143Y-147865762D01*
X184110381Y-147913381D01*
X184253239Y-147913381D01*
X184348477Y-147865762D01*
X184396096Y-147818143D01*
X184729429Y-147246714D02*
X185110381Y-147246714D01*
X184872286Y-146913381D02*
X184872286Y-147770524D01*
X184919905Y-147865762D01*
X185015143Y-147913381D01*
X185110381Y-147913381D01*
X185443715Y-147913381D02*
X185443715Y-147246714D01*
X185443715Y-146913381D02*
X185396096Y-146961000D01*
X185443715Y-147008619D01*
X185491334Y-146961000D01*
X185443715Y-146913381D01*
X185443715Y-147008619D01*
X186062762Y-147913381D02*
X185967524Y-147865762D01*
X185919905Y-147818143D01*
X185872286Y-147722905D01*
X185872286Y-147437190D01*
X185919905Y-147341952D01*
X185967524Y-147294333D01*
X186062762Y-147246714D01*
X186205620Y-147246714D01*
X186300858Y-147294333D01*
X186348477Y-147341952D01*
X186396096Y-147437190D01*
X186396096Y-147722905D01*
X186348477Y-147818143D01*
X186300858Y-147865762D01*
X186205620Y-147913381D01*
X186062762Y-147913381D01*
X186824667Y-147246714D02*
X186824667Y-147913381D01*
X186824667Y-147341952D02*
X186872286Y-147294333D01*
X186967524Y-147246714D01*
X187110382Y-147246714D01*
X187205620Y-147294333D01*
X187253239Y-147389571D01*
X187253239Y-147913381D01*
X183467524Y-149663381D02*
X183467524Y-148663381D01*
X183467524Y-149139571D02*
X184038953Y-149139571D01*
X184038953Y-149663381D02*
X184038953Y-148663381D01*
X184705619Y-148663381D02*
X184896096Y-148663381D01*
X184991334Y-148711000D01*
X185086572Y-148806238D01*
X185134191Y-148996714D01*
X185134191Y-149330048D01*
X185086572Y-149520524D01*
X184991334Y-149615762D01*
X184896096Y-149663381D01*
X184705619Y-149663381D01*
X184610381Y-149615762D01*
X184515143Y-149520524D01*
X184467524Y-149330048D01*
X184467524Y-148996714D01*
X184515143Y-148806238D01*
X184610381Y-148711000D01*
X184705619Y-148663381D01*
X185419905Y-148663381D02*
X185991334Y-148663381D01*
X185705619Y-149663381D02*
X185705619Y-148663381D01*
D13*
X176022000Y-157480000D02*
X176784000Y-156718000D01*
X178308000Y-163322000D02*
X179832000Y-161798000D01*
X177038000Y-163322000D02*
X178562000Y-163322000D01*
X179832000Y-160528000D02*
X177038000Y-163322000D01*
X179832000Y-159512000D02*
X179832000Y-160528000D01*
X176022000Y-162814000D02*
X179832000Y-159258000D01*
X176022000Y-162814000D02*
X176022000Y-163068000D01*
X176022000Y-161798000D02*
X176022000Y-162814000D01*
X179832000Y-157988000D02*
X176022000Y-161798000D01*
X179832000Y-156718000D02*
X179832000Y-157988000D01*
X176022000Y-160528000D02*
X179832000Y-156718000D01*
X176022000Y-160274000D02*
X176022000Y-160528000D01*
X176022000Y-159512000D02*
X176022000Y-160274000D01*
X178816000Y-156718000D02*
X176022000Y-159512000D01*
X177800000Y-156718000D02*
X178816000Y-156718000D01*
X176022000Y-158496000D02*
X177800000Y-156718000D01*
X176022000Y-163322000D02*
X179832000Y-163322000D01*
X176022000Y-156718000D02*
X176022000Y-163322000D01*
X179832000Y-156718000D02*
X176022000Y-156718000D01*
X179832000Y-163322000D02*
X179832000Y-156718000D01*
D14*
X145838178Y-145347571D02*
X145686392Y-146561857D01*
X145597106Y-146704714D01*
X145516749Y-146776143D01*
X145364964Y-146847571D01*
X145150678Y-146847571D01*
X145016749Y-146776143D01*
X145722106Y-146276143D02*
X145570321Y-146347571D01*
X145284607Y-146347571D01*
X145150677Y-146276143D01*
X145088178Y-146204714D01*
X145034606Y-146061857D01*
X145088177Y-145633286D01*
X145177463Y-145490429D01*
X145257820Y-145419000D01*
X145409607Y-145347571D01*
X145695321Y-145347571D01*
X145829249Y-145419000D01*
X146427464Y-146347571D02*
X146552464Y-145347571D01*
X146614964Y-144847571D02*
X146534606Y-144919000D01*
X146597106Y-144990429D01*
X146677463Y-144919000D01*
X146614964Y-144847571D01*
X146597106Y-144990429D01*
X147052464Y-145347571D02*
X147623893Y-145347571D01*
X147329250Y-144847571D02*
X147168535Y-146133286D01*
X147222106Y-146276143D01*
X147356036Y-146347571D01*
X147498893Y-146347571D01*
X147998893Y-146347571D02*
X148186393Y-144847571D01*
X148641750Y-146347571D02*
X148739964Y-145561857D01*
X148686392Y-145419000D01*
X148552464Y-145347571D01*
X148338179Y-145347571D01*
X148186392Y-145419000D01*
X148106035Y-145490429D01*
X150123893Y-145347571D02*
X149998893Y-146347571D01*
X149481036Y-145347571D02*
X149382821Y-146133286D01*
X149436392Y-146276143D01*
X149570322Y-146347571D01*
X149784607Y-146347571D01*
X149936392Y-146276143D01*
X150016750Y-146204714D01*
X150713179Y-146347571D02*
X150900679Y-144847571D01*
X150829250Y-145419000D02*
X150981036Y-145347571D01*
X151266750Y-145347571D01*
X151400678Y-145419000D01*
X151463178Y-145490429D01*
X151516750Y-145633286D01*
X151463179Y-146061857D01*
X151373893Y-146204714D01*
X151293535Y-146276143D01*
X151141750Y-146347571D01*
X150856036Y-146347571D01*
X150722107Y-146276143D01*
X152088179Y-146204714D02*
X152150678Y-146276143D01*
X152070322Y-146347571D01*
X152007821Y-146276143D01*
X152088179Y-146204714D01*
X152070322Y-146347571D01*
X153436393Y-146276143D02*
X153284608Y-146347571D01*
X152998894Y-146347571D01*
X152864964Y-146276143D01*
X152802465Y-146204714D01*
X152748893Y-146061857D01*
X152802464Y-145633286D01*
X152891750Y-145490429D01*
X152972107Y-145419000D01*
X153123894Y-145347571D01*
X153409608Y-145347571D01*
X153543536Y-145419000D01*
X154284608Y-146347571D02*
X154150678Y-146276143D01*
X154088179Y-146204714D01*
X154034607Y-146061857D01*
X154088178Y-145633286D01*
X154177464Y-145490429D01*
X154257821Y-145419000D01*
X154409608Y-145347571D01*
X154623893Y-145347571D01*
X154757821Y-145419000D01*
X154820321Y-145490429D01*
X154873893Y-145633286D01*
X154820322Y-146061857D01*
X154731036Y-146204714D01*
X154650678Y-146276143D01*
X154498893Y-146347571D01*
X154284608Y-146347571D01*
X155427465Y-146347571D02*
X155552465Y-145347571D01*
X155534607Y-145490429D02*
X155614964Y-145419000D01*
X155766751Y-145347571D01*
X155981036Y-145347571D01*
X156114964Y-145419000D01*
X156168536Y-145561857D01*
X156070322Y-146347571D01*
X156168536Y-145561857D02*
X156257822Y-145419000D01*
X156409608Y-145347571D01*
X156623893Y-145347571D01*
X156757822Y-145419000D01*
X156811393Y-145561857D01*
X156713179Y-146347571D01*
X158695321Y-144776143D02*
X157168536Y-146704714D01*
X159650679Y-146276143D02*
X159498894Y-146347571D01*
X159213180Y-146347571D01*
X159079250Y-146276143D01*
X159016751Y-146204714D01*
X158963179Y-146061857D01*
X159016750Y-145633286D01*
X159106036Y-145490429D01*
X159186393Y-145419000D01*
X159338180Y-145347571D01*
X159623894Y-145347571D01*
X159757822Y-145419000D01*
X160284608Y-146347571D02*
X160472108Y-144847571D01*
X160927465Y-146347571D02*
X161025679Y-145561857D01*
X160972107Y-145419000D01*
X160838179Y-145347571D01*
X160623894Y-145347571D01*
X160472107Y-145419000D01*
X160391750Y-145490429D01*
X162284608Y-146347571D02*
X162382822Y-145561857D01*
X162329250Y-145419000D01*
X162195322Y-145347571D01*
X161909608Y-145347571D01*
X161757822Y-145419000D01*
X162293536Y-146276143D02*
X162141751Y-146347571D01*
X161784608Y-146347571D01*
X161650679Y-146276143D01*
X161597107Y-146133286D01*
X161614964Y-145990429D01*
X161704251Y-145847571D01*
X161856036Y-145776143D01*
X162213179Y-145776143D01*
X162364965Y-145704714D01*
X162998894Y-146347571D02*
X163123894Y-145347571D01*
X163088179Y-145633286D02*
X163177464Y-145490429D01*
X163257822Y-145419000D01*
X163409608Y-145347571D01*
X163552465Y-145347571D01*
X164579250Y-146276143D02*
X164427465Y-146347571D01*
X164141751Y-146347571D01*
X164007821Y-146276143D01*
X163945322Y-146204714D01*
X163891750Y-146061857D01*
X163945321Y-145633286D01*
X164034607Y-145490429D01*
X164114964Y-145419000D01*
X164266751Y-145347571D01*
X164552465Y-145347571D01*
X164686393Y-145419000D01*
X165427465Y-146347571D02*
X165293535Y-146276143D01*
X165231036Y-146204714D01*
X165177464Y-146061857D01*
X165231035Y-145633286D01*
X165320321Y-145490429D01*
X165400678Y-145419000D01*
X165552465Y-145347571D01*
X165766750Y-145347571D01*
X165900678Y-145419000D01*
X165963178Y-145490429D01*
X166016750Y-145633286D01*
X165963179Y-146061857D01*
X165873893Y-146204714D01*
X165793535Y-146276143D01*
X165641750Y-146347571D01*
X165427465Y-146347571D01*
X166784608Y-146347571D02*
X166650678Y-146276143D01*
X166597107Y-146133286D01*
X166757822Y-144847571D01*
X167936392Y-146276143D02*
X167784607Y-146347571D01*
X167498893Y-146347571D01*
X167364964Y-146276143D01*
X167311392Y-146133286D01*
X167382821Y-145561857D01*
X167472107Y-145419000D01*
X167623893Y-145347571D01*
X167909607Y-145347571D01*
X168043535Y-145419000D01*
X168097107Y-145561857D01*
X168079250Y-145704714D01*
X167347107Y-145847571D01*
X169909606Y-144776143D02*
X168382821Y-146704714D01*
X170213179Y-146347571D02*
X170338179Y-145347571D01*
X170320321Y-145490429D02*
X170400678Y-145419000D01*
X170552465Y-145347571D01*
X170766750Y-145347571D01*
X170900678Y-145419000D01*
X170954250Y-145561857D01*
X170856036Y-146347571D01*
X170954250Y-145561857D02*
X171043536Y-145419000D01*
X171195322Y-145347571D01*
X171409607Y-145347571D01*
X171543536Y-145419000D01*
X171597107Y-145561857D01*
X171498893Y-146347571D01*
X172213179Y-146347571D02*
X172338179Y-145347571D01*
X172400679Y-144847571D02*
X172320321Y-144919000D01*
X172382821Y-144990429D01*
X172463178Y-144919000D01*
X172400679Y-144847571D01*
X172382821Y-144990429D01*
X173052465Y-145347571D02*
X172927465Y-146347571D01*
X173034607Y-145490429D02*
X173114964Y-145419000D01*
X173266751Y-145347571D01*
X173481036Y-145347571D01*
X173614964Y-145419000D01*
X173668536Y-145561857D01*
X173570322Y-146347571D01*
X174284608Y-146347571D02*
X174409608Y-145347571D01*
X174472108Y-144847571D02*
X174391750Y-144919000D01*
X174454250Y-144990429D01*
X174534607Y-144919000D01*
X174472108Y-144847571D01*
X174454250Y-144990429D01*
X175766751Y-145347571D02*
X175614965Y-146561857D01*
X175525679Y-146704714D01*
X175445322Y-146776143D01*
X175293537Y-146847571D01*
X175079251Y-146847571D01*
X174945322Y-146776143D01*
X175650679Y-146276143D02*
X175498894Y-146347571D01*
X175213180Y-146347571D01*
X175079250Y-146276143D01*
X175016751Y-146204714D01*
X174963179Y-146061857D01*
X175016750Y-145633286D01*
X175106036Y-145490429D01*
X175186393Y-145419000D01*
X175338180Y-145347571D01*
X175623894Y-145347571D01*
X175757822Y-145419000D01*
X177123894Y-145347571D02*
X176998894Y-146347571D01*
X176481037Y-145347571D02*
X176382822Y-146133286D01*
X176436393Y-146276143D01*
X176570323Y-146347571D01*
X176784608Y-146347571D01*
X176936393Y-146276143D01*
X177016751Y-146204714D01*
X177838180Y-145347571D02*
X177713180Y-146347571D01*
X177820322Y-145490429D02*
X177900679Y-145419000D01*
X178052466Y-145347571D01*
X178266751Y-145347571D01*
X178400679Y-145419000D01*
X178454251Y-145561857D01*
X178356037Y-146347571D01*
D15*
X193103572Y-155047143D02*
X194246429Y-155047143D01*
D13*
X197985923Y-155507961D02*
G75*
G02X195580000Y-154940000I-1135923J567961D01*
G01*
X197985923Y-154372039D02*
G75*
G03X195580000Y-154940000I-1135923J-567961D01*
G01*
D15*
X200088572Y-155047143D02*
X201231429Y-155047143D01*
X200660000Y-155618571D02*
X200660000Y-154475714D01*
D13*
X196850000Y-154940000D02*
X199390000Y-154940000D01*
D15*
X195921429Y-152443571D02*
X195064286Y-152443571D01*
X195492858Y-152443571D02*
X195492858Y-150943571D01*
X195350001Y-151157857D01*
X195207143Y-151300714D01*
X195064286Y-151372143D01*
X196492857Y-151086429D02*
X196564286Y-151015000D01*
X196707143Y-150943571D01*
X197064286Y-150943571D01*
X197207143Y-151015000D01*
X197278572Y-151086429D01*
X197350000Y-151229286D01*
X197350000Y-151372143D01*
X197278572Y-151586429D01*
X196421429Y-152443571D01*
X197350000Y-152443571D01*
X197778571Y-150943571D02*
X198278571Y-152443571D01*
X198778571Y-150943571D01*
D11*
X157725000Y-150130000D02*
X157725000Y-152130000D01*
X159775000Y-152130000D02*
X159775000Y-150130000D01*
X154550000Y-150130000D02*
X154550000Y-152130000D01*
X156600000Y-152130000D02*
X156600000Y-150130000D01*
X147819000Y-150130000D02*
X147819000Y-152130000D01*
X149869000Y-152130000D02*
X149869000Y-150130000D01*
X200875900Y-150169880D02*
X200875900Y-141168120D01*
X204376020Y-150169880D02*
X204376020Y-141168120D01*
X204376020Y-141168120D02*
X189875160Y-141168120D01*
X189875160Y-141168120D02*
X189875160Y-150169880D01*
X189875160Y-150169880D02*
X204376020Y-150169880D01*
X179685000Y-145170000D02*
X179685000Y-155370000D01*
X189885000Y-145170000D02*
X179685000Y-145170000D01*
X189885000Y-155370000D02*
X189885000Y-145170000D01*
X179685000Y-155370000D02*
X189885000Y-155370000D01*
D16*
X189400180Y-136357360D02*
X189400180Y-133309360D01*
X138600180Y-136357360D02*
X138600180Y-133309360D01*
X187368180Y-126451360D02*
X140124180Y-126451360D01*
X191051180Y-136357360D02*
X191051180Y-133309360D01*
X136949180Y-136357360D02*
X136949180Y-133309360D01*
X187368180Y-136357360D02*
X187368180Y-143469360D01*
X187368180Y-143469360D02*
X140124180Y-143469360D01*
X140124180Y-143469360D02*
X140124180Y-136357360D01*
X191051180Y-136357360D02*
X136949180Y-136357360D01*
X136949180Y-133309360D02*
X191051180Y-133309360D01*
X187368180Y-126451360D02*
X187368180Y-133309360D01*
X140124180Y-126451360D02*
X140124180Y-133309360D01*
D11*
X172675000Y-152035000D02*
X172675000Y-150035000D01*
X174825000Y-150035000D02*
X174825000Y-152035000D01*
X160850000Y-152035000D02*
X160850000Y-150035000D01*
X163000000Y-150035000D02*
X163000000Y-152035000D01*
X151325000Y-152130000D02*
X151325000Y-150130000D01*
X153475000Y-150130000D02*
X153475000Y-152130000D01*
X144721000Y-152130000D02*
X144721000Y-150130000D01*
X146871000Y-150130000D02*
X146871000Y-152130000D01*
X165295000Y-152130000D02*
X165295000Y-150130000D01*
X167445000Y-150130000D02*
X167445000Y-152130000D01*
X168425000Y-152130000D02*
X168425000Y-150130000D01*
X170575000Y-150130000D02*
X170575000Y-152130000D01*
X199025000Y-127195000D02*
X201025000Y-127195000D01*
X201025000Y-129345000D02*
X199025000Y-129345000D01*
X201676000Y-137922000D02*
X201676000Y-136652000D01*
X200888600Y-137172700D02*
X200926700Y-137426700D01*
X200926700Y-137426700D02*
X201104500Y-137706100D01*
X201104500Y-137706100D02*
X201422000Y-137922000D01*
X201422000Y-137922000D02*
X201866500Y-137934700D01*
X201866500Y-137934700D02*
X202222100Y-137731500D01*
X202222100Y-137731500D02*
X202399900Y-137439400D01*
X202399900Y-137439400D02*
X202450700Y-137121900D01*
X202450700Y-137121900D02*
X202349100Y-136715500D01*
X202349100Y-136715500D02*
X202006200Y-136461500D01*
X202006200Y-136461500D02*
X201828400Y-136372600D01*
X193294000Y-134112000D02*
X202946000Y-134112000D01*
X202946000Y-137160000D02*
X202946000Y-138430000D01*
X202946000Y-138430000D02*
X193294000Y-138430000D01*
X193294000Y-138430000D02*
X193294000Y-133350000D01*
X202946000Y-133350000D02*
X202946000Y-135890000D01*
X202946000Y-135890000D02*
X202946000Y-137160000D01*
X199025000Y-130370000D02*
X201025000Y-130370000D01*
X201025000Y-132520000D02*
X199025000Y-132520000D01*
X178875000Y-150035000D02*
X178875000Y-152035000D01*
X176725000Y-152035000D02*
X176725000Y-150035000D01*
X97190000Y-126730000D02*
X109890000Y-126730000D01*
X109890000Y-126730000D02*
X109890000Y-129270000D01*
X109890000Y-129270000D02*
X97190000Y-129270000D01*
X94370000Y-126450000D02*
X95920000Y-126450000D01*
X97190000Y-126730000D02*
X97190000Y-129270000D01*
X95920000Y-129550000D02*
X94370000Y-129550000D01*
X94370000Y-129550000D02*
X94370000Y-126450000D01*
D17*
X134410000Y-130590000D02*
X133150000Y-130590000D01*
X127590000Y-130590000D02*
X128850000Y-130590000D01*
X134410000Y-134350000D02*
X134410000Y-130590000D01*
X127590000Y-136600000D02*
X127590000Y-130590000D01*
D18*
X100729981Y-151106000D02*
G75*
G03X100729981Y-151106000I-283981J0D01*
G01*
D11*
X100300000Y-132200000D02*
X100300000Y-150200000D01*
X94300000Y-150200000D02*
X119800000Y-150200000D01*
X94300000Y-132200000D02*
X119800000Y-132200000D01*
X119800000Y-132200000D02*
X119800000Y-150200000D01*
X94300000Y-132200000D02*
X94300000Y-150200000D01*
X97500000Y-154525000D02*
X99500000Y-154525000D01*
X99500000Y-152475000D02*
X97500000Y-152475000D01*
X124575000Y-132500000D02*
X124575000Y-134500000D01*
X122425000Y-134500000D02*
X122425000Y-132500000D01*
X122840000Y-149675000D02*
X123115000Y-149675000D01*
X122840000Y-141925000D02*
X123205000Y-141925000D01*
X138590000Y-141925000D02*
X138225000Y-141925000D01*
X138590000Y-149675000D02*
X138225000Y-149675000D01*
X122840000Y-149675000D02*
X122840000Y-141925000D01*
X138590000Y-149675000D02*
X138590000Y-141925000D01*
X123115000Y-149675000D02*
X123115000Y-151500000D01*
X190600000Y-128800000D02*
X193400000Y-128800000D01*
X193400000Y-128800000D02*
X193400000Y-130200000D01*
X193400000Y-130200000D02*
X190600000Y-130200000D01*
X190600000Y-130200000D02*
X190600000Y-128800000D01*
X195000000Y-127750000D02*
X195000000Y-128400000D01*
X195000000Y-131250000D02*
X195000000Y-130600000D01*
X189000000Y-130600000D02*
X189000000Y-131250000D01*
X189000000Y-127750000D02*
X189000000Y-128400000D01*
X195000000Y-127750000D02*
X189000000Y-127750000D01*
X189000000Y-131250000D02*
X195000000Y-131250000D01*
X107900000Y-154700000D02*
X105100000Y-154700000D01*
X105100000Y-154700000D02*
X105100000Y-153300000D01*
X105100000Y-153300000D02*
X107900000Y-153300000D01*
X107900000Y-153300000D02*
X107900000Y-154700000D01*
X103500000Y-155750000D02*
X103500000Y-155100000D01*
X103500000Y-152250000D02*
X103500000Y-152900000D01*
X109500000Y-152900000D02*
X109500000Y-152250000D01*
X109500000Y-155750000D02*
X109500000Y-155100000D01*
X103500000Y-155750000D02*
X109500000Y-155750000D01*
X109500000Y-152250000D02*
X103500000Y-152250000D01*
X116400000Y-128700000D02*
X113600000Y-128700000D01*
X113600000Y-128700000D02*
X113600000Y-127300000D01*
X113600000Y-127300000D02*
X116400000Y-127300000D01*
X116400000Y-127300000D02*
X116400000Y-128700000D01*
X112000000Y-129750000D02*
X112000000Y-129100000D01*
X112000000Y-126250000D02*
X112000000Y-126900000D01*
X118000000Y-126900000D02*
X118000000Y-126250000D01*
X118000000Y-129750000D02*
X118000000Y-129100000D01*
X112000000Y-129750000D02*
X118000000Y-129750000D01*
X118000000Y-126250000D02*
X112000000Y-126250000D01*
X159107143Y-151416666D02*
X159154762Y-151464285D01*
X159202381Y-151607142D01*
X159202381Y-151702380D01*
X159154762Y-151845238D01*
X159059524Y-151940476D01*
X158964286Y-151988095D01*
X158773810Y-152035714D01*
X158630952Y-152035714D01*
X158440476Y-151988095D01*
X158345238Y-151940476D01*
X158250000Y-151845238D01*
X158202381Y-151702380D01*
X158202381Y-151607142D01*
X158250000Y-151464285D01*
X158297619Y-151416666D01*
X159202381Y-150464285D02*
X159202381Y-151035714D01*
X159202381Y-150750000D02*
X158202381Y-150750000D01*
X158345238Y-150845238D01*
X158440476Y-150940476D01*
X158488095Y-151035714D01*
X155932143Y-151416666D02*
X155979762Y-151464285D01*
X156027381Y-151607142D01*
X156027381Y-151702380D01*
X155979762Y-151845238D01*
X155884524Y-151940476D01*
X155789286Y-151988095D01*
X155598810Y-152035714D01*
X155455952Y-152035714D01*
X155265476Y-151988095D01*
X155170238Y-151940476D01*
X155075000Y-151845238D01*
X155027381Y-151702380D01*
X155027381Y-151607142D01*
X155075000Y-151464285D01*
X155122619Y-151416666D01*
X155122619Y-151035714D02*
X155075000Y-150988095D01*
X155027381Y-150892857D01*
X155027381Y-150654761D01*
X155075000Y-150559523D01*
X155122619Y-150511904D01*
X155217857Y-150464285D01*
X155313095Y-150464285D01*
X155455952Y-150511904D01*
X156027381Y-151083333D01*
X156027381Y-150464285D01*
X149107143Y-151416666D02*
X149154762Y-151464285D01*
X149202381Y-151607142D01*
X149202381Y-151702380D01*
X149154762Y-151845238D01*
X149059524Y-151940476D01*
X148964286Y-151988095D01*
X148773810Y-152035714D01*
X148630952Y-152035714D01*
X148440476Y-151988095D01*
X148345238Y-151940476D01*
X148250000Y-151845238D01*
X148202381Y-151702380D01*
X148202381Y-151607142D01*
X148250000Y-151464285D01*
X148297619Y-151416666D01*
X148202381Y-151083333D02*
X148202381Y-150464285D01*
X148583333Y-150797619D01*
X148583333Y-150654761D01*
X148630952Y-150559523D01*
X148678571Y-150511904D01*
X148773810Y-150464285D01*
X149011905Y-150464285D01*
X149107143Y-150511904D01*
X149154762Y-150559523D01*
X149202381Y-150654761D01*
X149202381Y-150940476D01*
X149154762Y-151035714D01*
X149107143Y-151083333D01*
X199691667Y-144867381D02*
X199691667Y-145581667D01*
X199644047Y-145724524D01*
X199548809Y-145819762D01*
X199405952Y-145867381D01*
X199310714Y-145867381D01*
X200644048Y-144867381D02*
X200167857Y-144867381D01*
X200120238Y-145343571D01*
X200167857Y-145295952D01*
X200263095Y-145248333D01*
X200501191Y-145248333D01*
X200596429Y-145295952D01*
X200644048Y-145343571D01*
X200691667Y-145438810D01*
X200691667Y-145676905D01*
X200644048Y-145772143D01*
X200596429Y-145819762D01*
X200501191Y-145867381D01*
X200263095Y-145867381D01*
X200167857Y-145819762D01*
X200120238Y-145772143D01*
X184451667Y-151344381D02*
X184451667Y-152058667D01*
X184404047Y-152201524D01*
X184308809Y-152296762D01*
X184165952Y-152344381D01*
X184070714Y-152344381D01*
X185356429Y-151344381D02*
X185165952Y-151344381D01*
X185070714Y-151392000D01*
X185023095Y-151439619D01*
X184927857Y-151582476D01*
X184880238Y-151772952D01*
X184880238Y-152153905D01*
X184927857Y-152249143D01*
X184975476Y-152296762D01*
X185070714Y-152344381D01*
X185261191Y-152344381D01*
X185356429Y-152296762D01*
X185404048Y-152249143D01*
X185451667Y-152153905D01*
X185451667Y-151915810D01*
X185404048Y-151820571D01*
X185356429Y-151772952D01*
X185261191Y-151725333D01*
X185070714Y-151725333D01*
X184975476Y-151772952D01*
X184927857Y-151820571D01*
X184880238Y-151915810D01*
D19*
X163449000Y-128197429D02*
X163449000Y-129286000D01*
X163376428Y-129503714D01*
X163231285Y-129648857D01*
X163013571Y-129721429D01*
X162868428Y-129721429D01*
X164029571Y-128197429D02*
X165045571Y-128197429D01*
X164392428Y-129721429D01*
X159167286Y-132061857D02*
X159385000Y-132134429D01*
X159747857Y-132134429D01*
X159893000Y-132061857D01*
X159965571Y-131989286D01*
X160038143Y-131844143D01*
X160038143Y-131699000D01*
X159965571Y-131553857D01*
X159893000Y-131481286D01*
X159747857Y-131408714D01*
X159457571Y-131336143D01*
X159312429Y-131263571D01*
X159239857Y-131191000D01*
X159167286Y-131045857D01*
X159167286Y-130900714D01*
X159239857Y-130755571D01*
X159312429Y-130683000D01*
X159457571Y-130610429D01*
X159820429Y-130610429D01*
X160038143Y-130683000D01*
X161562143Y-131989286D02*
X161489572Y-132061857D01*
X161271858Y-132134429D01*
X161126715Y-132134429D01*
X160909000Y-132061857D01*
X160763858Y-131916714D01*
X160691286Y-131771571D01*
X160618715Y-131481286D01*
X160618715Y-131263571D01*
X160691286Y-130973286D01*
X160763858Y-130828143D01*
X160909000Y-130683000D01*
X161126715Y-130610429D01*
X161271858Y-130610429D01*
X161489572Y-130683000D01*
X161562143Y-130755571D01*
X162142715Y-131699000D02*
X162868429Y-131699000D01*
X161997572Y-132134429D02*
X162505572Y-130610429D01*
X163013572Y-132134429D01*
X164392429Y-132134429D02*
X163884429Y-131408714D01*
X163521572Y-132134429D02*
X163521572Y-130610429D01*
X164102144Y-130610429D01*
X164247286Y-130683000D01*
X164319858Y-130755571D01*
X164392429Y-130900714D01*
X164392429Y-131118429D01*
X164319858Y-131263571D01*
X164247286Y-131336143D01*
X164102144Y-131408714D01*
X163521572Y-131408714D01*
X164827858Y-130610429D02*
X165698715Y-130610429D01*
X165263286Y-132134429D02*
X165263286Y-130610429D01*
X166206715Y-131553857D02*
X167367858Y-131553857D01*
X168601572Y-131336143D02*
X168093572Y-131336143D01*
X168093572Y-132134429D02*
X168093572Y-130610429D01*
X168819286Y-130610429D01*
D11*
X174202381Y-151166666D02*
X173726190Y-151500000D01*
X174202381Y-151738095D02*
X173202381Y-151738095D01*
X173202381Y-151357142D01*
X173250000Y-151261904D01*
X173297619Y-151214285D01*
X173392857Y-151166666D01*
X173535714Y-151166666D01*
X173630952Y-151214285D01*
X173678571Y-151261904D01*
X173726190Y-151357142D01*
X173726190Y-151738095D01*
X174202381Y-150214285D02*
X174202381Y-150785714D01*
X174202381Y-150500000D02*
X173202381Y-150500000D01*
X173345238Y-150595238D01*
X173440476Y-150690476D01*
X173488095Y-150785714D01*
X162452381Y-151416666D02*
X161976190Y-151750000D01*
X162452381Y-151988095D02*
X161452381Y-151988095D01*
X161452381Y-151607142D01*
X161500000Y-151511904D01*
X161547619Y-151464285D01*
X161642857Y-151416666D01*
X161785714Y-151416666D01*
X161880952Y-151464285D01*
X161928571Y-151511904D01*
X161976190Y-151607142D01*
X161976190Y-151988095D01*
X161547619Y-151035714D02*
X161500000Y-150988095D01*
X161452381Y-150892857D01*
X161452381Y-150654761D01*
X161500000Y-150559523D01*
X161547619Y-150511904D01*
X161642857Y-150464285D01*
X161738095Y-150464285D01*
X161880952Y-150511904D01*
X162452381Y-151083333D01*
X162452381Y-150464285D01*
X152852381Y-151416666D02*
X152376190Y-151750000D01*
X152852381Y-151988095D02*
X151852381Y-151988095D01*
X151852381Y-151607142D01*
X151900000Y-151511904D01*
X151947619Y-151464285D01*
X152042857Y-151416666D01*
X152185714Y-151416666D01*
X152280952Y-151464285D01*
X152328571Y-151511904D01*
X152376190Y-151607142D01*
X152376190Y-151988095D01*
X151852381Y-151083333D02*
X151852381Y-150464285D01*
X152233333Y-150797619D01*
X152233333Y-150654761D01*
X152280952Y-150559523D01*
X152328571Y-150511904D01*
X152423810Y-150464285D01*
X152661905Y-150464285D01*
X152757143Y-150511904D01*
X152804762Y-150559523D01*
X152852381Y-150654761D01*
X152852381Y-150940476D01*
X152804762Y-151035714D01*
X152757143Y-151083333D01*
X146202381Y-151416666D02*
X145726190Y-151750000D01*
X146202381Y-151988095D02*
X145202381Y-151988095D01*
X145202381Y-151607142D01*
X145250000Y-151511904D01*
X145297619Y-151464285D01*
X145392857Y-151416666D01*
X145535714Y-151416666D01*
X145630952Y-151464285D01*
X145678571Y-151511904D01*
X145726190Y-151607142D01*
X145726190Y-151988095D01*
X145535714Y-150559523D02*
X146202381Y-150559523D01*
X145154762Y-150797619D02*
X145869048Y-151035714D01*
X145869048Y-150416666D01*
X166822381Y-151416666D02*
X166346190Y-151750000D01*
X166822381Y-151988095D02*
X165822381Y-151988095D01*
X165822381Y-151607142D01*
X165870000Y-151511904D01*
X165917619Y-151464285D01*
X166012857Y-151416666D01*
X166155714Y-151416666D01*
X166250952Y-151464285D01*
X166298571Y-151511904D01*
X166346190Y-151607142D01*
X166346190Y-151988095D01*
X165822381Y-150511904D02*
X165822381Y-150988095D01*
X166298571Y-151035714D01*
X166250952Y-150988095D01*
X166203333Y-150892857D01*
X166203333Y-150654761D01*
X166250952Y-150559523D01*
X166298571Y-150511904D01*
X166393810Y-150464285D01*
X166631905Y-150464285D01*
X166727143Y-150511904D01*
X166774762Y-150559523D01*
X166822381Y-150654761D01*
X166822381Y-150892857D01*
X166774762Y-150988095D01*
X166727143Y-151035714D01*
X169887381Y-151416666D02*
X169411190Y-151750000D01*
X169887381Y-151988095D02*
X168887381Y-151988095D01*
X168887381Y-151607142D01*
X168935000Y-151511904D01*
X168982619Y-151464285D01*
X169077857Y-151416666D01*
X169220714Y-151416666D01*
X169315952Y-151464285D01*
X169363571Y-151511904D01*
X169411190Y-151607142D01*
X169411190Y-151988095D01*
X168887381Y-150559523D02*
X168887381Y-150750000D01*
X168935000Y-150845238D01*
X168982619Y-150892857D01*
X169125476Y-150988095D01*
X169315952Y-151035714D01*
X169696905Y-151035714D01*
X169792143Y-150988095D01*
X169839762Y-150940476D01*
X169887381Y-150845238D01*
X169887381Y-150654761D01*
X169839762Y-150559523D01*
X169792143Y-150511904D01*
X169696905Y-150464285D01*
X169458810Y-150464285D01*
X169363571Y-150511904D01*
X169315952Y-150559523D01*
X169268333Y-150654761D01*
X169268333Y-150845238D01*
X169315952Y-150940476D01*
X169363571Y-150988095D01*
X169458810Y-151035714D01*
X199833334Y-128722381D02*
X199500000Y-128246190D01*
X199261905Y-128722381D02*
X199261905Y-127722381D01*
X199642858Y-127722381D01*
X199738096Y-127770000D01*
X199785715Y-127817619D01*
X199833334Y-127912857D01*
X199833334Y-128055714D01*
X199785715Y-128150952D01*
X199738096Y-128198571D01*
X199642858Y-128246190D01*
X199261905Y-128246190D01*
X200166667Y-127722381D02*
X200833334Y-127722381D01*
X200404762Y-128722381D01*
X190952381Y-136056666D02*
X190476190Y-136390000D01*
X190952381Y-136628095D02*
X189952381Y-136628095D01*
X189952381Y-136247142D01*
X190000000Y-136151904D01*
X190047619Y-136104285D01*
X190142857Y-136056666D01*
X190285714Y-136056666D01*
X190380952Y-136104285D01*
X190428571Y-136151904D01*
X190476190Y-136247142D01*
X190476190Y-136628095D01*
X190380952Y-135485238D02*
X190333333Y-135580476D01*
X190285714Y-135628095D01*
X190190476Y-135675714D01*
X190142857Y-135675714D01*
X190047619Y-135628095D01*
X190000000Y-135580476D01*
X189952381Y-135485238D01*
X189952381Y-135294761D01*
X190000000Y-135199523D01*
X190047619Y-135151904D01*
X190142857Y-135104285D01*
X190190476Y-135104285D01*
X190285714Y-135151904D01*
X190333333Y-135199523D01*
X190380952Y-135294761D01*
X190380952Y-135485238D01*
X190428571Y-135580476D01*
X190476190Y-135628095D01*
X190571429Y-135675714D01*
X190761905Y-135675714D01*
X190857143Y-135628095D01*
X190904762Y-135580476D01*
X190952381Y-135485238D01*
X190952381Y-135294761D01*
X190904762Y-135199523D01*
X190857143Y-135151904D01*
X190761905Y-135104285D01*
X190571429Y-135104285D01*
X190476190Y-135151904D01*
X190428571Y-135199523D01*
X190380952Y-135294761D01*
X199833334Y-131952381D02*
X199500000Y-131476190D01*
X199261905Y-131952381D02*
X199261905Y-130952381D01*
X199642858Y-130952381D01*
X199738096Y-131000000D01*
X199785715Y-131047619D01*
X199833334Y-131142857D01*
X199833334Y-131285714D01*
X199785715Y-131380952D01*
X199738096Y-131428571D01*
X199642858Y-131476190D01*
X199261905Y-131476190D01*
X200309524Y-131952381D02*
X200500000Y-131952381D01*
X200595239Y-131904762D01*
X200642858Y-131857143D01*
X200738096Y-131714286D01*
X200785715Y-131523810D01*
X200785715Y-131142857D01*
X200738096Y-131047619D01*
X200690477Y-131000000D01*
X200595239Y-130952381D01*
X200404762Y-130952381D01*
X200309524Y-131000000D01*
X200261905Y-131047619D01*
X200214286Y-131142857D01*
X200214286Y-131380952D01*
X200261905Y-131476190D01*
X200309524Y-131523810D01*
X200404762Y-131571429D01*
X200595239Y-131571429D01*
X200690477Y-131523810D01*
X200738096Y-131476190D01*
X200785715Y-131380952D01*
X178202381Y-151642857D02*
X177726190Y-151976191D01*
X178202381Y-152214286D02*
X177202381Y-152214286D01*
X177202381Y-151833333D01*
X177250000Y-151738095D01*
X177297619Y-151690476D01*
X177392857Y-151642857D01*
X177535714Y-151642857D01*
X177630952Y-151690476D01*
X177678571Y-151738095D01*
X177726190Y-151833333D01*
X177726190Y-152214286D01*
X178202381Y-150690476D02*
X178202381Y-151261905D01*
X178202381Y-150976191D02*
X177202381Y-150976191D01*
X177345238Y-151071429D01*
X177440476Y-151166667D01*
X177488095Y-151261905D01*
X177202381Y-150071429D02*
X177202381Y-149976190D01*
X177250000Y-149880952D01*
X177297619Y-149833333D01*
X177392857Y-149785714D01*
X177583333Y-149738095D01*
X177821429Y-149738095D01*
X178011905Y-149785714D01*
X178107143Y-149833333D01*
X178154762Y-149880952D01*
X178202381Y-149976190D01*
X178202381Y-150071429D01*
X178154762Y-150166667D01*
X178107143Y-150214286D01*
X178011905Y-150261905D01*
X177821429Y-150309524D01*
X177583333Y-150309524D01*
X177392857Y-150261905D01*
X177297619Y-150214286D01*
X177250000Y-150166667D01*
X177202381Y-150071429D01*
X97166667Y-129952381D02*
X97166667Y-130666667D01*
X97119047Y-130809524D01*
X97023809Y-130904762D01*
X96880952Y-130952381D01*
X96785714Y-130952381D01*
X97595238Y-130047619D02*
X97642857Y-130000000D01*
X97738095Y-129952381D01*
X97976191Y-129952381D01*
X98071429Y-130000000D01*
X98119048Y-130047619D01*
X98166667Y-130142857D01*
X98166667Y-130238095D01*
X98119048Y-130380952D01*
X97547619Y-130952381D01*
X98166667Y-130952381D01*
X130238095Y-131952381D02*
X130238095Y-132761905D01*
X130285714Y-132857143D01*
X130333333Y-132904762D01*
X130428571Y-132952381D01*
X130619048Y-132952381D01*
X130714286Y-132904762D01*
X130761905Y-132857143D01*
X130809524Y-132761905D01*
X130809524Y-131952381D01*
X131809524Y-132952381D02*
X131238095Y-132952381D01*
X131523809Y-132952381D02*
X131523809Y-131952381D01*
X131428571Y-132095238D01*
X131333333Y-132190476D01*
X131238095Y-132238095D01*
X101238095Y-140952381D02*
X101238095Y-141761905D01*
X101285714Y-141857143D01*
X101333333Y-141904762D01*
X101428571Y-141952381D01*
X101619048Y-141952381D01*
X101714286Y-141904762D01*
X101761905Y-141857143D01*
X101809524Y-141761905D01*
X101809524Y-140952381D01*
X102238095Y-141047619D02*
X102285714Y-141000000D01*
X102380952Y-140952381D01*
X102619048Y-140952381D01*
X102714286Y-141000000D01*
X102761905Y-141047619D01*
X102809524Y-141142857D01*
X102809524Y-141238095D01*
X102761905Y-141380952D01*
X102190476Y-141952381D01*
X102809524Y-141952381D01*
X101367570Y-134270571D02*
X101700904Y-134270571D01*
X101843761Y-134794381D02*
X101367570Y-134794381D01*
X101367570Y-133794381D01*
X101843761Y-133794381D01*
X102224713Y-134746762D02*
X102319951Y-134794381D01*
X102510427Y-134794381D01*
X102605666Y-134746762D01*
X102653285Y-134651524D01*
X102653285Y-134603905D01*
X102605666Y-134508667D01*
X102510427Y-134461048D01*
X102367570Y-134461048D01*
X102272332Y-134413429D01*
X102224713Y-134318190D01*
X102224713Y-134270571D01*
X102272332Y-134175333D01*
X102367570Y-134127714D01*
X102510427Y-134127714D01*
X102605666Y-134175333D01*
X103081856Y-134127714D02*
X103081856Y-135127714D01*
X103081856Y-134175333D02*
X103177094Y-134127714D01*
X103367571Y-134127714D01*
X103462809Y-134175333D01*
X103510428Y-134222952D01*
X103558047Y-134318190D01*
X103558047Y-134603905D01*
X103510428Y-134699143D01*
X103462809Y-134746762D01*
X103367571Y-134794381D01*
X103177094Y-134794381D01*
X103081856Y-134746762D01*
X103986618Y-134794381D02*
X103986618Y-134127714D01*
X103986618Y-134318190D02*
X104034237Y-134222952D01*
X104081856Y-134175333D01*
X104177094Y-134127714D01*
X104272333Y-134127714D01*
X104986619Y-134746762D02*
X104891381Y-134794381D01*
X104700904Y-134794381D01*
X104605666Y-134746762D01*
X104558047Y-134651524D01*
X104558047Y-134270571D01*
X104605666Y-134175333D01*
X104700904Y-134127714D01*
X104891381Y-134127714D01*
X104986619Y-134175333D01*
X105034238Y-134270571D01*
X105034238Y-134365810D01*
X104558047Y-134461048D01*
X105415190Y-134746762D02*
X105510428Y-134794381D01*
X105700904Y-134794381D01*
X105796143Y-134746762D01*
X105843762Y-134651524D01*
X105843762Y-134603905D01*
X105796143Y-134508667D01*
X105700904Y-134461048D01*
X105558047Y-134461048D01*
X105462809Y-134413429D01*
X105415190Y-134318190D01*
X105415190Y-134270571D01*
X105462809Y-134175333D01*
X105558047Y-134127714D01*
X105700904Y-134127714D01*
X105796143Y-134175333D01*
X106224714Y-134746762D02*
X106319952Y-134794381D01*
X106510428Y-134794381D01*
X106605667Y-134746762D01*
X106653286Y-134651524D01*
X106653286Y-134603905D01*
X106605667Y-134508667D01*
X106510428Y-134461048D01*
X106367571Y-134461048D01*
X106272333Y-134413429D01*
X106224714Y-134318190D01*
X106224714Y-134270571D01*
X106272333Y-134175333D01*
X106367571Y-134127714D01*
X106510428Y-134127714D01*
X106605667Y-134175333D01*
X107081857Y-134794381D02*
X107081857Y-134127714D01*
X107081857Y-133794381D02*
X107034238Y-133842000D01*
X107081857Y-133889619D01*
X107129476Y-133842000D01*
X107081857Y-133794381D01*
X107081857Y-133889619D01*
X107415190Y-134127714D02*
X107796142Y-134127714D01*
X107558047Y-134794381D02*
X107558047Y-133937238D01*
X107605666Y-133842000D01*
X107700904Y-133794381D01*
X107796142Y-133794381D01*
X108843762Y-134746762D02*
X108986619Y-134794381D01*
X109224715Y-134794381D01*
X109319953Y-134746762D01*
X109367572Y-134699143D01*
X109415191Y-134603905D01*
X109415191Y-134508667D01*
X109367572Y-134413429D01*
X109319953Y-134365810D01*
X109224715Y-134318190D01*
X109034238Y-134270571D01*
X108939000Y-134222952D01*
X108891381Y-134175333D01*
X108843762Y-134080095D01*
X108843762Y-133984857D01*
X108891381Y-133889619D01*
X108939000Y-133842000D01*
X109034238Y-133794381D01*
X109272334Y-133794381D01*
X109415191Y-133842000D01*
X109748524Y-134127714D02*
X109986619Y-134794381D01*
X110224715Y-134127714D02*
X109986619Y-134794381D01*
X109891381Y-135032476D01*
X109843762Y-135080095D01*
X109748524Y-135127714D01*
X110558048Y-134746762D02*
X110653286Y-134794381D01*
X110843762Y-134794381D01*
X110939001Y-134746762D01*
X110986620Y-134651524D01*
X110986620Y-134603905D01*
X110939001Y-134508667D01*
X110843762Y-134461048D01*
X110700905Y-134461048D01*
X110605667Y-134413429D01*
X110558048Y-134318190D01*
X110558048Y-134270571D01*
X110605667Y-134175333D01*
X110700905Y-134127714D01*
X110843762Y-134127714D01*
X110939001Y-134175333D01*
X111272334Y-134127714D02*
X111653286Y-134127714D01*
X111415191Y-133794381D02*
X111415191Y-134651524D01*
X111462810Y-134746762D01*
X111558048Y-134794381D01*
X111653286Y-134794381D01*
X112367573Y-134746762D02*
X112272335Y-134794381D01*
X112081858Y-134794381D01*
X111986620Y-134746762D01*
X111939001Y-134651524D01*
X111939001Y-134270571D01*
X111986620Y-134175333D01*
X112081858Y-134127714D01*
X112272335Y-134127714D01*
X112367573Y-134175333D01*
X112415192Y-134270571D01*
X112415192Y-134365810D01*
X111939001Y-134461048D01*
X112843763Y-134794381D02*
X112843763Y-134127714D01*
X112843763Y-134222952D02*
X112891382Y-134175333D01*
X112986620Y-134127714D01*
X113129478Y-134127714D01*
X113224716Y-134175333D01*
X113272335Y-134270571D01*
X113272335Y-134794381D01*
X113272335Y-134270571D02*
X113319954Y-134175333D01*
X113415192Y-134127714D01*
X113558049Y-134127714D01*
X113653287Y-134175333D01*
X113700906Y-134270571D01*
X113700906Y-134794381D01*
X114129477Y-134746762D02*
X114224715Y-134794381D01*
X114415191Y-134794381D01*
X114510430Y-134746762D01*
X114558049Y-134651524D01*
X114558049Y-134603905D01*
X114510430Y-134508667D01*
X114415191Y-134461048D01*
X114272334Y-134461048D01*
X114177096Y-134413429D01*
X114129477Y-134318190D01*
X114129477Y-134270571D01*
X114177096Y-134175333D01*
X114272334Y-134127714D01*
X114415191Y-134127714D01*
X114510430Y-134175333D01*
X101343619Y-135921571D02*
X101676953Y-135921571D01*
X101819810Y-136445381D02*
X101343619Y-136445381D01*
X101343619Y-135445381D01*
X101819810Y-135445381D01*
X102200762Y-136397762D02*
X102343619Y-136445381D01*
X102581715Y-136445381D01*
X102676953Y-136397762D01*
X102724572Y-136350143D01*
X102772191Y-136254905D01*
X102772191Y-136159667D01*
X102724572Y-136064429D01*
X102676953Y-136016810D01*
X102581715Y-135969190D01*
X102391238Y-135921571D01*
X102296000Y-135873952D01*
X102248381Y-135826333D01*
X102200762Y-135731095D01*
X102200762Y-135635857D01*
X102248381Y-135540619D01*
X102296000Y-135493000D01*
X102391238Y-135445381D01*
X102629334Y-135445381D01*
X102772191Y-135493000D01*
X103200762Y-136445381D02*
X103200762Y-135445381D01*
X103581715Y-135445381D01*
X103676953Y-135493000D01*
X103724572Y-135540619D01*
X103772191Y-135635857D01*
X103772191Y-135778714D01*
X103724572Y-135873952D01*
X103676953Y-135921571D01*
X103581715Y-135969190D01*
X103200762Y-135969190D01*
X104105524Y-135445381D02*
X104724572Y-135445381D01*
X104391238Y-135826333D01*
X104534096Y-135826333D01*
X104629334Y-135873952D01*
X104676953Y-135921571D01*
X104724572Y-136016810D01*
X104724572Y-136254905D01*
X104676953Y-136350143D01*
X104629334Y-136397762D01*
X104534096Y-136445381D01*
X104248381Y-136445381D01*
X104153143Y-136397762D01*
X104105524Y-136350143D01*
X105105524Y-135540619D02*
X105153143Y-135493000D01*
X105248381Y-135445381D01*
X105486477Y-135445381D01*
X105581715Y-135493000D01*
X105629334Y-135540619D01*
X105676953Y-135635857D01*
X105676953Y-135731095D01*
X105629334Y-135873952D01*
X105057905Y-136445381D01*
X105676953Y-136445381D01*
X106105524Y-136064429D02*
X106867429Y-136064429D01*
X107248381Y-135445381D02*
X107486476Y-136445381D01*
X107676953Y-135731095D01*
X107867429Y-136445381D01*
X108105524Y-135445381D01*
X109057905Y-136445381D02*
X108724571Y-135969190D01*
X108486476Y-136445381D02*
X108486476Y-135445381D01*
X108867429Y-135445381D01*
X108962667Y-135493000D01*
X109010286Y-135540619D01*
X109057905Y-135635857D01*
X109057905Y-135778714D01*
X109010286Y-135873952D01*
X108962667Y-135921571D01*
X108867429Y-135969190D01*
X108486476Y-135969190D01*
X109676952Y-135445381D02*
X109867429Y-135445381D01*
X109962667Y-135493000D01*
X110057905Y-135588238D01*
X110105524Y-135778714D01*
X110105524Y-136112048D01*
X110057905Y-136302524D01*
X109962667Y-136397762D01*
X109867429Y-136445381D01*
X109676952Y-136445381D01*
X109581714Y-136397762D01*
X109486476Y-136302524D01*
X109438857Y-136112048D01*
X109438857Y-135778714D01*
X109486476Y-135588238D01*
X109581714Y-135493000D01*
X109676952Y-135445381D01*
X110724571Y-135445381D02*
X110915048Y-135445381D01*
X111010286Y-135493000D01*
X111105524Y-135588238D01*
X111153143Y-135778714D01*
X111153143Y-136112048D01*
X111105524Y-136302524D01*
X111010286Y-136397762D01*
X110915048Y-136445381D01*
X110724571Y-136445381D01*
X110629333Y-136397762D01*
X110534095Y-136302524D01*
X110486476Y-136112048D01*
X110486476Y-135778714D01*
X110534095Y-135588238D01*
X110629333Y-135493000D01*
X110724571Y-135445381D01*
X111581714Y-136445381D02*
X111581714Y-135445381D01*
X111915048Y-136159667D01*
X112248381Y-135445381D01*
X112248381Y-136445381D01*
X98333334Y-153857143D02*
X98285715Y-153904762D01*
X98142858Y-153952381D01*
X98047620Y-153952381D01*
X97904762Y-153904762D01*
X97809524Y-153809524D01*
X97761905Y-153714286D01*
X97714286Y-153523810D01*
X97714286Y-153380952D01*
X97761905Y-153190476D01*
X97809524Y-153095238D01*
X97904762Y-153000000D01*
X98047620Y-152952381D01*
X98142858Y-152952381D01*
X98285715Y-153000000D01*
X98333334Y-153047619D01*
X99190477Y-153285714D02*
X99190477Y-153952381D01*
X98952381Y-152904762D02*
X98714286Y-153619048D01*
X99333334Y-153619048D01*
X123952381Y-134142857D02*
X123476190Y-134476191D01*
X123952381Y-134714286D02*
X122952381Y-134714286D01*
X122952381Y-134333333D01*
X123000000Y-134238095D01*
X123047619Y-134190476D01*
X123142857Y-134142857D01*
X123285714Y-134142857D01*
X123380952Y-134190476D01*
X123428571Y-134238095D01*
X123476190Y-134333333D01*
X123476190Y-134714286D01*
X123952381Y-133190476D02*
X123952381Y-133761905D01*
X123952381Y-133476191D02*
X122952381Y-133476191D01*
X123095238Y-133571429D01*
X123190476Y-133666667D01*
X123238095Y-133761905D01*
X123952381Y-132238095D02*
X123952381Y-132809524D01*
X123952381Y-132523810D02*
X122952381Y-132523810D01*
X123095238Y-132619048D01*
X123190476Y-132714286D01*
X123238095Y-132809524D01*
X130238095Y-145252381D02*
X130238095Y-146061905D01*
X130285714Y-146157143D01*
X130333333Y-146204762D01*
X130428571Y-146252381D01*
X130619048Y-146252381D01*
X130714286Y-146204762D01*
X130761905Y-146157143D01*
X130809524Y-146061905D01*
X130809524Y-145252381D01*
X131190476Y-145252381D02*
X131809524Y-145252381D01*
X131476190Y-145633333D01*
X131619048Y-145633333D01*
X131714286Y-145680952D01*
X131761905Y-145728571D01*
X131809524Y-145823810D01*
X131809524Y-146061905D01*
X131761905Y-146157143D01*
X131714286Y-146204762D01*
X131619048Y-146252381D01*
X131333333Y-146252381D01*
X131238095Y-146204762D01*
X131190476Y-146157143D01*
X190666667Y-129904762D02*
X190809524Y-129952381D01*
X191047620Y-129952381D01*
X191142858Y-129904762D01*
X191190477Y-129857143D01*
X191238096Y-129761905D01*
X191238096Y-129666667D01*
X191190477Y-129571429D01*
X191142858Y-129523810D01*
X191047620Y-129476190D01*
X190857143Y-129428571D01*
X190761905Y-129380952D01*
X190714286Y-129333333D01*
X190666667Y-129238095D01*
X190666667Y-129142857D01*
X190714286Y-129047619D01*
X190761905Y-129000000D01*
X190857143Y-128952381D01*
X191095239Y-128952381D01*
X191238096Y-129000000D01*
X191571429Y-128952381D02*
X191809524Y-129952381D01*
X192000001Y-129238095D01*
X192190477Y-129952381D01*
X192428572Y-128952381D01*
X193333334Y-129952381D02*
X192761905Y-129952381D01*
X193047619Y-129952381D02*
X193047619Y-128952381D01*
X192952381Y-129095238D01*
X192857143Y-129190476D01*
X192761905Y-129238095D01*
X105166667Y-154404762D02*
X105309524Y-154452381D01*
X105547620Y-154452381D01*
X105642858Y-154404762D01*
X105690477Y-154357143D01*
X105738096Y-154261905D01*
X105738096Y-154166667D01*
X105690477Y-154071429D01*
X105642858Y-154023810D01*
X105547620Y-153976190D01*
X105357143Y-153928571D01*
X105261905Y-153880952D01*
X105214286Y-153833333D01*
X105166667Y-153738095D01*
X105166667Y-153642857D01*
X105214286Y-153547619D01*
X105261905Y-153500000D01*
X105357143Y-153452381D01*
X105595239Y-153452381D01*
X105738096Y-153500000D01*
X106071429Y-153452381D02*
X106309524Y-154452381D01*
X106500001Y-153738095D01*
X106690477Y-154452381D01*
X106928572Y-153452381D01*
X107261905Y-153547619D02*
X107309524Y-153500000D01*
X107404762Y-153452381D01*
X107642858Y-153452381D01*
X107738096Y-153500000D01*
X107785715Y-153547619D01*
X107833334Y-153642857D01*
X107833334Y-153738095D01*
X107785715Y-153880952D01*
X107214286Y-154452381D01*
X107833334Y-154452381D01*
X113666667Y-128404762D02*
X113809524Y-128452381D01*
X114047620Y-128452381D01*
X114142858Y-128404762D01*
X114190477Y-128357143D01*
X114238096Y-128261905D01*
X114238096Y-128166667D01*
X114190477Y-128071429D01*
X114142858Y-128023810D01*
X114047620Y-127976190D01*
X113857143Y-127928571D01*
X113761905Y-127880952D01*
X113714286Y-127833333D01*
X113666667Y-127738095D01*
X113666667Y-127642857D01*
X113714286Y-127547619D01*
X113761905Y-127500000D01*
X113857143Y-127452381D01*
X114095239Y-127452381D01*
X114238096Y-127500000D01*
X114571429Y-127452381D02*
X114809524Y-128452381D01*
X115000001Y-127738095D01*
X115190477Y-128452381D01*
X115428572Y-127452381D01*
X115714286Y-127452381D02*
X116333334Y-127452381D01*
X116000000Y-127833333D01*
X116142858Y-127833333D01*
X116238096Y-127880952D01*
X116285715Y-127928571D01*
X116333334Y-128023810D01*
X116333334Y-128261905D01*
X116285715Y-128357143D01*
X116238096Y-128404762D01*
X116142858Y-128452381D01*
X115857143Y-128452381D01*
X115761905Y-128404762D01*
X115714286Y-128357143D01*
M02*
