M48
;DRILL file {KiCad 4.0.6} date Sunday, 07 January 2018 'AMt' 11:42:44
;FORMAT={-:-/ absolute / inch / decimal}
FMAT,2
INCH,TZ
T1C0.016
T2C0.032
T3C0.039
T4C0.040
T5C0.042
T6C0.047
%
G90
G05
M72
T1
X3.8091Y-6.1516
X4.1535Y-5.8071
X4.5669Y-5.0984
X4.7244Y-5.8858
X4.8622Y-5.4528
X4.8622Y-5.7283
X4.9213Y-6.0236
X4.9606Y-5.7283
X4.9803Y-5.4134
X4.9803Y-5.4724
X5.0197Y-5.7283
X5.0591Y-5.4331
X5.0591Y-5.4724
X5.1969Y-5.7283
X5.925Y-5.7
X5.925Y-6.15
X6.15Y-6.3
X6.475Y-5.775
X6.7Y-5.725
X6.7819Y-6.1431
X7.0719Y-5.1969
X7.1Y-5.95
X7.25Y-6.3
X7.325Y-5.45
X7.325Y-5.875
X7.4213Y-5.4331
X7.4213Y-5.6299
X7.575Y-5.05
T2
X7.7Y-5.35
X7.8Y-5.35
X7.9Y-5.35
T4
X3.7764Y-5.0394
X3.8764Y-5.0394
X3.9764Y-5.0394
X4.0764Y-5.0394
X4.1764Y-5.0394
X4.2764Y-5.0394
T5
X7.1411Y-6.05
X7.2081Y-6.05
X7.275Y-6.05
X7.3419Y-6.05
X7.4089Y-6.05
T6
X5.7067Y-5.6
X5.7817Y-5.4
X5.8567Y-5.6
X5.9317Y-5.4
X6.0067Y-5.6
X6.0817Y-5.4
X6.1567Y-5.6
X6.2317Y-5.4
X6.3067Y-5.6
X6.3817Y-5.4
X6.4567Y-5.6
X6.5317Y-5.4
X6.6067Y-5.6
X6.6817Y-5.4
X6.7567Y-5.6
X6.8317Y-5.4
X6.9067Y-5.6
X6.9817Y-5.4
X7.0567Y-5.6
X7.1317Y-5.4
X7.2067Y-5.6
T3
X7.5069Y-5.7744G85X7.5069Y-5.6956
G05
X7.6643Y-5.55G85X7.5857Y-5.55
G05
X7.7431Y-5.7744G85X7.7431Y-5.6956
G05
T0
M30
