G04 #@! TF.FileFunction,Legend,Top*
%FSLAX46Y46*%
G04 Gerber Fmt 4.6, Leading zero omitted, Abs format (unit mm)*
G04 Created by KiCad (PCBNEW 4.0.6) date Saturday, 22 July 2017 'PMt' 21:55:12*
%MOMM*%
%LPD*%
G01*
G04 APERTURE LIST*
%ADD10C,0.100000*%
%ADD11C,0.250000*%
%ADD12C,0.200000*%
%ADD13C,0.300000*%
%ADD14C,0.500000*%
%ADD15C,0.150000*%
%ADD16C,0.381000*%
%ADD17C,0.304800*%
G04 APERTURE END LIST*
D10*
D11*
X182634191Y-147818143D02*
X182586572Y-147865762D01*
X182443715Y-147913381D01*
X182348477Y-147913381D01*
X182205619Y-147865762D01*
X182110381Y-147770524D01*
X182062762Y-147675286D01*
X182015143Y-147484810D01*
X182015143Y-147341952D01*
X182062762Y-147151476D01*
X182110381Y-147056238D01*
X182205619Y-146961000D01*
X182348477Y-146913381D01*
X182443715Y-146913381D01*
X182586572Y-146961000D01*
X182634191Y-147008619D01*
X183491334Y-147913381D02*
X183491334Y-147389571D01*
X183443715Y-147294333D01*
X183348477Y-147246714D01*
X183158000Y-147246714D01*
X183062762Y-147294333D01*
X183491334Y-147865762D02*
X183396096Y-147913381D01*
X183158000Y-147913381D01*
X183062762Y-147865762D01*
X183015143Y-147770524D01*
X183015143Y-147675286D01*
X183062762Y-147580048D01*
X183158000Y-147532429D01*
X183396096Y-147532429D01*
X183491334Y-147484810D01*
X184396096Y-147246714D02*
X184396096Y-147913381D01*
X183967524Y-147246714D02*
X183967524Y-147770524D01*
X184015143Y-147865762D01*
X184110381Y-147913381D01*
X184253239Y-147913381D01*
X184348477Y-147865762D01*
X184396096Y-147818143D01*
X184729429Y-147246714D02*
X185110381Y-147246714D01*
X184872286Y-146913381D02*
X184872286Y-147770524D01*
X184919905Y-147865762D01*
X185015143Y-147913381D01*
X185110381Y-147913381D01*
X185443715Y-147913381D02*
X185443715Y-147246714D01*
X185443715Y-146913381D02*
X185396096Y-146961000D01*
X185443715Y-147008619D01*
X185491334Y-146961000D01*
X185443715Y-146913381D01*
X185443715Y-147008619D01*
X186062762Y-147913381D02*
X185967524Y-147865762D01*
X185919905Y-147818143D01*
X185872286Y-147722905D01*
X185872286Y-147437190D01*
X185919905Y-147341952D01*
X185967524Y-147294333D01*
X186062762Y-147246714D01*
X186205620Y-147246714D01*
X186300858Y-147294333D01*
X186348477Y-147341952D01*
X186396096Y-147437190D01*
X186396096Y-147722905D01*
X186348477Y-147818143D01*
X186300858Y-147865762D01*
X186205620Y-147913381D01*
X186062762Y-147913381D01*
X186824667Y-147246714D02*
X186824667Y-147913381D01*
X186824667Y-147341952D02*
X186872286Y-147294333D01*
X186967524Y-147246714D01*
X187110382Y-147246714D01*
X187205620Y-147294333D01*
X187253239Y-147389571D01*
X187253239Y-147913381D01*
X183467524Y-149663381D02*
X183467524Y-148663381D01*
X183467524Y-149139571D02*
X184038953Y-149139571D01*
X184038953Y-149663381D02*
X184038953Y-148663381D01*
X184705619Y-148663381D02*
X184896096Y-148663381D01*
X184991334Y-148711000D01*
X185086572Y-148806238D01*
X185134191Y-148996714D01*
X185134191Y-149330048D01*
X185086572Y-149520524D01*
X184991334Y-149615762D01*
X184896096Y-149663381D01*
X184705619Y-149663381D01*
X184610381Y-149615762D01*
X184515143Y-149520524D01*
X184467524Y-149330048D01*
X184467524Y-148996714D01*
X184515143Y-148806238D01*
X184610381Y-148711000D01*
X184705619Y-148663381D01*
X185419905Y-148663381D02*
X185991334Y-148663381D01*
X185705619Y-149663381D02*
X185705619Y-148663381D01*
D12*
X176022000Y-157480000D02*
X176784000Y-156718000D01*
X178308000Y-163322000D02*
X179832000Y-161798000D01*
X177038000Y-163322000D02*
X178562000Y-163322000D01*
X179832000Y-160528000D02*
X177038000Y-163322000D01*
X179832000Y-159512000D02*
X179832000Y-160528000D01*
X176022000Y-162814000D02*
X179832000Y-159258000D01*
X176022000Y-162814000D02*
X176022000Y-163068000D01*
X176022000Y-161798000D02*
X176022000Y-162814000D01*
X179832000Y-157988000D02*
X176022000Y-161798000D01*
X179832000Y-156718000D02*
X179832000Y-157988000D01*
X176022000Y-160528000D02*
X179832000Y-156718000D01*
X176022000Y-160274000D02*
X176022000Y-160528000D01*
X176022000Y-159512000D02*
X176022000Y-160274000D01*
X178816000Y-156718000D02*
X176022000Y-159512000D01*
X177800000Y-156718000D02*
X178816000Y-156718000D01*
X176022000Y-158496000D02*
X177800000Y-156718000D01*
X176022000Y-163322000D02*
X179832000Y-163322000D01*
X176022000Y-156718000D02*
X176022000Y-163322000D01*
X179832000Y-156718000D02*
X176022000Y-156718000D01*
X179832000Y-163322000D02*
X179832000Y-156718000D01*
D13*
X133782857Y-145228571D02*
X134640000Y-145228571D01*
X134211429Y-146728571D02*
X134211429Y-145228571D01*
X135711428Y-146657143D02*
X135568571Y-146728571D01*
X135282857Y-146728571D01*
X135140000Y-146657143D01*
X135068571Y-146514286D01*
X135068571Y-145942857D01*
X135140000Y-145800000D01*
X135282857Y-145728571D01*
X135568571Y-145728571D01*
X135711428Y-145800000D01*
X135782857Y-145942857D01*
X135782857Y-146085714D01*
X135068571Y-146228571D01*
X136354285Y-146657143D02*
X136497142Y-146728571D01*
X136782857Y-146728571D01*
X136925714Y-146657143D01*
X136997142Y-146514286D01*
X136997142Y-146442857D01*
X136925714Y-146300000D01*
X136782857Y-146228571D01*
X136568571Y-146228571D01*
X136425714Y-146157143D01*
X136354285Y-146014286D01*
X136354285Y-145942857D01*
X136425714Y-145800000D01*
X136568571Y-145728571D01*
X136782857Y-145728571D01*
X136925714Y-145800000D01*
X137425714Y-145728571D02*
X137997143Y-145728571D01*
X137640000Y-145228571D02*
X137640000Y-146514286D01*
X137711428Y-146657143D01*
X137854286Y-146728571D01*
X137997143Y-146728571D01*
D11*
X105866310Y-153455714D02*
X105765119Y-154265238D01*
X105705595Y-154360476D01*
X105652024Y-154408095D01*
X105550833Y-154455714D01*
X105407976Y-154455714D01*
X105318690Y-154408095D01*
X105788929Y-154074762D02*
X105687738Y-154122381D01*
X105497261Y-154122381D01*
X105407976Y-154074762D01*
X105366309Y-154027143D01*
X105330595Y-153931905D01*
X105366309Y-153646190D01*
X105425833Y-153550952D01*
X105479404Y-153503333D01*
X105580595Y-153455714D01*
X105771072Y-153455714D01*
X105860357Y-153503333D01*
X106259166Y-154122381D02*
X106342500Y-153455714D01*
X106384166Y-153122381D02*
X106330595Y-153170000D01*
X106372262Y-153217619D01*
X106425833Y-153170000D01*
X106384166Y-153122381D01*
X106372262Y-153217619D01*
X106675833Y-153455714D02*
X107056785Y-153455714D01*
X106860356Y-153122381D02*
X106753214Y-153979524D01*
X106788928Y-154074762D01*
X106878213Y-154122381D01*
X106973451Y-154122381D01*
X107306785Y-154122381D02*
X107431785Y-153122381D01*
X107735357Y-154122381D02*
X107800834Y-153598571D01*
X107765119Y-153503333D01*
X107675834Y-153455714D01*
X107532976Y-153455714D01*
X107431785Y-153503333D01*
X107378214Y-153550952D01*
X108723453Y-153455714D02*
X108640119Y-154122381D01*
X108294881Y-153455714D02*
X108229405Y-153979524D01*
X108265119Y-154074762D01*
X108354404Y-154122381D01*
X108497262Y-154122381D01*
X108598453Y-154074762D01*
X108652024Y-154027143D01*
X109116309Y-154122381D02*
X109241309Y-153122381D01*
X109193690Y-153503333D02*
X109294881Y-153455714D01*
X109485358Y-153455714D01*
X109574643Y-153503333D01*
X109616310Y-153550952D01*
X109652024Y-153646190D01*
X109616310Y-153931905D01*
X109556786Y-154027143D01*
X109503215Y-154074762D01*
X109402024Y-154122381D01*
X109211547Y-154122381D01*
X109122262Y-154074762D01*
X110032976Y-154027143D02*
X110074643Y-154074762D01*
X110021071Y-154122381D01*
X109979405Y-154074762D01*
X110032976Y-154027143D01*
X110021071Y-154122381D01*
X110931786Y-154074762D02*
X110830595Y-154122381D01*
X110640118Y-154122381D01*
X110550833Y-154074762D01*
X110509166Y-154027143D01*
X110473452Y-153931905D01*
X110509166Y-153646190D01*
X110568690Y-153550952D01*
X110622261Y-153503333D01*
X110723452Y-153455714D01*
X110913929Y-153455714D01*
X111003214Y-153503333D01*
X111497261Y-154122381D02*
X111407976Y-154074762D01*
X111366309Y-154027143D01*
X111330595Y-153931905D01*
X111366309Y-153646190D01*
X111425833Y-153550952D01*
X111479404Y-153503333D01*
X111580595Y-153455714D01*
X111723453Y-153455714D01*
X111812738Y-153503333D01*
X111854405Y-153550952D01*
X111890119Y-153646190D01*
X111854405Y-153931905D01*
X111794881Y-154027143D01*
X111741310Y-154074762D01*
X111640119Y-154122381D01*
X111497261Y-154122381D01*
X112259166Y-154122381D02*
X112342500Y-153455714D01*
X112330595Y-153550952D02*
X112384166Y-153503333D01*
X112485357Y-153455714D01*
X112628215Y-153455714D01*
X112717500Y-153503333D01*
X112753215Y-153598571D01*
X112687738Y-154122381D01*
X112753215Y-153598571D02*
X112812738Y-153503333D01*
X112913929Y-153455714D01*
X113056786Y-153455714D01*
X113146071Y-153503333D01*
X113181786Y-153598571D01*
X113116309Y-154122381D01*
X114437738Y-153074762D02*
X113419880Y-154360476D01*
X115074643Y-154074762D02*
X114973452Y-154122381D01*
X114782975Y-154122381D01*
X114693690Y-154074762D01*
X114652023Y-154027143D01*
X114616309Y-153931905D01*
X114652023Y-153646190D01*
X114711547Y-153550952D01*
X114765118Y-153503333D01*
X114866309Y-153455714D01*
X115056786Y-153455714D01*
X115146071Y-153503333D01*
X115497261Y-154122381D02*
X115622261Y-153122381D01*
X115925833Y-154122381D02*
X115991310Y-153598571D01*
X115955595Y-153503333D01*
X115866310Y-153455714D01*
X115723452Y-153455714D01*
X115622261Y-153503333D01*
X115568690Y-153550952D01*
X116830595Y-154122381D02*
X116896072Y-153598571D01*
X116860357Y-153503333D01*
X116771072Y-153455714D01*
X116580595Y-153455714D01*
X116479404Y-153503333D01*
X116836548Y-154074762D02*
X116735357Y-154122381D01*
X116497261Y-154122381D01*
X116407976Y-154074762D01*
X116372262Y-153979524D01*
X116384166Y-153884286D01*
X116443690Y-153789048D01*
X116544880Y-153741429D01*
X116782976Y-153741429D01*
X116884167Y-153693810D01*
X117306785Y-154122381D02*
X117390119Y-153455714D01*
X117366309Y-153646190D02*
X117425833Y-153550952D01*
X117479404Y-153503333D01*
X117580595Y-153455714D01*
X117675834Y-153455714D01*
X118360358Y-154074762D02*
X118259167Y-154122381D01*
X118068690Y-154122381D01*
X117979405Y-154074762D01*
X117937738Y-154027143D01*
X117902024Y-153931905D01*
X117937738Y-153646190D01*
X117997262Y-153550952D01*
X118050833Y-153503333D01*
X118152024Y-153455714D01*
X118342501Y-153455714D01*
X118431786Y-153503333D01*
X118925833Y-154122381D02*
X118836548Y-154074762D01*
X118794881Y-154027143D01*
X118759167Y-153931905D01*
X118794881Y-153646190D01*
X118854405Y-153550952D01*
X118907976Y-153503333D01*
X119009167Y-153455714D01*
X119152025Y-153455714D01*
X119241310Y-153503333D01*
X119282977Y-153550952D01*
X119318691Y-153646190D01*
X119282977Y-153931905D01*
X119223453Y-154027143D01*
X119169882Y-154074762D01*
X119068691Y-154122381D01*
X118925833Y-154122381D01*
X119830595Y-154122381D02*
X119741310Y-154074762D01*
X119705596Y-153979524D01*
X119812738Y-153122381D01*
X120598454Y-154074762D02*
X120497263Y-154122381D01*
X120306786Y-154122381D01*
X120217501Y-154074762D01*
X120181787Y-153979524D01*
X120229406Y-153598571D01*
X120288929Y-153503333D01*
X120390120Y-153455714D01*
X120580597Y-153455714D01*
X120669882Y-153503333D01*
X120705597Y-153598571D01*
X120693692Y-153693810D01*
X120205596Y-153789048D01*
D14*
X104860358Y-152487143D02*
X105235358Y-149487143D01*
X105967501Y-151630000D01*
X107235358Y-149487143D01*
X106860358Y-152487143D01*
X108288929Y-152487143D02*
X108538929Y-150487143D01*
X108663929Y-149487143D02*
X108503215Y-149630000D01*
X108628215Y-149772857D01*
X108788929Y-149630000D01*
X108663929Y-149487143D01*
X108628215Y-149772857D01*
X109967500Y-150487143D02*
X109717500Y-152487143D01*
X109931786Y-150772857D02*
X110092500Y-150630000D01*
X110396071Y-150487143D01*
X110824643Y-150487143D01*
X111092500Y-150630000D01*
X111199643Y-150915714D01*
X111003214Y-152487143D01*
X112431786Y-152487143D02*
X112681786Y-150487143D01*
X112806786Y-149487143D02*
X112646072Y-149630000D01*
X112771072Y-149772857D01*
X112931786Y-149630000D01*
X112806786Y-149487143D01*
X112771072Y-149772857D01*
X115788928Y-149630000D02*
X115521071Y-149487143D01*
X115092500Y-149487143D01*
X114646071Y-149630000D01*
X114324643Y-149915714D01*
X114146071Y-150201429D01*
X113931786Y-150772857D01*
X113878214Y-151201429D01*
X113949643Y-151772857D01*
X114056786Y-152058571D01*
X114306785Y-152344286D01*
X114717500Y-152487143D01*
X115003214Y-152487143D01*
X115449642Y-152344286D01*
X115610356Y-152201429D01*
X115735356Y-151201429D01*
X115163928Y-151201429D01*
X118396071Y-150487143D02*
X118146071Y-152487143D01*
X117110357Y-150487143D02*
X116913929Y-152058571D01*
X117021071Y-152344286D01*
X117288928Y-152487143D01*
X117717500Y-152487143D01*
X118021071Y-152344286D01*
X118181785Y-152201429D01*
X119824643Y-150487143D02*
X119574643Y-152487143D01*
X119788929Y-150772857D02*
X119949643Y-150630000D01*
X120253214Y-150487143D01*
X120681786Y-150487143D01*
X120949643Y-150630000D01*
X121056786Y-150915714D01*
X120860357Y-152487143D01*
D13*
X105208572Y-147363571D02*
X105208572Y-145863571D01*
X105780000Y-145863571D01*
X105922858Y-145935000D01*
X105994286Y-146006429D01*
X106065715Y-146149286D01*
X106065715Y-146363571D01*
X105994286Y-146506429D01*
X105922858Y-146577857D01*
X105780000Y-146649286D01*
X105208572Y-146649286D01*
X106922858Y-147363571D02*
X106780000Y-147292143D01*
X106708572Y-147149286D01*
X106708572Y-145863571D01*
X108137143Y-147363571D02*
X108137143Y-146577857D01*
X108065714Y-146435000D01*
X107922857Y-146363571D01*
X107637143Y-146363571D01*
X107494286Y-146435000D01*
X108137143Y-147292143D02*
X107994286Y-147363571D01*
X107637143Y-147363571D01*
X107494286Y-147292143D01*
X107422857Y-147149286D01*
X107422857Y-147006429D01*
X107494286Y-146863571D01*
X107637143Y-146792143D01*
X107994286Y-146792143D01*
X108137143Y-146720714D01*
X108708572Y-146363571D02*
X109065715Y-147363571D01*
X109422857Y-146363571D02*
X109065715Y-147363571D01*
X108922857Y-147720714D01*
X108851429Y-147792143D01*
X108708572Y-147863571D01*
X110565714Y-147292143D02*
X110422857Y-147363571D01*
X110137143Y-147363571D01*
X109994286Y-147292143D01*
X109922857Y-147149286D01*
X109922857Y-146577857D01*
X109994286Y-146435000D01*
X110137143Y-146363571D01*
X110422857Y-146363571D01*
X110565714Y-146435000D01*
X110637143Y-146577857D01*
X110637143Y-146720714D01*
X109922857Y-146863571D01*
X111280000Y-147363571D02*
X111280000Y-146363571D01*
X111280000Y-146649286D02*
X111351428Y-146506429D01*
X111422857Y-146435000D01*
X111565714Y-146363571D01*
X111708571Y-146363571D01*
X113279999Y-146006429D02*
X113351428Y-145935000D01*
X113494285Y-145863571D01*
X113851428Y-145863571D01*
X113994285Y-145935000D01*
X114065714Y-146006429D01*
X114137142Y-146149286D01*
X114137142Y-146292143D01*
X114065714Y-146506429D01*
X113208571Y-147363571D01*
X114137142Y-147363571D01*
X115922856Y-147363571D02*
X115922856Y-145863571D01*
X116637142Y-146363571D02*
X116637142Y-147363571D01*
X116637142Y-146506429D02*
X116708570Y-146435000D01*
X116851428Y-146363571D01*
X117065713Y-146363571D01*
X117208570Y-146435000D01*
X117279999Y-146577857D01*
X117279999Y-147363571D01*
X117994285Y-146363571D02*
X117994285Y-147863571D01*
X117994285Y-146435000D02*
X118137142Y-146363571D01*
X118422856Y-146363571D01*
X118565713Y-146435000D01*
X118637142Y-146506429D01*
X118708571Y-146649286D01*
X118708571Y-147077857D01*
X118637142Y-147220714D01*
X118565713Y-147292143D01*
X118422856Y-147363571D01*
X118137142Y-147363571D01*
X117994285Y-147292143D01*
X119994285Y-146363571D02*
X119994285Y-147363571D01*
X119351428Y-146363571D02*
X119351428Y-147149286D01*
X119422856Y-147292143D01*
X119565714Y-147363571D01*
X119779999Y-147363571D01*
X119922856Y-147292143D01*
X119994285Y-147220714D01*
X120494285Y-146363571D02*
X121065714Y-146363571D01*
X120708571Y-145863571D02*
X120708571Y-147149286D01*
X120779999Y-147292143D01*
X120922857Y-147363571D01*
X121065714Y-147363571D01*
X105208572Y-136568571D02*
X105208572Y-135068571D01*
X105780000Y-135068571D01*
X105922858Y-135140000D01*
X105994286Y-135211429D01*
X106065715Y-135354286D01*
X106065715Y-135568571D01*
X105994286Y-135711429D01*
X105922858Y-135782857D01*
X105780000Y-135854286D01*
X105208572Y-135854286D01*
X106922858Y-136568571D02*
X106780000Y-136497143D01*
X106708572Y-136354286D01*
X106708572Y-135068571D01*
X108137143Y-136568571D02*
X108137143Y-135782857D01*
X108065714Y-135640000D01*
X107922857Y-135568571D01*
X107637143Y-135568571D01*
X107494286Y-135640000D01*
X108137143Y-136497143D02*
X107994286Y-136568571D01*
X107637143Y-136568571D01*
X107494286Y-136497143D01*
X107422857Y-136354286D01*
X107422857Y-136211429D01*
X107494286Y-136068571D01*
X107637143Y-135997143D01*
X107994286Y-135997143D01*
X108137143Y-135925714D01*
X108708572Y-135568571D02*
X109065715Y-136568571D01*
X109422857Y-135568571D02*
X109065715Y-136568571D01*
X108922857Y-136925714D01*
X108851429Y-136997143D01*
X108708572Y-137068571D01*
X110565714Y-136497143D02*
X110422857Y-136568571D01*
X110137143Y-136568571D01*
X109994286Y-136497143D01*
X109922857Y-136354286D01*
X109922857Y-135782857D01*
X109994286Y-135640000D01*
X110137143Y-135568571D01*
X110422857Y-135568571D01*
X110565714Y-135640000D01*
X110637143Y-135782857D01*
X110637143Y-135925714D01*
X109922857Y-136068571D01*
X111280000Y-136568571D02*
X111280000Y-135568571D01*
X111280000Y-135854286D02*
X111351428Y-135711429D01*
X111422857Y-135640000D01*
X111565714Y-135568571D01*
X111708571Y-135568571D01*
X114137142Y-136568571D02*
X113279999Y-136568571D01*
X113708571Y-136568571D02*
X113708571Y-135068571D01*
X113565714Y-135282857D01*
X113422856Y-135425714D01*
X113279999Y-135497143D01*
X115922856Y-136568571D02*
X115922856Y-135068571D01*
X116637142Y-135568571D02*
X116637142Y-136568571D01*
X116637142Y-135711429D02*
X116708570Y-135640000D01*
X116851428Y-135568571D01*
X117065713Y-135568571D01*
X117208570Y-135640000D01*
X117279999Y-135782857D01*
X117279999Y-136568571D01*
X117994285Y-135568571D02*
X117994285Y-137068571D01*
X117994285Y-135640000D02*
X118137142Y-135568571D01*
X118422856Y-135568571D01*
X118565713Y-135640000D01*
X118637142Y-135711429D01*
X118708571Y-135854286D01*
X118708571Y-136282857D01*
X118637142Y-136425714D01*
X118565713Y-136497143D01*
X118422856Y-136568571D01*
X118137142Y-136568571D01*
X117994285Y-136497143D01*
X119994285Y-135568571D02*
X119994285Y-136568571D01*
X119351428Y-135568571D02*
X119351428Y-136354286D01*
X119422856Y-136497143D01*
X119565714Y-136568571D01*
X119779999Y-136568571D01*
X119922856Y-136497143D01*
X119994285Y-136425714D01*
X120494285Y-135568571D02*
X121065714Y-135568571D01*
X120708571Y-135068571D02*
X120708571Y-136354286D01*
X120779999Y-136497143D01*
X120922857Y-136568571D01*
X121065714Y-136568571D01*
X193103572Y-155047143D02*
X194246429Y-155047143D01*
D12*
X197985923Y-155507961D02*
G75*
G02X195580000Y-154940000I-1135923J567961D01*
G01*
X197985923Y-154372039D02*
G75*
G03X195580000Y-154940000I-1135923J-567961D01*
G01*
D13*
X200088572Y-155047143D02*
X201231429Y-155047143D01*
X200660000Y-155618571D02*
X200660000Y-154475714D01*
D12*
X196850000Y-154940000D02*
X199390000Y-154940000D01*
D13*
X195921429Y-152443571D02*
X195064286Y-152443571D01*
X195492858Y-152443571D02*
X195492858Y-150943571D01*
X195350001Y-151157857D01*
X195207143Y-151300714D01*
X195064286Y-151372143D01*
X196492857Y-151086429D02*
X196564286Y-151015000D01*
X196707143Y-150943571D01*
X197064286Y-150943571D01*
X197207143Y-151015000D01*
X197278572Y-151086429D01*
X197350000Y-151229286D01*
X197350000Y-151372143D01*
X197278572Y-151586429D01*
X196421429Y-152443571D01*
X197350000Y-152443571D01*
X197778571Y-150943571D02*
X198278571Y-152443571D01*
X198778571Y-150943571D01*
D15*
X157725000Y-150130000D02*
X157725000Y-152130000D01*
X159775000Y-152130000D02*
X159775000Y-150130000D01*
X154550000Y-150130000D02*
X154550000Y-152130000D01*
X156600000Y-152130000D02*
X156600000Y-150130000D01*
X145025000Y-150130000D02*
X145025000Y-152130000D01*
X147075000Y-152130000D02*
X147075000Y-150130000D01*
X138065000Y-147535000D02*
X133565000Y-147535000D01*
X139315000Y-151535000D02*
X139315000Y-150035000D01*
X133565000Y-154035000D02*
X138065000Y-154035000D01*
X132315000Y-150035000D02*
X132315000Y-151535000D01*
X200875900Y-150169880D02*
X200875900Y-141168120D01*
X204376020Y-150169880D02*
X204376020Y-141168120D01*
X204376020Y-141168120D02*
X189875160Y-141168120D01*
X189875160Y-141168120D02*
X189875160Y-150169880D01*
X189875160Y-150169880D02*
X204376020Y-150169880D01*
X179685000Y-145170000D02*
X179685000Y-155370000D01*
X189885000Y-145170000D02*
X179685000Y-145170000D01*
X189885000Y-155370000D02*
X189885000Y-145170000D01*
X179685000Y-155370000D02*
X189885000Y-155370000D01*
D16*
X189400180Y-136357360D02*
X189400180Y-133309360D01*
X138600180Y-136357360D02*
X138600180Y-133309360D01*
X187368180Y-126451360D02*
X140124180Y-126451360D01*
X191051180Y-136357360D02*
X191051180Y-133309360D01*
X136949180Y-136357360D02*
X136949180Y-133309360D01*
X187368180Y-136357360D02*
X187368180Y-143469360D01*
X187368180Y-143469360D02*
X140124180Y-143469360D01*
X140124180Y-143469360D02*
X140124180Y-136357360D01*
X191051180Y-136357360D02*
X136949180Y-136357360D01*
X136949180Y-133309360D02*
X191051180Y-133309360D01*
X187368180Y-126451360D02*
X187368180Y-133309360D01*
X140124180Y-126451360D02*
X140124180Y-133309360D01*
D15*
X173550000Y-152035000D02*
X173550000Y-150035000D01*
X175700000Y-150035000D02*
X175700000Y-152035000D01*
X160850000Y-152035000D02*
X160850000Y-150035000D01*
X163000000Y-150035000D02*
X163000000Y-152035000D01*
X151325000Y-152130000D02*
X151325000Y-150130000D01*
X153475000Y-150130000D02*
X153475000Y-152130000D01*
X141800000Y-152130000D02*
X141800000Y-150130000D01*
X143950000Y-150130000D02*
X143950000Y-152130000D01*
X165295000Y-152130000D02*
X165295000Y-150130000D01*
X167445000Y-150130000D02*
X167445000Y-152130000D01*
X169740000Y-152130000D02*
X169740000Y-150130000D01*
X171890000Y-150130000D02*
X171890000Y-152130000D01*
X199025000Y-127195000D02*
X201025000Y-127195000D01*
X201025000Y-129345000D02*
X199025000Y-129345000D01*
X201676000Y-137922000D02*
X201676000Y-136652000D01*
X200888600Y-137172700D02*
X200926700Y-137426700D01*
X200926700Y-137426700D02*
X201104500Y-137706100D01*
X201104500Y-137706100D02*
X201422000Y-137922000D01*
X201422000Y-137922000D02*
X201866500Y-137934700D01*
X201866500Y-137934700D02*
X202222100Y-137731500D01*
X202222100Y-137731500D02*
X202399900Y-137439400D01*
X202399900Y-137439400D02*
X202450700Y-137121900D01*
X202450700Y-137121900D02*
X202349100Y-136715500D01*
X202349100Y-136715500D02*
X202006200Y-136461500D01*
X202006200Y-136461500D02*
X201828400Y-136372600D01*
X193294000Y-134112000D02*
X202946000Y-134112000D01*
X202946000Y-137160000D02*
X202946000Y-138430000D01*
X202946000Y-138430000D02*
X193294000Y-138430000D01*
X193294000Y-138430000D02*
X193294000Y-133350000D01*
X202946000Y-133350000D02*
X202946000Y-135890000D01*
X202946000Y-135890000D02*
X202946000Y-137160000D01*
X199025000Y-130370000D02*
X201025000Y-130370000D01*
X201025000Y-132520000D02*
X199025000Y-132520000D01*
X178875000Y-150035000D02*
X178875000Y-152035000D01*
X176725000Y-152035000D02*
X176725000Y-150035000D01*
X94107000Y-127762000D02*
X94107000Y-134112000D01*
X94107000Y-134112000D02*
X131953000Y-134112000D01*
X131953000Y-134112000D02*
X131953000Y-127762000D01*
X131953000Y-127762000D02*
X94107000Y-127762000D01*
X94107000Y-138684000D02*
X94107000Y-145034000D01*
X94107000Y-145034000D02*
X131953000Y-145034000D01*
X131953000Y-145034000D02*
X131953000Y-138684000D01*
X131953000Y-138684000D02*
X94107000Y-138684000D01*
X158583334Y-155932143D02*
X158535715Y-155979762D01*
X158392858Y-156027381D01*
X158297620Y-156027381D01*
X158154762Y-155979762D01*
X158059524Y-155884524D01*
X158011905Y-155789286D01*
X157964286Y-155598810D01*
X157964286Y-155455952D01*
X158011905Y-155265476D01*
X158059524Y-155170238D01*
X158154762Y-155075000D01*
X158297620Y-155027381D01*
X158392858Y-155027381D01*
X158535715Y-155075000D01*
X158583334Y-155122619D01*
X159535715Y-156027381D02*
X158964286Y-156027381D01*
X159250000Y-156027381D02*
X159250000Y-155027381D01*
X159154762Y-155170238D01*
X159059524Y-155265476D01*
X158964286Y-155313095D01*
X155408334Y-155932143D02*
X155360715Y-155979762D01*
X155217858Y-156027381D01*
X155122620Y-156027381D01*
X154979762Y-155979762D01*
X154884524Y-155884524D01*
X154836905Y-155789286D01*
X154789286Y-155598810D01*
X154789286Y-155455952D01*
X154836905Y-155265476D01*
X154884524Y-155170238D01*
X154979762Y-155075000D01*
X155122620Y-155027381D01*
X155217858Y-155027381D01*
X155360715Y-155075000D01*
X155408334Y-155122619D01*
X155789286Y-155122619D02*
X155836905Y-155075000D01*
X155932143Y-155027381D01*
X156170239Y-155027381D01*
X156265477Y-155075000D01*
X156313096Y-155122619D01*
X156360715Y-155217857D01*
X156360715Y-155313095D01*
X156313096Y-155455952D01*
X155741667Y-156027381D01*
X156360715Y-156027381D01*
X145883334Y-155932143D02*
X145835715Y-155979762D01*
X145692858Y-156027381D01*
X145597620Y-156027381D01*
X145454762Y-155979762D01*
X145359524Y-155884524D01*
X145311905Y-155789286D01*
X145264286Y-155598810D01*
X145264286Y-155455952D01*
X145311905Y-155265476D01*
X145359524Y-155170238D01*
X145454762Y-155075000D01*
X145597620Y-155027381D01*
X145692858Y-155027381D01*
X145835715Y-155075000D01*
X145883334Y-155122619D01*
X146216667Y-155027381D02*
X146835715Y-155027381D01*
X146502381Y-155408333D01*
X146645239Y-155408333D01*
X146740477Y-155455952D01*
X146788096Y-155503571D01*
X146835715Y-155598810D01*
X146835715Y-155836905D01*
X146788096Y-155932143D01*
X146740477Y-155979762D01*
X146645239Y-156027381D01*
X146359524Y-156027381D01*
X146264286Y-155979762D01*
X146216667Y-155932143D01*
X135556667Y-149947381D02*
X135556667Y-150661667D01*
X135509047Y-150804524D01*
X135413809Y-150899762D01*
X135270952Y-150947381D01*
X135175714Y-150947381D01*
X135985238Y-150042619D02*
X136032857Y-149995000D01*
X136128095Y-149947381D01*
X136366191Y-149947381D01*
X136461429Y-149995000D01*
X136509048Y-150042619D01*
X136556667Y-150137857D01*
X136556667Y-150233095D01*
X136509048Y-150375952D01*
X135937619Y-150947381D01*
X136556667Y-150947381D01*
X199691667Y-144867381D02*
X199691667Y-145581667D01*
X199644047Y-145724524D01*
X199548809Y-145819762D01*
X199405952Y-145867381D01*
X199310714Y-145867381D01*
X200644048Y-144867381D02*
X200167857Y-144867381D01*
X200120238Y-145343571D01*
X200167857Y-145295952D01*
X200263095Y-145248333D01*
X200501191Y-145248333D01*
X200596429Y-145295952D01*
X200644048Y-145343571D01*
X200691667Y-145438810D01*
X200691667Y-145676905D01*
X200644048Y-145772143D01*
X200596429Y-145819762D01*
X200501191Y-145867381D01*
X200263095Y-145867381D01*
X200167857Y-145819762D01*
X200120238Y-145772143D01*
X184451667Y-151344381D02*
X184451667Y-152058667D01*
X184404047Y-152201524D01*
X184308809Y-152296762D01*
X184165952Y-152344381D01*
X184070714Y-152344381D01*
X185356429Y-151344381D02*
X185165952Y-151344381D01*
X185070714Y-151392000D01*
X185023095Y-151439619D01*
X184927857Y-151582476D01*
X184880238Y-151772952D01*
X184880238Y-152153905D01*
X184927857Y-152249143D01*
X184975476Y-152296762D01*
X185070714Y-152344381D01*
X185261191Y-152344381D01*
X185356429Y-152296762D01*
X185404048Y-152249143D01*
X185451667Y-152153905D01*
X185451667Y-151915810D01*
X185404048Y-151820571D01*
X185356429Y-151772952D01*
X185261191Y-151725333D01*
X185070714Y-151725333D01*
X184975476Y-151772952D01*
X184927857Y-151820571D01*
X184880238Y-151915810D01*
D17*
X163492180Y-129025469D02*
X163492180Y-130114040D01*
X163419608Y-130331754D01*
X163274465Y-130476897D01*
X163056751Y-130549469D01*
X162911608Y-130549469D01*
X164072751Y-129025469D02*
X165088751Y-129025469D01*
X164435608Y-130549469D01*
X160807037Y-145483217D02*
X161024751Y-145555789D01*
X161387608Y-145555789D01*
X161532751Y-145483217D01*
X161605322Y-145410646D01*
X161677894Y-145265503D01*
X161677894Y-145120360D01*
X161605322Y-144975217D01*
X161532751Y-144902646D01*
X161387608Y-144830074D01*
X161097322Y-144757503D01*
X160952180Y-144684931D01*
X160879608Y-144612360D01*
X160807037Y-144467217D01*
X160807037Y-144322074D01*
X160879608Y-144176931D01*
X160952180Y-144104360D01*
X161097322Y-144031789D01*
X161460180Y-144031789D01*
X161677894Y-144104360D01*
X163201894Y-145410646D02*
X163129323Y-145483217D01*
X162911609Y-145555789D01*
X162766466Y-145555789D01*
X162548751Y-145483217D01*
X162403609Y-145338074D01*
X162331037Y-145192931D01*
X162258466Y-144902646D01*
X162258466Y-144684931D01*
X162331037Y-144394646D01*
X162403609Y-144249503D01*
X162548751Y-144104360D01*
X162766466Y-144031789D01*
X162911609Y-144031789D01*
X163129323Y-144104360D01*
X163201894Y-144176931D01*
X163782466Y-145120360D02*
X164508180Y-145120360D01*
X163637323Y-145555789D02*
X164145323Y-144031789D01*
X164653323Y-145555789D01*
X166032180Y-145555789D02*
X165524180Y-144830074D01*
X165161323Y-145555789D02*
X165161323Y-144031789D01*
X165741895Y-144031789D01*
X165887037Y-144104360D01*
X165959609Y-144176931D01*
X166032180Y-144322074D01*
X166032180Y-144539789D01*
X165959609Y-144684931D01*
X165887037Y-144757503D01*
X165741895Y-144830074D01*
X165161323Y-144830074D01*
X166467609Y-144031789D02*
X167338466Y-144031789D01*
X166903037Y-145555789D02*
X166903037Y-144031789D01*
D15*
X174458334Y-156027381D02*
X174125000Y-155551190D01*
X173886905Y-156027381D02*
X173886905Y-155027381D01*
X174267858Y-155027381D01*
X174363096Y-155075000D01*
X174410715Y-155122619D01*
X174458334Y-155217857D01*
X174458334Y-155360714D01*
X174410715Y-155455952D01*
X174363096Y-155503571D01*
X174267858Y-155551190D01*
X173886905Y-155551190D01*
X175410715Y-156027381D02*
X174839286Y-156027381D01*
X175125000Y-156027381D02*
X175125000Y-155027381D01*
X175029762Y-155170238D01*
X174934524Y-155265476D01*
X174839286Y-155313095D01*
X161758334Y-156027381D02*
X161425000Y-155551190D01*
X161186905Y-156027381D02*
X161186905Y-155027381D01*
X161567858Y-155027381D01*
X161663096Y-155075000D01*
X161710715Y-155122619D01*
X161758334Y-155217857D01*
X161758334Y-155360714D01*
X161710715Y-155455952D01*
X161663096Y-155503571D01*
X161567858Y-155551190D01*
X161186905Y-155551190D01*
X162139286Y-155122619D02*
X162186905Y-155075000D01*
X162282143Y-155027381D01*
X162520239Y-155027381D01*
X162615477Y-155075000D01*
X162663096Y-155122619D01*
X162710715Y-155217857D01*
X162710715Y-155313095D01*
X162663096Y-155455952D01*
X162091667Y-156027381D01*
X162710715Y-156027381D01*
X152233334Y-156027381D02*
X151900000Y-155551190D01*
X151661905Y-156027381D02*
X151661905Y-155027381D01*
X152042858Y-155027381D01*
X152138096Y-155075000D01*
X152185715Y-155122619D01*
X152233334Y-155217857D01*
X152233334Y-155360714D01*
X152185715Y-155455952D01*
X152138096Y-155503571D01*
X152042858Y-155551190D01*
X151661905Y-155551190D01*
X152566667Y-155027381D02*
X153185715Y-155027381D01*
X152852381Y-155408333D01*
X152995239Y-155408333D01*
X153090477Y-155455952D01*
X153138096Y-155503571D01*
X153185715Y-155598810D01*
X153185715Y-155836905D01*
X153138096Y-155932143D01*
X153090477Y-155979762D01*
X152995239Y-156027381D01*
X152709524Y-156027381D01*
X152614286Y-155979762D01*
X152566667Y-155932143D01*
X142708334Y-156027381D02*
X142375000Y-155551190D01*
X142136905Y-156027381D02*
X142136905Y-155027381D01*
X142517858Y-155027381D01*
X142613096Y-155075000D01*
X142660715Y-155122619D01*
X142708334Y-155217857D01*
X142708334Y-155360714D01*
X142660715Y-155455952D01*
X142613096Y-155503571D01*
X142517858Y-155551190D01*
X142136905Y-155551190D01*
X143565477Y-155360714D02*
X143565477Y-156027381D01*
X143327381Y-154979762D02*
X143089286Y-155694048D01*
X143708334Y-155694048D01*
X166203334Y-156027381D02*
X165870000Y-155551190D01*
X165631905Y-156027381D02*
X165631905Y-155027381D01*
X166012858Y-155027381D01*
X166108096Y-155075000D01*
X166155715Y-155122619D01*
X166203334Y-155217857D01*
X166203334Y-155360714D01*
X166155715Y-155455952D01*
X166108096Y-155503571D01*
X166012858Y-155551190D01*
X165631905Y-155551190D01*
X167108096Y-155027381D02*
X166631905Y-155027381D01*
X166584286Y-155503571D01*
X166631905Y-155455952D01*
X166727143Y-155408333D01*
X166965239Y-155408333D01*
X167060477Y-155455952D01*
X167108096Y-155503571D01*
X167155715Y-155598810D01*
X167155715Y-155836905D01*
X167108096Y-155932143D01*
X167060477Y-155979762D01*
X166965239Y-156027381D01*
X166727143Y-156027381D01*
X166631905Y-155979762D01*
X166584286Y-155932143D01*
X170648334Y-156027381D02*
X170315000Y-155551190D01*
X170076905Y-156027381D02*
X170076905Y-155027381D01*
X170457858Y-155027381D01*
X170553096Y-155075000D01*
X170600715Y-155122619D01*
X170648334Y-155217857D01*
X170648334Y-155360714D01*
X170600715Y-155455952D01*
X170553096Y-155503571D01*
X170457858Y-155551190D01*
X170076905Y-155551190D01*
X171505477Y-155027381D02*
X171315000Y-155027381D01*
X171219762Y-155075000D01*
X171172143Y-155122619D01*
X171076905Y-155265476D01*
X171029286Y-155455952D01*
X171029286Y-155836905D01*
X171076905Y-155932143D01*
X171124524Y-155979762D01*
X171219762Y-156027381D01*
X171410239Y-156027381D01*
X171505477Y-155979762D01*
X171553096Y-155932143D01*
X171600715Y-155836905D01*
X171600715Y-155598810D01*
X171553096Y-155503571D01*
X171505477Y-155455952D01*
X171410239Y-155408333D01*
X171219762Y-155408333D01*
X171124524Y-155455952D01*
X171076905Y-155503571D01*
X171029286Y-155598810D01*
X194778334Y-128722381D02*
X194445000Y-128246190D01*
X194206905Y-128722381D02*
X194206905Y-127722381D01*
X194587858Y-127722381D01*
X194683096Y-127770000D01*
X194730715Y-127817619D01*
X194778334Y-127912857D01*
X194778334Y-128055714D01*
X194730715Y-128150952D01*
X194683096Y-128198571D01*
X194587858Y-128246190D01*
X194206905Y-128246190D01*
X195111667Y-127722381D02*
X195778334Y-127722381D01*
X195349762Y-128722381D01*
X190952381Y-136056666D02*
X190476190Y-136390000D01*
X190952381Y-136628095D02*
X189952381Y-136628095D01*
X189952381Y-136247142D01*
X190000000Y-136151904D01*
X190047619Y-136104285D01*
X190142857Y-136056666D01*
X190285714Y-136056666D01*
X190380952Y-136104285D01*
X190428571Y-136151904D01*
X190476190Y-136247142D01*
X190476190Y-136628095D01*
X190380952Y-135485238D02*
X190333333Y-135580476D01*
X190285714Y-135628095D01*
X190190476Y-135675714D01*
X190142857Y-135675714D01*
X190047619Y-135628095D01*
X190000000Y-135580476D01*
X189952381Y-135485238D01*
X189952381Y-135294761D01*
X190000000Y-135199523D01*
X190047619Y-135151904D01*
X190142857Y-135104285D01*
X190190476Y-135104285D01*
X190285714Y-135151904D01*
X190333333Y-135199523D01*
X190380952Y-135294761D01*
X190380952Y-135485238D01*
X190428571Y-135580476D01*
X190476190Y-135628095D01*
X190571429Y-135675714D01*
X190761905Y-135675714D01*
X190857143Y-135628095D01*
X190904762Y-135580476D01*
X190952381Y-135485238D01*
X190952381Y-135294761D01*
X190904762Y-135199523D01*
X190857143Y-135151904D01*
X190761905Y-135104285D01*
X190571429Y-135104285D01*
X190476190Y-135151904D01*
X190428571Y-135199523D01*
X190380952Y-135294761D01*
X194778334Y-131897381D02*
X194445000Y-131421190D01*
X194206905Y-131897381D02*
X194206905Y-130897381D01*
X194587858Y-130897381D01*
X194683096Y-130945000D01*
X194730715Y-130992619D01*
X194778334Y-131087857D01*
X194778334Y-131230714D01*
X194730715Y-131325952D01*
X194683096Y-131373571D01*
X194587858Y-131421190D01*
X194206905Y-131421190D01*
X195254524Y-131897381D02*
X195445000Y-131897381D01*
X195540239Y-131849762D01*
X195587858Y-131802143D01*
X195683096Y-131659286D01*
X195730715Y-131468810D01*
X195730715Y-131087857D01*
X195683096Y-130992619D01*
X195635477Y-130945000D01*
X195540239Y-130897381D01*
X195349762Y-130897381D01*
X195254524Y-130945000D01*
X195206905Y-130992619D01*
X195159286Y-131087857D01*
X195159286Y-131325952D01*
X195206905Y-131421190D01*
X195254524Y-131468810D01*
X195349762Y-131516429D01*
X195540239Y-131516429D01*
X195635477Y-131468810D01*
X195683096Y-131421190D01*
X195730715Y-131325952D01*
X177157143Y-156027381D02*
X176823809Y-155551190D01*
X176585714Y-156027381D02*
X176585714Y-155027381D01*
X176966667Y-155027381D01*
X177061905Y-155075000D01*
X177109524Y-155122619D01*
X177157143Y-155217857D01*
X177157143Y-155360714D01*
X177109524Y-155455952D01*
X177061905Y-155503571D01*
X176966667Y-155551190D01*
X176585714Y-155551190D01*
X178109524Y-156027381D02*
X177538095Y-156027381D01*
X177823809Y-156027381D02*
X177823809Y-155027381D01*
X177728571Y-155170238D01*
X177633333Y-155265476D01*
X177538095Y-155313095D01*
X178728571Y-155027381D02*
X178823810Y-155027381D01*
X178919048Y-155075000D01*
X178966667Y-155122619D01*
X179014286Y-155217857D01*
X179061905Y-155408333D01*
X179061905Y-155646429D01*
X179014286Y-155836905D01*
X178966667Y-155932143D01*
X178919048Y-155979762D01*
X178823810Y-156027381D01*
X178728571Y-156027381D01*
X178633333Y-155979762D01*
X178585714Y-155932143D01*
X178538095Y-155836905D01*
X178490476Y-155646429D01*
X178490476Y-155408333D01*
X178538095Y-155217857D01*
X178585714Y-155122619D01*
X178633333Y-155075000D01*
X178728571Y-155027381D01*
X100631667Y-130262381D02*
X100631667Y-130976667D01*
X100584047Y-131119524D01*
X100488809Y-131214762D01*
X100345952Y-131262381D01*
X100250714Y-131262381D01*
X101012619Y-130262381D02*
X101631667Y-130262381D01*
X101298333Y-130643333D01*
X101441191Y-130643333D01*
X101536429Y-130690952D01*
X101584048Y-130738571D01*
X101631667Y-130833810D01*
X101631667Y-131071905D01*
X101584048Y-131167143D01*
X101536429Y-131214762D01*
X101441191Y-131262381D01*
X101155476Y-131262381D01*
X101060238Y-131214762D01*
X101012619Y-131167143D01*
X100631667Y-141057381D02*
X100631667Y-141771667D01*
X100584047Y-141914524D01*
X100488809Y-142009762D01*
X100345952Y-142057381D01*
X100250714Y-142057381D01*
X101536429Y-141390714D02*
X101536429Y-142057381D01*
X101298333Y-141009762D02*
X101060238Y-141724048D01*
X101679286Y-141724048D01*
M02*
