M48
;DRILL file {KiCad 4.0.6} date Saturday, 22 July 2017 'PMt' 21:55:21
;FORMAT={-:-/ absolute / inch / decimal}
FMAT,2
INCH,TZ
T1C0.016
T2C0.032
T3C0.039
T4C0.040
T5C0.042
T6C0.043
T7C0.047
T8C0.120
%
G90
G05
M72
T1
X4.975Y-5.65
X5.Y-5.3
X5.3Y-5.8
X5.375Y-5.575
X5.925Y-5.7
X5.925Y-6.15
X6.15Y-6.3
X6.475Y-5.775
X6.7Y-5.725
X6.7819Y-6.1431
X7.1Y-5.95
X7.25Y-6.3
X7.275Y-5.3
X7.325Y-5.45
X7.325Y-5.875
X7.575Y-5.05
T2
X7.7Y-5.35
X7.8Y-5.35
X7.9Y-5.35
T4
X4.075Y-5.1
X4.075Y-5.53
X4.125Y-5.21
X4.125Y-5.64
X4.18Y-5.1
X4.18Y-5.53
X4.235Y-5.21
X4.235Y-5.64
X4.29Y-5.1
X4.29Y-5.53
X4.345Y-5.21
X4.345Y-5.64
X4.395Y-5.1
X4.395Y-5.53
X4.45Y-5.21
X4.45Y-5.64
X4.505Y-5.1
X4.505Y-5.53
X4.56Y-5.21
X4.56Y-5.64
X4.615Y-5.1
X4.615Y-5.53
X4.665Y-5.21
X4.665Y-5.64
X4.72Y-5.1
X4.72Y-5.53
X4.775Y-5.21
X4.775Y-5.64
X4.83Y-5.1
X4.83Y-5.53
T5
X7.1411Y-6.05
X7.2081Y-6.05
X7.275Y-6.05
X7.3419Y-6.05
X7.4089Y-6.05
T6
X5.2191Y-5.8478
X5.2191Y-6.025
X5.475Y-5.8478
X5.475Y-6.025
T7
X5.7067Y-5.6
X5.7817Y-5.4
X5.8567Y-5.6
X5.9317Y-5.4
X6.0067Y-5.6
X6.0817Y-5.4
X6.1567Y-5.6
X6.2317Y-5.4
X6.3067Y-5.6
X6.3817Y-5.4
X6.4567Y-5.6
X6.5317Y-5.4
X6.6067Y-5.6
X6.6817Y-5.4
X6.7567Y-5.6
X6.8317Y-5.4
X6.9067Y-5.6
X6.9817Y-5.4
X7.0567Y-5.6
X7.1317Y-5.4
X7.2067Y-5.6
T8
X3.795Y-5.155
X3.795Y-5.585
X5.105Y-5.155
X5.105Y-5.585
T3
X7.5069Y-5.7744G85X7.5069Y-5.6956
G05
X7.6643Y-5.55G85X7.5857Y-5.55
G05
X7.7431Y-5.7744G85X7.7431Y-5.6956
G05
T0
M30
