G04 #@! TF.FileFunction,Copper,L2,Bot,Signal*
%FSLAX46Y46*%
G04 Gerber Fmt 4.6, Leading zero omitted, Abs format (unit mm)*
G04 Created by KiCad (PCBNEW 4.0.6) date Sunday, 07 January 2018 'AMt' 11:42:42*
%MOMM*%
%LPD*%
G01*
G04 APERTURE LIST*
%ADD10C,0.100000*%
%ADD11R,2.000000X6.000000*%
%ADD12R,3.500120X3.500120*%
%ADD13C,1.470000*%
%ADD14C,1.998980*%
%ADD15O,3.100000X4.100000*%
%ADD16C,1.524000*%
%ADD17R,1.727200X2.032000*%
%ADD18O,1.727200X2.032000*%
%ADD19R,1.700000X2.000000*%
%ADD20R,0.600000X2.000000*%
%ADD21C,0.600000*%
%ADD22C,0.250000*%
%ADD23C,1.470000*%
%ADD24C,3.000000*%
%ADD25C,0.254000*%
G04 APERTURE END LIST*
D10*
D11*
X142345000Y-160020000D03*
X146305000Y-160020000D03*
X138385000Y-160020000D03*
X134425000Y-160020000D03*
X130465000Y-160020000D03*
X150265000Y-160020000D03*
X114625000Y-160020000D03*
X126505000Y-160020000D03*
X122545000Y-160020000D03*
X118585000Y-160020000D03*
X110665000Y-160020000D03*
X162145000Y-160020000D03*
X170065000Y-160020000D03*
X166105000Y-160020000D03*
X174025000Y-160020000D03*
X158185000Y-160020000D03*
X154225000Y-160020000D03*
X177985000Y-160020000D03*
X197785000Y-160020000D03*
X185905000Y-160020000D03*
X193825000Y-160020000D03*
X189865000Y-160020000D03*
X181945000Y-160020000D03*
X201745000Y-160020000D03*
X98785000Y-160020000D03*
X106705000Y-160020000D03*
X102745000Y-160020000D03*
X94825000Y-160020000D03*
D12*
X190675260Y-145669000D03*
X196674740Y-145669000D03*
X193675000Y-140970000D03*
D13*
X184785000Y-153670000D03*
X183085000Y-153670000D03*
X186485000Y-153670000D03*
X188185000Y-153670000D03*
X181385000Y-153670000D03*
D14*
X144950180Y-142240000D03*
X146855180Y-137160000D03*
X148760180Y-142240000D03*
X150665180Y-137160000D03*
X152570180Y-142240000D03*
X154475180Y-137160000D03*
X156380180Y-142240000D03*
X158285180Y-137160000D03*
X160190180Y-142240000D03*
X162095180Y-137160000D03*
X164000180Y-142240000D03*
X165905180Y-137160000D03*
X167810180Y-142240000D03*
X169715180Y-137160000D03*
X171620180Y-142240000D03*
X173525180Y-137160000D03*
X175430180Y-142240000D03*
X177335180Y-137160000D03*
X179240180Y-142240000D03*
X181145180Y-137160000D03*
X183050180Y-142240000D03*
D15*
X137500360Y-135161020D03*
X190500000Y-135161020D03*
D16*
X198120000Y-135890000D03*
X195580000Y-135890000D03*
X200660000Y-135890000D03*
D17*
X95920000Y-128000000D03*
D18*
X98460000Y-128000000D03*
X101000000Y-128000000D03*
X103540000Y-128000000D03*
X106080000Y-128000000D03*
X108620000Y-128000000D03*
D19*
X123500000Y-135500000D03*
X123500000Y-131500000D03*
D20*
X123730000Y-141100000D03*
X125000000Y-141100000D03*
X126270000Y-141100000D03*
X127540000Y-141100000D03*
X128810000Y-141100000D03*
X130080000Y-141100000D03*
X131350000Y-141100000D03*
X132620000Y-141100000D03*
X133890000Y-141100000D03*
X135160000Y-141100000D03*
X136430000Y-141100000D03*
X137700000Y-141100000D03*
X137700000Y-150500000D03*
X136430000Y-150500000D03*
X135160000Y-150500000D03*
X133890000Y-150500000D03*
X132620000Y-150500000D03*
X131350000Y-150500000D03*
X130080000Y-150500000D03*
X128810000Y-150500000D03*
X127540000Y-150500000D03*
X126270000Y-150500000D03*
X125000000Y-150500000D03*
X123730000Y-150500000D03*
D21*
X156210000Y-160020000D03*
X170180000Y-145415000D03*
X132000000Y-145500000D03*
X128500000Y-138000000D03*
X123500000Y-145500000D03*
X96750000Y-156250000D03*
X150495000Y-156210000D03*
X150495000Y-144780000D03*
X179625000Y-132000000D03*
X180340000Y-151130000D03*
X186055000Y-149225000D03*
X186055000Y-138430000D03*
X184150000Y-160020000D03*
X172260000Y-156035000D03*
X164465000Y-146685000D03*
X192405000Y-128270000D03*
X120000000Y-149500000D03*
X105500000Y-147500000D03*
X123500000Y-138500000D03*
X125000000Y-153000000D03*
X116000000Y-129500000D03*
X126000000Y-145500000D03*
X126500000Y-137500000D03*
X127500000Y-145500000D03*
X128500000Y-139000000D03*
X126500000Y-139000000D03*
X188500000Y-138000000D03*
X188500000Y-143000000D03*
D22*
X156210000Y-160020000D02*
X158185000Y-160020000D01*
X170180000Y-142649572D02*
X170180000Y-145415000D01*
X167865428Y-140335000D02*
X170180000Y-142649572D01*
X128500000Y-138000000D02*
X128924264Y-138000000D01*
X128924264Y-138000000D02*
X130705001Y-139780737D01*
X130705001Y-139780737D02*
X130705001Y-144205001D01*
X130705001Y-144205001D02*
X132000000Y-145500000D01*
X123500000Y-131500000D02*
X123500000Y-131350000D01*
X98785000Y-160020000D02*
X98785000Y-158020000D01*
X98785000Y-158020000D02*
X97015000Y-156250000D01*
X97015000Y-156250000D02*
X96750000Y-156250000D01*
X123500000Y-145500000D02*
X123500000Y-141330000D01*
X123500000Y-141330000D02*
X123730000Y-141100000D01*
X94825000Y-160020000D02*
X94825000Y-158020000D01*
X94825000Y-158020000D02*
X96595000Y-156250000D01*
X96595000Y-156250000D02*
X96750000Y-156250000D01*
D23*
X196674740Y-145669000D02*
X196674740Y-141969680D01*
X196674740Y-141969680D02*
X195675060Y-140970000D01*
X195675060Y-140970000D02*
X193675000Y-140970000D01*
X201745000Y-160020000D02*
X201745000Y-155125000D01*
X201745000Y-155125000D02*
X200680000Y-155125000D01*
X200680000Y-155125000D02*
X196674740Y-151119740D01*
X196674740Y-151119740D02*
X196674740Y-145669000D01*
X196674740Y-145669000D02*
X196674740Y-158909740D01*
D22*
X196674740Y-158909740D02*
X197785000Y-160020000D01*
X197785000Y-160020000D02*
X197785000Y-158020000D01*
X166014919Y-138484491D02*
X167865428Y-140335000D01*
X168275000Y-140335000D02*
X167865428Y-140335000D01*
X174160180Y-140335000D02*
X168275000Y-140335000D01*
X177335180Y-137160000D02*
X174160180Y-140335000D01*
X150665180Y-137160000D02*
X151989671Y-138484491D01*
X151989671Y-138484491D02*
X166014919Y-138484491D01*
X150495000Y-144780000D02*
X150495000Y-156210000D01*
X179625000Y-132000000D02*
X184785000Y-137160000D01*
X184785000Y-137160000D02*
X184785000Y-151130000D01*
D24*
X189865000Y-160020000D02*
X193825000Y-160020000D01*
D22*
X186055000Y-151130000D02*
X184785000Y-151130000D01*
X184785000Y-151130000D02*
X180340000Y-151130000D01*
D23*
X193040000Y-155575000D02*
X193825000Y-156360000D01*
X193825000Y-156360000D02*
X193825000Y-160020000D01*
X187420000Y-155575000D02*
X193040000Y-155575000D01*
X186690000Y-155575000D02*
X187420000Y-155575000D01*
X187420000Y-155575000D02*
X189865000Y-158020000D01*
D22*
X189865000Y-158020000D02*
X189865000Y-160020000D01*
D23*
X186485000Y-155370000D02*
X186690000Y-155575000D01*
X186485000Y-153670000D02*
X186485000Y-155370000D01*
D22*
X186485000Y-151560000D02*
X186055000Y-151130000D01*
X186485000Y-153670000D02*
X186485000Y-151560000D01*
X181945000Y-155855000D02*
X181965000Y-155855000D01*
D23*
X181965000Y-155855000D02*
X183085000Y-154735000D01*
X183085000Y-154735000D02*
X183085000Y-153670000D01*
X181945000Y-160020000D02*
X181945000Y-155855000D01*
D22*
X186055000Y-138430000D02*
X186055000Y-149225000D01*
X184150000Y-160020000D02*
X185905000Y-160020000D01*
X142345000Y-160020000D02*
X142345000Y-156770000D01*
X142345000Y-156770000D02*
X142450009Y-156664991D01*
X136430000Y-141800000D02*
X136430000Y-141100000D01*
X142450009Y-156664991D02*
X142450009Y-147820009D01*
X142450009Y-147820009D02*
X136430000Y-141800000D01*
X142000000Y-154405000D02*
X142000000Y-148640000D01*
X142000000Y-148640000D02*
X135160000Y-141800000D01*
X135160000Y-141800000D02*
X135160000Y-141100000D01*
X138385000Y-160020000D02*
X138385000Y-158020000D01*
X138385000Y-158020000D02*
X142000000Y-154405000D01*
X137700000Y-150500000D02*
X137700000Y-151750000D01*
X137700000Y-151750000D02*
X134425000Y-155025000D01*
X134425000Y-155025000D02*
X134425000Y-156770000D01*
X134425000Y-156770000D02*
X134425000Y-160020000D01*
X136430000Y-150500000D02*
X136430000Y-152055000D01*
X136430000Y-152055000D02*
X130465000Y-158020000D01*
X130465000Y-158020000D02*
X130465000Y-160020000D01*
X127550000Y-155000000D02*
X117645000Y-155000000D01*
X117645000Y-155000000D02*
X114625000Y-158020000D01*
X114625000Y-158020000D02*
X114625000Y-160020000D01*
X131350000Y-150500000D02*
X131350000Y-151200000D01*
X131350000Y-151200000D02*
X127550000Y-155000000D01*
X126505000Y-160020000D02*
X126505000Y-156770000D01*
X126505000Y-156770000D02*
X126924970Y-156350030D01*
X126924970Y-156350030D02*
X130009972Y-156350028D01*
X130009972Y-156350028D02*
X135160000Y-151200000D01*
X135160000Y-151200000D02*
X135160000Y-150500000D01*
X133890000Y-150500000D02*
X133890000Y-151750000D01*
X133890000Y-151750000D02*
X129739980Y-155900020D01*
X129739980Y-155900020D02*
X124664980Y-155900020D01*
X124664980Y-155900020D02*
X122545000Y-158020000D01*
X122545000Y-158020000D02*
X122545000Y-160020000D01*
X132620000Y-150500000D02*
X132620000Y-151200000D01*
X118585000Y-158020000D02*
X118585000Y-160020000D01*
X132620000Y-151200000D02*
X128369990Y-155450010D01*
X128369990Y-155450010D02*
X121154990Y-155450010D01*
X121154990Y-155450010D02*
X118585000Y-158020000D01*
X126780000Y-154500000D02*
X114185000Y-154500000D01*
X114185000Y-154500000D02*
X110665000Y-158020000D01*
X110665000Y-158020000D02*
X110665000Y-160020000D01*
X130080000Y-150500000D02*
X130080000Y-151200000D01*
X130080000Y-151200000D02*
X126780000Y-154500000D01*
X156210000Y-156035000D02*
X172260000Y-156035000D01*
X154225000Y-160020000D02*
X154225000Y-158020000D01*
X154225000Y-158020000D02*
X156210000Y-156035000D01*
X126010000Y-154000000D02*
X110725000Y-154000000D01*
X110725000Y-154000000D02*
X106705000Y-158020000D01*
X106705000Y-158020000D02*
X106705000Y-160020000D01*
X128810000Y-150500000D02*
X128810000Y-151200000D01*
X128810000Y-151200000D02*
X126010000Y-154000000D01*
X150224489Y-143239489D02*
X153670000Y-146685000D01*
X153670000Y-146685000D02*
X164465000Y-146685000D01*
X148760180Y-142240000D02*
X149759669Y-143239489D01*
X149759669Y-143239489D02*
X150224489Y-143239489D01*
X192405000Y-128270000D02*
X187325000Y-133350000D01*
X187325000Y-133350000D02*
X187325000Y-147955000D01*
X187325000Y-147955000D02*
X188185000Y-148815000D01*
X188185000Y-148815000D02*
X188185000Y-153670000D01*
X120000000Y-149500000D02*
X121000000Y-150500000D01*
X121000000Y-150500000D02*
X123730000Y-150500000D01*
X103540000Y-128000000D02*
X103540000Y-145540000D01*
X103540000Y-145540000D02*
X105500000Y-147500000D01*
X123500000Y-138500000D02*
X122874999Y-139125001D01*
X122874999Y-139125001D02*
X122874999Y-148394999D01*
X122874999Y-148394999D02*
X123730000Y-149250000D01*
X123730000Y-149250000D02*
X123730000Y-150500000D01*
X116000000Y-147000000D02*
X122000000Y-153000000D01*
X122000000Y-153000000D02*
X125000000Y-153000000D01*
X116000000Y-146500000D02*
X116000000Y-147000000D01*
X116000000Y-129500000D02*
X116000000Y-146500000D01*
X126270000Y-141100000D02*
X126270000Y-145230000D01*
X126270000Y-145230000D02*
X126000000Y-145500000D01*
X126500000Y-137500000D02*
X127540000Y-138540000D01*
X127540000Y-138540000D02*
X127540000Y-141100000D01*
X127500000Y-145500000D02*
X127500000Y-141140000D01*
X127500000Y-141140000D02*
X127540000Y-141100000D01*
X128500000Y-139000000D02*
X128184999Y-139315001D01*
X128184999Y-139315001D02*
X128184999Y-148605001D01*
X128184999Y-148605001D02*
X127540000Y-149250000D01*
X127540000Y-149250000D02*
X127540000Y-150500000D01*
X125000000Y-150500000D02*
X125000000Y-143000000D01*
X125000000Y-143000000D02*
X124355001Y-142355001D01*
X124355001Y-142355001D02*
X124355001Y-137605001D01*
X124355001Y-137605001D02*
X123500000Y-136750000D01*
X123500000Y-136750000D02*
X123500000Y-135500000D01*
X125000000Y-141100000D02*
X125000000Y-140400000D01*
X125000000Y-140400000D02*
X126400000Y-139000000D01*
X126400000Y-139000000D02*
X126500000Y-139000000D01*
X147745000Y-155500000D02*
X143500000Y-155500000D01*
X143500000Y-155500000D02*
X142900019Y-154900019D01*
X142900019Y-154900019D02*
X142900019Y-147550019D01*
X142900019Y-147550019D02*
X137700000Y-142350000D01*
X137700000Y-142350000D02*
X137700000Y-141100000D01*
X150265000Y-158020000D02*
X147745000Y-155500000D01*
X150265000Y-158020000D02*
X150265000Y-160020000D01*
X188500000Y-143000000D02*
X188500000Y-138000000D01*
D25*
G36*
X134608110Y-142696431D02*
X134860000Y-142747440D01*
X135032638Y-142747440D01*
X141240000Y-148954802D01*
X141240000Y-154090198D01*
X138957638Y-156372560D01*
X137385000Y-156372560D01*
X137149683Y-156416838D01*
X136933559Y-156555910D01*
X136788569Y-156768110D01*
X136737560Y-157020000D01*
X136737560Y-162433000D01*
X136072440Y-162433000D01*
X136072440Y-157020000D01*
X136028162Y-156784683D01*
X135889090Y-156568559D01*
X135676890Y-156423569D01*
X135425000Y-156372560D01*
X135185000Y-156372560D01*
X135185000Y-155339802D01*
X138237401Y-152287401D01*
X138402148Y-152040840D01*
X138412420Y-151989199D01*
X138451441Y-151964090D01*
X138596431Y-151751890D01*
X138647440Y-151500000D01*
X138647440Y-149500000D01*
X138603162Y-149264683D01*
X138464090Y-149048559D01*
X138251890Y-148903569D01*
X138000000Y-148852560D01*
X137400000Y-148852560D01*
X137164683Y-148896838D01*
X137065472Y-148960678D01*
X136981890Y-148903569D01*
X136730000Y-148852560D01*
X136130000Y-148852560D01*
X135894683Y-148896838D01*
X135795472Y-148960678D01*
X135711890Y-148903569D01*
X135460000Y-148852560D01*
X134860000Y-148852560D01*
X134624683Y-148896838D01*
X134525472Y-148960678D01*
X134441890Y-148903569D01*
X134190000Y-148852560D01*
X133590000Y-148852560D01*
X133354683Y-148896838D01*
X133255472Y-148960678D01*
X133171890Y-148903569D01*
X132920000Y-148852560D01*
X132320000Y-148852560D01*
X132084683Y-148896838D01*
X131985472Y-148960678D01*
X131901890Y-148903569D01*
X131650000Y-148852560D01*
X131050000Y-148852560D01*
X130814683Y-148896838D01*
X130715472Y-148960678D01*
X130631890Y-148903569D01*
X130380000Y-148852560D01*
X129780000Y-148852560D01*
X129544683Y-148896838D01*
X129445472Y-148960678D01*
X129361890Y-148903569D01*
X129110000Y-148852560D01*
X128895756Y-148852560D01*
X128944999Y-148605001D01*
X128944999Y-142747440D01*
X129110000Y-142747440D01*
X129345317Y-142703162D01*
X129444528Y-142639322D01*
X129528110Y-142696431D01*
X129780000Y-142747440D01*
X130380000Y-142747440D01*
X130615317Y-142703162D01*
X130714528Y-142639322D01*
X130798110Y-142696431D01*
X131050000Y-142747440D01*
X131650000Y-142747440D01*
X131885317Y-142703162D01*
X131984528Y-142639322D01*
X132068110Y-142696431D01*
X132320000Y-142747440D01*
X132920000Y-142747440D01*
X133155317Y-142703162D01*
X133254528Y-142639322D01*
X133338110Y-142696431D01*
X133590000Y-142747440D01*
X134190000Y-142747440D01*
X134425317Y-142703162D01*
X134524528Y-142639322D01*
X134608110Y-142696431D01*
X134608110Y-142696431D01*
G37*
X134608110Y-142696431D02*
X134860000Y-142747440D01*
X135032638Y-142747440D01*
X141240000Y-148954802D01*
X141240000Y-154090198D01*
X138957638Y-156372560D01*
X137385000Y-156372560D01*
X137149683Y-156416838D01*
X136933559Y-156555910D01*
X136788569Y-156768110D01*
X136737560Y-157020000D01*
X136737560Y-162433000D01*
X136072440Y-162433000D01*
X136072440Y-157020000D01*
X136028162Y-156784683D01*
X135889090Y-156568559D01*
X135676890Y-156423569D01*
X135425000Y-156372560D01*
X135185000Y-156372560D01*
X135185000Y-155339802D01*
X138237401Y-152287401D01*
X138402148Y-152040840D01*
X138412420Y-151989199D01*
X138451441Y-151964090D01*
X138596431Y-151751890D01*
X138647440Y-151500000D01*
X138647440Y-149500000D01*
X138603162Y-149264683D01*
X138464090Y-149048559D01*
X138251890Y-148903569D01*
X138000000Y-148852560D01*
X137400000Y-148852560D01*
X137164683Y-148896838D01*
X137065472Y-148960678D01*
X136981890Y-148903569D01*
X136730000Y-148852560D01*
X136130000Y-148852560D01*
X135894683Y-148896838D01*
X135795472Y-148960678D01*
X135711890Y-148903569D01*
X135460000Y-148852560D01*
X134860000Y-148852560D01*
X134624683Y-148896838D01*
X134525472Y-148960678D01*
X134441890Y-148903569D01*
X134190000Y-148852560D01*
X133590000Y-148852560D01*
X133354683Y-148896838D01*
X133255472Y-148960678D01*
X133171890Y-148903569D01*
X132920000Y-148852560D01*
X132320000Y-148852560D01*
X132084683Y-148896838D01*
X131985472Y-148960678D01*
X131901890Y-148903569D01*
X131650000Y-148852560D01*
X131050000Y-148852560D01*
X130814683Y-148896838D01*
X130715472Y-148960678D01*
X130631890Y-148903569D01*
X130380000Y-148852560D01*
X129780000Y-148852560D01*
X129544683Y-148896838D01*
X129445472Y-148960678D01*
X129361890Y-148903569D01*
X129110000Y-148852560D01*
X128895756Y-148852560D01*
X128944999Y-148605001D01*
X128944999Y-142747440D01*
X129110000Y-142747440D01*
X129345317Y-142703162D01*
X129444528Y-142639322D01*
X129528110Y-142696431D01*
X129780000Y-142747440D01*
X130380000Y-142747440D01*
X130615317Y-142703162D01*
X130714528Y-142639322D01*
X130798110Y-142696431D01*
X131050000Y-142747440D01*
X131650000Y-142747440D01*
X131885317Y-142703162D01*
X131984528Y-142639322D01*
X132068110Y-142696431D01*
X132320000Y-142747440D01*
X132920000Y-142747440D01*
X133155317Y-142703162D01*
X133254528Y-142639322D01*
X133338110Y-142696431D01*
X133590000Y-142747440D01*
X134190000Y-142747440D01*
X134425317Y-142703162D01*
X134524528Y-142639322D01*
X134608110Y-142696431D01*
G36*
X94604959Y-126519910D02*
X94459969Y-126732110D01*
X94408960Y-126984000D01*
X94408960Y-129016000D01*
X94453238Y-129251317D01*
X94592310Y-129467441D01*
X94804510Y-129612431D01*
X95056400Y-129663440D01*
X96783600Y-129663440D01*
X97018917Y-129619162D01*
X97235041Y-129480090D01*
X97380031Y-129267890D01*
X97388400Y-129226561D01*
X97400330Y-129244415D01*
X97886511Y-129569271D01*
X98460000Y-129683345D01*
X99033489Y-129569271D01*
X99519670Y-129244415D01*
X99730000Y-128929634D01*
X99940330Y-129244415D01*
X100426511Y-129569271D01*
X101000000Y-129683345D01*
X101573489Y-129569271D01*
X102059670Y-129244415D01*
X102270000Y-128929634D01*
X102480330Y-129244415D01*
X102780000Y-129444648D01*
X102780000Y-145540000D01*
X102837852Y-145830839D01*
X103002599Y-146077401D01*
X104564878Y-147639680D01*
X104564838Y-147685167D01*
X104706883Y-148028943D01*
X104969673Y-148292192D01*
X105313201Y-148434838D01*
X105685167Y-148435162D01*
X106028943Y-148293117D01*
X106292192Y-148030327D01*
X106434838Y-147686799D01*
X106435162Y-147314833D01*
X106293117Y-146971057D01*
X106030327Y-146707808D01*
X105686799Y-146565162D01*
X105639923Y-146565121D01*
X104300000Y-145225198D01*
X104300000Y-129444648D01*
X104599670Y-129244415D01*
X104810000Y-128929634D01*
X105020330Y-129244415D01*
X105506511Y-129569271D01*
X106080000Y-129683345D01*
X106653489Y-129569271D01*
X107139670Y-129244415D01*
X107464526Y-128758234D01*
X107578600Y-128184745D01*
X107578600Y-127815255D01*
X107464526Y-127241766D01*
X107139670Y-126755585D01*
X106745187Y-126492000D01*
X203708000Y-126492000D01*
X203708000Y-162433000D01*
X195472440Y-162433000D01*
X195472440Y-161323490D01*
X195797483Y-160837029D01*
X195960000Y-160020000D01*
X195797483Y-159202971D01*
X195472440Y-158716510D01*
X195472440Y-157020000D01*
X195428162Y-156784683D01*
X195289090Y-156568559D01*
X195195000Y-156504270D01*
X195195000Y-156360000D01*
X195090715Y-155835724D01*
X195040118Y-155760000D01*
X194793737Y-155391264D01*
X194008736Y-154606264D01*
X193564277Y-154309285D01*
X193040000Y-154205000D01*
X189446263Y-154205000D01*
X189554762Y-153943705D01*
X189555237Y-153398686D01*
X189347107Y-152894971D01*
X188962056Y-152509248D01*
X188945000Y-152502166D01*
X188945000Y-148815000D01*
X188887148Y-148524161D01*
X188722401Y-148277599D01*
X188085000Y-147640198D01*
X188085000Y-143840080D01*
X188277760Y-143920122D01*
X188277760Y-147419060D01*
X188322038Y-147654377D01*
X188461110Y-147870501D01*
X188673310Y-148015491D01*
X188925200Y-148066500D01*
X192425320Y-148066500D01*
X192660637Y-148022222D01*
X192876761Y-147883150D01*
X193021751Y-147670950D01*
X193072760Y-147419060D01*
X193072760Y-143918940D01*
X193028482Y-143683623D01*
X192889410Y-143467499D01*
X192677210Y-143322509D01*
X192425320Y-143271500D01*
X189399667Y-143271500D01*
X189434838Y-143186799D01*
X189435162Y-142814833D01*
X189293117Y-142471057D01*
X189260000Y-142437882D01*
X189260000Y-138562463D01*
X189292192Y-138530327D01*
X189434838Y-138186799D01*
X189435162Y-137814833D01*
X189300842Y-137489753D01*
X189663837Y-137732299D01*
X190500000Y-137898622D01*
X191336163Y-137732299D01*
X192045028Y-137258650D01*
X192518677Y-136549785D01*
X192594885Y-136166661D01*
X194182758Y-136166661D01*
X194394990Y-136680303D01*
X194787630Y-137073629D01*
X195300900Y-137286757D01*
X195856661Y-137287242D01*
X196370303Y-137075010D01*
X196763629Y-136682370D01*
X196976757Y-136169100D01*
X196976759Y-136166661D01*
X199262758Y-136166661D01*
X199474990Y-136680303D01*
X199867630Y-137073629D01*
X200380900Y-137286757D01*
X200936661Y-137287242D01*
X201450303Y-137075010D01*
X201843629Y-136682370D01*
X202056757Y-136169100D01*
X202057242Y-135613339D01*
X201845010Y-135099697D01*
X201452370Y-134706371D01*
X200939100Y-134493243D01*
X200383339Y-134492758D01*
X199869697Y-134704990D01*
X199476371Y-135097630D01*
X199263243Y-135610900D01*
X199262758Y-136166661D01*
X196976759Y-136166661D01*
X196977242Y-135613339D01*
X196765010Y-135099697D01*
X196372370Y-134706371D01*
X195859100Y-134493243D01*
X195303339Y-134492758D01*
X194789697Y-134704990D01*
X194396371Y-135097630D01*
X194183243Y-135610900D01*
X194182758Y-136166661D01*
X192594885Y-136166661D01*
X192685000Y-135713622D01*
X192685000Y-134608418D01*
X192518677Y-133772255D01*
X192045028Y-133063390D01*
X191336163Y-132589741D01*
X190500000Y-132423418D01*
X189663837Y-132589741D01*
X188954972Y-133063390D01*
X188481323Y-133772255D01*
X188315000Y-134608418D01*
X188315000Y-135713622D01*
X188481323Y-136549785D01*
X188879020Y-137144979D01*
X188686799Y-137065162D01*
X188314833Y-137064838D01*
X188085000Y-137159803D01*
X188085000Y-133664802D01*
X192544680Y-129205122D01*
X192590167Y-129205162D01*
X192933943Y-129063117D01*
X193197192Y-128800327D01*
X193339838Y-128456799D01*
X193340162Y-128084833D01*
X193198117Y-127741057D01*
X192935327Y-127477808D01*
X192591799Y-127335162D01*
X192219833Y-127334838D01*
X191876057Y-127476883D01*
X191612808Y-127739673D01*
X191470162Y-128083201D01*
X191470121Y-128130077D01*
X186787599Y-132812599D01*
X186622852Y-133059161D01*
X186565000Y-133350000D01*
X186565000Y-137629367D01*
X186241799Y-137495162D01*
X185869833Y-137494838D01*
X185545000Y-137629056D01*
X185545000Y-137160000D01*
X185487148Y-136869161D01*
X185322401Y-136622599D01*
X180560122Y-131860320D01*
X180560162Y-131814833D01*
X180418117Y-131471057D01*
X180155327Y-131207808D01*
X179811799Y-131065162D01*
X179439833Y-131064838D01*
X179096057Y-131206883D01*
X178832808Y-131469673D01*
X178690162Y-131813201D01*
X178689838Y-132185167D01*
X178831883Y-132528943D01*
X179094673Y-132792192D01*
X179438201Y-132934838D01*
X179485077Y-132934879D01*
X184025000Y-137474802D01*
X184025000Y-150370000D01*
X180902463Y-150370000D01*
X180870327Y-150337808D01*
X180526799Y-150195162D01*
X180154833Y-150194838D01*
X179811057Y-150336883D01*
X179547808Y-150599673D01*
X179405162Y-150943201D01*
X179404838Y-151315167D01*
X179546883Y-151658943D01*
X179809673Y-151922192D01*
X180153201Y-152064838D01*
X180525167Y-152065162D01*
X180868943Y-151923117D01*
X180902118Y-151890000D01*
X185725000Y-151890000D01*
X185725000Y-152501683D01*
X185709971Y-152507893D01*
X185324248Y-152892944D01*
X185115238Y-153396295D01*
X185114763Y-153941314D01*
X185115000Y-153941888D01*
X185115000Y-155370000D01*
X185219285Y-155894277D01*
X185516264Y-156338736D01*
X185550088Y-156372560D01*
X184905000Y-156372560D01*
X184669683Y-156416838D01*
X184453559Y-156555910D01*
X184308569Y-156768110D01*
X184257560Y-157020000D01*
X184257560Y-159085093D01*
X183964833Y-159084838D01*
X183621057Y-159226883D01*
X183592440Y-159255450D01*
X183592440Y-157020000D01*
X183548162Y-156784683D01*
X183409090Y-156568559D01*
X183315000Y-156504270D01*
X183315000Y-156442472D01*
X184053736Y-155703736D01*
X184350715Y-155259277D01*
X184382429Y-155099838D01*
X184455000Y-154735000D01*
X184455000Y-153670622D01*
X184455237Y-153398686D01*
X184247107Y-152894971D01*
X183862056Y-152509248D01*
X183358705Y-152300238D01*
X182813686Y-152299763D01*
X182309971Y-152507893D01*
X182235207Y-152582527D01*
X182162056Y-152509248D01*
X181658705Y-152300238D01*
X181113686Y-152299763D01*
X180609971Y-152507893D01*
X180224248Y-152892944D01*
X180015238Y-153396295D01*
X180014763Y-153941314D01*
X180222893Y-154445029D01*
X180607944Y-154830752D01*
X180925304Y-154962531D01*
X180679285Y-155330724D01*
X180575000Y-155855000D01*
X180575000Y-156503504D01*
X180493559Y-156555910D01*
X180348569Y-156768110D01*
X180297560Y-157020000D01*
X180297560Y-162433000D01*
X179632440Y-162433000D01*
X179632440Y-157020000D01*
X179588162Y-156784683D01*
X179449090Y-156568559D01*
X179236890Y-156423569D01*
X178985000Y-156372560D01*
X176985000Y-156372560D01*
X176749683Y-156416838D01*
X176533559Y-156555910D01*
X176388569Y-156768110D01*
X176337560Y-157020000D01*
X176337560Y-162433000D01*
X175672440Y-162433000D01*
X175672440Y-157020000D01*
X175628162Y-156784683D01*
X175489090Y-156568559D01*
X175276890Y-156423569D01*
X175025000Y-156372560D01*
X173132236Y-156372560D01*
X173194838Y-156221799D01*
X173195162Y-155849833D01*
X173053117Y-155506057D01*
X172790327Y-155242808D01*
X172446799Y-155100162D01*
X172074833Y-155099838D01*
X171731057Y-155241883D01*
X171697882Y-155275000D01*
X156210000Y-155275000D01*
X155919161Y-155332852D01*
X155672599Y-155497599D01*
X154797638Y-156372560D01*
X153225000Y-156372560D01*
X152989683Y-156416838D01*
X152773559Y-156555910D01*
X152628569Y-156768110D01*
X152577560Y-157020000D01*
X152577560Y-162433000D01*
X151912440Y-162433000D01*
X151912440Y-157020000D01*
X151868162Y-156784683D01*
X151729090Y-156568559D01*
X151516890Y-156423569D01*
X151426337Y-156405231D01*
X151429838Y-156396799D01*
X151430162Y-156024833D01*
X151288117Y-155681057D01*
X151255000Y-155647882D01*
X151255000Y-145344802D01*
X153132599Y-147222401D01*
X153379160Y-147387148D01*
X153670000Y-147445000D01*
X163902537Y-147445000D01*
X163934673Y-147477192D01*
X164278201Y-147619838D01*
X164650167Y-147620162D01*
X164993943Y-147478117D01*
X165257192Y-147215327D01*
X165399838Y-146871799D01*
X165400162Y-146499833D01*
X165258117Y-146156057D01*
X164995327Y-145892808D01*
X164651799Y-145750162D01*
X164279833Y-145749838D01*
X163936057Y-145891883D01*
X163902882Y-145925000D01*
X153984802Y-145925000D01*
X151714146Y-143654344D01*
X152243633Y-143874206D01*
X152893874Y-143874774D01*
X153494835Y-143626462D01*
X153955026Y-143167073D01*
X154204386Y-142566547D01*
X154204388Y-142563694D01*
X154745406Y-142563694D01*
X154993718Y-143164655D01*
X155453107Y-143624846D01*
X156053633Y-143874206D01*
X156703874Y-143874774D01*
X157304835Y-143626462D01*
X157765026Y-143167073D01*
X158014386Y-142566547D01*
X158014388Y-142563694D01*
X158555406Y-142563694D01*
X158803718Y-143164655D01*
X159263107Y-143624846D01*
X159863633Y-143874206D01*
X160513874Y-143874774D01*
X161114835Y-143626462D01*
X161575026Y-143167073D01*
X161824386Y-142566547D01*
X161824388Y-142563694D01*
X162365406Y-142563694D01*
X162613718Y-143164655D01*
X163073107Y-143624846D01*
X163673633Y-143874206D01*
X164323874Y-143874774D01*
X164924835Y-143626462D01*
X165385026Y-143167073D01*
X165634386Y-142566547D01*
X165634388Y-142563694D01*
X166175406Y-142563694D01*
X166423718Y-143164655D01*
X166883107Y-143624846D01*
X167483633Y-143874206D01*
X168133874Y-143874774D01*
X168734835Y-143626462D01*
X169195026Y-143167073D01*
X169444386Y-142566547D01*
X169444388Y-142563694D01*
X169985406Y-142563694D01*
X170233718Y-143164655D01*
X170693107Y-143624846D01*
X171293633Y-143874206D01*
X171943874Y-143874774D01*
X172544835Y-143626462D01*
X173005026Y-143167073D01*
X173254386Y-142566547D01*
X173254388Y-142563694D01*
X173795406Y-142563694D01*
X174043718Y-143164655D01*
X174503107Y-143624846D01*
X175103633Y-143874206D01*
X175753874Y-143874774D01*
X176354835Y-143626462D01*
X176815026Y-143167073D01*
X177064386Y-142566547D01*
X177064388Y-142563694D01*
X177605406Y-142563694D01*
X177853718Y-143164655D01*
X178313107Y-143624846D01*
X178913633Y-143874206D01*
X179563874Y-143874774D01*
X180164835Y-143626462D01*
X180625026Y-143167073D01*
X180874386Y-142566547D01*
X180874954Y-141916306D01*
X180626642Y-141315345D01*
X180167253Y-140855154D01*
X179566727Y-140605794D01*
X178916486Y-140605226D01*
X178315525Y-140853538D01*
X177855334Y-141312927D01*
X177605974Y-141913453D01*
X177605406Y-142563694D01*
X177064388Y-142563694D01*
X177064954Y-141916306D01*
X176816642Y-141315345D01*
X176357253Y-140855154D01*
X175756727Y-140605794D01*
X175106486Y-140605226D01*
X174505525Y-140853538D01*
X174045334Y-141312927D01*
X173795974Y-141913453D01*
X173795406Y-142563694D01*
X173254388Y-142563694D01*
X173254954Y-141916306D01*
X173006642Y-141315345D01*
X172547253Y-140855154D01*
X171946727Y-140605794D01*
X171296486Y-140605226D01*
X170695525Y-140853538D01*
X170235334Y-141312927D01*
X169985974Y-141913453D01*
X169985406Y-142563694D01*
X169444388Y-142563694D01*
X169444954Y-141916306D01*
X169196642Y-141315345D01*
X168737253Y-140855154D01*
X168136727Y-140605794D01*
X167486486Y-140605226D01*
X166885525Y-140853538D01*
X166425334Y-141312927D01*
X166175974Y-141913453D01*
X166175406Y-142563694D01*
X165634388Y-142563694D01*
X165634954Y-141916306D01*
X165386642Y-141315345D01*
X164927253Y-140855154D01*
X164326727Y-140605794D01*
X163676486Y-140605226D01*
X163075525Y-140853538D01*
X162615334Y-141312927D01*
X162365974Y-141913453D01*
X162365406Y-142563694D01*
X161824388Y-142563694D01*
X161824954Y-141916306D01*
X161576642Y-141315345D01*
X161117253Y-140855154D01*
X160516727Y-140605794D01*
X159866486Y-140605226D01*
X159265525Y-140853538D01*
X158805334Y-141312927D01*
X158555974Y-141913453D01*
X158555406Y-142563694D01*
X158014388Y-142563694D01*
X158014954Y-141916306D01*
X157766642Y-141315345D01*
X157307253Y-140855154D01*
X156706727Y-140605794D01*
X156056486Y-140605226D01*
X155455525Y-140853538D01*
X154995334Y-141312927D01*
X154745974Y-141913453D01*
X154745406Y-142563694D01*
X154204388Y-142563694D01*
X154204954Y-141916306D01*
X153956642Y-141315345D01*
X153497253Y-140855154D01*
X152896727Y-140605794D01*
X152246486Y-140605226D01*
X151645525Y-140853538D01*
X151185334Y-141312927D01*
X150935974Y-141913453D01*
X150935406Y-142563694D01*
X151155032Y-143095230D01*
X150761890Y-142702088D01*
X150515328Y-142537341D01*
X150394433Y-142513293D01*
X150394954Y-141916306D01*
X150146642Y-141315345D01*
X149687253Y-140855154D01*
X149086727Y-140605794D01*
X148436486Y-140605226D01*
X147835525Y-140853538D01*
X147375334Y-141312927D01*
X147125974Y-141913453D01*
X147125406Y-142563694D01*
X147373718Y-143164655D01*
X147833107Y-143624846D01*
X148433633Y-143874206D01*
X149083874Y-143874774D01*
X149259906Y-143802039D01*
X149468830Y-143941637D01*
X149759669Y-143999489D01*
X149909687Y-143999489D01*
X149931539Y-144021341D01*
X149702808Y-144249673D01*
X149560162Y-144593201D01*
X149559838Y-144965167D01*
X149701883Y-145308943D01*
X149735000Y-145342118D01*
X149735000Y-155647537D01*
X149702808Y-155679673D01*
X149560162Y-156023201D01*
X149559973Y-156240171D01*
X148282401Y-154962599D01*
X148035839Y-154797852D01*
X147745000Y-154740000D01*
X143814802Y-154740000D01*
X143660019Y-154585217D01*
X143660019Y-147550019D01*
X143612913Y-147313201D01*
X143602167Y-147259179D01*
X143437420Y-147012618D01*
X138988496Y-142563694D01*
X143315406Y-142563694D01*
X143563718Y-143164655D01*
X144023107Y-143624846D01*
X144623633Y-143874206D01*
X145273874Y-143874774D01*
X145874835Y-143626462D01*
X146335026Y-143167073D01*
X146584386Y-142566547D01*
X146584954Y-141916306D01*
X146336642Y-141315345D01*
X145877253Y-140855154D01*
X145276727Y-140605794D01*
X144626486Y-140605226D01*
X144025525Y-140853538D01*
X143565334Y-141312927D01*
X143315974Y-141913453D01*
X143315406Y-142563694D01*
X138988496Y-142563694D01*
X138626787Y-142201985D01*
X138647440Y-142100000D01*
X138647440Y-140100000D01*
X138603162Y-139864683D01*
X138464090Y-139648559D01*
X138251890Y-139503569D01*
X138000000Y-139452560D01*
X137400000Y-139452560D01*
X137164683Y-139496838D01*
X137065472Y-139560678D01*
X136981890Y-139503569D01*
X136730000Y-139452560D01*
X136130000Y-139452560D01*
X135894683Y-139496838D01*
X135795472Y-139560678D01*
X135711890Y-139503569D01*
X135460000Y-139452560D01*
X134860000Y-139452560D01*
X134624683Y-139496838D01*
X134525472Y-139560678D01*
X134441890Y-139503569D01*
X134190000Y-139452560D01*
X133590000Y-139452560D01*
X133354683Y-139496838D01*
X133255472Y-139560678D01*
X133171890Y-139503569D01*
X132920000Y-139452560D01*
X132320000Y-139452560D01*
X132084683Y-139496838D01*
X131985472Y-139560678D01*
X131901890Y-139503569D01*
X131650000Y-139452560D01*
X131050000Y-139452560D01*
X130814683Y-139496838D01*
X130715472Y-139560678D01*
X130631890Y-139503569D01*
X130380000Y-139452560D01*
X129780000Y-139452560D01*
X129544683Y-139496838D01*
X129445472Y-139560678D01*
X129361890Y-139503569D01*
X129307847Y-139492625D01*
X129434838Y-139186799D01*
X129435162Y-138814833D01*
X129293117Y-138471057D01*
X129030327Y-138207808D01*
X128686799Y-138065162D01*
X128314833Y-138064838D01*
X128161359Y-138128252D01*
X128077401Y-138002599D01*
X127435122Y-137360320D01*
X127435162Y-137314833D01*
X127293117Y-136971057D01*
X127030327Y-136707808D01*
X126686799Y-136565162D01*
X126314833Y-136564838D01*
X125971057Y-136706883D01*
X125707808Y-136969673D01*
X125565162Y-137313201D01*
X125564838Y-137685167D01*
X125706883Y-138028943D01*
X125927709Y-138250155D01*
X125707808Y-138469673D01*
X125602914Y-138722284D01*
X125115001Y-139210197D01*
X125115001Y-137605001D01*
X125057149Y-137314162D01*
X124892402Y-137067600D01*
X124793805Y-136969003D01*
X124801441Y-136964090D01*
X124946431Y-136751890D01*
X124997440Y-136500000D01*
X124997440Y-134608418D01*
X135315360Y-134608418D01*
X135315360Y-135713622D01*
X135481683Y-136549785D01*
X135955332Y-137258650D01*
X136664197Y-137732299D01*
X137500360Y-137898622D01*
X138336523Y-137732299D01*
X138708586Y-137483694D01*
X145220406Y-137483694D01*
X145468718Y-138084655D01*
X145928107Y-138544846D01*
X146528633Y-138794206D01*
X147178874Y-138794774D01*
X147779835Y-138546462D01*
X148240026Y-138087073D01*
X148489386Y-137486547D01*
X148489388Y-137483694D01*
X152840406Y-137483694D01*
X153088718Y-138084655D01*
X153548107Y-138544846D01*
X154148633Y-138794206D01*
X154798874Y-138794774D01*
X155399835Y-138546462D01*
X155860026Y-138087073D01*
X156109386Y-137486547D01*
X156109388Y-137483694D01*
X156650406Y-137483694D01*
X156898718Y-138084655D01*
X157358107Y-138544846D01*
X157958633Y-138794206D01*
X158608874Y-138794774D01*
X159209835Y-138546462D01*
X159670026Y-138087073D01*
X159919386Y-137486547D01*
X159919388Y-137483694D01*
X160460406Y-137483694D01*
X160708718Y-138084655D01*
X161168107Y-138544846D01*
X161768633Y-138794206D01*
X162418874Y-138794774D01*
X163019835Y-138546462D01*
X163480026Y-138087073D01*
X163729386Y-137486547D01*
X163729388Y-137483694D01*
X164270406Y-137483694D01*
X164518718Y-138084655D01*
X164978107Y-138544846D01*
X165578633Y-138794206D01*
X166228874Y-138794774D01*
X166829835Y-138546462D01*
X167290026Y-138087073D01*
X167539386Y-137486547D01*
X167539388Y-137483694D01*
X168080406Y-137483694D01*
X168328718Y-138084655D01*
X168788107Y-138544846D01*
X169388633Y-138794206D01*
X170038874Y-138794774D01*
X170639835Y-138546462D01*
X171100026Y-138087073D01*
X171349386Y-137486547D01*
X171349388Y-137483694D01*
X171890406Y-137483694D01*
X172138718Y-138084655D01*
X172598107Y-138544846D01*
X173198633Y-138794206D01*
X173848874Y-138794774D01*
X174449835Y-138546462D01*
X174910026Y-138087073D01*
X175159386Y-137486547D01*
X175159388Y-137483694D01*
X179510406Y-137483694D01*
X179758718Y-138084655D01*
X180218107Y-138544846D01*
X180818633Y-138794206D01*
X181468874Y-138794774D01*
X182069835Y-138546462D01*
X182530026Y-138087073D01*
X182779386Y-137486547D01*
X182779954Y-136836306D01*
X182531642Y-136235345D01*
X182072253Y-135775154D01*
X181471727Y-135525794D01*
X180821486Y-135525226D01*
X180220525Y-135773538D01*
X179760334Y-136232927D01*
X179510974Y-136833453D01*
X179510406Y-137483694D01*
X175159388Y-137483694D01*
X175159954Y-136836306D01*
X174911642Y-136235345D01*
X174452253Y-135775154D01*
X173851727Y-135525794D01*
X173201486Y-135525226D01*
X172600525Y-135773538D01*
X172140334Y-136232927D01*
X171890974Y-136833453D01*
X171890406Y-137483694D01*
X171349388Y-137483694D01*
X171349954Y-136836306D01*
X171101642Y-136235345D01*
X170642253Y-135775154D01*
X170041727Y-135525794D01*
X169391486Y-135525226D01*
X168790525Y-135773538D01*
X168330334Y-136232927D01*
X168080974Y-136833453D01*
X168080406Y-137483694D01*
X167539388Y-137483694D01*
X167539954Y-136836306D01*
X167291642Y-136235345D01*
X166832253Y-135775154D01*
X166231727Y-135525794D01*
X165581486Y-135525226D01*
X164980525Y-135773538D01*
X164520334Y-136232927D01*
X164270974Y-136833453D01*
X164270406Y-137483694D01*
X163729388Y-137483694D01*
X163729954Y-136836306D01*
X163481642Y-136235345D01*
X163022253Y-135775154D01*
X162421727Y-135525794D01*
X161771486Y-135525226D01*
X161170525Y-135773538D01*
X160710334Y-136232927D01*
X160460974Y-136833453D01*
X160460406Y-137483694D01*
X159919388Y-137483694D01*
X159919954Y-136836306D01*
X159671642Y-136235345D01*
X159212253Y-135775154D01*
X158611727Y-135525794D01*
X157961486Y-135525226D01*
X157360525Y-135773538D01*
X156900334Y-136232927D01*
X156650974Y-136833453D01*
X156650406Y-137483694D01*
X156109388Y-137483694D01*
X156109954Y-136836306D01*
X155861642Y-136235345D01*
X155402253Y-135775154D01*
X154801727Y-135525794D01*
X154151486Y-135525226D01*
X153550525Y-135773538D01*
X153090334Y-136232927D01*
X152840974Y-136833453D01*
X152840406Y-137483694D01*
X148489388Y-137483694D01*
X148489954Y-136836306D01*
X148241642Y-136235345D01*
X147782253Y-135775154D01*
X147181727Y-135525794D01*
X146531486Y-135525226D01*
X145930525Y-135773538D01*
X145470334Y-136232927D01*
X145220974Y-136833453D01*
X145220406Y-137483694D01*
X138708586Y-137483694D01*
X139045388Y-137258650D01*
X139519037Y-136549785D01*
X139685360Y-135713622D01*
X139685360Y-134608418D01*
X139519037Y-133772255D01*
X139045388Y-133063390D01*
X138336523Y-132589741D01*
X137500360Y-132423418D01*
X136664197Y-132589741D01*
X135955332Y-133063390D01*
X135481683Y-133772255D01*
X135315360Y-134608418D01*
X124997440Y-134608418D01*
X124997440Y-134500000D01*
X124953162Y-134264683D01*
X124814090Y-134048559D01*
X124601890Y-133903569D01*
X124350000Y-133852560D01*
X122650000Y-133852560D01*
X122414683Y-133896838D01*
X122198559Y-134035910D01*
X122053569Y-134248110D01*
X122002560Y-134500000D01*
X122002560Y-136500000D01*
X122046838Y-136735317D01*
X122185910Y-136951441D01*
X122398110Y-137096431D01*
X122650000Y-137147440D01*
X122869080Y-137147440D01*
X122962599Y-137287401D01*
X123261905Y-137586707D01*
X122971057Y-137706883D01*
X122707808Y-137969673D01*
X122565162Y-138313201D01*
X122565121Y-138360077D01*
X122337598Y-138587600D01*
X122172851Y-138834162D01*
X122114999Y-139125001D01*
X122114999Y-148394999D01*
X122172851Y-148685838D01*
X122337598Y-148932400D01*
X122803213Y-149398015D01*
X122782560Y-149500000D01*
X122782560Y-149740000D01*
X121314802Y-149740000D01*
X120935122Y-149360320D01*
X120935162Y-149314833D01*
X120793117Y-148971057D01*
X120530327Y-148707808D01*
X120186799Y-148565162D01*
X119814833Y-148564838D01*
X119471057Y-148706883D01*
X119207808Y-148969673D01*
X119159885Y-149085083D01*
X116760000Y-146685198D01*
X116760000Y-130062463D01*
X116792192Y-130030327D01*
X116934838Y-129686799D01*
X116935162Y-129314833D01*
X116793117Y-128971057D01*
X116530327Y-128707808D01*
X116186799Y-128565162D01*
X115814833Y-128564838D01*
X115471057Y-128706883D01*
X115207808Y-128969673D01*
X115065162Y-129313201D01*
X115064838Y-129685167D01*
X115206883Y-130028943D01*
X115240000Y-130062118D01*
X115240000Y-147000000D01*
X115297852Y-147290839D01*
X115462599Y-147537401D01*
X121165198Y-153240000D01*
X110725000Y-153240000D01*
X110434161Y-153297852D01*
X110187599Y-153462599D01*
X107277638Y-156372560D01*
X105705000Y-156372560D01*
X105469683Y-156416838D01*
X105253559Y-156555910D01*
X105108569Y-156768110D01*
X105057560Y-157020000D01*
X105057560Y-162433000D01*
X104392440Y-162433000D01*
X104392440Y-157020000D01*
X104348162Y-156784683D01*
X104209090Y-156568559D01*
X103996890Y-156423569D01*
X103745000Y-156372560D01*
X101745000Y-156372560D01*
X101509683Y-156416838D01*
X101293559Y-156555910D01*
X101148569Y-156768110D01*
X101097560Y-157020000D01*
X101097560Y-162433000D01*
X93472000Y-162433000D01*
X93472000Y-150622973D01*
X100501085Y-150562938D01*
X100546159Y-150554258D01*
X100588553Y-150526978D01*
X100616994Y-150485353D01*
X100627000Y-150435943D01*
X100627000Y-131935943D01*
X100617916Y-131888775D01*
X100590275Y-131846615D01*
X100548409Y-131818531D01*
X100498915Y-131808948D01*
X93472000Y-131868965D01*
X93472000Y-126492000D01*
X94648332Y-126492000D01*
X94604959Y-126519910D01*
X94604959Y-126519910D01*
G37*
X94604959Y-126519910D02*
X94459969Y-126732110D01*
X94408960Y-126984000D01*
X94408960Y-129016000D01*
X94453238Y-129251317D01*
X94592310Y-129467441D01*
X94804510Y-129612431D01*
X95056400Y-129663440D01*
X96783600Y-129663440D01*
X97018917Y-129619162D01*
X97235041Y-129480090D01*
X97380031Y-129267890D01*
X97388400Y-129226561D01*
X97400330Y-129244415D01*
X97886511Y-129569271D01*
X98460000Y-129683345D01*
X99033489Y-129569271D01*
X99519670Y-129244415D01*
X99730000Y-128929634D01*
X99940330Y-129244415D01*
X100426511Y-129569271D01*
X101000000Y-129683345D01*
X101573489Y-129569271D01*
X102059670Y-129244415D01*
X102270000Y-128929634D01*
X102480330Y-129244415D01*
X102780000Y-129444648D01*
X102780000Y-145540000D01*
X102837852Y-145830839D01*
X103002599Y-146077401D01*
X104564878Y-147639680D01*
X104564838Y-147685167D01*
X104706883Y-148028943D01*
X104969673Y-148292192D01*
X105313201Y-148434838D01*
X105685167Y-148435162D01*
X106028943Y-148293117D01*
X106292192Y-148030327D01*
X106434838Y-147686799D01*
X106435162Y-147314833D01*
X106293117Y-146971057D01*
X106030327Y-146707808D01*
X105686799Y-146565162D01*
X105639923Y-146565121D01*
X104300000Y-145225198D01*
X104300000Y-129444648D01*
X104599670Y-129244415D01*
X104810000Y-128929634D01*
X105020330Y-129244415D01*
X105506511Y-129569271D01*
X106080000Y-129683345D01*
X106653489Y-129569271D01*
X107139670Y-129244415D01*
X107464526Y-128758234D01*
X107578600Y-128184745D01*
X107578600Y-127815255D01*
X107464526Y-127241766D01*
X107139670Y-126755585D01*
X106745187Y-126492000D01*
X203708000Y-126492000D01*
X203708000Y-162433000D01*
X195472440Y-162433000D01*
X195472440Y-161323490D01*
X195797483Y-160837029D01*
X195960000Y-160020000D01*
X195797483Y-159202971D01*
X195472440Y-158716510D01*
X195472440Y-157020000D01*
X195428162Y-156784683D01*
X195289090Y-156568559D01*
X195195000Y-156504270D01*
X195195000Y-156360000D01*
X195090715Y-155835724D01*
X195040118Y-155760000D01*
X194793737Y-155391264D01*
X194008736Y-154606264D01*
X193564277Y-154309285D01*
X193040000Y-154205000D01*
X189446263Y-154205000D01*
X189554762Y-153943705D01*
X189555237Y-153398686D01*
X189347107Y-152894971D01*
X188962056Y-152509248D01*
X188945000Y-152502166D01*
X188945000Y-148815000D01*
X188887148Y-148524161D01*
X188722401Y-148277599D01*
X188085000Y-147640198D01*
X188085000Y-143840080D01*
X188277760Y-143920122D01*
X188277760Y-147419060D01*
X188322038Y-147654377D01*
X188461110Y-147870501D01*
X188673310Y-148015491D01*
X188925200Y-148066500D01*
X192425320Y-148066500D01*
X192660637Y-148022222D01*
X192876761Y-147883150D01*
X193021751Y-147670950D01*
X193072760Y-147419060D01*
X193072760Y-143918940D01*
X193028482Y-143683623D01*
X192889410Y-143467499D01*
X192677210Y-143322509D01*
X192425320Y-143271500D01*
X189399667Y-143271500D01*
X189434838Y-143186799D01*
X189435162Y-142814833D01*
X189293117Y-142471057D01*
X189260000Y-142437882D01*
X189260000Y-138562463D01*
X189292192Y-138530327D01*
X189434838Y-138186799D01*
X189435162Y-137814833D01*
X189300842Y-137489753D01*
X189663837Y-137732299D01*
X190500000Y-137898622D01*
X191336163Y-137732299D01*
X192045028Y-137258650D01*
X192518677Y-136549785D01*
X192594885Y-136166661D01*
X194182758Y-136166661D01*
X194394990Y-136680303D01*
X194787630Y-137073629D01*
X195300900Y-137286757D01*
X195856661Y-137287242D01*
X196370303Y-137075010D01*
X196763629Y-136682370D01*
X196976757Y-136169100D01*
X196976759Y-136166661D01*
X199262758Y-136166661D01*
X199474990Y-136680303D01*
X199867630Y-137073629D01*
X200380900Y-137286757D01*
X200936661Y-137287242D01*
X201450303Y-137075010D01*
X201843629Y-136682370D01*
X202056757Y-136169100D01*
X202057242Y-135613339D01*
X201845010Y-135099697D01*
X201452370Y-134706371D01*
X200939100Y-134493243D01*
X200383339Y-134492758D01*
X199869697Y-134704990D01*
X199476371Y-135097630D01*
X199263243Y-135610900D01*
X199262758Y-136166661D01*
X196976759Y-136166661D01*
X196977242Y-135613339D01*
X196765010Y-135099697D01*
X196372370Y-134706371D01*
X195859100Y-134493243D01*
X195303339Y-134492758D01*
X194789697Y-134704990D01*
X194396371Y-135097630D01*
X194183243Y-135610900D01*
X194182758Y-136166661D01*
X192594885Y-136166661D01*
X192685000Y-135713622D01*
X192685000Y-134608418D01*
X192518677Y-133772255D01*
X192045028Y-133063390D01*
X191336163Y-132589741D01*
X190500000Y-132423418D01*
X189663837Y-132589741D01*
X188954972Y-133063390D01*
X188481323Y-133772255D01*
X188315000Y-134608418D01*
X188315000Y-135713622D01*
X188481323Y-136549785D01*
X188879020Y-137144979D01*
X188686799Y-137065162D01*
X188314833Y-137064838D01*
X188085000Y-137159803D01*
X188085000Y-133664802D01*
X192544680Y-129205122D01*
X192590167Y-129205162D01*
X192933943Y-129063117D01*
X193197192Y-128800327D01*
X193339838Y-128456799D01*
X193340162Y-128084833D01*
X193198117Y-127741057D01*
X192935327Y-127477808D01*
X192591799Y-127335162D01*
X192219833Y-127334838D01*
X191876057Y-127476883D01*
X191612808Y-127739673D01*
X191470162Y-128083201D01*
X191470121Y-128130077D01*
X186787599Y-132812599D01*
X186622852Y-133059161D01*
X186565000Y-133350000D01*
X186565000Y-137629367D01*
X186241799Y-137495162D01*
X185869833Y-137494838D01*
X185545000Y-137629056D01*
X185545000Y-137160000D01*
X185487148Y-136869161D01*
X185322401Y-136622599D01*
X180560122Y-131860320D01*
X180560162Y-131814833D01*
X180418117Y-131471057D01*
X180155327Y-131207808D01*
X179811799Y-131065162D01*
X179439833Y-131064838D01*
X179096057Y-131206883D01*
X178832808Y-131469673D01*
X178690162Y-131813201D01*
X178689838Y-132185167D01*
X178831883Y-132528943D01*
X179094673Y-132792192D01*
X179438201Y-132934838D01*
X179485077Y-132934879D01*
X184025000Y-137474802D01*
X184025000Y-150370000D01*
X180902463Y-150370000D01*
X180870327Y-150337808D01*
X180526799Y-150195162D01*
X180154833Y-150194838D01*
X179811057Y-150336883D01*
X179547808Y-150599673D01*
X179405162Y-150943201D01*
X179404838Y-151315167D01*
X179546883Y-151658943D01*
X179809673Y-151922192D01*
X180153201Y-152064838D01*
X180525167Y-152065162D01*
X180868943Y-151923117D01*
X180902118Y-151890000D01*
X185725000Y-151890000D01*
X185725000Y-152501683D01*
X185709971Y-152507893D01*
X185324248Y-152892944D01*
X185115238Y-153396295D01*
X185114763Y-153941314D01*
X185115000Y-153941888D01*
X185115000Y-155370000D01*
X185219285Y-155894277D01*
X185516264Y-156338736D01*
X185550088Y-156372560D01*
X184905000Y-156372560D01*
X184669683Y-156416838D01*
X184453559Y-156555910D01*
X184308569Y-156768110D01*
X184257560Y-157020000D01*
X184257560Y-159085093D01*
X183964833Y-159084838D01*
X183621057Y-159226883D01*
X183592440Y-159255450D01*
X183592440Y-157020000D01*
X183548162Y-156784683D01*
X183409090Y-156568559D01*
X183315000Y-156504270D01*
X183315000Y-156442472D01*
X184053736Y-155703736D01*
X184350715Y-155259277D01*
X184382429Y-155099838D01*
X184455000Y-154735000D01*
X184455000Y-153670622D01*
X184455237Y-153398686D01*
X184247107Y-152894971D01*
X183862056Y-152509248D01*
X183358705Y-152300238D01*
X182813686Y-152299763D01*
X182309971Y-152507893D01*
X182235207Y-152582527D01*
X182162056Y-152509248D01*
X181658705Y-152300238D01*
X181113686Y-152299763D01*
X180609971Y-152507893D01*
X180224248Y-152892944D01*
X180015238Y-153396295D01*
X180014763Y-153941314D01*
X180222893Y-154445029D01*
X180607944Y-154830752D01*
X180925304Y-154962531D01*
X180679285Y-155330724D01*
X180575000Y-155855000D01*
X180575000Y-156503504D01*
X180493559Y-156555910D01*
X180348569Y-156768110D01*
X180297560Y-157020000D01*
X180297560Y-162433000D01*
X179632440Y-162433000D01*
X179632440Y-157020000D01*
X179588162Y-156784683D01*
X179449090Y-156568559D01*
X179236890Y-156423569D01*
X178985000Y-156372560D01*
X176985000Y-156372560D01*
X176749683Y-156416838D01*
X176533559Y-156555910D01*
X176388569Y-156768110D01*
X176337560Y-157020000D01*
X176337560Y-162433000D01*
X175672440Y-162433000D01*
X175672440Y-157020000D01*
X175628162Y-156784683D01*
X175489090Y-156568559D01*
X175276890Y-156423569D01*
X175025000Y-156372560D01*
X173132236Y-156372560D01*
X173194838Y-156221799D01*
X173195162Y-155849833D01*
X173053117Y-155506057D01*
X172790327Y-155242808D01*
X172446799Y-155100162D01*
X172074833Y-155099838D01*
X171731057Y-155241883D01*
X171697882Y-155275000D01*
X156210000Y-155275000D01*
X155919161Y-155332852D01*
X155672599Y-155497599D01*
X154797638Y-156372560D01*
X153225000Y-156372560D01*
X152989683Y-156416838D01*
X152773559Y-156555910D01*
X152628569Y-156768110D01*
X152577560Y-157020000D01*
X152577560Y-162433000D01*
X151912440Y-162433000D01*
X151912440Y-157020000D01*
X151868162Y-156784683D01*
X151729090Y-156568559D01*
X151516890Y-156423569D01*
X151426337Y-156405231D01*
X151429838Y-156396799D01*
X151430162Y-156024833D01*
X151288117Y-155681057D01*
X151255000Y-155647882D01*
X151255000Y-145344802D01*
X153132599Y-147222401D01*
X153379160Y-147387148D01*
X153670000Y-147445000D01*
X163902537Y-147445000D01*
X163934673Y-147477192D01*
X164278201Y-147619838D01*
X164650167Y-147620162D01*
X164993943Y-147478117D01*
X165257192Y-147215327D01*
X165399838Y-146871799D01*
X165400162Y-146499833D01*
X165258117Y-146156057D01*
X164995327Y-145892808D01*
X164651799Y-145750162D01*
X164279833Y-145749838D01*
X163936057Y-145891883D01*
X163902882Y-145925000D01*
X153984802Y-145925000D01*
X151714146Y-143654344D01*
X152243633Y-143874206D01*
X152893874Y-143874774D01*
X153494835Y-143626462D01*
X153955026Y-143167073D01*
X154204386Y-142566547D01*
X154204388Y-142563694D01*
X154745406Y-142563694D01*
X154993718Y-143164655D01*
X155453107Y-143624846D01*
X156053633Y-143874206D01*
X156703874Y-143874774D01*
X157304835Y-143626462D01*
X157765026Y-143167073D01*
X158014386Y-142566547D01*
X158014388Y-142563694D01*
X158555406Y-142563694D01*
X158803718Y-143164655D01*
X159263107Y-143624846D01*
X159863633Y-143874206D01*
X160513874Y-143874774D01*
X161114835Y-143626462D01*
X161575026Y-143167073D01*
X161824386Y-142566547D01*
X161824388Y-142563694D01*
X162365406Y-142563694D01*
X162613718Y-143164655D01*
X163073107Y-143624846D01*
X163673633Y-143874206D01*
X164323874Y-143874774D01*
X164924835Y-143626462D01*
X165385026Y-143167073D01*
X165634386Y-142566547D01*
X165634388Y-142563694D01*
X166175406Y-142563694D01*
X166423718Y-143164655D01*
X166883107Y-143624846D01*
X167483633Y-143874206D01*
X168133874Y-143874774D01*
X168734835Y-143626462D01*
X169195026Y-143167073D01*
X169444386Y-142566547D01*
X169444388Y-142563694D01*
X169985406Y-142563694D01*
X170233718Y-143164655D01*
X170693107Y-143624846D01*
X171293633Y-143874206D01*
X171943874Y-143874774D01*
X172544835Y-143626462D01*
X173005026Y-143167073D01*
X173254386Y-142566547D01*
X173254388Y-142563694D01*
X173795406Y-142563694D01*
X174043718Y-143164655D01*
X174503107Y-143624846D01*
X175103633Y-143874206D01*
X175753874Y-143874774D01*
X176354835Y-143626462D01*
X176815026Y-143167073D01*
X177064386Y-142566547D01*
X177064388Y-142563694D01*
X177605406Y-142563694D01*
X177853718Y-143164655D01*
X178313107Y-143624846D01*
X178913633Y-143874206D01*
X179563874Y-143874774D01*
X180164835Y-143626462D01*
X180625026Y-143167073D01*
X180874386Y-142566547D01*
X180874954Y-141916306D01*
X180626642Y-141315345D01*
X180167253Y-140855154D01*
X179566727Y-140605794D01*
X178916486Y-140605226D01*
X178315525Y-140853538D01*
X177855334Y-141312927D01*
X177605974Y-141913453D01*
X177605406Y-142563694D01*
X177064388Y-142563694D01*
X177064954Y-141916306D01*
X176816642Y-141315345D01*
X176357253Y-140855154D01*
X175756727Y-140605794D01*
X175106486Y-140605226D01*
X174505525Y-140853538D01*
X174045334Y-141312927D01*
X173795974Y-141913453D01*
X173795406Y-142563694D01*
X173254388Y-142563694D01*
X173254954Y-141916306D01*
X173006642Y-141315345D01*
X172547253Y-140855154D01*
X171946727Y-140605794D01*
X171296486Y-140605226D01*
X170695525Y-140853538D01*
X170235334Y-141312927D01*
X169985974Y-141913453D01*
X169985406Y-142563694D01*
X169444388Y-142563694D01*
X169444954Y-141916306D01*
X169196642Y-141315345D01*
X168737253Y-140855154D01*
X168136727Y-140605794D01*
X167486486Y-140605226D01*
X166885525Y-140853538D01*
X166425334Y-141312927D01*
X166175974Y-141913453D01*
X166175406Y-142563694D01*
X165634388Y-142563694D01*
X165634954Y-141916306D01*
X165386642Y-141315345D01*
X164927253Y-140855154D01*
X164326727Y-140605794D01*
X163676486Y-140605226D01*
X163075525Y-140853538D01*
X162615334Y-141312927D01*
X162365974Y-141913453D01*
X162365406Y-142563694D01*
X161824388Y-142563694D01*
X161824954Y-141916306D01*
X161576642Y-141315345D01*
X161117253Y-140855154D01*
X160516727Y-140605794D01*
X159866486Y-140605226D01*
X159265525Y-140853538D01*
X158805334Y-141312927D01*
X158555974Y-141913453D01*
X158555406Y-142563694D01*
X158014388Y-142563694D01*
X158014954Y-141916306D01*
X157766642Y-141315345D01*
X157307253Y-140855154D01*
X156706727Y-140605794D01*
X156056486Y-140605226D01*
X155455525Y-140853538D01*
X154995334Y-141312927D01*
X154745974Y-141913453D01*
X154745406Y-142563694D01*
X154204388Y-142563694D01*
X154204954Y-141916306D01*
X153956642Y-141315345D01*
X153497253Y-140855154D01*
X152896727Y-140605794D01*
X152246486Y-140605226D01*
X151645525Y-140853538D01*
X151185334Y-141312927D01*
X150935974Y-141913453D01*
X150935406Y-142563694D01*
X151155032Y-143095230D01*
X150761890Y-142702088D01*
X150515328Y-142537341D01*
X150394433Y-142513293D01*
X150394954Y-141916306D01*
X150146642Y-141315345D01*
X149687253Y-140855154D01*
X149086727Y-140605794D01*
X148436486Y-140605226D01*
X147835525Y-140853538D01*
X147375334Y-141312927D01*
X147125974Y-141913453D01*
X147125406Y-142563694D01*
X147373718Y-143164655D01*
X147833107Y-143624846D01*
X148433633Y-143874206D01*
X149083874Y-143874774D01*
X149259906Y-143802039D01*
X149468830Y-143941637D01*
X149759669Y-143999489D01*
X149909687Y-143999489D01*
X149931539Y-144021341D01*
X149702808Y-144249673D01*
X149560162Y-144593201D01*
X149559838Y-144965167D01*
X149701883Y-145308943D01*
X149735000Y-145342118D01*
X149735000Y-155647537D01*
X149702808Y-155679673D01*
X149560162Y-156023201D01*
X149559973Y-156240171D01*
X148282401Y-154962599D01*
X148035839Y-154797852D01*
X147745000Y-154740000D01*
X143814802Y-154740000D01*
X143660019Y-154585217D01*
X143660019Y-147550019D01*
X143612913Y-147313201D01*
X143602167Y-147259179D01*
X143437420Y-147012618D01*
X138988496Y-142563694D01*
X143315406Y-142563694D01*
X143563718Y-143164655D01*
X144023107Y-143624846D01*
X144623633Y-143874206D01*
X145273874Y-143874774D01*
X145874835Y-143626462D01*
X146335026Y-143167073D01*
X146584386Y-142566547D01*
X146584954Y-141916306D01*
X146336642Y-141315345D01*
X145877253Y-140855154D01*
X145276727Y-140605794D01*
X144626486Y-140605226D01*
X144025525Y-140853538D01*
X143565334Y-141312927D01*
X143315974Y-141913453D01*
X143315406Y-142563694D01*
X138988496Y-142563694D01*
X138626787Y-142201985D01*
X138647440Y-142100000D01*
X138647440Y-140100000D01*
X138603162Y-139864683D01*
X138464090Y-139648559D01*
X138251890Y-139503569D01*
X138000000Y-139452560D01*
X137400000Y-139452560D01*
X137164683Y-139496838D01*
X137065472Y-139560678D01*
X136981890Y-139503569D01*
X136730000Y-139452560D01*
X136130000Y-139452560D01*
X135894683Y-139496838D01*
X135795472Y-139560678D01*
X135711890Y-139503569D01*
X135460000Y-139452560D01*
X134860000Y-139452560D01*
X134624683Y-139496838D01*
X134525472Y-139560678D01*
X134441890Y-139503569D01*
X134190000Y-139452560D01*
X133590000Y-139452560D01*
X133354683Y-139496838D01*
X133255472Y-139560678D01*
X133171890Y-139503569D01*
X132920000Y-139452560D01*
X132320000Y-139452560D01*
X132084683Y-139496838D01*
X131985472Y-139560678D01*
X131901890Y-139503569D01*
X131650000Y-139452560D01*
X131050000Y-139452560D01*
X130814683Y-139496838D01*
X130715472Y-139560678D01*
X130631890Y-139503569D01*
X130380000Y-139452560D01*
X129780000Y-139452560D01*
X129544683Y-139496838D01*
X129445472Y-139560678D01*
X129361890Y-139503569D01*
X129307847Y-139492625D01*
X129434838Y-139186799D01*
X129435162Y-138814833D01*
X129293117Y-138471057D01*
X129030327Y-138207808D01*
X128686799Y-138065162D01*
X128314833Y-138064838D01*
X128161359Y-138128252D01*
X128077401Y-138002599D01*
X127435122Y-137360320D01*
X127435162Y-137314833D01*
X127293117Y-136971057D01*
X127030327Y-136707808D01*
X126686799Y-136565162D01*
X126314833Y-136564838D01*
X125971057Y-136706883D01*
X125707808Y-136969673D01*
X125565162Y-137313201D01*
X125564838Y-137685167D01*
X125706883Y-138028943D01*
X125927709Y-138250155D01*
X125707808Y-138469673D01*
X125602914Y-138722284D01*
X125115001Y-139210197D01*
X125115001Y-137605001D01*
X125057149Y-137314162D01*
X124892402Y-137067600D01*
X124793805Y-136969003D01*
X124801441Y-136964090D01*
X124946431Y-136751890D01*
X124997440Y-136500000D01*
X124997440Y-134608418D01*
X135315360Y-134608418D01*
X135315360Y-135713622D01*
X135481683Y-136549785D01*
X135955332Y-137258650D01*
X136664197Y-137732299D01*
X137500360Y-137898622D01*
X138336523Y-137732299D01*
X138708586Y-137483694D01*
X145220406Y-137483694D01*
X145468718Y-138084655D01*
X145928107Y-138544846D01*
X146528633Y-138794206D01*
X147178874Y-138794774D01*
X147779835Y-138546462D01*
X148240026Y-138087073D01*
X148489386Y-137486547D01*
X148489388Y-137483694D01*
X152840406Y-137483694D01*
X153088718Y-138084655D01*
X153548107Y-138544846D01*
X154148633Y-138794206D01*
X154798874Y-138794774D01*
X155399835Y-138546462D01*
X155860026Y-138087073D01*
X156109386Y-137486547D01*
X156109388Y-137483694D01*
X156650406Y-137483694D01*
X156898718Y-138084655D01*
X157358107Y-138544846D01*
X157958633Y-138794206D01*
X158608874Y-138794774D01*
X159209835Y-138546462D01*
X159670026Y-138087073D01*
X159919386Y-137486547D01*
X159919388Y-137483694D01*
X160460406Y-137483694D01*
X160708718Y-138084655D01*
X161168107Y-138544846D01*
X161768633Y-138794206D01*
X162418874Y-138794774D01*
X163019835Y-138546462D01*
X163480026Y-138087073D01*
X163729386Y-137486547D01*
X163729388Y-137483694D01*
X164270406Y-137483694D01*
X164518718Y-138084655D01*
X164978107Y-138544846D01*
X165578633Y-138794206D01*
X166228874Y-138794774D01*
X166829835Y-138546462D01*
X167290026Y-138087073D01*
X167539386Y-137486547D01*
X167539388Y-137483694D01*
X168080406Y-137483694D01*
X168328718Y-138084655D01*
X168788107Y-138544846D01*
X169388633Y-138794206D01*
X170038874Y-138794774D01*
X170639835Y-138546462D01*
X171100026Y-138087073D01*
X171349386Y-137486547D01*
X171349388Y-137483694D01*
X171890406Y-137483694D01*
X172138718Y-138084655D01*
X172598107Y-138544846D01*
X173198633Y-138794206D01*
X173848874Y-138794774D01*
X174449835Y-138546462D01*
X174910026Y-138087073D01*
X175159386Y-137486547D01*
X175159388Y-137483694D01*
X179510406Y-137483694D01*
X179758718Y-138084655D01*
X180218107Y-138544846D01*
X180818633Y-138794206D01*
X181468874Y-138794774D01*
X182069835Y-138546462D01*
X182530026Y-138087073D01*
X182779386Y-137486547D01*
X182779954Y-136836306D01*
X182531642Y-136235345D01*
X182072253Y-135775154D01*
X181471727Y-135525794D01*
X180821486Y-135525226D01*
X180220525Y-135773538D01*
X179760334Y-136232927D01*
X179510974Y-136833453D01*
X179510406Y-137483694D01*
X175159388Y-137483694D01*
X175159954Y-136836306D01*
X174911642Y-136235345D01*
X174452253Y-135775154D01*
X173851727Y-135525794D01*
X173201486Y-135525226D01*
X172600525Y-135773538D01*
X172140334Y-136232927D01*
X171890974Y-136833453D01*
X171890406Y-137483694D01*
X171349388Y-137483694D01*
X171349954Y-136836306D01*
X171101642Y-136235345D01*
X170642253Y-135775154D01*
X170041727Y-135525794D01*
X169391486Y-135525226D01*
X168790525Y-135773538D01*
X168330334Y-136232927D01*
X168080974Y-136833453D01*
X168080406Y-137483694D01*
X167539388Y-137483694D01*
X167539954Y-136836306D01*
X167291642Y-136235345D01*
X166832253Y-135775154D01*
X166231727Y-135525794D01*
X165581486Y-135525226D01*
X164980525Y-135773538D01*
X164520334Y-136232927D01*
X164270974Y-136833453D01*
X164270406Y-137483694D01*
X163729388Y-137483694D01*
X163729954Y-136836306D01*
X163481642Y-136235345D01*
X163022253Y-135775154D01*
X162421727Y-135525794D01*
X161771486Y-135525226D01*
X161170525Y-135773538D01*
X160710334Y-136232927D01*
X160460974Y-136833453D01*
X160460406Y-137483694D01*
X159919388Y-137483694D01*
X159919954Y-136836306D01*
X159671642Y-136235345D01*
X159212253Y-135775154D01*
X158611727Y-135525794D01*
X157961486Y-135525226D01*
X157360525Y-135773538D01*
X156900334Y-136232927D01*
X156650974Y-136833453D01*
X156650406Y-137483694D01*
X156109388Y-137483694D01*
X156109954Y-136836306D01*
X155861642Y-136235345D01*
X155402253Y-135775154D01*
X154801727Y-135525794D01*
X154151486Y-135525226D01*
X153550525Y-135773538D01*
X153090334Y-136232927D01*
X152840974Y-136833453D01*
X152840406Y-137483694D01*
X148489388Y-137483694D01*
X148489954Y-136836306D01*
X148241642Y-136235345D01*
X147782253Y-135775154D01*
X147181727Y-135525794D01*
X146531486Y-135525226D01*
X145930525Y-135773538D01*
X145470334Y-136232927D01*
X145220974Y-136833453D01*
X145220406Y-137483694D01*
X138708586Y-137483694D01*
X139045388Y-137258650D01*
X139519037Y-136549785D01*
X139685360Y-135713622D01*
X139685360Y-134608418D01*
X139519037Y-133772255D01*
X139045388Y-133063390D01*
X138336523Y-132589741D01*
X137500360Y-132423418D01*
X136664197Y-132589741D01*
X135955332Y-133063390D01*
X135481683Y-133772255D01*
X135315360Y-134608418D01*
X124997440Y-134608418D01*
X124997440Y-134500000D01*
X124953162Y-134264683D01*
X124814090Y-134048559D01*
X124601890Y-133903569D01*
X124350000Y-133852560D01*
X122650000Y-133852560D01*
X122414683Y-133896838D01*
X122198559Y-134035910D01*
X122053569Y-134248110D01*
X122002560Y-134500000D01*
X122002560Y-136500000D01*
X122046838Y-136735317D01*
X122185910Y-136951441D01*
X122398110Y-137096431D01*
X122650000Y-137147440D01*
X122869080Y-137147440D01*
X122962599Y-137287401D01*
X123261905Y-137586707D01*
X122971057Y-137706883D01*
X122707808Y-137969673D01*
X122565162Y-138313201D01*
X122565121Y-138360077D01*
X122337598Y-138587600D01*
X122172851Y-138834162D01*
X122114999Y-139125001D01*
X122114999Y-148394999D01*
X122172851Y-148685838D01*
X122337598Y-148932400D01*
X122803213Y-149398015D01*
X122782560Y-149500000D01*
X122782560Y-149740000D01*
X121314802Y-149740000D01*
X120935122Y-149360320D01*
X120935162Y-149314833D01*
X120793117Y-148971057D01*
X120530327Y-148707808D01*
X120186799Y-148565162D01*
X119814833Y-148564838D01*
X119471057Y-148706883D01*
X119207808Y-148969673D01*
X119159885Y-149085083D01*
X116760000Y-146685198D01*
X116760000Y-130062463D01*
X116792192Y-130030327D01*
X116934838Y-129686799D01*
X116935162Y-129314833D01*
X116793117Y-128971057D01*
X116530327Y-128707808D01*
X116186799Y-128565162D01*
X115814833Y-128564838D01*
X115471057Y-128706883D01*
X115207808Y-128969673D01*
X115065162Y-129313201D01*
X115064838Y-129685167D01*
X115206883Y-130028943D01*
X115240000Y-130062118D01*
X115240000Y-147000000D01*
X115297852Y-147290839D01*
X115462599Y-147537401D01*
X121165198Y-153240000D01*
X110725000Y-153240000D01*
X110434161Y-153297852D01*
X110187599Y-153462599D01*
X107277638Y-156372560D01*
X105705000Y-156372560D01*
X105469683Y-156416838D01*
X105253559Y-156555910D01*
X105108569Y-156768110D01*
X105057560Y-157020000D01*
X105057560Y-162433000D01*
X104392440Y-162433000D01*
X104392440Y-157020000D01*
X104348162Y-156784683D01*
X104209090Y-156568559D01*
X103996890Y-156423569D01*
X103745000Y-156372560D01*
X101745000Y-156372560D01*
X101509683Y-156416838D01*
X101293559Y-156555910D01*
X101148569Y-156768110D01*
X101097560Y-157020000D01*
X101097560Y-162433000D01*
X93472000Y-162433000D01*
X93472000Y-150622973D01*
X100501085Y-150562938D01*
X100546159Y-150554258D01*
X100588553Y-150526978D01*
X100616994Y-150485353D01*
X100627000Y-150435943D01*
X100627000Y-131935943D01*
X100617916Y-131888775D01*
X100590275Y-131846615D01*
X100548409Y-131818531D01*
X100498915Y-131808948D01*
X93472000Y-131868965D01*
X93472000Y-126492000D01*
X94648332Y-126492000D01*
X94604959Y-126519910D01*
M02*
