G04 #@! TF.FileFunction,Soldermask,Top*
%FSLAX46Y46*%
G04 Gerber Fmt 4.6, Leading zero omitted, Abs format (unit mm)*
G04 Created by KiCad (PCBNEW 4.0.6) date Saturday, 22 July 2017 'PMt' 21:55:12*
%MOMM*%
%LPD*%
G01*
G04 APERTURE LIST*
%ADD10C,0.100000*%
%ADD11R,2.400000X6.400000*%
%ADD12R,2.000000X2.400000*%
%ADD13C,2.400000*%
%ADD14R,3.900120X3.900120*%
%ADD15C,1.870000*%
%ADD16C,2.398980*%
%ADD17O,3.500000X4.500000*%
%ADD18R,2.100000X2.400000*%
%ADD19R,2.400000X2.100000*%
%ADD20C,1.924000*%
%ADD21C,4.210000*%
%ADD22R,1.924000X1.924000*%
G04 APERTURE END LIST*
D10*
D11*
X146305000Y-160020000D03*
X138385000Y-160020000D03*
X134425000Y-160020000D03*
X130465000Y-160020000D03*
X126505000Y-160020000D03*
X122545000Y-160020000D03*
X118585000Y-160020000D03*
X142345000Y-160020000D03*
X114625000Y-160020000D03*
X106705000Y-160020000D03*
X102745000Y-160020000D03*
X98785000Y-160020000D03*
X110665000Y-160020000D03*
X170065000Y-160020000D03*
X166105000Y-160020000D03*
X158185000Y-160020000D03*
X174025000Y-160020000D03*
X162145000Y-160020000D03*
X150265000Y-160020000D03*
X154225000Y-160020000D03*
X193825000Y-160020000D03*
X189865000Y-160020000D03*
X181945000Y-160020000D03*
X185905000Y-160020000D03*
X177985000Y-160020000D03*
X197785000Y-160020000D03*
X94825000Y-160020000D03*
X201745000Y-160020000D03*
D12*
X158750000Y-153130000D03*
X158750000Y-149130000D03*
X155575000Y-153130000D03*
X155575000Y-149130000D03*
X146050000Y-153130000D03*
X146050000Y-149130000D03*
D13*
X139065000Y-148535000D03*
X139065000Y-153035000D03*
X132565000Y-148535000D03*
X132565000Y-153035000D03*
D14*
X190675260Y-145669000D03*
X196674740Y-145669000D03*
X193675000Y-140970000D03*
D15*
X184785000Y-153670000D03*
X183085000Y-153670000D03*
X186485000Y-153670000D03*
X188185000Y-153670000D03*
X181385000Y-153670000D03*
D16*
X144950180Y-142240000D03*
X146855180Y-137160000D03*
X148760180Y-142240000D03*
X150665180Y-137160000D03*
X152570180Y-142240000D03*
X154475180Y-137160000D03*
X156380180Y-142240000D03*
X158285180Y-137160000D03*
X160190180Y-142240000D03*
X162095180Y-137160000D03*
X164000180Y-142240000D03*
X165905180Y-137160000D03*
X167810180Y-142240000D03*
X169715180Y-137160000D03*
X171620180Y-142240000D03*
X173525180Y-137160000D03*
X175430180Y-142240000D03*
X177335180Y-137160000D03*
X179240180Y-142240000D03*
X181145180Y-137160000D03*
X183050180Y-142240000D03*
D17*
X137500360Y-135161020D03*
X190500000Y-135161020D03*
D18*
X174625000Y-149035000D03*
X174625000Y-153035000D03*
X161925000Y-149035000D03*
X161925000Y-153035000D03*
X152400000Y-149130000D03*
X152400000Y-153130000D03*
X142875000Y-149130000D03*
X142875000Y-153130000D03*
X166370000Y-149130000D03*
X166370000Y-153130000D03*
X170815000Y-149130000D03*
X170815000Y-153130000D03*
D19*
X202025000Y-128270000D03*
X198025000Y-128270000D03*
D20*
X198120000Y-135890000D03*
X195580000Y-135890000D03*
X200660000Y-135890000D03*
D19*
X202025000Y-131445000D03*
X198025000Y-131445000D03*
D18*
X177800000Y-153035000D03*
X177800000Y-149035000D03*
D21*
X96393000Y-130937000D03*
X129667000Y-130937000D03*
D22*
X103505000Y-129540000D03*
D20*
X106172000Y-129540000D03*
X108966000Y-129540000D03*
X111633000Y-129540000D03*
X114427000Y-129540000D03*
X117221000Y-129540000D03*
X119888000Y-129540000D03*
X122682000Y-129540000D03*
X104775000Y-132334000D03*
X107569000Y-132334000D03*
X110363000Y-132334000D03*
X113030000Y-132334000D03*
X115824000Y-132334000D03*
X118491000Y-132334000D03*
X121285000Y-132334000D03*
D21*
X96393000Y-141859000D03*
X129667000Y-141859000D03*
D22*
X103505000Y-140462000D03*
D20*
X106172000Y-140462000D03*
X108966000Y-140462000D03*
X111633000Y-140462000D03*
X114427000Y-140462000D03*
X117221000Y-140462000D03*
X119888000Y-140462000D03*
X122682000Y-140462000D03*
X104775000Y-143256000D03*
X107569000Y-143256000D03*
X110363000Y-143256000D03*
X113030000Y-143256000D03*
X115824000Y-143256000D03*
X118491000Y-143256000D03*
X121285000Y-143256000D03*
M02*
