G04 #@! TF.FileFunction,Soldermask,Bot*
%FSLAX46Y46*%
G04 Gerber Fmt 4.6, Leading zero omitted, Abs format (unit mm)*
G04 Created by KiCad (PCBNEW 4.0.6) date Sunday, 07 January 2018 'AMt' 11:42:42*
%MOMM*%
%LPD*%
G01*
G04 APERTURE LIST*
%ADD10C,0.100000*%
%ADD11R,2.400000X6.400000*%
%ADD12R,3.900120X3.900120*%
%ADD13C,1.870000*%
%ADD14C,2.398980*%
%ADD15O,3.500000X4.500000*%
%ADD16C,1.924000*%
%ADD17R,2.127200X2.432000*%
%ADD18O,2.127200X2.432000*%
%ADD19R,2.100000X2.400000*%
%ADD20R,1.000000X2.400000*%
G04 APERTURE END LIST*
D10*
D11*
X142345000Y-160020000D03*
X146305000Y-160020000D03*
X138385000Y-160020000D03*
X134425000Y-160020000D03*
X130465000Y-160020000D03*
X150265000Y-160020000D03*
X114625000Y-160020000D03*
X126505000Y-160020000D03*
X122545000Y-160020000D03*
X118585000Y-160020000D03*
X110665000Y-160020000D03*
X162145000Y-160020000D03*
X170065000Y-160020000D03*
X166105000Y-160020000D03*
X174025000Y-160020000D03*
X158185000Y-160020000D03*
X154225000Y-160020000D03*
X177985000Y-160020000D03*
X197785000Y-160020000D03*
X185905000Y-160020000D03*
X193825000Y-160020000D03*
X189865000Y-160020000D03*
X181945000Y-160020000D03*
X201745000Y-160020000D03*
X98785000Y-160020000D03*
X106705000Y-160020000D03*
X102745000Y-160020000D03*
X94825000Y-160020000D03*
D12*
X190675260Y-145669000D03*
X196674740Y-145669000D03*
X193675000Y-140970000D03*
D13*
X184785000Y-153670000D03*
X183085000Y-153670000D03*
X186485000Y-153670000D03*
X188185000Y-153670000D03*
X181385000Y-153670000D03*
D14*
X144950180Y-142240000D03*
X146855180Y-137160000D03*
X148760180Y-142240000D03*
X150665180Y-137160000D03*
X152570180Y-142240000D03*
X154475180Y-137160000D03*
X156380180Y-142240000D03*
X158285180Y-137160000D03*
X160190180Y-142240000D03*
X162095180Y-137160000D03*
X164000180Y-142240000D03*
X165905180Y-137160000D03*
X167810180Y-142240000D03*
X169715180Y-137160000D03*
X171620180Y-142240000D03*
X173525180Y-137160000D03*
X175430180Y-142240000D03*
X177335180Y-137160000D03*
X179240180Y-142240000D03*
X181145180Y-137160000D03*
X183050180Y-142240000D03*
D15*
X137500360Y-135161020D03*
X190500000Y-135161020D03*
D16*
X198120000Y-135890000D03*
X195580000Y-135890000D03*
X200660000Y-135890000D03*
D17*
X95920000Y-128000000D03*
D18*
X98460000Y-128000000D03*
X101000000Y-128000000D03*
X103540000Y-128000000D03*
X106080000Y-128000000D03*
X108620000Y-128000000D03*
D19*
X123500000Y-135500000D03*
X123500000Y-131500000D03*
D20*
X123730000Y-141100000D03*
X125000000Y-141100000D03*
X126270000Y-141100000D03*
X127540000Y-141100000D03*
X128810000Y-141100000D03*
X130080000Y-141100000D03*
X131350000Y-141100000D03*
X132620000Y-141100000D03*
X133890000Y-141100000D03*
X135160000Y-141100000D03*
X136430000Y-141100000D03*
X137700000Y-141100000D03*
X137700000Y-150500000D03*
X136430000Y-150500000D03*
X135160000Y-150500000D03*
X133890000Y-150500000D03*
X132620000Y-150500000D03*
X131350000Y-150500000D03*
X130080000Y-150500000D03*
X128810000Y-150500000D03*
X127540000Y-150500000D03*
X126270000Y-150500000D03*
X125000000Y-150500000D03*
X123730000Y-150500000D03*
M02*
