G04 #@! TF.FileFunction,Soldermask,Top*
%FSLAX46Y46*%
G04 Gerber Fmt 4.6, Leading zero omitted, Abs format (unit mm)*
G04 Created by KiCad (PCBNEW 4.0.6) date Wednesday, 03 January 2018 'PMt' 19:42:02*
%MOMM*%
%LPD*%
G01*
G04 APERTURE LIST*
%ADD10C,0.100000*%
%ADD11R,2.400000X6.400000*%
%ADD12R,2.000000X2.400000*%
%ADD13R,3.900120X3.900120*%
%ADD14C,1.870000*%
%ADD15C,2.398980*%
%ADD16O,3.500000X4.500000*%
%ADD17R,2.100000X2.400000*%
%ADD18R,2.400000X2.100000*%
%ADD19C,1.924000*%
%ADD20R,2.127200X2.432000*%
%ADD21O,2.127200X2.432000*%
%ADD22O,2.900000X1.300000*%
%ADD23O,1.300000X2.900000*%
%ADD24R,6.400000X6.400000*%
%ADD25R,2.300000X1.200000*%
%ADD26R,1.200000X2.300000*%
%ADD27R,1.900000X1.000000*%
G04 APERTURE END LIST*
D10*
D11*
X146305000Y-160020000D03*
X138385000Y-160020000D03*
X134425000Y-160020000D03*
X130465000Y-160020000D03*
X126505000Y-160020000D03*
X122545000Y-160020000D03*
X118585000Y-160020000D03*
X142345000Y-160020000D03*
X114625000Y-160020000D03*
X106705000Y-160020000D03*
X102745000Y-160020000D03*
X98785000Y-160020000D03*
X110665000Y-160020000D03*
X170065000Y-160020000D03*
X166105000Y-160020000D03*
X158185000Y-160020000D03*
X174025000Y-160020000D03*
X162145000Y-160020000D03*
X150265000Y-160020000D03*
X154225000Y-160020000D03*
X193825000Y-160020000D03*
X189865000Y-160020000D03*
X181945000Y-160020000D03*
X185905000Y-160020000D03*
X177985000Y-160020000D03*
X197785000Y-160020000D03*
X94825000Y-160020000D03*
X201745000Y-160020000D03*
D12*
X158750000Y-153130000D03*
X158750000Y-149130000D03*
X155575000Y-153130000D03*
X155575000Y-149130000D03*
X148844000Y-153130000D03*
X148844000Y-149130000D03*
D13*
X190675260Y-145669000D03*
X196674740Y-145669000D03*
X193675000Y-140970000D03*
D14*
X184785000Y-153670000D03*
X183085000Y-153670000D03*
X186485000Y-153670000D03*
X188185000Y-153670000D03*
X181385000Y-153670000D03*
D15*
X144950180Y-142240000D03*
X146855180Y-137160000D03*
X148760180Y-142240000D03*
X150665180Y-137160000D03*
X152570180Y-142240000D03*
X154475180Y-137160000D03*
X156380180Y-142240000D03*
X158285180Y-137160000D03*
X160190180Y-142240000D03*
X162095180Y-137160000D03*
X164000180Y-142240000D03*
X165905180Y-137160000D03*
X167810180Y-142240000D03*
X169715180Y-137160000D03*
X171620180Y-142240000D03*
X173525180Y-137160000D03*
X175430180Y-142240000D03*
X177335180Y-137160000D03*
X179240180Y-142240000D03*
X181145180Y-137160000D03*
X183050180Y-142240000D03*
D16*
X137500360Y-135161020D03*
X190500000Y-135161020D03*
D17*
X174625000Y-149035000D03*
X174625000Y-153035000D03*
X161925000Y-149035000D03*
X161925000Y-153035000D03*
X152400000Y-149130000D03*
X152400000Y-153130000D03*
X145796000Y-149130000D03*
X145796000Y-153130000D03*
X166370000Y-149130000D03*
X166370000Y-153130000D03*
X170815000Y-149130000D03*
X170815000Y-153130000D03*
D18*
X202025000Y-128270000D03*
X198025000Y-128270000D03*
D19*
X198120000Y-135890000D03*
X195580000Y-135890000D03*
X200660000Y-135890000D03*
D18*
X202025000Y-131445000D03*
X198025000Y-131445000D03*
D17*
X177800000Y-153035000D03*
X177800000Y-149035000D03*
D20*
X131080000Y-128000000D03*
D21*
X128540000Y-128000000D03*
X126000000Y-128000000D03*
X123460000Y-128000000D03*
X120920000Y-128000000D03*
X118380000Y-128000000D03*
D22*
X112800000Y-127800000D03*
X112800000Y-129070000D03*
X112800000Y-130340000D03*
X112800000Y-131610000D03*
X112800000Y-132880000D03*
X112800000Y-134150000D03*
X112800000Y-135420000D03*
X112800000Y-136690000D03*
X112800000Y-137960000D03*
X112800000Y-139230000D03*
X112800000Y-140500000D03*
X112800000Y-141770000D03*
X112800000Y-143040000D03*
X112800000Y-144310000D03*
D23*
X109515000Y-145800000D03*
X108245000Y-145800000D03*
X106975000Y-145800000D03*
X105705000Y-145800000D03*
X104435000Y-145800000D03*
X103165000Y-145800000D03*
X101895000Y-145800000D03*
X100625000Y-145800000D03*
X99355000Y-145800000D03*
X98085000Y-145800000D03*
D22*
X94800000Y-144310000D03*
X94800000Y-143040000D03*
X94800000Y-141770000D03*
X94800000Y-140500000D03*
X94800000Y-139230000D03*
X94800000Y-137960000D03*
X94800000Y-136690000D03*
X94800000Y-135420000D03*
X94800000Y-134150000D03*
X94800000Y-132880000D03*
X94800000Y-131610000D03*
X94800000Y-130340000D03*
X94800000Y-129070000D03*
X94800000Y-127800000D03*
D24*
X103500000Y-135500000D03*
D25*
X139250000Y-145300000D03*
X139250000Y-147200000D03*
X142250000Y-146250000D03*
D26*
X143200000Y-151000000D03*
X141300000Y-151000000D03*
X142250000Y-154000000D03*
X135400000Y-151000000D03*
X133500000Y-151000000D03*
X134450000Y-154000000D03*
X127450000Y-151000000D03*
X125550000Y-151000000D03*
X126500000Y-154000000D03*
X119450000Y-151000000D03*
X117550000Y-151000000D03*
X118500000Y-154000000D03*
X111450000Y-151000000D03*
X109550000Y-151000000D03*
X110500000Y-154000000D03*
X139200000Y-151000000D03*
X137300000Y-151000000D03*
X138250000Y-154000000D03*
X131450000Y-151000000D03*
X129550000Y-151000000D03*
X130500000Y-154000000D03*
X123400000Y-151000000D03*
X121500000Y-151000000D03*
X122450000Y-154000000D03*
X115450000Y-151000000D03*
X113550000Y-151000000D03*
X114500000Y-154000000D03*
X107450000Y-151000000D03*
X105550000Y-151000000D03*
X106500000Y-154000000D03*
D17*
X136500000Y-147250000D03*
X136500000Y-143250000D03*
X133500000Y-147250000D03*
X133500000Y-143250000D03*
X130500000Y-147250000D03*
X130500000Y-143250000D03*
X127250000Y-147250000D03*
X127250000Y-143250000D03*
X124250000Y-147250000D03*
X124250000Y-143250000D03*
X121250000Y-147250000D03*
X121250000Y-143250000D03*
X118250000Y-147250000D03*
X118250000Y-143250000D03*
X94750000Y-150250000D03*
X94750000Y-154250000D03*
X97500000Y-150250000D03*
X97500000Y-154250000D03*
X100250000Y-150250000D03*
X100250000Y-154250000D03*
X103000000Y-150250000D03*
X103000000Y-154250000D03*
D27*
X133200000Y-139945000D03*
X133200000Y-138675000D03*
X133200000Y-137405000D03*
X133200000Y-136135000D03*
X133200000Y-134865000D03*
X133200000Y-133595000D03*
X133200000Y-132325000D03*
X133200000Y-131055000D03*
X127800000Y-131055000D03*
X127800000Y-132325000D03*
X127800000Y-133595000D03*
X127800000Y-134865000D03*
X127800000Y-136135000D03*
X127800000Y-137405000D03*
X127800000Y-138675000D03*
X127800000Y-139945000D03*
X123200000Y-139945000D03*
X123200000Y-138675000D03*
X123200000Y-137405000D03*
X123200000Y-136135000D03*
X123200000Y-134865000D03*
X123200000Y-133595000D03*
X123200000Y-132325000D03*
X123200000Y-131055000D03*
X117800000Y-131055000D03*
X117800000Y-132325000D03*
X117800000Y-133595000D03*
X117800000Y-134865000D03*
X117800000Y-136135000D03*
X117800000Y-137405000D03*
X117800000Y-138675000D03*
X117800000Y-139945000D03*
M02*
