M48
;DRILL file {KiCad 4.0.6} date Wednesday, 03 January 2018 'PMt' 19:42:07
;FORMAT={-:-/ absolute / inch / decimal}
FMAT,2
INCH,TZ
T1C0.016
T2C0.032
T3C0.039
T4C0.040
T5C0.042
T6C0.047
%
G90
G05
M72
T1
X3.8091Y-6.1516
X3.8189Y-5.7677
X3.8287Y-5.0886
X3.8287Y-5.6299
X3.8386Y-5.9941
X3.8583Y-5.5709
X3.8996Y-5.0315
X3.9272Y-5.374
X3.9469Y-5.9941
X3.9961Y-5.0689
X4.0551Y-5.9941
X4.2323Y-5.3543
X4.27Y-5.1217
X4.2713Y-5.1578
X4.2717Y-5.0886
X4.2913Y-5.3051
X4.5374Y-5.5659
X4.5571Y-5.187
X4.5669Y-5.4134
X4.6457Y-5.561
X4.6949Y-5.1575
X4.6949Y-5.4134
X4.749Y-5.2756
X4.7539Y-5.1969
X4.7835Y-5.3248
X4.9213Y-5.4035
X4.9409Y-5.3445
X4.9606Y-5.4626
X5.0984Y-5.4035
X5.0984Y-5.499
X5.3051Y-5.4626
X5.3051Y-5.5118
X5.4331Y-5.0492
X5.5217Y-5.1378
X5.561Y-5.8563
X5.925Y-5.7
X5.925Y-6.15
X6.15Y-6.3
X6.475Y-5.775
X6.7Y-5.725
X6.7819Y-6.1431
X7.1Y-5.95
X7.25Y-6.3
X7.325Y-5.45
X7.325Y-5.875
X7.575Y-5.05
T2
X7.7Y-5.35
X7.8Y-5.35
X7.9Y-5.35
T4
X4.6606Y-5.0394
X4.7606Y-5.0394
X4.8606Y-5.0394
X4.9606Y-5.0394
X5.0606Y-5.0394
X5.1606Y-5.0394
T5
X7.1411Y-6.05
X7.2081Y-6.05
X7.275Y-6.05
X7.3419Y-6.05
X7.4089Y-6.05
T6
X5.7067Y-5.6
X5.7817Y-5.4
X5.8567Y-5.6
X5.9317Y-5.4
X6.0067Y-5.6
X6.0817Y-5.4
X6.1567Y-5.6
X6.2317Y-5.4
X6.3067Y-5.6
X6.3817Y-5.4
X6.4567Y-5.6
X6.5317Y-5.4
X6.6067Y-5.6
X6.6817Y-5.4
X6.7567Y-5.6
X6.8317Y-5.4
X6.9067Y-5.6
X6.9817Y-5.4
X7.0567Y-5.6
X7.1317Y-5.4
X7.2067Y-5.6
T3
X7.5069Y-5.7744G85X7.5069Y-5.6956
G05
X7.6643Y-5.55G85X7.5857Y-5.55
G05
X7.7431Y-5.7744G85X7.7431Y-5.6956
G05
T0
M30
